<?xml version="1.0" encoding="UTF-8"?><svg id="uuid-49eba830-3102-42b4-b1e4-49c90db6da3a" xmlns="http://www.w3.org/2000/svg" xmlns:xlink="http://www.w3.org/1999/xlink" viewBox="0 0 200.8 201.47"><defs><mask id="uuid-0a066afc-0d92-4b82-8111-d6f1853bc6ac" x=".36" y=".77" width="199.66" height="199.91" maskUnits="userSpaceOnUse"/><clipPath id="uuid-bf734200-b370-4967-a4bd-877e5baebe4e"><path d="M166.71,165.67c-19.59,19.64-44.45,34.04-70.22,34.95l-.93,.03c-4.66,.11-9.36-.21-14.02-.95-7.63-1.18-15.17-3.43-22.4-6.6-.03,0-.05-.02-.07-.03-2.12-.92-4.21-1.93-6.27-3-7.42-3.91-14.41-8.76-20.67-14.39-.46-.4-.92-.82-1.37-1.24-1.74-1.62-3.41-3.29-5.02-5.01C7.47,149.84-2.43,123.1,1.05,99.88c3.51-23.21,20.3-42.97,38.62-61.44C57.94,19.92,77.7,2.73,99.24,.93c21.55-1.8,44.84,11.85,64.48,30.36,19.59,18.48,35.51,41.78,36.27,65.88,.75,24.07-13.65,48.92-33.28,68.51" style="fill:none;"/></clipPath></defs><g id="uuid-56863127-462d-4c07-b156-30a0f28eb70b"><g><g style="mask:url(#uuid-0a066afc-0d92-4b82-8111-d6f1853bc6ac);"><path id="uuid-2d4e8720-2bdb-425f-809e-bd1b185fc315" d="M166.71,165.67c-19.59,19.64-44.45,34.04-70.22,34.95l-.93,.03c-4.66,.11-9.36-.21-14.02-.95-7.63-1.18-15.17-3.43-22.4-6.6-.03,0-.05-.02-.07-.03-2.12-.92-4.21-1.93-6.27-3-7.42-3.91-14.41-8.76-20.67-14.39-.46-.4-.92-.82-1.37-1.24-1.74-1.62-3.41-3.29-5.02-5.01C7.47,149.84-2.43,123.1,1.05,99.88c3.51-23.21,20.3-42.97,38.62-61.44C57.94,19.92,77.7,2.73,99.24,.93c21.55-1.8,44.84,11.85,64.48,30.36,19.59,18.48,35.51,41.78,36.27,65.88,.75,24.07-13.65,48.92-33.28,68.51" style="fill:#dce8ef; fill-rule:evenodd;"/></g><g style="clip-path:url(#uuid-bf734200-b370-4967-a4bd-877e5baebe4e);"><g><g><path d="M87.74,137.58c3.34-.31,6.6-.01,9.69,.78,1.99-10.09,10.15-18.08,20.54-19.02,.25-.03,.51-.04,.76-.05,2.33-15.85,15.49-27.99,31.38-27.99,12.16,0,22.72,7.11,28.05,17.55h.01c3.68-1.17,7.58-1.8,11.63-1.8,21.92,0,39.69,18.48,39.69,41.29,0,3.09-.32,6.1-.94,8.99h-78.27c-.06,0-.11,0-.17,0s-.11,0-.17,0H62.6c3.91-10.7,13.43-18.69,25.14-19.75h0Z" style="fill:#92c020;"/><g><rect x="18.52" y="160.26" width="318.5" height="52.53" style="fill:#9b8579;"/><rect x="40.09" y="148.47" width="277.89" height="18.18" style="fill:#999;"/><rect x="13.02" y="166.72" width="304.96" height="14.57" style="fill:#92c020;"/></g><g><rect x="142.22" y="79.29" width="3.5" height="5.25" style="fill:#f2f2f2;"/><rect x="142.22" y="84.47" width="64.15" height="64.63" style="fill:#f2f2f2;"/><rect x="142.22" y="106.24" width="64.15" height="1.68" style="fill:#38949c;"/><g><rect x="144.53" y="119.87" width="29.97" height="8.68" style="fill:#dbdbdb;"/><rect x="145.86" y="120.88" width="27.31" height="6.65" style="fill:#3ca2ab;"/><g><rect x="151.46" y="119.87" width="1.12" height="8.68" style="fill:#dbdbdb;"/><rect x="166.45" y="119.87" width="1.12" height="8.68" style="fill:#dbdbdb;"/></g></g><rect x="142.22" y="107.93" width="64.15" height="1.23" style="fill:#dbdbdb;"/><rect x="141.36" y="147.06" width="65.87" height="2.05" style="fill:#227482;"/><g><rect x="176.62" y="119.87" width="26.45" height="29.24" style="fill:#dbdbdb;"/><rect x="177.8" y="121.23" width="24.09" height="27.87" style="fill:#227482;"/><rect x="177.8" y="129.95" width="24.09" height=".91" style="fill:#18525c;"/><rect x="189.39" y="130.3" width=".91" height="18.81" style="fill:#18525c;"/><g><rect x="188.09" y="136.6" width=".38" height="7.18" style="fill:#dbdbdb;"/><rect x="191.21" y="136.6" width=".38" height="7.18" style="fill:#dbdbdb;"/></g><polygon points="177.8 121.23 201.89 121.23 201.89 148.03 177.8 123.84 177.8 121.23" style="fill-rule:evenodd; isolation:isolate; opacity:.3;"/></g></g></g><g><path d="M27.44,149.18c1.15-.1,2.27,0,3.33,.26,.68-3.33,3.49-5.97,7.05-6.28,.09,0,.17-.01,.26-.02,.8-5.23,5.32-9.24,10.78-9.24,4.17,0,7.8,2.35,9.63,5.79h0c1.26-.39,2.6-.59,3.99-.59,7.53,0,13.63,6.1,13.63,13.63,0,1.02-.11,2.01-.32,2.97h-26.87s-.04,0-.06,0-.04,0-.06,0H18.81c1.34-3.53,4.61-6.17,8.63-6.52h0Z" style="fill:#6e9018;"/><path d="M-32.52,144.43c1.72-.18,3.39,0,4.98,.44,1.02-5.79,5.21-10.37,10.54-10.91,.13-.01,.26-.02,.39-.03,1.2-9.09,7.95-16.05,16.11-16.05,6.24,0,11.66,4.08,14.4,10.07h0c1.89-.67,3.89-1.03,5.97-1.03,11.25,0,20.37,10.6,20.37,23.68,0,1.77-.17,3.5-.48,5.16H-.42s-.06,0-.09,0-.06,0-.09,0H-45.43c2.01-6.14,6.9-10.72,12.9-11.32Z" style="fill:#92c020;"/><g><polygon points="117.52 175.29 16.92 175.29 29.42 147.43 117.52 147.43 117.52 175.29" style="fill:#92c020;"/><polygon points="23.13 167.79 -56.98 167.79 -56.98 151.21 31.13 151.21 23.13 167.79" style="fill:#999;"/></g><path d="M137.23,148.67v.03c-1.9-1.83-4.76-2.99-7.95-2.99-1.69,0-3.29,.33-4.7,.91,.29-2.15-.35-4.15-1.81-5.06-1.46-.91-3.35-.53-4.92,.81-2.05-4.93-6.61-8.36-11.91-8.36-3.78,0-13.61,3.99-13.61,17.11h44.76" style="fill:#006639;"/><g><rect x="-13.85" y="127.17" width="26.73" height="24.41" style="fill:#f2f2f2;"/><g><g><g><rect x="-9.73" y="133.3" width="18.68" height="11.06" style="fill:#63849c;"/><path d="M8.95,133.3v11.06H-9.73v-11.06H8.95m1.18-1.1H-10.91v13.26H10.13v-13.26h0Z" style="fill:#6d6e71;"/></g><polygon points="3.96 133.3 -7.9 144.36 -9.73 144.36 -9.73 143.36 1.07 133.3 3.96 133.3" style="fill:#95b3c6;"/></g><g style="opacity:.22;"><rect x="-9.73" y="134.51" width="15.22" height="9.86" style="fill:#95b3c6;"/></g></g><rect x="-14.58" y="127.36" width="27.35" height="2.64" style="fill:#6d6e71;"/><rect x="-2.95" y="148.71" width="4.23" height="1.09" style="fill:#ccc;"/><polygon points="12.94 151.56 3.06 151.6 12.7 127.82 12.94 151.56" style="fill:#ccc; isolation:isolate; opacity:.6;"/><polygon points="12.89 127.56 -15.41 127.56 -14.21 123.21 12.96 123.21 12.89 127.56" style="fill:#999;"/></g><g><rect x="12.87" y="106.51" width="43.93" height="46.57" style="fill:#fff;"/><rect x="12.87" y="146.72" width="43.93" height="6.37" style="fill:#ccc;"/><rect x="11.86" y="107.83" width="45.95" height="2.64" style="fill:#6d6e71;"/><polygon points="59.37 108.55 10.31 108.55 10.79 107.12 12.96 100.65 15.75 92.36 53.93 92.36 54.87 95.16 58.89 107.12 59.37 108.55" style="fill:#999;"/><rect x="21.06" y="86.83" width="5.99" height="5.53" style="fill:#fff;"/><rect x="20.3" y="86.05" width="7.51" height="1.57" style="fill:#6d6e71;"/><g><g><rect x="18.32" y="133.36" width="9.25" height="17.51" style="fill:#4d4d4d;"/><path d="M27.57,133.36v17.51h-9.25v-17.51m10.18-.93h-11.11v19.37h11.11v-19.37h0Z" style="fill:#6d6e71;"/></g><rect x="18.32" y="133.81" width="8.8" height="17.06" style="fill:#6d6e71;"/><path d="M20.26,142.56c0,.3-.24,.54-.54,.54s-.54-.24-.54-.54,.24-.54,.54-.54,.54,.24,.54,.54Z" style="fill:#4d4d4d;"/><path d="M20.48,142.34c0,.3-.24,.54-.54,.54s-.54-.24-.54-.54,.24-.54,.54-.54,.54,.24,.54,.54Z" style="fill:#fff;"/><rect x="16.75" y="150.79" width="12.37" height="1.67" style="fill:#b3b3b3;"/><rect x="15.82" y="152.46" width="14.24" height="1.68" style="fill:#b3b3b3;"/></g><polygon points="41.81 153.08 30.06 153.08 30.06 154.14 22.53 154.14 23.01 153.08 23.29 152.46 32.41 132.32 41.81 153.08" style="fill:#ccc; isolation:isolate; opacity:.6;"/><rect x="32.41" y="134.57" width="22.12" height="19.57" style="fill:#fff;"/><rect x="50.73" y="113.76" width="4.23" height="1.09" style="fill:#ccc;"/><polygon points="55.76 135.31 30.79 135.31 31.8 132.32 54.75 132.32 55.31 133.99 55.76 135.31" style="fill:#999;"/><g><g><g><g><rect x="33.03" y="116.85" width="18.11" height="11.5" style="fill:#63849c;"/><path d="M51.14,116.85v11.5h-18.11v-11.5h18.11m.93-.93h-19.97v13.37h19.97v-13.37h0Z" style="fill:#6d6e71;"/></g><polygon points="42.12 116.85 33.03 125.94 33.03 121.11 37.3 116.85 42.12 116.85" style="fill:#95b3c6;"/><polygon points="45.59 116.85 34.1 128.35 33.03 128.35 33.03 127.12 43.31 116.85 45.59 116.85" style="fill:#95b3c6;"/></g><rect x="41.65" y="116.85" width=".93" height="11.5" style="fill:#6d6e71;"/></g><g style="opacity:.22;"><rect x="33.03" y="118.1" width="5.94" height="10.25" style="fill:#95b3c6;"/></g><g style="opacity:.22;"><rect x="42.58" y="118.1" width="5.94" height="10.25" style="fill:#95b3c6;"/></g></g><g><g><g><rect x="36.09" y="137.72" width="14.75" height="9.37" style="fill:#63849c;"/><path d="M50.85,137.72v9.37h-14.75v-9.37h14.75m.93-.93h-16.62v11.23h16.62v-11.23h0Z" style="fill:#6d6e71;"/></g><polygon points="43.43 137.72 36.09 145.06 36.09 140.23 38.61 137.72 43.43 137.72" style="fill:#95b3c6;"/><polygon points="46.9 137.72 37.54 147.09 36.09 147.09 36.09 146.24 44.62 137.72 46.9 137.72" style="fill:#95b3c6;"/></g><g style="opacity:.22;"><rect x="36.09" y="138.74" width="12.02" height="8.35" style="fill:#95b3c6;"/></g></g><g><g><g><rect x="18.53" y="116.85" width="8.81" height="11.5" style="fill:#63849c;"/><path d="M27.35,116.85v11.5h-8.81v-11.5h8.81m.93-.93h-10.67v13.37h10.67v-13.37h0Z" style="fill:#6d6e71;"/></g><polygon points="26.71 116.85 18.54 125.02 18.54 120.2 21.89 116.85 26.71 116.85" style="fill:#95b3c6;"/><polygon points="27.35 117.39 27.35 119.69 18.68 128.35 18.53 128.35 18.53 126.21 27.35 117.39" style="fill:#95b3c6;"/></g><g style="opacity:.22;"><rect x="18.53" y="118.1" width="5.94" height="10.25" style="fill:#95b3c6;"/></g></g><rect x="36.59" y="149.99" width="4.23" height="1.09" style="fill:#ccc;"/><rect x="38.7" y="151.27" width="4.23" height="1.09" style="fill:#ccc;"/></g><g><g><path d="M98.44,141.25c-.25,0-.31,0-.31-.14v-.34c0-.16,.11-.14,.31-.14h16.7c.09,0,.22-.03,.29,.05,.03,.04,.02,.09,.02,.15,0,.07,0,.14,0,.21,0,.05,0,.12-.04,.16-.07,.07-.21,.04-.28,.04h-16.7Z" style="fill:#ae6d36;"/><path d="M115.45,140.8s0-.08-.03-.11c-.07-.08-.2-.05-.29-.05h-16.7c-.19,0-.31-.02-.31,.14v.03h17.32Z" style="fill:#b1b1b1; isolation:isolate; opacity:.3;"/><path d="M115.24,140.46c0-.24,0-.3,.14-.3h.34c.16,0,.14,.11,.14,.3v7.78c0,.09,.03,.22-.05,.28-.04,.03-.09,.02-.15,.02-.07,0-.14,0-.21,0-.05,0-.12,0-.16-.04-.07-.07-.04-.2-.04-.27v-7.78h0Z" style="fill:#c58652;"/><path d="M97.7,140.46c0-.24,0-.3,.14-.3h.34c.16,0,.14,.11,.14,.3v7.78c0,.09,.03,.22-.05,.28-.04,.03-.09,.02-.15,.02-.07,0-.14,0-.21,0-.05,0-.12,0-.16-.04-.07-.07-.04-.2-.04-.27v-7.78Z" style="fill:#c58652;"/><path d="M98.32,141.25v7.14h16.94v-7.14h-16.94Zm1.72,6.23c0,.32-.09,.31-.19,.31h-.48c-.11,0-.19,.01-.19-.31v-5.32c0-.32,.09-.31,.19-.31h.48c.11,0,.19-.01,.19,.31v5.32Zm2.06,0c0,.32-.09,.31-.19,.31h-.48c-.11,0-.19,.01-.19-.31v-5.32c0-.32,.09-.31,.19-.31h.48c.11,0,.19-.01,.19,.31v5.32Zm2.06,0c0,.32-.09,.31-.19,.31h-.48c-.11,0-.19,.01-.19-.31v-5.32c0-.32,.09-.31,.19-.31h.48c.11,0,.19-.01,.19,.31v5.32Zm2.06,0c0,.32-.09,.31-.19,.31h-.48c-.11,0-.19,.01-.19-.31v-5.32c0-.32,.09-.31,.19-.31h.48c.11,0,.19-.01,.19,.31v5.32Zm2.06,0c0,.32-.09,.31-.19,.31h-.48c-.11,0-.19,.01-.19-.31v-5.32c0-.32,.09-.31,.19-.31h.48c.11,0,.19-.01,.19,.31v5.32Zm2.06,0c0,.32-.09,.31-.19,.31h-.48c-.11,0-.19,.01-.19-.31v-5.32c0-.32,.09-.31,.19-.31h.48c.11,0,.19-.01,.19,.31v5.32Zm2.06,0c0,.32-.09,.31-.19,.31h-.48c-.11,0-.19,.01-.19-.31v-5.32c0-.32,.09-.31,.19-.31h.48c.11,0,.19-.01,.19,.31v5.32Zm2.06,0c0,.32-.09,.31-.19,.31h-.48c-.11,0-.19,.01-.19-.31v-5.32c0-.32,.09-.31,.19-.31h.48c.11,0,.19-.01,.19,.31v5.32Z" style="fill:#c58652;"/><path d="M97.09,148.98c-.29,0-.36,0-.36-.14v-.34c0-.16,.13-.14,.36-.14h19.43c.11,0,.26-.03,.34,.05,.04,.04,.03,.09,.03,.15,0,.07,0,.14,0,.21,0,.05,0,.12-.05,.16-.08,.07-.25,.04-.33,.04h-19.43Z" style="fill:#ae6d36;"/><path d="M97.07,150.74c-.29,.01-.36,0-.36-.31v-.78c0-.37,.13-.32,.36-.31h19.43c.11,0,.26-.07,.34,.12,.04,.1,.03,.2,.03,.36,0,.17,.01,.32,0,.48,0,.11,0,.27-.05,.36-.08,.17-.25,.1-.33,.1h-19.43Z" style="fill:#ae6d36;"/><path d="M116.64,146.86c-.01-.24,0-.3,.22-.3h.54c.25,0,.22,.11,.22,.3v7.11c0,.06,0,.13-.01,.19-.03,.1-.12,.1-.27,.1-.15,0-.3,0-.45,0-.05,0-.1,0-.14,0-.14-.03-.1-.21-.1-.28v-7.11h0Z" style="fill:#c58652;"/><path d="M117.72,146.23c.24,0,.3,0,.29,.21v.52c0,.25-.11,.22-.29,.21h-1.21c-.06,0-.12,0-.19-.01-.1-.03-.1-.12-.1-.26,0-.14,0-.29,0-.43,0-.04,0-.1,0-.14,.03-.14,.21-.1,.28-.1h1.21Z" style="fill:#c58652;"/><path d="M96.04,146.86c-.01-.24,0-.3,.22-.3h.54c.25,0,.22,.11,.22,.3v7.11c0,.06,0,.13-.01,.19-.03,.1-.12,.1-.27,.1-.15,0-.3,0-.45,0-.05,0-.1,0-.14,0-.14-.03-.1-.21-.1-.28v-7.11h0Z" style="fill:#c58652;"/><path d="M97.12,146.23c.24,0,.3,0,.3,.21v.52c0,.25-.11,.22-.3,.21h-1.21c-.06,0-.12,0-.19-.01-.1-.03-.1-.12-.1-.26,0-.14,0-.29,0-.43,0-.04,0-.1,0-.14,.03-.14,.21-.1,.28-.1h1.21Z" style="fill:#c58652;"/><path d="M116.14,139.77c0,.33-.27,.59-.59,.59s-.59-.27-.59-.59,.27-.59,.59-.59,.59,.27,.59,.59Z" style="fill:#c58652;"/><path d="M98.6,139.77c0,.33-.27,.59-.59,.59s-.59-.27-.59-.59,.27-.59,.59-.59,.59,.27,.59,.59Z" style="fill:#c58652;"/></g><path d="M95.15,154.82c-.2-.12-.38-.7-.2-.86,.21-.18,.55,.05,.69,.22-.03-.23-.42-1.15-.06-1.19,.39-.05,.67,.82,.94,.99-.08-.25-.04-.8,.34-.68,.25,.08,.28,.42,.28,.65,0-.16,.11-.42,.31-.31,.24,.13,.15,.9,.16,1.04l-2.46,.14h0Z" style="fill:#bbc15d;"/><path d="M116.18,154.39c-.26-.15-.58-.57-.44-.89,.21-.27,.41,.08,.62,.32,0-.18-.07-.42,.16-.41,.13,0,.23,.16,.28,.26,0-.14,.03-.65,.26-.57,.16,.05,.15,.5,.16,.63,.18-.15,.43-.44,.56-.09,.06,.17,0,.53,0,.71l-1.59,.04h0Z" style="fill:#bbc15d;"/></g><g><path d="M75.67,101.03c7.47,0,13.52,6.06,13.52,13.52,0,7.47-6.05,13.52-13.52,13.52-7.47,0-13.52-6.05-13.52-13.52,0-7.47,6.05-13.52,13.52-13.52h0Z" style="fill:#6e9018; fill-rule:evenodd;"/><polygon points="74.8 106 72.9 150.4 75.95 150.4 74.8 106 74.8 106" style="fill:#7c402e; stroke:#7c402e; stroke-linecap:round; stroke-linejoin:round; stroke-width:.58px;"/><polygon points="85.72 115.26 74.27 124.82 74.93 126.63 85.72 115.26 85.72 115.26" style="fill:#7c402e; fill-rule:evenodd; stroke:#7c402e; stroke-linecap:round; stroke-linejoin:round; stroke-width:.2px;"/><polygon points="67.45 109.26 75.11 116.82 74.45 118.63 67.45 109.26 67.45 109.26" style="fill:#7c402e; fill-rule:evenodd; stroke:#7c402e; stroke-linecap:round; stroke-linejoin:round; stroke-width:.2px;"/></g><g><path d="M66.1,118.61c5.01,0,9.08,4.07,9.08,9.08,0,5.01-4.06,9.08-9.08,9.08-5.01,0-9.08-4.06-9.08-9.08,0-5.01,4.07-9.08,9.08-9.08h0Z" style="fill:#d9e021; fill-rule:evenodd;"/><polygon points="65.51 121.95 64.24 151.76 66.29 151.76 65.51 121.95 65.51 121.95" style="fill:#7c402e; stroke:#7c402e; stroke-linecap:round; stroke-linejoin:round; stroke-width:.39px;"/><polygon points="72.85 128.17 65.16 134.58 65.6 135.8 72.85 128.17 72.85 128.17" style="fill:#7c402e; fill-rule:evenodd; stroke:#7c402e; stroke-linecap:round; stroke-linejoin:round; stroke-width:.14px;"/><polygon points="60.57 124.14 65.72 129.21 65.28 130.43 60.57 124.14 60.57 124.14" style="fill:#7c402e; fill-rule:evenodd; stroke:#7c402e; stroke-linecap:round; stroke-linejoin:round; stroke-width:.14px;"/></g><g><path d="M88.26,111.28c6.16,0,11.16,5,11.15,11.16,0,6.16-4.99,11.15-11.15,11.15-6.16,0-11.16-4.99-11.15-11.15,0-6.16,4.99-11.15,11.15-11.16h0Z" style="fill:#a5cd39; fill-rule:evenodd;"/><polygon points="87.54 115.38 85.98 152.02 88.49 152.02 87.54 115.38 87.54 115.38" style="fill:#7c402e; stroke:#7c402e; stroke-linecap:round; stroke-linejoin:round; stroke-width:.48px;"/><polygon points="96.55 123.03 87.1 130.91 87.65 132.41 96.55 123.03 96.55 123.03" style="fill:#7c402e; fill-rule:evenodd; stroke:#7c402e; stroke-linecap:round; stroke-linejoin:round; stroke-width:.17px;"/><polygon points="81.47 118.08 87.8 124.31 87.26 125.81 81.47 118.08 81.47 118.08" style="fill:#7c402e; fill-rule:evenodd; stroke:#7c402e; stroke-linecap:round; stroke-linejoin:round; stroke-width:.17px;"/></g><g><path d="M109.4,156.26c.88,0-.39,.58,2.13,.58,1.7,0,3.56,.21,5.37,.21,1.19,0,1.76-.07,2.73,.62,.34,.24,.93-.22,.11,.4-1.15,.87,7.72,1.12,8.14,1.29,.03,.01,1.01,.23,1.21,.29-.06,.29-1.14,.02,.79,.76,1.58,.61-1.48,.83,2.04,1.78,.69,.19,1.79,.88,2.05,.84,.48-.08,.49-.27,1.11,.05,0,.51-.63,.74,1.12,.74,.56,0,.24,.21,.69,.15,.43-.05,.56,.17-.16,.32-1.61,.32,.92,.46,1.23,.49,.08,0,4.14,.16,2.91,.67-.21,.09-3.15,.35-1.48,.81,.95,.26-4.28,.48-1.9,1.45,1.33,.54-1.83,.49-2.26,1.01-.69,.8,1.61,.57,.3,1.29-1.13,.62,.19,1.21,.81,1.34,1.94,.41-1.49,1.13,2.27,.95,1.19-.06,.95,.89-1.38,.79-.47-.02-4.72,.94-4.77,1.21-.06,.29,1.21,.58-.78,1.16-.58,.17-5.07,.6-5.09,.67,0,.03,.63,.49-1.13,.46-1.64-.03-.62,.37-1.19,.65-.53,.26,1.3,.47-.81,.83-.54,.09-.5,.55,0,.64-.21,.9-1.52,.4-2.17,.42-.39,.02-4.29-.44-3.18,.58,1.01,.93-2.34,.68-2.75,.83-.45,.17-1.2-.3-.49,.56,.36,.44-1.23,.04-.25,.94,1.03,.94-6.53-.21-6.78-.21-.4,0-3.55-.26-3.14,.49,.58,1.08-2.95,.25-2.95,.57,0,1.58-2.72,1.68-3.81,2.3-.34,.19-5.91,1.88-6.16,1.52-.61-.88,.21-.37-.37-.79-.06-.04-1.91-.12-1.45-.31,.17-.73-5.7,.42-6.43,.1-.03-.01-3.7-.03-3.01-.48,.27-.17,2.7-.14-.41-1.62l-.3-.14c-1.23-.47-4.53,.02-6.14-.05-.63-.03-2.54,1.36-4.81,.9-.03,0-1.63-.17-.9-.42,.97-.34-2.71-1.48-4.08-.91-.68,.28-2.35,.16-2.96-.22-.82-.51-2.43,.18-3.52-.39-.65-.34-3.43-.07-4.56-.69-.16-.09-2.27-.2-1.51-.47,.11-.04,1.01,.15,.64-.24-.37-.4,3.19-.08,3.7-.29,.78-.32,2.18-.26-.09-.79-.85-.2-1.2,.07-2.24-.42-.81-.38-2-.18-2.86-.18-.67,.17-3.33-1.24-4.93-1.17-.29,.01-5.38-.57-4.33-1.41,.81-.65,4.09,.24,4.07-.71-.03-1.1,.08-1.12,1.28-1.42,.32-.08,1.2,.37,.96-.27-.23-.62,2.07-.26,.67-.83-1.13-.47-4.71,1.28-6.41-.22-.83-.73-2.71-.03-2.65-1.38,.04-.86-3-.47-3.51-.78-.88-.53-1.85-.28-1.99-.5-.5-.85,4.56-.61,3.43-1.43-.37-.27-.81-.3-.94-.46,.15-.25,1.74,.05,1.83-1.06,.05-.56,2.63-.8,1.01-1-.52-.06-3.49,.13-2.79-.8,.23-.3,1.23,.14,1.63-1.01,.28-.81,2.51-.38,2.82-1.26,2.96-.68,1.35-.76,1.47-1.12-.1-.84,.88-.26,1.71-.99,1.29-1.13,2.57,.04,4.44-.64,.04-.01,1.16-.33,1.17-.33,1.19-.16-1.35-.58-.15-.85,1.12-.25,1.67-.82,2.84-.58,1.2,.24,.47-.77,.86-.85,1.8-.36,1.68,.32,3.5-.79,.54-.33,3.12-.22,4.06-.34,.51-.06,2.06,0,2.49,.15,2.23,.82,11.92-1.19,14.71-1.42,1.44-.12,2.52-.05,3.92-.05,.92,.36,1.71-.5,3.17-.21,.31,.06,1.61,.12,1.64-.22,.01-.13,2.85,.11,3.45-.14,.6-.25,1.79-.08,2.33,.22,.04,.02,3.76,.46,4.1,.46,.72,0,6.95-.25,7.1-.07,.52,.61,3.46,.28,4.47,.28,.41,0,1.13,.16,1.5,.16h0Z" style="fill:#92c020; fill-rule:evenodd;"/><path d="M109.4,156.26c.88,0-.39,.58,2.13,.58,1.7,0,3.56,.21,5.37,.21,1.19,0,1.76-.07,2.73,.62,.34,.24,.93-.22,.11,.4-1.15,.87,7.72,1.12,8.14,1.29,.03,.01,1.01,.23,1.21,.29-.06,.29-1.14,.02,.79,.76,1.58,.61-1.48,.83,2.04,1.78,.69,.19,1.79,.88,2.05,.84,.48-.08,.49-.27,1.11,.05,0,.51-.63,.74,1.12,.74,.56,0,.24,.21,.69,.15,.43-.05,.56,.17-.16,.32-1.61,.32,.92,.46,1.23,.49,.08,0,4.14,.16,2.91,.67-.21,.09-3.15,.35-1.48,.81,.95,.26-4.28,.48-1.9,1.45,1.33,.54-1.83,.49-2.26,1.01-.69,.8,1.61,.57,.3,1.29-1.13,.62,.19,1.21,.81,1.34,1.94,.41-1.49,1.13,2.27,.95,1.19-.06,.95,.89-1.38,.79-.47-.02-4.72,.94-4.77,1.21-.06,.29,1.21,.58-.78,1.16-.58,.17-5.07,.6-5.09,.67,0,.03,.63,.49-1.13,.46-1.64-.03-.62,.37-1.19,.65-.53,.26,1.3,.47-.81,.83-.54,.09-.5,.55,0,.64-.21,.9-1.52,.4-2.17,.42-.39,.02-4.29-.44-3.18,.58,1.01,.93-2.34,.68-2.75,.83-.45,.17-1.2-.3-.49,.56,.36,.44-1.23,.04-.25,.94,1.03,.94-6.53-.21-6.78-.21-.4,0-3.55-.26-3.14,.49,.58,1.08-2.95,.25-2.95,.57,0,1.58-2.72,1.68-3.81,2.3-.34,.19-5.91,1.88-6.16,1.52-.61-.88,.21-.37-.37-.79-.06-.04-1.91-.12-1.45-.31,.17-.73-5.7,.42-6.43,.1-.03-.01-3.7-.03-3.01-.48,.27-.17,2.7-.14-.41-1.62l-.3-.14c-1.23-.47-4.53,.02-6.14-.05-.63-.03-2.54,1.36-4.81,.9-.03,0-1.63-.17-.9-.42,.97-.34-2.71-1.48-4.08-.91-.68,.28-2.35,.16-2.96-.22-.82-.51-2.43,.18-3.52-.39-.65-.34-3.43-.07-4.56-.69-.16-.09-2.27-.2-1.51-.47,.11-.04,1.01,.15,.64-.24-.37-.4,3.19-.08,3.7-.29,.78-.32,2.18-.26-.09-.79-.85-.2-1.2,.07-2.24-.42-.81-.38-2-.18-2.86-.18-.67,.17-3.33-1.24-4.93-1.17-.29,.01-5.38-.57-4.33-1.41,.81-.65,4.09,.24,4.07-.71-.03-1.1,.08-1.12,1.28-1.42,.32-.08,1.2,.37,.96-.27-.23-.62,2.07-.26,.67-.83-1.13-.47-4.71,1.28-6.41-.22-.83-.73-2.71-.03-2.65-1.38,.04-.86-3-.47-3.51-.78-.88-.53-1.85-.28-1.99-.5-.5-.85,4.56-.61,3.43-1.43-.37-.27-.81-.3-.94-.46,.15-.25,1.74,.05,1.83-1.06,.05-.56,2.63-.8,1.01-1-.52-.06-3.49,.13-2.79-.8,.23-.3,1.23,.14,1.63-1.01,.28-.81,2.51-.38,2.82-1.26,2.96-.68,1.35-.76,1.47-1.12-.1-.84,.88-.26,1.71-.99,1.29-1.13,2.57,.04,4.44-.64,.04-.01,1.16-.33,1.17-.33,1.19-.16-1.35-.58-.15-.85,1.12-.25,1.67-.82,2.84-.58h.04c.07,.27-.02,.56-.34,.85-.29,.26-6.05,1.64-6.94,1.87-1.4,.36-1.19-.03-1.71,1.04-.26,.53-2.65,1.7-3.32,2.13-.94,.61-1.63,.67-.31,1.29,1.12,.53-.36,1.66-.37,1.66-1.37,.37-1.29,1.78-.27,2.01-.7,0,1.28,.29,.64,.9-1.14,1.09,1.74,1.41,2.6,1.84,1.37,.69,.53,.46,2.05,.6,.93,.08,3.26-.43,3.83-.19,1.82,.75,.62,1.02,.53,1.58-.16,.94-1.68,1.25-.95,1.73,1.6,1.06,.06,.51-.9,.72-.36,.08-2.03-.02-1.5,.26,3.42,1.86,4.56,.56,7.65,1.28,1.16,.27,4.46,.66,5.09,1.5,.35,.47-2.71,.84-2.71,1.17,.68,.19,2.51,.16,3.19,.42,.75,.29,4.36,.72,5.07,.43,.56-.23,1.75,.14,2.28,.42,1.91,1.02,2.38,.39,3.97,.39,.29,.14,3.35-.21,4.13-.16,1.91,.12,3.87-.37,5.98-.37,.92,0,3.78,.4,4.3,1.03,.34,.41,1.4,.42,1.94,.33,.98-.16,6.26-.07,6.48,1.28,.29,1.75,4.54-.43,5.3-1.01,1.43-1.09,1.17-.62,2.37-1.2,.75-.36,3.14-.36,2.64-1.06-.75-1.05,2.88-.73,3.32-.61,1.71,.48,3.75,.27,5.17,.56,2.42,.49,1.9-.24,2.42-.82,1.02-1.13-.62-1.53-.03-1.95-.09,0-.09,.02-.15-.01,1.1-.48,4.17-.56,5.34-.42,3.66,.42,.8-.52,.64-.78-.72-1.19,3.54-.5,4.1-1.55,.44-.81,2.42-.67,3.31-.9,.87-.23,4.41-.5,4.7-1.36,.34-.98,2.37-.95,3.24-1.01,2.84-.21,.03-1.1,.05-1.64,.03-.79-.45-2.39,.23-2.89,.42-.31,1.2-1.41,.95-1.73-.43-.56,.02-1.24,.36-1.35,1-.31-1.5-.72-1.82-1.05-1.76-1.85-3.97-.87-4.68-3.04-.38-1.15-2.03-.45-2.52-1.27-.49-.81-1.09-.53-2.08-.53-1.36,0-4.78-.11-5.95-.6-2.06-.85-.84-1.26-3.03-1.41-1.76-.12-3.42-.22-5.19-.22-.58,0-3.04-.57-3.31-.86-.08-.09-.18-.17-.27-.24,.1,0,.2,0,.28,0,.41,0,1.13,.16,1.5,.16h0Z" style="fill:#92c020; fill-rule:evenodd;"/><path d="M80.29,157.45c-.68,0-2.31-.04-2.86,.17-.41,.16-10.4,.22-11.04,.08-.83-.19-2.72,.31-3.37,.18-.29-.06-2.4,.54-2.49,.85,.22,.34-1.58,.36-1.83,.43-.48,.14-4.15,.25-4.4,.08-.39-.28-1.38,.27-1.67,.58-.79,.83-1.86,.79-2.05,1.24-.37-.03,.12,.28,.15,.33,.55,1.06-.66,.83-1.2,.83-2.4,0-2.03,1.32-3.76,1.37-2.18,.07-1.36,.21-3.01,.71-.96,.29-2.23,2.03-2.09,2.06,.26,1.24,2.52,1.15,3.09,1.38,.85,.35,1.96,.08,2.43,.14,2.1,.29,.6,.74,.56,.78-.91,.96,.29,1.82-.35,1.77-1.03-.09-3.21,1.03-.32,1.38,1.21,.15,.99,.3,2.17,.7,1.77,.59,7.1,1.47,9.02,1.47,.68,0,1.45-.18,1.36,.53-.09,.01-.39,.03-.28,.12,1.01,.84,.35,.26-.67,.81-2.06,1.1,1.57,1.08,2.19,1.8,.7,.82,.17,1-.65,1.29-1.85,.64-.07,1.71,.32,1.69,2.05-.09-.86,1.05,2.17,1.43,1,.12,1.43,0,2.07,.06,.64,.05,1.7-1.19,2.79-.41,.48,.34,3.77-.67,3.23-1.43-.18-.25,.33-1.5,1.27-.84,.64,.45-1.62,.44,2.56,1.27,1.56,.31,3.89-.11,5.72,.26,1.49,.31,3.41,.16,4.55,.4,.17,.03,4.6-.4,4.77-.48,1.73-.86,3.23-.17,4.36-.6,1.04-.4,3.37-.45,3.8-.81,1.08-.92,1.04-.92,2.6-.69,.11,.09,.32,.03,.42-.01,1.24-.51,3.36-.33,4.56,.24,1.56,.74,3.16-.69,4.07-.76,1.33-.11,2.09-.86,2.71-.89,.55-.03,1.08-.59,1.19-.96,.1-.33,2.16-.1,2.18-.09,.7,.27,5-.52,4.12-1.5-1.05-1.17,.73-.57,1.27-.73,1.05-.31,1,1.01,1.39,1.05,2.61,.3,2.39-1.8,3.34-1.37,.17,.08,.36-1.03,.86-.39,.54,.68,.8,.61,1.47,.64,.52,.02,2.8-1.03,2.01-1.65-1.09-.85,.5-1.44-.02-.75-.41,.55,2.95,1.24,3.25,1.18,1.83-.37,1.85-.5,.72-1.63-.78-.78-.4-.71-1.26-1.27-.64-.42-1.49-.34-1.9-.51-1.2-.5-2.18-.4-.32-1.17,.71-.29,3.01-.54,3.85-.62,1.89-.18,2.24-.16,.76-1.33-.6-.47-2.83-1.23-2.68-1.54,.61-1.26-1.44-1.27-1.51-1.69-.12-.82-3.2-1.06-3.91-1.06-.21,0-1.82-.16-.97-.16,2.05,0-3.52-.85-3.53-.86-.8-.33-1.9,.11-2.05,0-.94-.67-1.77-.57-2.75-.57-3.35,0-.88-.72-.8-1.11,.24-1.16-3.31-1.22-4.03-1.22-.23,.09-2.37,.11-3.06,.6-.73,.52-2.37,.63-3.24,.95-.79,.29-1.59,.07-2.22,.09-2.39,.08-3.94-.46-6.15-.91-1.47-.3-5.35-2.16-6.3-1.83-1.89,.66-3.74,.23-5.5,.56-.34,.06-5.08,.33-5.08,.33h0Zm50.7,15.06c.25,.07,.96,.08,.96,.56-.06,.02-.38,.39-.99,.5-.43,.08-1.56,0-1.93-.26-.14-.1,.01-.68,.29-.77,.06-.02,.05-.05,.12-.04,.43,.06,1.15-.11,1.54,0h0Z" style="fill:#77a82b; fill-rule:evenodd;"/><path d="M94.11,159.62c-4.02,0-7.16-.58-11.22,.54-3.56,.98-6.88,1.5-10.6,1.24-4.28-.3-8.61-.62-12.87-.62-.32-.04-.74-.12-1.08-.17-2.98-.45-2.44,.25-4.55,1.23-.56,.26-.95,.52-1.42,.16l-.11-.06c-.9-.08-1.47,1.19-3.44,1.01-.13-.01-1.54,.99-2.49,.95-.62-.02-1.21,.16-1.69,.22-1.25,.15-2.45,.82-3.35,1.67-1.15,1.1,1.37,1.47,1.92,1.45,1.85-.08,1.25-.18,2.98,.34,1.17,.35,2.38,.41,1.03,1.55-1.42,1.2,.59,.96,.37,1.33-.04,.06-.33,.02-.71,.56-.27,.38,2.04,.52,2.05,.52,.38-.03,1.9,.48,1.91,.48,.45-.04,4.6,.93,5.14,1.15,1.1,.45,2.42,.49,3.34,.93,.56,.27,.77,.24,.95,.31,1.12,.46-.57,1.47-1.02,1.72-.42,.23,1.85,1.31,2.03,1.86,.26,.84,2.73,.63,3.18,.34,.96-.63,.74-.58,2.01-.81,.62-.16,2.93,.06,3.23-.07,1.13-.47,2.48-.4,3.34,.54,.17,.19-1.56,.75-.85,1.26,1.79,1.29,4.18,.51,5.04,.77,1.08,.32,5.35,.58,6.34,.11,.79-.38,1.29-.69,2.22-1.06,.03-.01,6.66-.83,7.16-.87,1.94-.14,2.69-.77,4.89-.94,1.83-.15,3.78-.5,5.57,.07,.1,.18,1.86,.52,2.2,.6,.42,.1,2.73-.37,2.81-.63,.19-.62,1.63-.6,1.96-.81,.4-.26,.58-.34,.55-.86-.03-.67,3.74-.43,4.24-.37,1.94,.24,.3-.31-.26-.29-.67,.02-1.16-.42-1.42-1.01-.19-.43-1.13-1-.26-1.32-.35,0,1.36-.16,1.38-.17,.63-.15,1.78-.06,2.4-.16,.65-.1,2.31,.07,2.94,.24,.1,.03,4.33-.27,4.39-.29,.71-.28,.52-.31,1.4-.42,.73-.09,.97,.02,1.75-.18,.45-.12,.53-.33,.75-.49,.64-.48,.83-.52,.33-1.12-.31-.37-1.46-.75-1.35-.83,.34-.23-.27-.7-.03-.9,.15-.13,2.92-1,3.21-1.03,1.04-.08,2.07-.21,3.03-.64,1.46-.66-1.75-1.64-2.17-1.8-.57-.21-1.22-.41-1.4-1.05l-.11-.12c-.09-.09-.69-.41-.84-.48-.18-.08-3.46-.19-3.78-.19-2.91,0-6.24-.86-8.72-.79-1.52,.04-11.51-1.1-13.4-1.48-1.17-.24-8.1-1.46-8.86-1.11h0Zm39.66,11.26c.1,.03,.49,.04,.74,.13,.29,.11,.68,.19,.68,.59,0,.19-.48,.46-.72,.45-.29,0-.4,.22-.63,.24-.2,.02-.23,.25-.91,.2-.46-.03-.71-.17-1.2-.12-.39,.04-2.42-.19-2.68-.35-.3-.18-.6-.71-.28-1.02,.15-.14,.6-.42,.53-.58-.03-.08-.84-.24-.64-.68,.17-.38,2.3-.31,2.64-.26,.79,.12,1.82,.22,2.18,1.02,.03,.07,.23,.34,.3,.36h0Zm-3.14,1.99c.13,.02,.9,.12,.52,.39-.17,.12-.67-.18-.98-.04-.63,.29-1.12-.45-.42-.43,.36,.01,.65,.05,.88,.08h0Zm-3.32-.66c.28,.13,1.95-.16,1.85,.6-.03,.22-.59,.23-.62,.62-.03,.33-1.3,.44-1.55,.37-.25-.07-.74,.08-1.03-.23-.34-.37-.24-.4-.7-.72-.15-.11-.06-.36,.2-.45,.4-.13,.74-.21,1.17-.27,.26-.04,.45-.04,.69,.07h0Zm-2.93,.58s1.09,.17,.8,.41c-.2,.16-.93,.18-1.17,.11-.27-.08-.81-.16-.33-.46,.1-.06,.62-.07,.7-.05h0Zm-1.51,1.01c.13,.09,1.01,.09,1.28,.18,.17,.06,.59,.21,.51,.46-.2,.6-1.63,.55-2.13,.51-.48-.03-1.71-.13-1.25-.9,.09-.16,.64-.32,.81-.34,.1-.01,.78-.07,.83,.03,.03-.02-.04,.06-.05,.06h0Zm-63.5,5.79c.9-.2,1.82-.29,2.69,.11,.45,.2,.32,.39,.03,.51,.72,0,1.46,.09,1.66,.09,.45,0,1.43,.12,1.41,.12,.24,.04,3.88,.92,2.59,1.48-.44,.19-1.65,.38-2.17,.44-1.17,.14-1.39-.29-2.41-.29-.89,0-2.13-.28-2.51-1.19-.11-.26,.03-.42,.29-.51-.2-.01-.35-.03-.66-.07-.27-.03-1.43-.22-1.07-.64,.03-.04,.11-.03,.15-.04h0Zm8.86-.24c.49,.06,1.18,.45,.75,.91-.32,.34-2.22-.02-2.68-.09-.8-.13-.26-.75,.08-.82,.34-.06,1.48-.04,1.85,0h0Z" style="fill:#5c8d2b; fill-rule:evenodd;"/><g><path d="M100.45,157.15c.89,.34,4.28-.31,4.34,.42,.06,.71,7.21,.29,8.15,.64l.27,.1c.43,.12,2.32,.69,.79,.95-.63,.11-.8,.27-1.67,.27-2.2,0-1.37,.65-.92,.64,.7-.03,4.03,.38,4.09,.36,.3-.1,3.02-.33,3.29,.12,.54,.91,2.12-.04,3.5,.68,1.05,.55,4-.12,6.68,1.3,.64,.34,3.33,.44,1.5,1.56-1.39,.84,4.19,.91,1.76,2.2-1.24,.66-4.38,1.37-5.9,1.8-2,.57-.01,1.49,.97,1.51,.18,0,2.05,.91,1.01,1.28-2.43,.84-3.47,.45-5.83,.68-2.15,.21-4.59,.1-6.82,.22-.66,.04-6.33-.31-2.31,1.09,1.18,.41-.39,1.23,2.78,1.23,1.03,0,3.62,.5,.98,1.1-.57,.13-3.42-.46-4.58-.46-.55,0-3.09,.12-2.52,1.05,.45,.74-2.21,.5-2.73,1.12-.84,.99-5.91,.15-6.92,.57-.49,.2-2.82,.19-3.42,.83-.53,.56-.88,.36-1.55,.3-1.71-.27-3.32,1.08-5.03,1.01-.01,0-3.03,.2-3.18,.22-.2,.02-3.45,.26-3.5,.26-1.84-.08-2.97-.1-4.82-.32-1.81-.22-3.06-.45-4.98-.37-.62,.03-1.93-.71,.25-.94,2.79-.29,.49-1.6-.61-1.65-.8-.03-2.39-.4-3.2-.26-.48,.09-1.52,.04-2.05,.04-1.36,0-1.62,.24-2.63,.32-1,.08-4.91,.68-5.34-.11-.3-.55-3.59-.23-.7-1.09,.22-.07,3.56-.3,2.46-1.21-.11-.09,1.85-.98-1.56-.82-1.49,.07-2.13-.02-3.57-.16-1.94-.19-6.6-.4-8.01-1.48-.99-.76-3.38-.32-2.96-1.01,.31-.51,3.68-.7,1.97-1.11-2.71-.64,.21-.39,.32-1.64,.04-.46,2.17-.48,1.49-.87-.63-.36-1.86,.45-3.56-.37-.43-.21-4.21,.26-4.75-.9-.03-.05,.06-.11,.1-.15,.11-.45,1.65-1.07,2.1-1.32,1.16-.64,2.24,.17,3.84-1.52,.65-.69,2.16,.7,3.37-.68,.74-.84,5.17-1.35,1-1.35-1.68,0,.99-.92,1.34-.95,.93-.07,1.68-.76,2.33-1.21,1.31-.89,4.57-.3,5.77-.79,.92-.38,3.5,0,4.26-.21,.11-.03,.13-.01,.25-.01,.27-.07,8.17-.71,8.49-.69,.73,.04,4.71-1.17,6.02-1.28,1.46-.11,2-.31,3.6-.15,.78,.08,4.05,.27,4.56-.1,.47-.33,4.06-.09,3.71,.37-.57,.77,4.89-.4,3.83,.5-.26,.22,2.77,.22,3.14,.3,.29,.06,1.04,.15,1.32,.15h0Z" style="fill:#329ad1; fill-rule:evenodd;"/><path d="M71.96,158.88c-2.01,3.28-7.01,5.17-10.69,5.63-1.87,.24-3.78,.34-5.65,.47-.47,.03-2.56,.43-2.56,.9,0,1.08-3.59,.05-4.51,.05-1.78,0-1.7,.65-2.55,1.16-.86-.1-4.08,.2-4.58-.86-.03-.05,.06-.11,.1-.15,.11-.45,1.65-1.07,2.1-1.32,1.16-.64,2.24,.17,3.84-1.52,.65-.69,2.16,.7,3.37-.68,.74-.84,5.17-1.35,1-1.35-1.68,0,.99-.92,1.34-.95,.93-.07,1.68-.76,2.33-1.21,1.31-.89,4.57-.3,5.77-.79,.92-.38,3.5,0,4.26-.21,.11-.03,.13-.01,.25-.01,.19-.05,4.2-.38,6.65-.57-.05,.5-.21,.99-.45,1.4h0Z" style="fill:#329ad1; fill-rule:evenodd;"/><path d="M79.38,166.54c-1.52,.59-6.47,.57-8.13,.18-.95-.23-1.71,.18-2.36,.23-1.1,.09-1.9,1.23-2.7,1.76-1.55,1.03-.91,3.26-3.82,2.9-1.83-.22-3.01,0-4.77,0-.88,0-2.66,.24-3.18,.21-1.24-.06-1.49,.63-1.97,1.31-.01,.01-.02,.03-.03,.04-1.48-.21-2.87-.53-3.53-1.04-.12-.09-.26-.17-.42-.23,.38-.07,.7-.17,.8-.46,.42-1.13,.39-.56,.98-1.09,.51-.46,2.17-.65,2.32-.72,.89-.4,5.91,.01,6.77-.46,1.65-.91,.08-1.46-.37-1.84-1.86-1.56,3.42-1.59,4.19-2.21,.68-.54,4.93-1.28,5.84-1.25,2.08,.07,4.55-.4,6.58-.53,1.55-.11,3.87-.47,5.28,.27,.13-.18,1.45-.44,1.91-.26-.01,.03,1.53,.6-.09,.9-3.56,.65-.2,1.09-3.3,2.3h0Z" style="fill:#329ad1; fill-rule:evenodd;"/><path d="M87.16,179.93c.15-.02,3.16-.22,3.18-.22,1.71,.07,3.32-1.28,5.03-1.01,.32,.03,.57,.09,.79,.09-.07-3.17-4.66-1.48-6.25-2.14-2.56-1.05,1.53-2.83,2.33-3.47,1.36-1.09,2.87-1.44,4.11-2.22,.75-.48,2.26-.89,3.13-1.1,1.65-.39,.41-1.06,1.55-1.39,.98-.28,4.52,.3,4.65-.78,.16-1.31,1.99-3.12,3.09-3.74,1.17-.66,4.44-1.97,6.32-3.46-.92-.09-3.13-.35-3.69-.32-.45,.02-1.28-.64,.92-.64,.87,0,1.04-.16,1.67-.27,1.53-.26-.36-.83-.79-.95l-.27-.1c-.48-.18-2.56-.16-4.5-.19-.51,.98-.85,1.01-2.12,1.97-2.25,1.7,.54,.66-.54,2.23-.71,1.04-3.99,1.28-3.19,2.17,.36,.4-.28,1.15-1.1,1.17-.74,.03-1.53,.32-2.47,.27-1.07-.06-2.83,.48-3.86,.79-3.1,.96,.4,1.76-2.17,3.09-1.4,.72-2.79,1.47-4.29,1.96-.59,.19-3.87,1.28-2.96,2.14,1.12,1.06-1.17,1.55-1.82,1.6-.79,.06-3.57,.7-4.29,1.08-1.46,.78-2.03,.78-2.12,2.84,0,.07,.04,.2,.12,.37,.38,.05,.78,.1,1.2,.15,1.84,.23,2.98,.24,4.82,.32,.05,0,3.29-.24,3.5-.26h0Zm-21.54-2.91c-1,.08-4.91,.68-5.34-.11-.3-.55-3.59-.23-.7-1.09,.22-.07,3.56-.3,2.46-1.21-.11-.09,1.85-.98-1.56-.82-1.49,.07-2.13-.02-3.57-.16-1.03-.1-2.81-.2-4.48-.44l.03-.04c.49-.69,.73-1.37,1.97-1.31,.51,.03,2.3-.21,3.18-.21,1.76,0,2.94-.22,4.77,0,2.91,.36,2.27-1.87,3.82-2.9,.79-.53,1.6-1.67,2.7-1.76,.65-.05,1.4-.46,2.36-.23,1.66,.39,6.61,.41,8.13-.18,3.09-1.21-.26-1.65,3.3-2.3,.55-.1,.74-.23,.74-.37,.15,.58,2.04,.61,2.58,.72,.47,.09,5.82,.44,4.03,1.92-.49,.41-4.03,.98-3.41,2.07,.19,.34,2.63,.53-.2,1.57-.77,.28-2.58-.31-4.03,.96-.71,.63-1.61,.97-1.92,1.96-.46,1.48-4.35,1.3-5.62,1.21-.88-.06-3.48,.09-4.22,.36-1.74,.64-3.2,.56-3.55,2.11-.49,.08-.83,.19-1.46,.24h0Z" style="fill:#329ad1; fill-rule:evenodd;"/></g><g><path d="M59.59,158.5c.68-.02,1.29-.07,1.68-.23,.92-.38,3.5,0,4.26-.21,.11-.03,.13-.01,.25-.01,.27-.07,8.17-.71,8.49-.69,.57,.03,3.13-.7,4.85-1.08,2.38,.19,7.3,.39,8.4,.39,3.78,0,1.46,1.46,4.14,1.74,2.65,.28,1.4,2.36,5.28,2.28,.43,0,4.19,.44,4.62,.62,.87,.36,1.63,.32,.74,1.59-.8,1.14-3.93,.88-5.08,2.33-1.58,1.99-3.95-.03-6.19,1.64-.86,.64-3.57,.44-4.49,.08-.68-.26-1.17,.57-3.3-.58-1.9-1.03-.77-1.5-4.06-1.87-.68-.08-5.21-.31-5.44,.02-.31,.43,2.59,1.35-.6,1.74-.74,.09-3.22,0-3.81-.26-.32-.13-2-.77-2.28-.8-1.53-.19-3.86,.37-5.76,.37-1.51,0-3.4,.05-4.78-.52-.41-.17-3.98-.38-4.71-.38-1.16,0-1.33-.58-.17-1.02,.97-.37,6.51-1.89,6.63-1.99,.37-.29,1.6-.57-.06-1.08-1-.3,.34-1.38,1.4-2.09h0Z" style="fill:#329ad1; fill-rule:evenodd;"/><path d="M71.96,158.88c-2.01,3.28-7.01,5.17-10.69,5.63-1.75,.22-3.53,.33-5.28,.45-1.12-.14-3.6-.29-4.2-.29-1.16,0-1.33-.58-.17-1.02,.97-.37,6.51-1.89,6.63-1.99,.37-.29,1.6-.57-.06-1.08-1-.3,.34-1.38,1.4-2.09,.68-.02,1.29-.07,1.68-.23,.92-.38,3.5,0,4.26-.21,.11-.03,.13-.01,.25-.01,.19-.05,4.2-.38,6.65-.57-.05,.5-.21,.99-.45,1.4h0Z" style="fill:#329ad1; fill-rule:evenodd;"/><path d="M61.67,165.56c.68-.13,1.27-.26,1.49-.43,.68-.54,4.93-1.28,5.84-1.25,2.08,.07,4.55-.4,6.58-.53,1.55-.11,3.87-.47,5.28,.27,.13-.18,1.45-.44,1.91-.26-.01,.03,1.53,.6-.09,.9-1.11,.2-1.55,.38-1.72,.58-.39-.12-.94-.22-1.79-.32-.68-.08-5.21-.31-5.44,.02-.31,.43,2.59,1.35-.6,1.74-.74,.09-3.22,0-3.81-.26-.32-.13-2-.77-2.28-.8-1.43-.18-3.55,.29-5.37,.36Z" style="fill:#329ad1; fill-rule:evenodd;"/><path d="M88.04,167.25c-.62-.06-1.18-.16-1.51-.29-.68-.26-1.17,.57-3.3-.58-1.41-.77-1.15-1.22-2.27-1.56,.17-.19,.61-.37,1.72-.58,.55-.1,.74-.23,.74-.37,.15,.58,2.04,.61,2.58,.72,.47,.09,5.82,.44,4.03,1.92-.23,.19-1.15,.42-1.98,.72h0Z" style="fill:#329ad1; fill-rule:evenodd;"/></g><g><path d="M113.28,160.3c1.08,.11,2.2,.24,2.24,.23,.3-.1,3.02-.33,3.29,.12,.54,.91,2.12-.04,3.5,.68,1.02,.53,3.82-.08,6.43,1.17-.68,.53-1.95,.98-1.96,.99-.83,.97,5.5,2.25,.42,3.34-2.2,.47-4.39-.18-6.26-1.31-1.45-.88-.64-1.16-2.29-.49-1.05,.43-2.22-.72-3.9-.72-.94,0-2.84,.44-3.8-.15-.17-.1-.95-.22-1.75-.41-1.31-.31-2.7-.79-1.58-1.67,1.02-.8,4.07-.34,5.26-1.41,.06-.06,.24-.21,.41-.36Z" style="fill:#329ad1; fill-rule:evenodd;"/><path d="M113.28,160.3c.69,.07,1.41,.15,1.84,.19-1.7,1.34-4.53,2.54-5.93,3.25h0c-1.31-.31-2.7-.79-1.58-1.67,1.02-.8,4.07-.34,5.26-1.41,.06-.06,.24-.21,.41-.36h0Z" style="fill:#329ad1; fill-rule:evenodd;"/></g><g><path d="M66.42,168.55c-.07,.06-.15,.11-.22,.16-1.08,.72-1.09,2.03-2,2.63-.4-.11-.84-.18-1.5-.26-1.07-.13-2.7-1.01-1-1.92,.74-.39,2.77-.57,4.72-.61h0Z" style="fill:#329ad1; fill-rule:evenodd;"/><path d="M80.97,172.26c-.61,.17-1.11,.4-1.34,1.07-.09,.26-.21,.49-.35,.7-1.38,.44-3.54,.34-4.42,.28-.88-.06-3.48,.09-4.22,.36-.15,.06-.3,.11-.44,.15-1.39-.76-2.25-1.89-4.11-2.72-.86-.39-1.32-.6-1.89-.76,.91-.6,.92-1.91,2-2.63,.07-.05,.15-.1,.22-.16,1.59-.03,3.12,.02,3.84,.11,1.28,.17,2.57,.78,3.66,.78,2.89,0,3-.32,5.56-1.26,3.22-1.18,5.1,.62,4.6,2.16-.57,.1-1.15,.31-1.69,.78-.47,.41-1.01,.7-1.42,1.13Z" style="fill:#329ad1; fill-rule:evenodd;"/></g><path d="M108.35,158.67c-.94,.41,0,2.14-2.06,2.14-.35,0-.61,0-.83,0-.54,0-.86,0-1.72-.11-2.44-.3-9.95-1.9-7.57-3.14,.35-.18,1.03-.41,1.78-.62,.56,.02,1.05,.04,1.19,.07,.29,.06,1.04,.15,1.32,.15,.89,.34,4.28-.31,4.34,.42,.03,.35,1.77,.42,3.65,.45,.4,0,.81,.01,1.21,.01-.46,.25-.92,.46-1.31,.63h0Z" style="fill:#329ad1; fill-rule:evenodd;"/><path d="M100.45,157.15c-.29,0-1.04-.09-1.32-.15-.37-.08-3.4-.08-3.14-.3,1.05-.9-4.41,.27-3.83-.5,.35-.47-3.25-.7-3.71-.37-.51,.36-3.79,.17-4.56,.1-1.6-.16-2.14,.04-3.6,.15-1.31,.1-5.29,1.32-6.02,1.28-.32-.02-8.22,.62-8.49,.69-.12,0-.14-.02-.25,.01-.75,.21-3.33-.17-4.26,.21-1.2,.5-4.46-.1-5.77,.79-.65,.44-1.4,1.13-2.33,1.21-.35,.03-3.02,.95-1.34,.95,4.17,0-.26,.5-1,1.35-1.21,1.38-2.72-.02-3.37,.68-1.6,1.69-2.68,.88-3.84,1.52-.46,.26-2,.88-2.1,1.32-.04,.03-.12,.09-.1,.15,.54,1.15,4.32,.69,4.75,.9,1.7,.82,2.93,.01,3.56,.37,.68,.39-1.45,.41-1.49,.87-.1,1.26-3.03,1-.32,1.64,1.71,.4-1.67,.6-1.97,1.11-.42,.69,1.97,.25,2.96,1.01,1.41,1.08,6.07,1.29,8.01,1.48,1.44,.14,2.08,.23,3.57,.16,3.41-.17,1.45,.73,1.56,.82,1.1,.91-2.24,1.15-2.46,1.21-2.89,.86,.39,.54,.7,1.09,.44,.8,4.35,.2,5.34,.11,1.02-.08,1.28-.32,2.63-.32,.53,0,1.57,.05,2.05-.04,.81-.14,2.4,.22,3.2,.26,1.11,.05,3.4,1.36,.61,1.65-2.19,.23-.87,.97-.25,.94,1.92-.08,3.17,.14,4.98,.37,1.84,.23,2.98,.24,4.82,.32,.05,0,3.29-.24,3.5-.26,.15-.02,3.16-.22,3.18-.22,1.71,.07,3.32-1.28,5.03-1.01,.68,.06,1.02,.26,1.55-.3,.61-.64,2.94-.63,3.42-.83,1.02-.42,6.09,.42,6.92-.57,.52-.62,3.18-.38,2.73-1.12-.56-.93,1.97-1.05,2.52-1.05,1.16,0,4.01,.59,4.58,.46,2.64-.59,.05-1.1-.98-1.1-3.17,0-1.6-.82-2.78-1.23-4.01-1.4,1.65-1.06,2.31-1.09,2.23-.13,4.67,0,6.82-.22,2.35-.23,3.4,.16,5.83-.68,1.05-.36-.83-1.27-1.01-1.28-.98-.02-2.97-.95-.97-1.51,1.52-.43,4.65-1.14,5.9-1.8,2.43-1.3-3.15-1.36-1.76-2.2,1.83-1.11-.85-1.22-1.5-1.56-2.68-1.42-5.63-.75-6.68-1.3-1.37-.72-2.96,.23-3.5-.68-.26-.44-2.98-.21-3.29-.12-.07,.02-3.39-.39-4.09-.36-.45,.02-1.28-.64,.92-.64,.87,0,1.04-.16,1.67-.27,1.53-.26-.36-.83-.79-.95l-.27-.1c-.94-.35-8.09,.07-8.15-.64,0-.06-.04-.12-.09-.16-.26-.22-1.07-.22-1.92-.19-.92,.03-1.9,.09-2.33-.07h0Zm-1.47,13.36c1.04,.13,3.62,.59,3.2,2.14-.37,1.37-4.76,1.27-5.9,1.22-1.86-.08-5.12-.28-6.63-1.43-1.78-1.36,1.6-1.59,2.31-1.64,.77-.06,1.11,.07,1.8,.1,.14,0,.62-.15,.61-.29-.01-.16,0-1.12,.13-1.11,.84,.04,1.14,1.38,1.7,.99,.29-.21,1.18-.34,1.53-.2,0,0,.95,.18,1.24,.22h0Zm8.63-4.93c.52,.15,2.28,.45,2.04,1.27-.14,.48-2.35,.31-2.79,.19-.03,0-.75-.16-.61-.08,.23,.13,.94,.89,.44,1.17-.44,.24-.5,.35-1.09,.44-1.72,.26-3.74-.3-5.36-.88-.78-.28-2.27-1.56-.82-2.18,1.51-.65,3.98-.6,5.63-.49,.41,.03,1.8,.19,2.12,.39,.03,.02,.45,.17,.44,.17h0Zm-14.07-2.98c.38,.23,4.04,1.02,3.19,2.05-.94,1.16-7.1,.88-8.39,.19-.38-.21-.45-.41-.46-.42-.3-.19,.64-.65,.73-.68,.18-.05,2.65-.57,1.5-.76-.44-.07-1.56-.19-.64-.57,.5-.21,3.77,.01,4.06,.19h0Zm8.66-4.15c.09-.01,.21-.06,.29-.09,.14-.01,.28-.08,.42-.12,.58,0,5.72,.19,5.92,.34,.94,.71-1.47,.75,1.13,1.82,.58,.24,3.49,.58,4.09,1.01,.63,.45,4.07-.49,5.44,.24,.53,.28,5.31,.79,6.15,.72,.6-.05,2.7,.87,3.03,1.85,.45,1.38,3.08,.99,.15,2.56-.71,.38-3.24,.08-4.66,.6-2.77,1.02,1.82,2.97,.1,3.24-2.8,.44-4.2,.46-7.06,.17-1.8-.19-5.14-.35-6.72,.51-1.08,.59,.32,1.72,1.07,2.06,.19,.08,1.67,.87,.76,.87-.41,0-2.47,.12-2.45,.53,.03,.79-2.24,.78-2.81,.99-3.37,1.24-1.83-.15-4.5,.06-.81,.06-.32,.86-1.75,1.01-1.05,.1-3.76,.31-4.56,.8-.58,.36-2.81,.46-3.43,.22h-.11c-2.09-.39-5.95,1.09-8.72,1.05-.88-.01-1.32,0-2.24-.06-.81-.05-4.14,.34-3.56-1,.64-1.47-2.6-2.12-3.63-2.12-1.79,0-6.27,.11-7.8-.2-.87-.18-1.73,0-1.07-1.19,.39-.69-2.97-.57-3.43-1.23-.97-1.41-6.15-.66-8.32-1.46-1.59-.91-3.9,.02-4.38-1.11-.29-.67,1.12-.86,.64-2.01-.24-.57,3.12-.69,.09-2-.01,0-2.52-.11-3.01-.21-4.21-.92,4.64-2.1,4.84-2.17,.99-.32,3-.81,3.84-1.25,2.22-1.18-.99-1.89-.71-2.27,.04-.06,.13-.37,.12-.41,.52-.85,3.17-.96,4.06-.7,1.12,.32,2.16-.09,3.14-.45,1.91-.7,2.81-.32,4.61-.54,1.2-.15,3.72-.32,4.93-.27,.42,.02,4.83-.58,5.39-.73,1.51-.4,4.98-.89,6.53-.7,1.22,.15,2.38,.54,3.64,.17,.47-.14,2.59-.62,2.56,.2-.03,.76,3.82-.05,4.41-.05,.28,0,.54-.03,.77-.04,.04,.47,3.23,1.9,3.23,1.24,0,.45,.59,.51,.41,.23,0-.02,2.22,1.15,1.8-.02,.05,0,1-.03,1.36-.07h0Z" style="fill:#329ad1; fill-rule:evenodd;"/><path d="M47.03,166.25c-.38,.23-.56,.56-1.04,.85-.86-.1-4.08,.2-4.58-.86-.03-.05,.06-.11,.1-.15,.11-.45,1.65-1.07,2.1-1.32,1.16-.64,2.24,.17,3.84-1.52,.65-.69,2.16,.7,3.37-.68,.74-.84,5.17-1.35,1-1.35-1.68,0,.99-.92,1.34-.95,.93-.07,1.68-.76,2.33-1.21,1.31-.89,4.57-.3,5.77-.79,.92-.38,3.5,0,4.26-.21,.11-.03,.13-.01,.25-.01,.19-.05,4.2-.38,6.65-.57-.02,.16-.04,.32-.08,.47,.99-.07,2.1-.25,2.62-.23,.78,.02,2.56-.49,3.12-.48,.8,.03,1.67-.38,2.1-.43,.54-.05,2.92-.58,3.12,0,.25,.72,1.33,1.66,1.85,1.75,.71,.12,2.41,1.81,1.88,2.29-.73,.66-2.17,.24-2.3,1.42-.07,.65-1.4,1.08-1.86,1.11-4.44,.29-6.28,.05-10.37-1.45-.46-.17-4.7-.53-4.92-.45-.1,.48-.08,1.03,0,1.53,.35,1.94,.2,2.71,.2,4.5,0-1.92-.9-3.84-1.27-5.59-.05,.06-.21,1.08-.23,1.2-.03,.23-.38,1.8-.38,1.82,0-.75-.26-1.79-.26-2.67,0-1.14,.17-1.14-.3-.48-.37,.52-1.03,2.59-1.08,2.65,0-.69,.03-1.38,.03-2.08,0-.81,.34-1.65,.34-1.92,0,0-1.18,2.36-1.2,2.43-.1,.28,.27-3.03,.65-4.21-.45,.06-.94,.17-1.52,.39-.98,.36-2.02,.77-3.14,.45-.17-.05-.42-.09-.7-.11,.53,.88,.99,2.15,.99,3.01-.03,.02-.49-.77-.6-.9-1.2-1.4-.72-1.36-.49,.28,.06,.46,.34,3.9,.21,4.21,0,0-.14-1.54-.15-1.64-.17-.93-.55-1.71-.84-2.55-.07-.2,.1,.68,.12,.84,.07,.6,.13,3.81-.21,4.2,.17-1.27-.35-2.65-.77-3.83-.03-.09,.02,.36,0,.5-.12,.77-.19,1.11-.4,1.86,0,0-.03-.94-.04-1.02-.01-.06-.47-1.65-.57-.95-.05,.38-.69,2.28-.63,1.14,.04-.66-.45,.32-.55,.02-.12-.35-.27-.42-.44-1.04v-.03c-.11,.03-.21,.06-.32,.09-.09,.2-.16,.4-.17,.05-.66,.19-1.32,.37-1.76,.52-.19,.06-8.69,1.2-5.07,2.11h0Z" style="fill:#329ad1; fill-rule:evenodd;"/><path d="M87.16,179.93c.15-.02,3.16-.22,3.18-.22,1.71,.07,3.32-1.28,5.03-1.01,.32,.03,.57,.09,.79,.09,0-.42-.1-.76-.25-1.02-.84,.25-2.57,.3-3.11,.09h-.11c-2.09-.39-5.95,1.09-8.72,1.05-.88-.01-1.32,0-2.24-.06-.81-.05-4.14,.34-3.56-1,.09-.2,.1-.38,.06-.55-.45,.36-.66,.87-.71,2.05,0,.07,.04,.2,.12,.37,.38,.05,.78,.1,1.2,.15,1.84,.23,2.98,.24,4.82,.32,.05,0,3.29-.24,3.5-.26h0Zm21.01-21.44c.38,.03,.63,.06,.67,.09,.94,.71-1.47,.75,1.13,1.82,.54,.22,3.1,.53,3.94,.92,.44-.27,.85-.55,1.21-.83-.92-.09-3.13-.35-3.69-.32-.45,.02-1.28-.64,.92-.64,.87,0,1.04-.16,1.67-.27,1.53-.26-.36-.83-.79-.95l-.27-.1c-.48-.18-2.56-.16-4.5-.19-.1,.18-.18,.33-.28,.46h0Zm-41.09,18.29c-.49,.08-.83,.19-1.46,.24-1,.08-4.91,.68-5.34-.11-.3-.55-3.59-.23-.7-1.09,.22-.07,3.56-.3,2.46-1.21-.11-.09,1.85-.98-1.56-.82-1.49,.07-2.13-.02-3.57-.16-1.03-.1-2.81-.2-4.48-.44l.03-.04c.49-.69,.73-1.37,1.97-1.31,.03,0,.08,0,.12,0,2.41,.52,6.81,0,7.7,1.29,.46,.66,3.81,.53,3.43,1.23-.66,1.19,.2,1.01,1.07,1.19,.27,.06,.64,.1,1.07,.13-.35,.24-.61,.58-.73,1.12h0Z" style="fill:#329ad1; fill-rule:evenodd;"/><path d="M70.82,161.03c-.25-.17-1.01,.08-1.38,0-.85-.17-3.09,.35-3.7-.04-1.25-.79-1.31-.52-2.58-.85-.41-.1-.6-.53-.31-.74,.56-.42,.9-.25,.67-.06-.45,.39,.67,.28,.98,.46,.46,.28,.52,.38,.99,.52,.44,.13,.93,.14,1.38,.2,.81,.11,3.46,.17,3.95,.51h0Zm25.65,1.72c-.06,0,.13,.36,.22,.43,.53,.5-.43,1.13-.82,1.36-.3,.18,.99-.32,.99-.33,1.68-.63,.16-1.47-.39-1.47h0Zm-.95,.11c.32,0,1.19,.55,.3,1.16-.62,.43-1.65,.81-2.38,.87-.22,.02,.12,.08,.44-.17,.5-.4,2.42-.75,1.64-1.79-.02-.03,0-.07,0-.07h0Zm3.24,1.81s.58-.11,.66-.12c.2-.01,1.94-.12,1.94-.13,.54-.34,0-.33-.3-.38-.47-.07-1.96,.29-2.3,.62h0Zm1.01,.48s-.98,.33-.99,.34c-1.62,.71-.18,.57-.31,.94-.44,.09,1.53,1.04,1.54,1.04-.1,0-1.1-.2-1.16-.25-.17-.12-2.35-.66-1.36-1.46,.35-.28,1.93-.74,2.28-.61h0Zm11.93,.93c-.17-.03-.09-.05-.18,.07,.3,.36-.29,.63-.49,.66-1.36,.22-.02,.35-.98,.86-.15,.08-1.93,.14-1.4,.43,.53,.29-.93,.37-1.04,.4-.56,.15-1.35,.03-1.93,.03,.46,0,1.46,.3,1.69,.23,.36-.11,.66-.07,1.03-.07,2.14,0,1.27-.67,1.97-.77,1.29-.19,.84-.84,1.27-.87,1.09-.09,1.08-.79,.07-.97h0Zm-6.22,4.21v.06c.37,.92-.18,.66-.06,.96,.13,.31-.07,.74-.3,.91-.72,.53,.4-.06,.54-.13,.87-.42,.23-.7,.36-.9,.43-.64-.37-1.04-.55-.89h0Zm-3.57-.3c.25-.18,2.18,.1,2.16,.71-.02,.41,.84,.17-.16,.75-.41,.24,.55,.78-.57,1.11-.34,.1-.92,.3-1.28,.32-.33,.01-.77,.58-1.75,.37-.15-.03,.44-.05,.52-.11,0,0,.89-.3,1.18-.47,.33-.19,1.74-.18,1.24-1.01-.27-.46-.52-.07-.11-.85,.23-.44-1.31-.77-1.24-.82h0Zm-13.77,1.17c-.07,0-.3,.03-.35,.06-.99,.71,.41,.57,.52,1.48,.08,.67,2.17,.81,2.81,1.08,.81,.33,.76,.35,1.64,.45,.42,.05,.69,.08,1.13,.08s.75-.14,.95-.13c1.43,.04-1.29-.38-1.53-.37-.33,.01-.5-.1-.66-.11-.03,0-2.37-.56-2.47-.6-1.49-.56-.73-.71-1.24-1.03-.98-.61-.09-.91-.81-.91h0Zm4.65-1.89s-.05,0-.06,0c-.07,.14-.53,.09-.67,.09-.79,0-1.09,.23-1.69,.32-.8,.12-1.18,1-1.47,.74-.55-.48,.55-.83,.83-.91,.54-.16,2.68-.74,3.06-.24h0Zm-3.61-7.34s-.08,.02-.11,.05c-.29,.26-.99,.58-1.34,.76-.99,.49-.24,.86-.03,1.12,.06,.08,.8,.45,.8,.46-.56-.17-1.5-.05-1.91-.78-.35-.63,2.07-1.71,2.59-1.61h0Zm-2.94-4.25c.07,0,1.05,.15,1.19,.17,.05,0,3.01,.49,2.12,.77-.89,.28-.16,.65-.19,.8-.13,.63-1.28,.78-1.67,.9-.15,.05-.55,.05-.12,0,1.07-.14,1.4-.12,2.41-.6,1.58-.75,.18-.85,.14-1.36-.03-.33-.54-.41-.82-.45-.99-.12-2.04-.31-3.07-.23h0Zm-.53,.79s2.39-.24,1.74,.67c-.33,.46-1.13,.21-.8,.58,.3,.33-.58,.74-.99,.75-.33,0-1.75,.38-2.1,.37-.52-.01,.1-.04,.51-.21,.74-.3,.86-.26,1.58-.78,.97-.7-.04-.39,.61-.88,.33-.24-.38-.4-.55-.45,.02-.04-.01-.04,0-.06h0Zm-3.96,3.5c-.61,.41-.92,.16-1.74,.23-.59,.06-2.11,.36-2.58,.04-.65-.44-.39-.34-1.17-.64-1.15-.44-1.96-.6-3.2-.6,.37,0,.76-.05,1.19-.05,1.15,0,1.7,.35,2.71,.32,.01,0,1.4,.46,1.52,.51,.38,.15,1.5,.11,1.84,.19,.45,.1,1.48-.2,1.75-.15,0,0-.21,.07-.33,.15h0Z" style="fill:#1b76bc; fill-rule:evenodd;"/><path d="M58.65,150.55s-.01-.09-.06-.1c-.04-.01-.09,.01-.1,.06-.38,1.35-.7,2.68-.96,4-.16,.78-.29,1.55-.41,2.32,.02-.57,.04-1.16,.04-1.76,0-1.16-.04-2.38-.16-3.72,0-.04-.04-.08-.09-.07-.04,0-.08,.04-.07,.09,.12,1.34,.16,2.55,.16,3.71,0,1.15-.05,2.25-.11,3.34h0s.03,.08,.07,.08c.04,0,.08-.03,.09-.07,.17-1.28,.38-2.57,.64-3.88,.26-1.31,.58-2.64,.96-3.98h0Z" style="fill:#335710; fill-rule:evenodd;"/><path d="M57.8,158.34c.13-.97,.26-1.93,.77-3.02-.68,.83-1.1,1.88-1.57,2.88-.42-1.38-.8-2.79-.71-4.42-.44,1.27-.23,2.73,.05,4.21-.85-.85-1.53-1.93-2.12-3.15,.43,1.32,.96,2.54,1.62,3.65,.65-.05,1.3-.1,1.95-.15Z" style="fill:#456e1c; fill-rule:evenodd;"/><path d="M58.16,158.53c.31-1.01,.71-2.01,1.31-2.97-.77,.57-1.38,1.57-1.97,2.6,.37-1.39,.62-2.85,.6-4.47-.22,1.36-.53,2.61-.9,3.79,.09-1.16,.08-2.35-.42-3.71,.15,1.74,.23,2.95-.03,4.03l-1.77-6.62c.31,1.41,.48,2.88,.56,4.21-.37-1.22-1.08-2.35-1.79-3.48,1.09,1.95,1.71,3.94,2.14,5.94-.39-.16-.76-.36-1.05-.72,.15,.61,.46,1.44,.75,1.88,.61-.36,1.58-.45,2.56-.48Z" style="fill:#8ac92b; fill-rule:evenodd;"/><path d="M59.56,146.48c-.21-.05-.65,1-1,2.35-.35,1.35-.46,2.49-.26,2.54,.21,.05,.65-1,1-2.35,.35-1.35,.46-2.49,.26-2.54h0Z" style="fill:#585045; fill-rule:evenodd;"/><path d="M56.76,146.88c-.34,.02-.54,1.24-.45,2.72,.09,1.48,.43,2.67,.76,2.65,.34-.02,.54-1.24,.45-2.72-.09-1.48-.43-2.67-.76-2.65Z" style="fill:#585045; fill-rule:evenodd;"/><path d="M91.79,162.01c-1.15,0-2.18,.19-2.81,.49l2.21,.65-2.2,.76c.64,.29,1.66,.48,2.81,.48,1.93,0,3.5-.53,3.5-1.19s-1.56-1.19-3.5-1.19Z" style="fill:#77a82b; fill-rule:evenodd;"/><path d="M104.42,164.5c-2.5,0-4.53,.72-4.53,1.62s2.03,1.62,4.53,1.62c.64,0,1.25-.05,1.8-.13l-2.56-1.67,4.95,.81c.22-.19,.35-.4,.35-.62,0-.89-2.03-1.62-4.53-1.62Z" style="fill:#77a82b; fill-rule:evenodd;"/><path d="M94.49,169.48c-2.7,.17-4.74,.97-4.74,1.94,0,1.09,2.58,1.97,5.77,1.97s5.77-.88,5.77-1.97c0-.84-1.53-1.56-3.7-1.84l-2.07,1.84-1.02-1.94Z" style="fill:#77a82b; fill-rule:evenodd;"/><path d="M99.16,170.84l-1.96,.29s-.04-.01-.05-.03c0-.02,.01-.04,.03-.05l1.96-.29s.04,.01,.05,.03c0,.02-.01,.04-.03,.05h0Zm-5.43-.52l.56,.48s.02,.04,0,.06c-.01,.02-.04,.02-.06,0l-.56-.48s-.02-.04,0-.06c.01-.02,.04-.02,.06,0h0Zm-2.19,.41s-.04,0-.05,.03c0,.02,0,.04,.03,.05l2.57,.53s.04,0,.05-.03c0-.02,0-.04-.03-.05l-2.57-.53h0Zm1.62,1.14l1.17-.37s.04,0,.05,.03c0,.02,0,.04-.03,.05l-1.17,.37s-.04,0-.05-.03c0-.02,0-.04,.03-.05h0Zm1.27,.84l.29-.74s.03-.03,.05-.02,.03,.03,.02,.05l-.29,.74s-.03,.03-.05,.02c-.02,0-.03-.03-.02-.05h0Zm1.99-.01l-.5-.66s0-.04,0-.06c.02-.01,.04,0,.06,0l.5,.66s0,.04,0,.06c-.02,.01-.04,0-.06,0h0Zm.58-1.02s-.04-.03-.03-.05c0-.02,.03-.04,.05-.03l1.93,.4s.04,.03,.03,.05c0,.02-.03,.04-.05,.03l-1.93-.4Z" style="fill:#5c8d2b; fill-rule:evenodd;"/><path d="M107.26,165.68l-.98,.11s-.04-.01-.04-.04c0-.02,.01-.04,.04-.04l.98-.11s.04,.01,.04,.04c0,.02-.01,.04-.04,.04h0Zm-5.61,1.46l1.69-.64s.04,0,.05,.02,0,.04-.02,.05l-1.69,.64s-.04,0-.05-.02c0-.02,0-.04,.02-.05h0Zm1.32-1.01l-1.77,.19s-.04-.01-.04-.04c0-.02,.01-.04,.04-.04l1.77-.19s.04,.01,.04,.04c0,.02-.01,.04-.04,.04h0Zm-.04-.35l-1.67-.53s-.03-.03-.03-.05c0-.02,.03-.03,.05-.03l1.67,.53s.03,.03,.03,.05c0,.02-.03,.03-.05,.03h0Zm.6-.82l.21,.4s0,.04-.02,.05c-.02,.01-.04,0-.05-.02l-.21-.4s0-.04,.02-.05c.02-.01,.04,0,.05,.02h0Zm1.51,.56s-.04,0-.05-.02c0-.02,0-.04,.02-.05l.61-.21s.04,0,.05,.02c0,.02,0,.04-.02,.05l-.61,.21h0Z" style="fill:#5c8d2b; fill-rule:evenodd;"/><path d="M91.14,164.19l.24-.64s.03-.03,.05-.02c.02,0,.03,.03,.02,.05l-.24,.64s-.03,.03-.05,.02c-.02,0-.03-.03-.02-.05h0Zm.97-1.74l-.19,.29s-.04,.02-.06,.01c-.02-.01-.02-.04-.01-.06l.19-.29s.04-.02,.06-.01c.02,.01,.02,.04,.01,.06h0Zm.99,.23l-.61,.21s-.04,0-.05-.02c0-.02,0-.04,.02-.05l.61-.21s.04,0,.05,.02,0,.04-.02,.05h0Zm1.12,.88l-1.54-.26s-.04-.02-.03-.05c0-.02,.02-.04,.05-.03l1.54,.26s.04,.02,.03,.05c0,.02-.02,.04-.05,.03h0Zm-2.22,.07s-.01-.04,0-.06c.02-.01,.04-.01,.06,0l.45,.53s.01,.04,0,.06c-.02,.01-.04,.01-.06,0l-.45-.53h0Z" style="fill:#5c8d2b; fill-rule:evenodd;"/><path d="M118.95,150.23s0-.09-.03-.11c-.04-.02-.09,0-.11,.03-1.39,2.35-2.41,4.63-3.44,6.91l-.13,.29c.05-.22,.11-.43,.16-.64,.5-2.03,1.01-4.05,1.15-6.22,0-.04-.03-.08-.07-.08-.04,0-.08,.03-.08,.07-.14,2.15-.64,4.17-1.15,6.19-.12,.5-.25,.99-.36,1.48h0s0,.08,.04,.09c.04,.02,.09,0,.11-.04,.16-.36,.32-.71,.48-1.07,1.02-2.28,2.05-4.55,3.43-6.89h0Z" style="fill:#335710; fill-rule:evenodd;"/><path d="M114.06,150.93s-.06-.07-.1-.05c-.04,.01-.07,.06-.05,.1,.55,1.89,.7,3.78,.85,5.68,.04,.49,.08,.99,.13,1.51,0,.04,.04,.08,.09,.07,.04,0,.08-.04,.07-.09-.05-.49-.09-1-.13-1.51-.15-1.9-.3-3.8-.86-5.71h0Z" style="fill:#335710; fill-rule:evenodd;"/><path d="M115.72,158.11c.54-1.26,1.26-2.51,2.17-3.79-.86,.81-1.73,1.72-2.7,3.52,.33-1.74,.68-3.46,.79-5.56-.41,1.82-.83,3.64-1.24,5.46-.48-.78-.66-1.69-.87-2.6,.06,1.03,.23,1.95,.56,2.75-.5-.25-1-.62-1.35-1.35,.09,.57,.32,1.02,.66,1.38l1.99,.19h0Z" style="fill:#456e1c; fill-rule:evenodd;"/><path d="M115.77,158.77l.02-.06-.02,.06h0Zm.12-.31c-.22-.02-.6-.03-1.01-.05-.59-.02-1.26-.05-1.65-.1h0c-.16-.36-.21-.73-.19-1.1,.18,.32,.37,.61,.69,.72-.56-1.92-.8-3.39-.97-4.78,.54,1.92,1.1,3.65,1.75,4.62-.26-1.51-.49-3.14-.37-4.87,.09,1.07,.21,2.1,.48,2.81,.3-1.04,.13-2.08,.08-3.12,.28,1.6,.42,3.19,.13,4.75,.62-1.65,1.24-3.3,2.22-4.74-.51,1.44-1.02,2.88-1.54,4.32,1.04-1.62,2.05-3.27,3.03-4.94-1.07,1.86-1.95,3.7-2.58,5.33,.62-.87,1.28-1.52,2-1.86-.86,.91-1.63,1.88-2.08,3.03h0s0,0,0,0Z" style="fill:#77a82b; fill-rule:evenodd;"/><path d="M120.19,147.62c-.19-.1-.73,.56-1.2,1.46-.47,.91-.71,1.72-.52,1.82s.73-.56,1.2-1.46c.47-.91,.71-1.72,.52-1.82Z" style="fill:#585045; fill-rule:evenodd;"/><path d="M117.22,145.95c-.23-.03-.59,1.09-.8,2.51-.21,1.42-.19,2.6,.04,2.63,.23,.03,.59-1.09,.8-2.51s.19-2.6-.04-2.63Z" style="fill:#585045; fill-rule:evenodd;"/><path d="M113.38,147.16c-.21,.03-.21,1.09,0,2.35,.21,1.26,.55,2.26,.75,2.22,.21-.03,.21-1.09,0-2.35-.21-1.26-.55-2.26-.75-2.22Z" style="fill:#585045; fill-rule:evenodd;"/><path d="M121.86,164.51s0-.09-.03-.11c-.04-.02-.09,0-.11,.03-1.15,2.21-1.81,4.61-2.44,7.01,.11-1.2,.22-2.41,.38-3.67,.2-1.58,.46-3.23,.83-5.01,0-.04-.02-.09-.06-.09-.04,0-.09,.02-.09,.06-.37,1.78-.64,3.44-.84,5.03-.2,1.59-.34,3.1-.46,4.6h0s.02,.07,.06,.08c.04,.01,.09-.01,.1-.06l.13-.49c.67-2.53,1.33-5.06,2.54-7.39h0Z" style="fill:#335710; fill-rule:evenodd;"/><path d="M116.8,165.76s-.06-.06-.1-.04c-.04,.02-.06,.06-.04,.1,1.01,2.54,1.42,4.69,1.82,6.83l.06,.32-.8-.18-.05-.11c-.78-1.68-1.55-3.36-2.75-4.98-.03-.04-.08-.04-.11-.02-.04,.03-.04,.08-.02,.11,1.19,1.6,1.96,3.28,2.73,4.95l.07,.15h0s.03,.04,.06,.04l.95,.21s.02,0,.04,0c.04,0,.07-.05,.06-.09l-.08-.44c-.4-2.15-.81-4.3-1.83-6.86h0Z" style="fill:#335710; fill-rule:evenodd;"/><path d="M119.59,173.08c.94-1.44,1.75-2.91,2.3-4.45-.82,1.31-1.79,2.31-2.46,3.92-.91-1.75-1.82-3.5-2.94-5,.86,1.76,1.37,3.38,1.67,4.93-.53-1.48-1.27-2.19-1.91-3.81,.11,1.22,1.12,2.84,1.62,4.53l1.72-.11h0Z" style="fill:#456e1c; fill-rule:evenodd;"/><path d="M119.85,173.55c.6-1.45,1.63-2.4,2.62-3.39-1.15,.56-2.14,1.4-3.05,2.38,.87-1.67,1.45-3.39,1.83-5.16-.72,1.34-1.4,2.69-1.83,4.1,.18-2.31-.03-4.65-.24-6.98-.26,2.13-.49,4.23-.46,6.18-.1-1.99-.51-3.9-.99-5.79,.36,2.66,.49,5.24,.53,7.8-1.21-.76-2.3-2.11-3.64-2.29,.78,.8,2.04,1.43,2.34,2.4-.4-.1-.74-.46-1.11-.69,.34,.46,.68,.92,1.02,1.38,.99,.02,1.99,.04,2.98,.07h0Z" style="fill:#77a82b; fill-rule:evenodd;"/><path d="M123.24,161.63c-.22-.11-.8,.57-1.3,1.53-.5,.96-.72,1.83-.5,1.95,.22,.11,.8-.57,1.3-1.53,.5-.96,.72-1.83,.5-1.95h0Z" style="fill:#585045; fill-rule:evenodd;"/><path d="M121.76,158.36c-.25-.07-.78,1.07-1.18,2.55-.4,1.48-.51,2.73-.26,2.8,.25,.07,.78-1.07,1.18-2.55,.4-1.48,.51-2.73,.26-2.8Z" style="fill:#585045; fill-rule:evenodd;"/><path d="M115.68,162.65c-.18,.06-.02,1.06,.37,2.23,.39,1.17,.85,2.07,1.03,2.01,.18-.06,.02-1.06-.37-2.23-.39-1.17-.85-2.07-1.03-2.01h0Z" style="fill:#585045; fill-rule:evenodd;"/><path d="M113.61,165.34c-.17,.09,.09,.88,.57,1.77,.48,.89,1,1.53,1.17,1.44,.17-.09-.09-.88-.57-1.77-.48-.89-1-1.53-1.17-1.44h0Z" style="fill:#585045; fill-rule:evenodd;"/><g><g><path d="M64.81,178.88c.37,.11,1.8,1.56,1.75,1.92,0,.08-.65,1.31-.99,1.11-.12-.07-.87-.2-1.08-.2-1.33,0-2.15,.42-2.95-.9-.21-.34,.61-1.03,.82-1.46,.21-.44,1.61-.08,2.17-.48,.07-.05,.31,.02,.28,0h0Z" style="fill:#b8a68e; fill-rule:evenodd;"/><path d="M62.24,181.57c.37-.19,.85-.36,1.35-.42,.16-.01,.39-.04,.68,0,1.25,.15,1.19,.29,2.28-.35,0,.08-.65,1.31-.99,1.11-.12-.07-.87-.2-1.08-.2-.96,0-1.64,.22-2.25-.15h0Z" style="fill:#584c41; fill-rule:evenodd;"/><path d="M63.67,181.09c.48-.44,1.4-.15,2.29-1.22,.34,.38,.62,.76,.6,.93-1.1,.64-1.04,.49-2.28,.35-.21-.03-.42-.02-.63,0,0-.02,.01-.03,.02-.05h0Z" style="fill:#6e5f52; fill-rule:evenodd;"/><path d="M61.51,180.67c.48,.02,.87,.01,1.25-.06,.44-.09,.85-.28,1.34-.64,.12-.09,.5-.44,.5-.44-.35,.6-.79,1.26-.92,1.58h0s-.04,.04-.06,.06h-.02c-.51,.06-.98,.23-1.35,.42-.24-.14-.47-.38-.7-.76-.03-.04-.04-.09-.03-.15h0Z" style="fill:#958474; fill-rule:evenodd;"/><path d="M64.2,180.17c.13-.21,.27-.44,.4-.65,.12-.21,.23-.41,.32-.59,.25,.14,.68,.55,1.05,.95-.89,1.06-1.81,.78-2.29,1.22,.03-.08,.09-.18,.15-.3h0c.1-.17,.24-.4,.38-.63h0Z" style="fill:#837364; fill-rule:evenodd;"/><path d="M61.51,180.67c.02-.37,.67-.94,.85-1.31,.03-.06,.07-.1,.13-.13,.31,.34,.47,1.27,.27,1.38-.37,.07-.76,.08-1.25,.06Z" style="fill:#aa9884; fill-rule:evenodd;"/></g><g><path d="M64.81,178.88c.15,.04,.48,.31,.81,.63-.08-.03-.17-.06-.23-.09-.81-.39-1.41,.31-2.18,.45-.36,.06-.92,.52-1.46,.31,.21-.29,.51-.6,.62-.84,.21-.44,1.61-.08,2.17-.48,.07-.05,.31,.02,.28,0h0Z" style="fill:#c3b4a1; fill-rule:evenodd;"/><path d="M64.7,179.33c.08-.14,.15-.28,.21-.4,.17,.1,.43,.32,.7,.58-.08-.03-.17-.06-.23-.09-.24-.12-.47-.13-.68-.1h0Z" style="fill:#988b80; fill-rule:evenodd;"/><path d="M61.74,180.19c.21-.29,.51-.6,.62-.84,.03-.06,.07-.1,.13-.13,.16,.17,.28,.5,.33,.79-.32,.14-.71,.32-1.08,.17h0Z" style="fill:#b7a999; fill-rule:evenodd;"/></g></g><g><g><path d="M60.66,179.02c.43,.16,1.3,.33,.49,.92-.37,.27-1-.03-1.41-.07-.35-.03-.05-.73,.48-.78,.18-.02,.38-.1,.44-.08h0Z" style="fill:#b3a18a; fill-rule:evenodd;"/><path d="M60.01,179.92c.44-.38,.86-.47,1.35-.62,.19,.14,.22,.33-.2,.64-.3,.22-.76,.07-1.15-.02h0Z" style="fill:#6e5f52; fill-rule:evenodd;"/></g><g><path d="M61.12,179.18c.35,.14,.6,.35,.04,.76-.37,.27-1-.03-1.41-.07-.21-.02-.19-.27-.02-.49,.3,.08,.59,.16,.66,.18,1.11,.32,.71-.07,.74-.39h0Z" style="fill:#948471; fill-rule:evenodd;"/><path d="M60.01,179.92c.16-.14,.32-.24,.49-.32,.77,.2,.69,.01,.64-.23,.07-.02,.15-.04,.22-.07,.19,.14,.22,.33-.2,.64-.3,.22-.76,.07-1.15-.02h0Z" style="fill:#5d5145; fill-rule:evenodd;"/></g></g><g><g><g><path d="M131.09,168.55c.17,.07,.27,.21,.59,.33,.18,.06,.4,.13,.53,.26,.33,.31,.5,.84-.01,1.03-.12,.04-1.79,.03-2.05,.03-.52,0-.76,.03-1.26-.19-.37-.16-.33-.51-.1-.75,.19-.2,.6-.44,.84-.68,.09-.08,.55-.46,.67-.38,.4-.03,.47,.22,.8,.36h0Z" style="fill:#857566; fill-rule:evenodd;"/><path d="M130.02,168.9c-.12-.14-.24-.25-.35-.36,.14-.12,.52-.42,.63-.35,.4-.03,.47,.22,.8,.36,.17,.07,.27,.21,.59,.33,.18,.06,.4,.13,.53,.26,.27,.25,.43,.64,.21,.88-.35-.3-1.16-.6-1.51-.53-.31-.21-.61-.25-.9-.59h0Z" style="fill:#9d8e79; fill-rule:evenodd;"/><path d="M129.18,170.11c.37-.24,.71-.34,1.11-.49,.34-.12,.31-.09,.62-.14,.35-.06,1.16,.23,1.51,.53-.05,.06-.13,.11-.23,.14-.12,.04-1.79,.03-2.05,.03-.4,0-.64,.02-.96-.07Z" style="fill:#685a4e; fill-rule:evenodd;"/></g><path d="M130.86,168.41c-.2,.07-.39,.19-.58,.34-.07,.06-.15,.12-.22,.19-.01-.01-.03-.03-.04-.04-.05-.06-.1-.11-.15-.16-.07-.07-.14-.13-.2-.2,.14-.12,.52-.42,.63-.35,.28-.02,.4,.1,.56,.22h0Z" style="fill:#c3b4a1; fill-rule:evenodd;"/><path d="M130.06,168.94c-.29,.26-.58,.56-.89,.78-.12,.09-.25,.17-.38,.23-.14-.09-.2-.23-.18-.36,.01-.12,.08-.24,.17-.34,.15-.16,.42-.33,.65-.51,.07-.06,.14-.11,.2-.17,0,0,.02-.02,.04-.03,.07,.06,.13,.13,.2,.2,.05,.05,.1,.1,.15,.16,.01,.02,.03,.03,.04,.04h0Z" style="fill:#a59986; fill-rule:evenodd;"/></g><g><g><path d="M131.31,168.68c.09,.06,.2,.13,.37,.19,.18,.06,.4,.13,.53,.26,.33,.31,.5,.84-.01,1.03-.12,.04-1.79,.03-2.05,.03-.52,0-.76,.03-1.26-.19-.05-.02-.09-.05-.13-.07,.08-.04,.17-.06,.23-.09,.15-.07,.62-.12,.79-.15,.17-.03,.88-.07,1.04,0,.37,.16,.27,.05,.6,0,.21-.03,.15,.14,.44,.1,.32-.04,.11-.19,.17-.27,.1-.14-.18-.29-.26-.37-.23-.26-.38-.25-.46-.47h0Z" style="fill:#7c6e5f; fill-rule:evenodd;"/><path d="M131.31,168.68c.09,.06,.2,.13,.37,.19,.18,.06,.4,.13,.53,.26,.27,.25,.43,.64,.21,.88-.11-.09-.26-.18-.42-.27,.1-.06-.02-.16,.03-.23,.1-.14-.18-.29-.26-.37-.23-.26-.38-.25-.46-.47h0Z" style="fill:#968773; fill-rule:evenodd;"/><path d="M129.18,170.11c.34-.22,.66-.33,1.02-.46,.25,0,.52,0,.61,.03,.37,.16,.27,.05,.6,0,.21-.03,.15,.14,.44,.1,.07,0,.12-.02,.14-.04,.17,.08,.32,.17,.42,.27-.05,.06-.13,.11-.23,.14-.12,.04-1.79,.03-2.05,.03-.4,0-.64,.02-.96-.07h0Z" style="fill:#605247; fill-rule:evenodd;"/></g><path d="M129.01,169.83c-.07,.04-.15,.08-.22,.12-.01,0-.02-.02-.03-.02,.08-.04,.17-.06,.23-.09h.02s0,0,0,0Z" style="fill:#877e6d; fill-rule:evenodd;"/></g></g><g><g><g><path d="M134.45,169.95c.17,.04,.54,.14,.53,.38,0,.15,.04,.26-.01,.51-.12,.5,.29,.94-.41,.92-.06,0-.34,.15-.42,.07-.12-.11-.94,.25-1.24,.25s-1.81,.09-1.94,.05c-.4-.13-1.02-.05-1.32-.47-.26-.37-.55-.59-.34-1.15,.15-.39,1.13-1.01,1.39-1.46,.21-.37,1-.66,1.37-.66,.76,0,.85,.17,1.39,.74,.33,.34,.79,.41,.95,.79,0,.02,.04,.04,.05,.04h0Z" style="fill:#b8a68e; fill-rule:evenodd;"/><path d="M133.29,171.16c.27-.19,.45-.49,.67-.63,.04-.02,.08-.03,.11-.05,.42-.13,.55-.06,.92-.14,0,.15,.04,.26-.01,.51-.03,.14-.03,.28-.01,.4,.03,.31,.1,.54-.4,.52-.06,0-.34,.15-.42,.07-.12-.11-.94,.25-1.24,.25s-1.81,.09-1.94,.05c-.04-.01-.09-.03-.14-.04,.48-.1,.96-.31,1.29-.33,.35-.03,.53-.1,.69-.21,.14-.1,.27-.23,.49-.39h0Z" style="fill:#6e5f52; fill-rule:evenodd;"/><path d="M129.63,171.65c-.26-.37-.55-.59-.34-1.15,.08-.22,.42-.5,.74-.78,.37,.08,.84,.21,1.05,.23,.04,0,1.36,.65,1.39,.68,.32,.27,1.07,.07,1.47-.1-.21,.13-.4,.44-.67,.63-.23,.16-.35,.29-.49,.39-.16,.11-.34,.18-.69,.21-.33,.03-.81,.23-1.29,.33-.16-.03-.34-.05-.52-.08-.26-.05-.51-.13-.67-.36h0Z" style="fill:#837364; fill-rule:evenodd;"/><path d="M130.7,169.01c.23-.35,1-.63,1.35-.63,.76,0,.85,.17,1.39,.74,.33,.34,.79,.41,.95,.79,0,.02,.04,.04,.05,.04,.17,.04,.54,.14,.53,.38-.37,.08-.5,.01-.92,.14-.51,.03-1.61-.05-1.93-.58-.2-.34-.64-.85-1-.83-.07,0-.23-.02-.42-.05h0Z" style="fill:#cdc0b2; fill-rule:evenodd;"/></g><g><path d="M129.61,170.1c.36-.34,.89-.74,1.07-1.06,.21-.37,1-.66,1.37-.66,.76,0,.85,.17,1.39,.74,.22,.23,.5,.34,.71,.5-.61-.21-1.32-.62-1.47-.51-.58,.42-1.05,.36-1.48,.89-.29,.36-.65,.01-1.01,.12-.14,.04-.39,.05-.58-.03h0Z" style="fill:#c4b5a3; fill-rule:evenodd;"/><path d="M129.61,170.1c.13-.12,.27-.25,.42-.38,.37,.08,.84,.21,1.05,.23,0,0,.05,.02,.12,.05-.29,.36-.65,.01-1.01,.12-.14,.04-.39,.05-.58-.03Z" style="fill:#998c80; fill-rule:evenodd;"/><path d="M130.7,169.01c.23-.35,1-.63,1.35-.63,.76,0,.85,.17,1.39,.74,.22,.23,.5,.34,.71,.5-.61-.21-1.32-.62-1.47-.51-.3,.22-.57,.31-.83,.42-.22-.25-.49-.48-.73-.46-.07,0-.23-.02-.42-.05h0Z" style="fill:#d5cabf; fill-rule:evenodd;"/></g></g><g><g><path d="M134.45,169.95c.17,.04,.54,.14,.53,.38,0,.15,.04,.26-.01,.51-.12,.5,.29,.94-.41,.92-.06,0-.34,.15-.42,.07-.12-.11-.94,.25-1.24,.25s-1.81,.09-1.94,.05c-.4-.13-1.02-.05-1.32-.47-.02-.03-.04-.06-.07-.09,0-.17,.03-.32,.02-.43-.02-.71,1.58,.02,1.64,.1,.28,.38,1.21,.29,1.51,.14,.38-.18,1.2-.02,1.56-.13,.22-.07,.21-.65,.22-.93,0-.17-1.12-.9-1.3-1.11-.35-.43-.51-.65-.7-.78,.36,.08,.51,.28,.92,.7,.33,.34,.79,.41,.95,.79,0,.02,.04,.04,.05,.04Z" style="fill:#968773; fill-rule:evenodd;"/><path d="M134.52,170.39c.14-.01,.27-.01,.47-.06,0,.15,.04,.26-.01,.51-.03,.14-.03,.28-.01,.4,.03,.31,.1,.54-.4,.52-.06,0-.34,.15-.42,.07-.12-.11-.94,.25-1.24,.25s-1.81,.09-1.94,.05c-.04-.01-.09-.03-.14-.04,.48-.1,.96-.31,1.29-.33,.35-.03,.53-.1,.69-.21,.1-.07,.19-.15,.31-.25,.41-.03,.93,.04,1.19-.04,.21-.06,.21-.55,.22-.86h0Z" style="fill:#584c41; fill-rule:evenodd;"/><path d="M129.63,171.65s-.04-.06-.07-.09c0-.17,.03-.32,.02-.43-.02-.71,1.58,.02,1.64,.1,.28,.38,1.21,.29,1.51,.14,.1-.05,.22-.07,.37-.08-.12,.1-.21,.18-.31,.25-.16,.11-.34,.18-.69,.21-.33,.03-.81,.23-1.29,.33-.16-.03-.34-.05-.52-.08-.26-.05-.51-.13-.67-.36h0Z" style="fill:#756658; fill-rule:evenodd;"/><path d="M132.53,168.42c.36,.08,.51,.28,.92,.7,.33,.34,.79,.41,.95,.79,0,.02,.04,.04,.05,.04,.17,.04,.54,.14,.53,.38-.2,.04-.33,.05-.47,.06v-.08c0-.17-1.12-.9-1.3-1.11-.35-.43-.51-.65-.7-.78h0Z" style="fill:#a5998c; fill-rule:evenodd;"/></g><g><path d="M132.53,168.42c.36,.08,.51,.28,.92,.7,.22,.23,.5,.34,.71,.5-.29-.1-.61-.25-.88-.36-.02-.02-.04-.04-.05-.06-.35-.43-.51-.65-.7-.78h0Z" style="fill:#9e9181; fill-rule:evenodd;"/><path d="M132.53,168.42c.36,.08,.51,.28,.92,.7,.22,.23,.5,.34,.71,.5-.29-.1-.61-.25-.88-.36-.02-.02-.04-.04-.05-.06-.35-.43-.51-.65-.7-.78h0Z" style="fill:#ab9f94; fill-rule:evenodd;"/></g></g></g><g><g><path d="M67.87,178.98c.11,.04,.17,.13,.38,.19,.11,.04,.25,.08,.34,.15,.21,.19,.32,.52,0,.66-.08,.03-1.15,.07-1.32,.08-.33,.01-.49,.04-.81-.08-.24-.09-.21-.32-.07-.48,.12-.14,.38-.3,.54-.46,.06-.06,.35-.31,.43-.27,.26-.03,.31,.13,.51,.21Z" style="fill:#958474; fill-rule:evenodd;"/><path d="M67.18,179.24c-.08-.09-.15-.15-.23-.22,.09-.08,.34-.28,.4-.24,.26-.03,.31,.13,.51,.21,.11,.04,.17,.13,.38,.19,.11,.04,.25,.08,.34,.15,.17,.15,.28,.4,.14,.56-.22-.19-.75-.35-.97-.3-.2-.12-.39-.15-.58-.35h0Z" style="fill:#b8a68e; fill-rule:evenodd;"/><path d="M66.64,180.04c.24-.16,.46-.24,.72-.35,.22-.09,.2-.07,.4-.11,.22-.05,.75,.11,.97,.3-.03,.04-.08,.07-.14,.1-.08,.03-1.15,.07-1.32,.08-.26,.01-.41,.03-.62-.02h0Z" style="fill:#6e5f52; fill-rule:evenodd;"/></g><path d="M67.72,178.9c-.13,.05-.25,.13-.37,.24-.05,.04-.09,.08-.14,.13l-.03-.03s-.07-.07-.1-.1c-.04-.04-.09-.08-.13-.12,.09-.08,.34-.28,.4-.24,.18-.02,.26,.05,.36,.12h0Z" style="fill:#c3b4a1; fill-rule:evenodd;"/><path d="M67.21,179.26c-.19,.18-.37,.38-.57,.53-.08,.06-.16,.11-.25,.16-.09-.06-.13-.14-.12-.23,0-.08,.05-.16,.11-.22,.09-.1,.27-.23,.42-.35,.05-.04,.09-.08,.13-.11l.02-.02s.09,.08,.13,.12c.03,.03,.06,.06,.1,.1l.03,.03h0Z" style="fill:#a59986; fill-rule:evenodd;"/></g><g><path d="M124.45,172.61c.08-.05,.46,.08,.49,.35,.03,.24-.41,.22-.61,.26-.37,.07-.86-.36-.19-.55,.08-.02,.26-.03,.31-.06h0Z" style="fill:#a59986; fill-rule:evenodd;"/><path d="M124.94,173.01c-.03,.19-.42,.18-.61,.21-.25,.05-.55-.13-.52-.31,.03,.03,.05,.06,.07,.09,.35,.36,.52,.06,.74,0,.07-.02,.12-.04,.15-.06,.16-.11-.14-.26-.24-.35,.14,.02,.39,.14,.41,.36,0,.02,0,.03,0,.05h0Z" style="fill:#584c41; fill-rule:evenodd;"/></g><g><path d="M130.43,172.5c.27,.07,.49-.39,.54,.22,.03,.39-.21,.55-.48,.41-.28-.14-.21-.07-.54-.07-.58,0-.31-.67,.17-.6,.11,.02,.19,.01,.31,.04h0Z" style="fill:#6e5f52; fill-rule:evenodd;"/><path d="M130.43,172.67c-.16,.05-.25-.18-.42-.03-.07,.06-.12-.09-.13,.12,0,.03,0,.06-.02,.08-.04,.07-.13,.06-.23,.06-.01-.03-.01-.07,0-.11,.02-.13,.13-.26,.29-.31,.06-.02,.14-.03,.21-.02,.11,.02,.19,.01,.31,.04,.22,.06,.41-.25,.5-.01-.09,0-.18,.04-.23,.14-.07,.14-.12,0-.26,.04h-.01s0,0,0,0Z" style="fill:#988b80; fill-rule:evenodd;"/><path d="M130.96,172.85c-.03,.29-.24,.4-.48,.27-.28-.14-.21-.07-.54-.07-.08,0-.15-.01-.2-.04,.14-.05,.26-.1,.28-.12,.03-.04,.09-.05,.15-.05,.01,0,.03,0,.04,0,.1,0,.22,.04,.28,.08,.18,.12,.24,.04,.27,.06,.01,0,.07-.12,.07-.13h0s.01-.07,.02-.09c.03-.05,.07-.07,.11-.07h0s0,.06,0,.09c0,.02,0,.04,0,.06h0Z" style="fill:#584c41; fill-rule:evenodd;"/></g><path d="M101.29,171.42c0-.15-.05-.29-.13-.43,0,.02,0,.04,0,.06,0,1.09-2.58,1.97-5.77,1.97-.95,0-1.84-.08-2.62-.22-1.51-.26-2.63-.75-3.01-1.33,.06,.67,1.09,1.26,2.63,1.6,.9,.2,1.98,.32,3.13,.32,3.19,0,5.77-.88,5.77-1.97h0Zm4.42-3.76c.18-.02,.35-.04,.51-.07l-.39-.25h-.06c-.54,.09-1.12,.13-1.74,.13-1.57,0-2.96-.29-3.77-.72,.7,.57,2.3,.97,4.16,.97,.45,0,.88-.02,1.28-.07h0Zm2.9-.93c.22-.19,.35-.4,.35-.62,0-.33-.28-.64-.76-.89,.24,.2,.37,.41,.37,.64s-.12,.43-.35,.62l-1.82-.3-3.13-.51,.39,.25,2.62,.43,2.33,.38h0Zm-19.62-2.82c.64,.29,1.66,.48,2.81,.48,1.03,0,1.95-.15,2.59-.39-.6,.17-1.37,.27-2.2,.27-.33,0-.66-.02-.96-.05,0,.02-.03,.03-.05,.02-.01,0-.02-.02-.03-.03-.71-.08-1.33-.23-1.77-.43l2.2-.76-2.21-.65c.07-.03,.15-.06,.23-.09-.23,.06-.44,.14-.62,.22l2.21,.65-2.2,.76h0Z" style="fill:#5c8d2b; fill-rule:evenodd;"/><path d="M115.34,168.56c-.06,.02-.17-.04-.29-.17,.03,0,.05,0,.06,0,.03-.01,.04-.05,.05-.09,.01-.08,0-.2-.05-.34-.09-.33-.29-.82-.57-1.33-.31-.57-.63-1.03-.87-1.28,.21,.05,.68,.65,1.11,1.45,.36,.66,.59,1.27,.62,1.57,0,.11,0,.18-.05,.2h0s0,0,0,0Z" style="fill:#383128; fill-rule:evenodd;"/><path d="M117.06,166.9c-.09-.01-.24-.21-.4-.53,.05-.05,.07-.2,.04-.44,0-.06-.01-.13-.03-.2-.05-.3-.13-.68-.25-1.1-.05-.16-.1-.32-.15-.49-.2-.6-.41-1.13-.6-1.49,0,0,.01,0,.02-.01,.18-.06,.65,.84,1.03,2.01l.03,.1c.28,.86,.43,1.61,.41,1.95,0,.11-.03,.17-.07,.19,0,0-.02,0-.03,0h0Z" style="fill:#383128; fill-rule:evenodd;"/><path d="M121.5,161.15c-.4,1.48-.92,2.62-1.18,2.55,0,0-.02,0-.02,0-.06-.03-.09-.14-.1-.3v-.02s.01,0,.01,0c.05,.01,.11-.02,.17-.09,.26-.28,.63-1.15,.94-2.23,.02-.07,.04-.15,.06-.22,.21-.77,.34-1.48,.38-1.99,.02-.19,.02-.34,.01-.47,.08,.04,.12,.21,.12,.49,0,.5-.13,1.31-.37,2.22l-.02,.08Z" style="fill:#383128; fill-rule:evenodd;"/><path d="M121.44,165.11s-.03-.02-.04-.04c-.04-.06-.05-.15-.04-.28,.06,0,.13-.02,.21-.08,.08-.06,.18-.15,.28-.27,.24-.28,.51-.7,.77-1.19,.34-.65,.55-1.27,.58-1.63,.01,0,.02,0,.03,.01,.22,.11,0,.99-.5,1.95-.43,.83-.92,1.45-1.19,1.54-.04,.01-.08,.01-.11,0h0Z" style="fill:#383128; fill-rule:evenodd;"/><path d="M118.56,150.91s-.06,.01-.09,0c-.02-.01-.04-.04-.05-.07-.02-.05-.02-.13,0-.22,.06-.02,.14-.08,.23-.17,.08-.08,.18-.19,.27-.32,.19-.25,.4-.59,.6-.97,.32-.62,.53-1.19,.58-1.53,.04-.02,.07-.02,.1,0,.19,.1-.04,.91-.52,1.82-.41,.79-.88,1.39-1.11,1.47h0Z" style="fill:#383128; fill-rule:evenodd;"/><path d="M117.26,148.58c-.2,1.34-.53,2.42-.76,2.5-.01,0-.03,0-.04,0-.04,0-.08-.05-.11-.14-.01-.04-.03-.09-.04-.15,.02,0,.03,0,.05-.02,.06-.04,.12-.13,.18-.26,.2-.41,.41-1.25,.55-2.23,.15-1.01,.18-1.9,.11-2.34,0,0,0,0,.01,0,.23,.03,.25,1.21,.04,2.63h0Z" style="fill:#383128; fill-rule:evenodd;"/><path d="M114.1,151.73c-.07-.02-.16-.15-.25-.36,.04,.05,.08,.08,.12,.07,.02,0,.04-.01,.05-.03,.04-.05,.07-.15,.09-.29,.05-.41,0-1.17-.13-2.03-.13-.78-.31-1.46-.47-1.86,.2,.25,.46,1.11,.63,2.15,.16,1,.2,1.88,.1,2.21-.03,.09-.06,.13-.1,.14,0,0-.02,0-.03,0h0Z" style="fill:#383128; fill-rule:evenodd;"/><path d="M58.44,151.28c-.06,.07-.11,.1-.15,.09-.01,0-.03-.01-.04-.02-.06-.06-.08-.25-.06-.52,.23-.23,.59-1.16,.89-2.3,.21-.8,.33-1.53,.36-2,.04-.04,.08-.06,.11-.06,.21,.05,.09,1.19-.26,2.54-.28,1.08-.62,1.98-.85,2.26h0Z" style="fill:#383128; fill-rule:evenodd;"/><path d="M57.52,149.53c.09,1.48-.12,2.7-.45,2.72h0c-.06,0-.11-.03-.17-.09-.1-.11-.19-.31-.28-.57,.08,.12,.16,.18,.24,.18h.01c.05,0,.1-.05,.15-.11,.24-.34,.36-1.38,.29-2.61-.05-.79-.17-1.5-.32-1.98,.25,.38,.46,1.34,.53,2.47h0Z" style="fill:#383128; fill-rule:evenodd;"/><g><g><path d="M128.72,172.66c.05-.2-.21-.54-.41-.62-.4-.16-.42-.13-.8-.36-.33-.2-.7,.22-1.01,.33-.23,.08-.74,.38-.91,.55-.41,.41,.2,.61,.52,.66,.24,.03,.52,.08,.76,.1,.12,0,.54,.13,.68,.07,.05-.02,.35-.06,.5-.13,.44-.21,.35-.25,.63-.58,.03-.04,.03,.02,.05-.03h0Z" style="fill:#8a7765; fill-rule:evenodd;"/><path d="M126.22,172.14c.1-.06,.2-.1,.27-.13,.31-.11,.68-.53,1.01-.33,.38,.23,.4,.2,.8,.36,.21,.08,.46,.42,.41,.62-.01,.05-.01,0-.05,.03-.23,.27-.21,.35-.46,.49-.13-.14-.29-.28-.38-.32-.26-.15-.33-.27-.66-.35h-.02s-.03-.01-.03-.01c-.19-.04-.58-.19-.91-.35h0Z" style="fill:#584c41; fill-rule:evenodd;"/><path d="M125.5,172.96c.36-.02,.7-.06,1.07-.27,.12-.07,.47-.22,.6-.2h.02c.33,.09,.4,.21,.66,.36,.09,.05,.25,.18,.38,.32-.05,.03-.1,.06-.17,.09-.15,.07-.45,.11-.5,.13-.14,.06-.56-.07-.68-.07-.24-.01-.52-.06-.76-.1-.19-.03-.49-.11-.61-.26Z" style="fill:#6e5f52; fill-rule:evenodd;"/></g><g><path d="M127.87,171.88c-.09-.04-.19-.09-.36-.19-.33-.2-.7,.22-1.01,.33-.23,.08-.74,.38-.91,.55-.12,.12-.15,.21-.13,.3l.03-.02c.4-.29,.35-.32,.88-.34,.27-.01,.84-.58,1.32-.6,.07,0,.14-.02,.2-.04h0Z" style="fill:#948373; fill-rule:evenodd;"/><path d="M126.22,172.14c.1-.06,.2-.1,.27-.13,.31-.11,.68-.53,1.01-.33,.17,.1,.27,.15,.36,.19-.06,.02-.13,.03-.2,.04-.32,.01-.68,.27-.96,.44-.16-.06-.33-.13-.49-.21h0Z" style="fill:#675c53; fill-rule:evenodd;"/></g></g><g><g><g><path d="M122.26,173.14c.14,.02,.31,0,.47,.04,.25,.07,.56,.26,.8,.29,.13,.01,.52,.19,.61,.3,.04,.06,.21,.17,.21,.33,.01,.32-.12,.26-.38,.35-.12,.04-.76,.25-.84,.25-.07,0-.35,.07-.44,.02,0,0-.22-.03-.34-.08-.19-.09-.26-.08-.44-.22-.18-.14-.5-.39-.31-.66,.08-.11,.18-.19,.26-.34,.06-.11,.29-.29,.4-.27h0Z" style="fill:#958474; fill-rule:evenodd;"/><path d="M121.59,173.75c.08-.11,.18-.19,.26-.34,.06-.11,.29-.29,.4-.27,.14,.02,.31,0,.47,.04,.12,.03,.25,.1,.39,.15-.26,.24-.78,.63-.93,.89-.05,.09-.1,.18-.15,.27-.04-.02-.08-.05-.13-.09-.18-.14-.5-.39-.31-.66h0Z" style="fill:#b8a68e; fill-rule:evenodd;"/><path d="M122.54,174.48c.23-.11,.53-.28,.85-.42-.11,.18-.39,.18-.68,.67-.01,0-.02,0-.03,0,0,0-.22-.03-.34-.08-.05-.02-.09-.04-.13-.05,.13-.03,.24-.06,.32-.1h0Z" style="fill:#6e5f52; fill-rule:evenodd;"/><path d="M122.72,174.73c.29-.49,.57-.49,.68-.67,.26-.12,.53-.22,.77-.26,.06,.06,.18,.17,.18,.3,.01,.32-.12,.26-.38,.35-.12,.04-.76,.25-.84,.25-.06,0-.3,.05-.41,.03Z" style="fill:#584c41; fill-rule:evenodd;"/></g><path d="M122.35,173.35c-.16,.09-.4,.26-.51,.47-.06,.1-.08,.21-.05,.32,.02,.08,.03,.15,.03,.21-.13-.11-.28-.25-.29-.42,0-.06,.02-.12,.06-.17,.08-.11,.18-.19,.26-.34,.06-.11,.29-.29,.4-.27,.14,.02,.31,0,.47,.04,.04,.01,.07,.02,.11,.04h0s0,0,0,0c.03,0,.05,.02,.08,.03,.06,.03,.12,.05,.19,.08l-.03,.03s-.04,0-.07,0c-.13,0-.33-.02-.48-.03-.09,0-.17,0-.19,.01Z" style="fill:#c3b4a1; fill-rule:evenodd;"/></g><g><g><path d="M123.86,173.58c.12,.06,.24,.13,.29,.19,.04,.06,.21,.17,.21,.33,.01,.32-.12,.26-.38,.35-.12,.04-.76,.25-.84,.25-.07,0-.35,.07-.44,.02,0,0-.22-.03-.34-.08-.19-.09-.26-.08-.44-.22-.03-.03-.07-.05-.11-.09,.05,0,.09,0,.13,0,.3-.01,1.03,.15,1.19,.1,.91-.31,.33-.61,.71-.81l.03-.02h0Z" style="fill:#7d6d5f; fill-rule:evenodd;"/><path d="M122.13,174.33c-.03,.06-.06,.11-.09,.17-.04-.02-.08-.05-.13-.09-.03-.03-.07-.05-.11-.09,.05,0,.09,0,.13,0,.06,0,.13,0,.2,0Z" style="fill:#90816e; fill-rule:evenodd;"/><path d="M122.54,174.48c.05-.02,.1-.05,.16-.08,.09,.01,.17,.02,.24,.02-.07,.07-.15,.17-.23,.3-.01,0-.02,0-.03,0,0,0-.22-.03-.34-.08-.05-.02-.09-.04-.13-.05,.13-.03,.24-.06,.32-.1h0Z" style="fill:#65584c; fill-rule:evenodd;"/><path d="M122.72,174.73c.08-.13,.16-.23,.23-.3,.08,0,.13,0,.17,0,.48-.16,.55-.33,.55-.47,.17-.07,.34-.12,.5-.14,.06,.06,.18,.17,.18,.3,.01,.32-.12,.26-.38,.35-.12,.04-.76,.25-.84,.25-.06,0-.3,.05-.41,.03h0Z" style="fill:#4f4439; fill-rule:evenodd;"/></g><path d="M121.82,174.32s0,.02,0,.02l-.03-.02h.03s0,0,0,0Z" style="fill:#968a79; fill-rule:evenodd;"/></g></g><g><g><path d="M85.16,159.29c.18-.09,.31-.37,.24-.56-.81-2.24-1.73-4.44-2.81-6.57-.24-.48-.7-.82-1.11-1.17-.62-.52-1.27-1-1.96-1.4-.5-.29-1.04-.5-1.59-.69-.3-.1-.62-.11-.93-.19-.7-.17-1.38-.44-2.09-.56-.24-.04-.51-.05-.71,.08-1.37,.9-2.62,1.97-3.92,2.97-1.14,.87-2.34,1.66-3.4,2.62-1.07,.97-1.63,2.66-1.97,4.03-.1,.39-.16,.83-.05,1.22,.15,.54,1.63,.49,2.25,.58,.53,.08,1.05,.27,1.59,.29,1.22,.06,2.44-.1,3.65-.05,1.26,.05,2.51,.17,3.76,.34,.94,.13,1.87,.38,2.81,.56,.36,.07,.72,.2,1.09,.19,.42-.01,.84-.13,1.24-.26,1.32-.43,2.66-.83,3.92-1.43h0Z" style="fill:#b8a68e; fill-rule:evenodd;"/><path d="M74.57,149.03c.54-.17,5.21,1.55,5.84,2.21,.63,.66,1.77,1.38,2.23,2.34,.25,.53,1.51,2.74,2.08,3.36-.64-1.62-1.35-3.22-2.13-4.78-.24-.48-.7-.82-1.11-1.17-.62-.52-1.27-1-1.96-1.4-.5-.29-1.04-.5-1.59-.69-.3-.1-.62-.11-.93-.19-.7-.17-1.38-.44-2.09-.56-.24-.04-.51-.05-.71,.08-.13,.09-.26,.17-.38,.26,.28,.23,.67,.55,.76,.52h0Z" style="fill:#c4b5a2; fill-rule:evenodd;"/><path d="M74.73,148.15c-.19-.01-.39,0-.54,.1-1.37,.9-2.62,1.97-3.92,2.97-1.14,.87-2.34,1.66-3.4,2.62-1.07,.97-1.63,2.66-1.97,4.03-.1,.39-.16,.83-.05,1.22,.15,.54,1.63,.49,2.25,.58,.53,.08,1.05,.27,1.59,.29,1.22,.06,2.44-.1,3.65-.05,1.26,.05,2.51,.17,3.76,.34,.82,.11,1.63,.32,2.44,.48,.06-.02,.1-.03,.1-.03,.4,.03,.4-1.35,.36-1.49-.11-.39,.06-1.82,.06-2.35,0-.98-1.61-4.58-2.15-5.45-.5-.8-1.22-2.47-2.18-3.26h0Z" style="fill:#6e5f52; fill-rule:evenodd;"/><path d="M74.73,148.15c-.19-.01-.39,0-.54,.1-1.37,.9-2.62,1.97-3.92,2.97-1.14,.87-2.34,1.66-3.4,2.62-.51,.46-.9,1.09-1.21,1.76,1.28-.51,3.56-1.81,3.95-2.37,1.53-2.19,.99-1.33,3.12-2.38,.98-.49,.65-1.43,2.91-1.63-.28-.41-.58-.79-.92-1.07Z" style="fill:#9d8873; fill-rule:evenodd;"/><path d="M67.5,153.3c-.21,.17-.42,.35-.62,.54-1.07,.97-1.63,2.66-1.97,4.03-.1,.39-.16,.83-.05,1.22,.15,.54,1.63,.49,2.25,.58,.53,.08,1.05,.27,1.59,.29,1.22,.06,2.44-.1,3.65-.05,1.26,.05,2.51,.17,3.76,.34,.65,.09,1.3,.24,1.94,.38-.02-.47-.28-.83-.79-1-.38-.13-1.21-.74-1.7-.85-.7-.16-3.48-2.06-4-2.6-.12-.13-2.37-1.99-2.45-2.02-.28-.11-.94-.64-1.37-.77-.07-.02-.15-.05-.24-.08h0Z" style="fill:#8a7765; fill-rule:evenodd;"/><path d="M67.5,153.3c-.21,.17-.42,.35-.62,.54-.51,.46-.9,1.09-1.21,1.76,.87-.35,2.2-1.06,3.08-1.65-.31-.2-.72-.48-1.02-.56-.07-.02-.15-.05-.24-.08Z" style="fill:#aa9884; fill-rule:evenodd;"/><path d="M65.91,155.1c-.48,.87-.79,1.88-1.01,2.76-.1,.39-.16,.83-.05,1.22,.15,.54,1.63,.49,2.25,.58,.53,.08,1.05,.27,1.59,.29,1.22,.06,2.44-.1,3.65-.05,1.26,.05,2.51,.17,3.76,.34,.65,.09,1.3,.24,1.94,.38-.02-.47-.28-.83-.79-1-.38-.13-1.21-.74-1.7-.85-.36-.08-1.3-.64-2.18-1.24-.63-.28-1.29-.6-1.66-.79-.92-.49-1.75-.99-2.77-1.3-1.22-.37-1.47-.35-2.76-.35-.06,0-.15,0-.26,.02h0Z" style="fill:#584c41; fill-rule:evenodd;"/><path d="M65.91,155.1c-.09,.16-.17,.33-.25,.5,.32-.13,.71-.31,1.12-.52-.18,0-.37,0-.61,0-.06,0-.15,0-.26,.02Z" style="fill:#8a7765; fill-rule:evenodd;"/><path d="M77.24,160.45c.44,.09,.87,.19,1.3,.28,.06-.02,.1-.03,.1-.03,.4,.03,.4-1.35,.36-1.49-.11-.39,.06-1.82,.06-2.35,0-.46-.36-1.52-.8-2.6,.16,1.23,.12,1.37,0,2.55-.15,1.54-.2,2.26-1.02,3.63h0s0,.01,0,.01Z" style="fill:#837364; fill-rule:evenodd;"/><path d="M77.24,160.45c.44,.09,.87,.19,1.3,.28,.06-.02,.1-.03,.1-.03,.25,.02,.35-.52,.37-.96-.44,.13-1.09,.31-1.65,.51-.04,.06-.07,.13-.12,.19h0s0,.01,0,.01Z" style="fill:#6e5f52; fill-rule:evenodd;"/><path d="M85.16,159.29c.18-.09,.31-.37,.24-.56-.81-2.24-1.73-4.44-2.81-6.57-.21-.41-.58-.73-.94-1.03-.31,.67-.73,1.45-.96,1.79-.2,.29-1.27,2.33-1.25,2.6,0,0-.26,1.27-.26,1.65,0,1.39-.08,1.99,.77,3.15,.15,.2,.31,.4,.48,.61,.28-.05,.55-.13,.82-.22,1.32-.43,2.66-.83,3.92-1.43h0Z" style="fill:#837364; fill-rule:evenodd;"/><path d="M85.16,159.29c.18-.09,.31-.37,.24-.56-.21-.58-.43-1.16-.65-1.73-.59,.78-1.41,1.22-2.35,.67-1.27-.75-.49,1.34-.94,1.62-.85,.53-.71-.14-1.97,.3,.11,.23,.26,.47,.46,.75,.15,.2,.31,.4,.48,.61,.28-.05,.55-.13,.82-.22,1.32-.43,2.66-.83,3.92-1.43h0Z" style="fill:#6e5f52; fill-rule:evenodd;"/><path d="M78.26,154.26c-.49-1.19-1.06-2.4-1.35-2.85-.5-.8-1.22-2.47-2.18-3.26,.06,0,.12,.01,.18,.02,.63,.11,1.24,.33,1.86,.49-.36,.48,0,1.61,.32,2.11,.25,.38,1.81,4.29,1.84,4.67,0,.1,.02,.22,.04,.33,.03,.16,.06,.34,.1,.53,.04,.19,.09,.4,.14,.61,0,.06-.01,.12-.02,.17,0,.04,0,.07,0,.09h0c0,.1,0,.19,0,.28,0,1.05-.02,1.63,.5,2.49,.08,.13,.17,.26,.27,.4,.11,.15,.24,.31,.37,.47l.11,.14c-.14,.03-.28,.04-.43,.05-.14,0-.29-.01-.43-.04-.22-.04-.44-.11-.66-.15-.12-.02-.24-.05-.36-.07,.06-.02,.1-.03,.1-.03,.4,.03,.4-1.35,.36-1.49-.08-.28-.01-1.12,.03-1.75,0-.09,.01-.18,.02-.26v-.08c0-.1,.01-.18,.01-.25,0-.14-.03-.32-.09-.54-.04-.16-.09-.34-.16-.54-.15-.45-.34-.98-.56-1.51h0Z" style="fill:#9d8873; fill-rule:evenodd;"/><path d="M79.48,159.59c.05,.11,.12,.23,.19,.35,.08,.13,.17,.26,.27,.4,.11,.15,.24,.31,.37,.47l.11,.14c-.14,.03-.28,.04-.43,.05-.14,0-.29-.01-.43-.04-.22-.04-.44-.11-.66-.15-.12-.02-.24-.05-.36-.07,.06-.02,.1-.03,.1-.03,.25,.02,.35-.52,.37-.96,.16-.05,.3-.09,.39-.12,.03,0,.05-.02,.08-.03h0Z" style="fill:#847565; fill-rule:evenodd;"/><path d="M81.23,151.98c.54,.46,1.12,.98,1.41,1.6,.25,.53,1.51,2.74,2.08,3.36-.64-1.62-1.35-3.22-2.13-4.78-.21-.41-.58-.73-.94-1.03-.13,.27-.27,.57-.41,.84h0Z" style="fill:#9d8873; fill-rule:evenodd;"/><path d="M75.65,149.22c.3,.08,.63,.19,.99,.31-.05-.34-.02-.66,.13-.86-.62-.17-1.22-.39-1.86-.49-.06,0-.12-.02-.18-.02,.33,.27,.64,.65,.92,1.07h0Z" style="fill:#aa9884; fill-rule:evenodd;"/></g><g><path d="M65.12,157.07c-.08,.27-.15,.54-.22,.79-.1,.39-.16,.83-.05,1.22,.15,.54,1.63,.49,2.25,.58,.53,.08,1.05,.27,1.59,.29,1.22,.06,2.44-.1,3.65-.05,1.26,.05,2.51,.17,3.76,.34,.24,.03,.48,.07,.71,.12-.08-.86-.51-1.62,.17-2.47,.78-.98-.3-2.87-1.05-3.45-.62-.48,.11-1.54-2.95-.82-.16,.04-1.59,.99-1.75,1.12-.68,.55-3.03,2.38-3.77,2.47-.54,.06-1.52-.05-2.34-.13h0Z" style="fill:#8d7e6c; fill-rule:evenodd;"/><path d="M65.12,157.07c-.08,.27-.15,.54-.22,.79-.1,.39-.16,.83-.05,1.22,.15,.54,1.63,.49,2.25,.58,.53,.08,1.05,.27,1.59,.29,1.22,.06,2.44-.1,3.65-.05,1.26,.05,2.51,.17,3.76,.34,.24,.03,.48,.07,.71,.12-.08-.86-.51-1.62,.17-2.47,.78-.98-.3-2.87-1.05-3.45-.62-.48,.11-1.54-2.95-.82-.16,.04-1.59,.99-1.75,1.12-.68,.55-3.03,2.38-3.77,2.47-.54,.06-1.52-.05-2.34-.13h0Z" style="fill:#5c4f44; fill-rule:evenodd;"/><path d="M65.12,157.07c-.08,.27-.15,.54-.22,.79-.1,.39-.16,.83-.05,1.22,.15,.54,1.63,.49,2.25,.58,.53,.08,1.05,.27,1.59,.29,1.22,.06,2.44-.1,3.65-.05,1.26,.05,2.51,.17,3.76,.34,.24,.03,.48,.07,.71,.12-.04-.37-.13-.72-.18-1.06-.37-.22-.79-.47-1.09-.54-.7-.16-3.48-2.06-4-2.6-.05-.05-.52-.44-1.03-.87-.98,.75-2.49,1.84-3.06,1.91-.54,.06-1.52-.05-2.34-.13Z" style="fill:#6e5f51; fill-rule:evenodd;"/><path d="M65.12,157.07c-.08,.27-.15,.54-.22,.79-.1,.39-.16,.83-.05,1.22,.15,.54,1.63,.49,2.25,.58,.53,.08,1.05,.27,1.59,.29,1.22,.06,2.44-.1,3.65-.05,1.26,.05,2.51,.17,3.76,.34,.24,.03,.48,.07,.71,.12-.04-.37-.13-.72-.18-1.06-.37-.22-.79-.47-1.09-.54-.36-.08-1.3-.64-2.18-1.24-.63-.28-1.29-.6-1.66-.79-.62-.33-1.2-.67-1.83-.95-.91,.66-1.96,1.37-2.41,1.42-.54,.06-1.52-.05-2.34-.13h0Z" style="fill:#4d4339; fill-rule:evenodd;"/></g></g></g></g><g><path d="M135.08,108.79c6.92,0,12.53,5.61,12.53,12.53,0,6.92-5.61,12.53-12.52,12.52-6.92,0-12.53-5.61-12.53-12.52,0-6.92,5.61-12.53,12.53-12.53h0Z" style="fill:#d9e021; fill-rule:evenodd;"/><polygon points="134.27 113.4 132.52 154.54 135.34 154.54 134.27 113.4 134.27 113.4" style="fill:#7c402e; stroke:#7c402e; stroke-linecap:round; stroke-linejoin:round; stroke-width:.53px;"/><polygon points="144.39 121.98 133.78 130.83 134.39 132.51 144.39 121.98 144.39 121.98" style="fill:#7c402e; fill-rule:evenodd; stroke:#7c402e; stroke-linecap:round; stroke-linejoin:round; stroke-width:.19px;"/><polygon points="127.46 116.42 134.56 123.43 133.95 125.1 127.46 116.42 127.46 116.42" style="fill:#7c402e; fill-rule:evenodd; stroke:#7c402e; stroke-linecap:round; stroke-linejoin:round; stroke-width:.19px;"/></g></g></g></g></g></svg>