<svg version="1.1"  xmlns="http://www.w3.org/2000/svg"
	 viewBox="0 0 200.8 201.5">
<g>
	<g id="clouds">
		<g>
			<defs>
				<filter id="Adobe_OpacityMaskFilter" filterUnits="userSpaceOnUse" x="0.4" y="0.8" width="199.7" height="199.9">
					<feColorMatrix  type="matrix" values="1 0 0 0 0  0 1 0 0 0  0 0 1 0 0  0 0 0 1 0"/>
				</filter>
			</defs>
			
				<mask maskUnits="userSpaceOnUse" x="0.4" y="0.8" width="199.7" height="199.9" id="mask_00000036213874776878350130000003933570591606794371_">
				<g id="mask-2_00000152981396523421730750000010722287787099383185_" style="filter:url(#Adobe_OpacityMaskFilter);">
					
						<polygon id="path-1_00000019647401979999878100000007880221890250469563_" style="fill-rule:evenodd;clip-rule:evenodd;fill:#FFFFFF;" points="
						0.4,0.8 200,0.8 200,200.7 0.4,200.7 					"/>
				</g>
			</mask>
			<g style="mask:url(#mask_00000036213874776878350130000003933570591606794371_);">
				<path id="Fill-1" style="fill-rule:evenodd;clip-rule:evenodd;fill:#DCE8EF;" d="M166.7,165.7c-19.6,19.6-44.4,34-70.2,35
					l-0.9,0c-4.7,0.1-9.4-0.2-14-0.9c-7.6-1.2-15.2-3.4-22.4-6.6c0,0,0,0-0.1,0c-2.1-0.9-4.2-1.9-6.3-3c-7.4-3.9-14.4-8.8-20.7-14.4
					c-0.5-0.4-0.9-0.8-1.4-1.2c-1.7-1.6-3.4-3.3-5-5C7.5,149.8-2.4,123.1,1,99.9c3.5-23.2,20.3-43,38.6-61.4
					c18.3-18.5,38-35.7,59.6-37.5c21.5-1.8,44.8,11.8,64.5,30.4c19.6,18.5,35.5,41.8,36.3,65.9C200.7,121.2,186.3,146.1,166.7,165.7
					"/>
			</g>
			<g>
				<defs>
					<path id="SVGID_1_all" d="M166.7,165.7c-19.6,19.6-44.4,34-70.2,35l-0.9,0c-4.7,0.1-9.4-0.2-14-0.9c-7.6-1.2-15.2-3.4-22.4-6.6
						c0,0,0,0-0.1,0c-2.1-0.9-4.2-1.9-6.3-3c-7.4-3.9-14.4-8.8-20.7-14.4c-0.5-0.4-0.9-0.8-1.4-1.2c-1.7-1.6-3.4-3.3-5-5
						C7.5,149.8-2.4,123.1,1,99.9c3.5-23.2,20.3-43,38.6-61.4c18.3-18.5,38-35.7,59.6-37.5c21.5-1.8,44.8,11.8,64.5,30.4
						c19.6,18.5,35.5,41.8,36.3,65.9C200.7,121.2,186.3,146.1,166.7,165.7"/>
				</defs>
				<clipPath id="SVGID_00000117657097045120695540000017259544575342866319_">
					<use xlink:href="#SVGID_1_all"  style="overflow:visible;"/>
				</clipPath>
				<g style="clip-path:url(#SVGID_00000117657097045120695540000017259544575342866319_);">
					<g class="clippedArea">
						<g>
						<path style="fill:#6E9018;" d="M229.9,144.5c2.2-0.2,4.4,0,6.5,0.5c1.3-6.5,6.8-11.6,13.7-12.2c0.2,0,0.3,0,0.5,0
							c1.6-10.2,10.4-18,21-18c8.1,0,15.2,4.6,18.8,11.3l0,0c2.5-0.7,5.1-1.2,7.8-1.2c14.7,0,26.5,11.9,26.5,26.6
							c0,2-0.2,3.9-0.6,5.8h-52.4c0,0-0.1,0-0.1,0c0,0-0.1,0-0.1,0h-58.4C215.7,150.3,222.1,145.2,229.9,144.5L229.9,144.5z"/>
							<path style="fill:#92C020;" d="M87.7,137.6c3.3-0.3,6.6,0,9.7,0.8c2-10.1,10.2-18.1,20.5-19c0.2,0,0.5,0,0.8-0.1
							c2.3-15.8,15.5-28,31.4-28c12.2,0,22.7,7.1,28.1,17.6l0,0c3.7-1.2,7.6-1.8,11.6-1.8c21.9,0,39.7,18.5,39.7,41.3
							c0,3.1-0.3,6.1-0.9,9h-78.3c-0.1,0-0.1,0-0.2,0c-0.1,0-0.1,0-0.2,0H62.6C66.5,146.6,76,138.6,87.7,137.6L87.7,137.6z"/>
							<g>
							<rect x="18.5" y="160.3" style="fill:#9B8579;" width="318.5" height="52.5"/>
								<rect x="40.1" y="148.5" style="fill:#999999;" width="277.9" height="18.2"/>
								<rect x="13" y="166.7" style="fill:#92C020;" width="305" height="14.6"/>
						</g>
							<g>
							<rect x="206.4" y="91.3" style="fill:#CCCCCC;" width="73.6" height="57.8"/>
								<rect x="206.4" y="146.4" style="fill:#18525C;" width="75.1" height="2.7"/>
								<rect x="205.7" y="100.7" style="opacity:0.3;fill:#787878;enable-background:new    ;" width="3.7" height="48.4"/>
								<rect x="212.3" y="119.9" style="fill:#B8B8B8;" width="26.5" height="29.2"/>
								<rect x="213.5" y="121.2" style="fill:#103940;" width="24.1" height="27.9"/>
								<rect x="142.2" y="79.3" style="fill:#F2F2F2;" width="3.5" height="5.3"/>
								<rect x="202.9" y="79.3" style="fill:#FFFFFF;" width="3.5" height="5.3"/>
								<rect x="142.2" y="84.5" style="fill:#F2F2F2;" width="64.2" height="64.6"/>
								<rect x="142.2" y="106.2" style="fill:#38949C;" width="64.2" height="1.7"/>
								<g>
								<rect x="144.5" y="119.9" style="fill:#DBDBDB;" width="30" height="8.7"/>
									<rect x="145.9" y="120.9" style="fill:#3CA2AB;" width="27.3" height="6.7"/>
									<g>
									<rect x="151.5" y="119.9" style="fill:#DBDBDB;" width="1.1" height="8.7"/>
										<rect x="166.5" y="119.9" style="fill:#DBDBDB;" width="1.1" height="8.7"/>
								</g>
							</g>
								<rect x="142.2" y="107.9" style="fill:#DBDBDB;" width="64.2" height="1.2"/>
								<g>
								<rect x="206.4" y="109.5" style="fill:#18525C;" width="74.2" height="1.7"/>
									<rect x="206.4" y="111.1" style="fill:#B8B8B8;" width="74.2" height="1.2"/>
							</g>
								<g>
								<rect x="242.5" y="119.9" style="fill:#B8B8B8;" width="30" height="8.7"/>
									<rect x="243.8" y="120.9" style="fill:#227482;" width="27.3" height="6.7"/>
									<g>
									<rect x="264.4" y="119.9" style="fill:#B8B8B8;" width="1.1" height="8.7"/>
										<rect x="249.5" y="119.9" style="fill:#B8B8B8;" width="1.1" height="8.7"/>
								</g>
							</g>
								<polygon style="opacity:0.3;fill-rule:evenodd;clip-rule:evenodd;fill:#9C9C9C;enable-background:new    ;" points="
								206.8,91.5 217.9,91.5 266.3,149.3 206.8,149.3 							"/>
								<rect x="141.4" y="147.1" style="fill:#227482;" width="65.9" height="2.1"/>
								<g>
								<rect x="176.6" y="119.9" style="fill:#DBDBDB;" width="26.5" height="29.2"/>
									<rect x="177.8" y="121.2" style="fill:#227482;" width="24.1" height="27.9"/>
									<rect x="177.8" y="130" style="fill:#18525C;" width="24.1" height="0.9"/>
									<rect x="189.4" y="130.3" style="fill:#18525C;" width="0.9" height="18.8"/>
									<g>
									<rect x="188.1" y="136.6" style="fill:#DBDBDB;" width="0.4" height="7.2"/>
										<rect x="191.2" y="136.6" style="fill:#DBDBDB;" width="0.4" height="7.2"/>
								</g>
									<polygon style="opacity:0.3;fill-rule:evenodd;clip-rule:evenodd;enable-background:new    ;" points="177.8,121.2
									201.9,121.2 201.9,148 177.8,123.8 								"/>
							</g>
						</g>
					</g>
						<g>
						<path style="fill:#6E9018;" d="M27.4,149.2c1.1-0.1,2.3,0,3.3,0.3c0.7-3.3,3.5-6,7.1-6.3c0.1,0,0.2,0,0.3,0
							c0.8-5.2,5.3-9.2,10.8-9.2c4.2,0,7.8,2.3,9.6,5.8l0,0c1.3-0.4,2.6-0.6,4-0.6c7.5,0,13.6,6.1,13.6,13.6c0,1-0.1,2-0.3,3H48.9
							c0,0,0,0-0.1,0c0,0,0,0-0.1,0h-30C20.2,152.2,23.4,149.5,27.4,149.2L27.4,149.2z"/>
							<path style="fill:#92C020;" d="M-32.5,144.4c1.7-0.2,3.4,0,5,0.4c1-5.8,5.2-10.4,10.5-10.9c0.1,0,0.3,0,0.4,0
							c1.2-9.1,8-16.1,16.1-16.1c6.2,0,11.7,4.1,14.4,10.1l0,0c1.9-0.7,3.9-1,6-1c11.3,0,20.4,10.6,20.4,23.7c0,1.8-0.2,3.5-0.5,5.2
							H-0.4c0,0-0.1,0-0.1,0c0,0-0.1,0-0.1,0h-44.8C-43.4,149.6-38.5,145-32.5,144.4z"/>
							<g>
							<polygon style="fill:#92C020;" points="117.5,175.3 16.9,175.3 29.4,147.4 117.5,147.4 							"/>
								<polygon style="fill:#999999;" points="23.1,167.8 -57,167.8 -57,151.2 31.1,151.2 							"/>
						</g>
							<path style="fill:#006639;" d="M137.2,148.7L137.2,148.7c-1.9-1.8-4.8-3-8-3c-1.7,0-3.3,0.3-4.7,0.9c0.3-2.2-0.3-4.1-1.8-5.1
							c-1.5-0.9-3.4-0.5-4.9,0.8c-2.1-4.9-6.6-8.4-11.9-8.4c-3.8,0-13.6,4-13.6,17.1h44.8"/>
							<g>
							<rect x="-13.9" y="127.2" style="fill:#F2F2F2;" width="26.7" height="24.4"/>
								<g>
								<g>
									<g>
										<rect x="-9.7" y="133.3" style="fill:#63849C;" width="18.7" height="11.1"/>
										<path style="fill:#6D6E71;" d="M9,133.3v11.1H-9.7v-11.1H9 M10.1,132.2h-21v13.3h21V132.2L10.1,132.2z"/>
									</g>
									<polygon style="fill:#95B3C6;" points="-0.4,133.3 -9.7,142 -9.7,136.3 -6.5,133.3 									"/>
									<polygon style="fill:#95B3C6;" points="4,133.3 -7.9,144.4 -9.7,144.4 -9.7,143.4 1.1,133.3 									"/>
								</g>
									<g style="opacity:0.22;">
									<rect x="-9.7" y="134.5" style="fill:#95B3C6;" width="15.2" height="9.9"/>
								</g>
							</g>
								<rect x="-14.6" y="127.4" style="fill:#6D6E71;" width="27.4" height="2.6"/>
								<rect x="-5.1" y="147.4" style="fill:#CCCCCC;" width="4.2" height="1.1"/>
								<rect x="-2.9" y="148.7" style="fill:#CCCCCC;" width="4.2" height="1.1"/>
								<polygon style="opacity:0.6;fill:#CCCCCC;enable-background:new    ;" points="12.9,151.6 3.1,151.6 12.7,127.8 							"/>
								<polygon style="fill:#999999;" points="12.9,127.6 -15.4,127.6 -14.2,123.2 13,123.2 							"/>
						</g>
							<g>
							<rect x="12.9" y="106.5" style="fill:#FFFFFF;" width="43.9" height="46.6"/>
								<rect x="12.9" y="146.7" style="fill:#CCCCCC;" width="43.9" height="6.4"/>
								<rect x="11.9" y="107.8" style="fill:#6D6E71;" width="46" height="2.6"/>
								<polygon style="fill:#999999;" points="59.4,108.6 10.3,108.6 10.8,107.1 13,100.7 15.7,92.4 53.9,92.4 54.9,95.2
								58.9,107.1 							"/>
								<rect x="21.1" y="86.8" style="fill:#FFFFFF;" width="6" height="5.5"/>
								<rect x="20.3" y="86" style="fill:#6D6E71;" width="7.5" height="1.6"/>
								<g>
								<g>
									<rect x="18.3" y="133.4" style="fill:#4D4D4D;" width="9.2" height="17.5"/>
									<path style="fill:#6D6E71;" d="M27.6,133.4v17.5h-9.2v-17.5 M28.5,132.4H17.4v19.4h11.1V132.4L28.5,132.4z"/>
								</g>
									<rect x="18.3" y="133.8" style="fill:#6D6E71;" width="8.8" height="17.1"/>
									<path style="fill:#4D4D4D;" d="M20.3,142.6c0,0.3-0.2,0.5-0.5,0.5s-0.5-0.2-0.5-0.5s0.2-0.5,0.5-0.5S20.3,142.3,20.3,142.6z
									"/>
									<path style="fill:#FFFFFF;" d="M20.5,142.3c0,0.3-0.2,0.5-0.5,0.5c-0.3,0-0.5-0.2-0.5-0.5s0.2-0.5,0.5-0.5
									C20.2,141.8,20.5,142,20.5,142.3z"/>
									<rect x="16.8" y="150.8" style="fill:#B3B3B3;" width="12.4" height="1.7"/>
									<rect x="15.8" y="152.5" style="fill:#B3B3B3;" width="14.2" height="1.7"/>
							</g>
								<polygon style="opacity:0.6;fill:#CCCCCC;enable-background:new    ;" points="41.8,153.1 30.1,153.1 30.1,154.1 22.5,154.1
								23,153.1 23.3,152.5 32.4,132.3 							"/>
								<rect x="32.4" y="134.6" style="fill:#FFFFFF;" width="22.1" height="19.6"/>
								<rect x="50.7" y="113.8" style="fill:#CCCCCC;" width="4.2" height="1.1"/>
								<polygon style="fill:#999999;" points="55.8,135.3 30.8,135.3 31.8,132.3 54.7,132.3 55.3,134 							"/>
								<g>
								<g>
									<g>
										<g>
											<rect x="33" y="116.8" style="fill:#63849C;" width="18.1" height="11.5"/>
											<path style="fill:#6D6E71;" d="M51.1,116.8v11.5H33v-11.5H51.1 M52.1,115.9h-20v13.4h20V115.9
												C52.1,115.9,52.1,115.9,52.1,115.9z"/>
										</g>
										<polygon style="fill:#95B3C6;" points="42.1,116.8 33,125.9 33,121.1 37.3,116.8 										"/>
										<polygon style="fill:#95B3C6;" points="45.6,116.8 34.1,128.3 33,128.3 33,127.1 43.3,116.8 										"/>
									</g>
									<rect x="41.7" y="116.8" style="fill:#6D6E71;" width="0.9" height="11.5"/>
								</g>
									<g style="opacity:0.22;">
									<rect x="33" y="118.1" style="fill:#95B3C6;" width="5.9" height="10.2"/>
								</g>
									<g style="opacity:0.22;">
									<rect x="42.6" y="118.1" style="fill:#95B3C6;" width="5.9" height="10.2"/>
								</g>
							</g>
								<g>
								<g>
									<g>
										<rect x="36.1" y="137.7" style="fill:#63849C;" width="14.8" height="9.4"/>
										<path style="fill:#6D6E71;" d="M50.8,137.7v9.4H36.1v-9.4H50.8 M51.8,136.8H35.2V148h16.6L51.8,136.8L51.8,136.8
											L51.8,136.8z"/>
									</g>
									<polygon style="fill:#95B3C6;" points="43.4,137.7 36.1,145.1 36.1,140.2 38.6,137.7 									"/>
									<polygon style="fill:#95B3C6;" points="46.9,137.7 37.5,147.1 36.1,147.1 36.1,146.2 44.6,137.7 									"/>
								</g>
									<g style="opacity:0.22;">
									<rect x="36.1" y="138.7" style="fill:#95B3C6;" width="12" height="8.4"/>
								</g>
							</g>
								<g>
								<g>
									<g>
										<rect x="18.5" y="116.8" style="fill:#63849C;" width="8.8" height="11.5"/>
										<path style="fill:#6D6E71;" d="M27.3,116.8v11.5h-8.8v-11.5H27.3 M28.3,115.9H17.6v13.4h10.7V115.9
											C28.3,115.9,28.3,115.9,28.3,115.9z"/>
									</g>
									<polygon style="fill:#95B3C6;" points="26.7,116.8 18.5,125 18.5,120.2 21.9,116.8 									"/>
									<polygon style="fill:#95B3C6;" points="27.3,117.4 27.3,119.7 18.7,128.3 18.5,128.3 18.5,126.2 									"/>
								</g>
									<g style="opacity:0.22;">
									<rect x="18.5" y="118.1" style="fill:#95B3C6;" width="5.9" height="10.2"/>
								</g>
							</g>
								<rect x="36.6" y="150" style="fill:#CCCCCC;" width="4.2" height="1.1"/>
								<rect x="38.7" y="151.3" style="fill:#CCCCCC;" width="4.2" height="1.1"/>
						</g>
							<g>
							<g>
								<path style="fill:#AE6D36;" d="M98.4,141.2c-0.2,0-0.3,0-0.3-0.1v-0.3c0-0.2,0.1-0.1,0.3-0.1h16.7c0.1,0,0.2,0,0.3,0.1
									c0,0,0,0.1,0,0.2c0,0.1,0,0.1,0,0.2c0,0,0,0.1,0,0.2c-0.1,0.1-0.2,0-0.3,0L98.4,141.2L98.4,141.2z"/>
								<path style="opacity:0.3;fill:#B1B1B1;enable-background:new    ;" d="M115.5,140.8c0,0,0-0.1,0-0.1
									c-0.1-0.1-0.2-0.1-0.3-0.1H98.4c-0.2,0-0.3,0-0.3,0.1v0H115.5z"/>
								<path style="fill:#C58652;" d="M115.2,140.5c0-0.2,0-0.3,0.1-0.3h0.3c0.2,0,0.1,0.1,0.1,0.3v7.8c0,0.1,0,0.2-0.1,0.3
									c0,0-0.1,0-0.2,0c-0.1,0-0.1,0-0.2,0c0,0-0.1,0-0.2,0c-0.1-0.1,0-0.2,0-0.3L115.2,140.5L115.2,140.5z"/>
								<path style="fill:#C58652;" d="M97.7,140.5c0-0.2,0-0.3,0.1-0.3h0.3c0.2,0,0.1,0.1,0.1,0.3v7.8c0,0.1,0,0.2-0.1,0.3
									c0,0-0.1,0-0.2,0c-0.1,0-0.1,0-0.2,0c0,0-0.1,0-0.2,0c-0.1-0.1,0-0.2,0-0.3V140.5z"/>
								<path style="fill:#C58652;" d="M98.3,141.2v7.1h16.9v-7.1H98.3z M100,147.5c0,0.3-0.1,0.3-0.2,0.3h-0.5
									c-0.1,0-0.2,0-0.2-0.3v-5.3c0-0.3,0.1-0.3,0.2-0.3h0.5c0.1,0,0.2,0,0.2,0.3V147.5z M102.1,147.5c0,0.3-0.1,0.3-0.2,0.3h-0.5
									c-0.1,0-0.2,0-0.2-0.3v-5.3c0-0.3,0.1-0.3,0.2-0.3h0.5c0.1,0,0.2,0,0.2,0.3V147.5z M104.2,147.5c0,0.3-0.1,0.3-0.2,0.3h-0.5
									c-0.1,0-0.2,0-0.2-0.3v-5.3c0-0.3,0.1-0.3,0.2-0.3h0.5c0.1,0,0.2,0,0.2,0.3V147.5z M106.2,147.5c0,0.3-0.1,0.3-0.2,0.3h-0.5
									c-0.1,0-0.2,0-0.2-0.3v-5.3c0-0.3,0.1-0.3,0.2-0.3h0.5c0.1,0,0.2,0,0.2,0.3V147.5z M108.3,147.5c0,0.3-0.1,0.3-0.2,0.3h-0.5
									c-0.1,0-0.2,0-0.2-0.3v-5.3c0-0.3,0.1-0.3,0.2-0.3h0.5c0.1,0,0.2,0,0.2,0.3V147.5z M110.4,147.5c0,0.3-0.1,0.3-0.2,0.3h-0.5
									c-0.1,0-0.2,0-0.2-0.3v-5.3c0-0.3,0.1-0.3,0.2-0.3h0.5c0.1,0,0.2,0,0.2,0.3V147.5z M112.4,147.5c0,0.3-0.1,0.3-0.2,0.3h-0.5
									c-0.1,0-0.2,0-0.2-0.3v-5.3c0-0.3,0.1-0.3,0.2-0.3h0.5c0.1,0,0.2,0,0.2,0.3V147.5z M114.5,147.5c0,0.3-0.1,0.3-0.2,0.3h-0.5
									c-0.1,0-0.2,0-0.2-0.3v-5.3c0-0.3,0.1-0.3,0.2-0.3h0.5c0.1,0,0.2,0,0.2,0.3V147.5z"/>
								<path style="fill:#AE6D36;" d="M97.1,149c-0.3,0-0.4,0-0.4-0.1v-0.3c0-0.2,0.1-0.1,0.4-0.1h19.4c0.1,0,0.3,0,0.3,0.1
									c0,0,0,0.1,0,0.2c0,0.1,0,0.1,0,0.2c0,0,0,0.1,0,0.2c-0.1,0.1-0.2,0-0.3,0H97.1L97.1,149z"/>
								<path style="fill:#AE6D36;" d="M97.1,150.7c-0.3,0-0.4,0-0.4-0.3v-0.8c0-0.4,0.1-0.3,0.4-0.3h19.4c0.1,0,0.3-0.1,0.3,0.1
									c0,0.1,0,0.2,0,0.4c0,0.2,0,0.3,0,0.5c0,0.1,0,0.3,0,0.4c-0.1,0.2-0.2,0.1-0.3,0.1H97.1L97.1,150.7z"/>
								<path style="fill:#C58652;" d="M116.6,146.9c0-0.2,0-0.3,0.2-0.3h0.5c0.3,0,0.2,0.1,0.2,0.3v7.1c0,0.1,0,0.1,0,0.2
									c0,0.1-0.1,0.1-0.3,0.1c-0.1,0-0.3,0-0.4,0c0,0-0.1,0-0.1,0c-0.1,0-0.1-0.2-0.1-0.3L116.6,146.9L116.6,146.9z"/>
								<path style="fill:#C58652;" d="M117.7,146.2c0.2,0,0.3,0,0.3,0.2v0.5c0,0.2-0.1,0.2-0.3,0.2h-1.2c-0.1,0-0.1,0-0.2,0
									c-0.1,0-0.1-0.1-0.1-0.3c0-0.1,0-0.3,0-0.4c0,0,0-0.1,0-0.1c0-0.1,0.2-0.1,0.3-0.1H117.7L117.7,146.2z"/>
								<path style="fill:#C58652;" d="M96,146.9c0-0.2,0-0.3,0.2-0.3h0.5c0.3,0,0.2,0.1,0.2,0.3v7.1c0,0.1,0,0.1,0,0.2
									c0,0.1-0.1,0.1-0.3,0.1c-0.1,0-0.3,0-0.4,0c0,0-0.1,0-0.1,0c-0.1,0-0.1-0.2-0.1-0.3V146.9L96,146.9z"/>
								<path style="fill:#C58652;" d="M97.1,146.2c0.2,0,0.3,0,0.3,0.2v0.5c0,0.2-0.1,0.2-0.3,0.2h-1.2c-0.1,0-0.1,0-0.2,0
									c-0.1,0-0.1-0.1-0.1-0.3c0-0.1,0-0.3,0-0.4c0,0,0-0.1,0-0.1c0-0.1,0.2-0.1,0.3-0.1H97.1z"/>
								<path style="fill:#C58652;" d="M116.1,139.8c0,0.3-0.3,0.6-0.6,0.6c-0.3,0-0.6-0.3-0.6-0.6s0.3-0.6,0.6-0.6
									C115.9,139.2,116.1,139.4,116.1,139.8z"/>
								<path style="fill:#C58652;" d="M98.6,139.8c0,0.3-0.3,0.6-0.6,0.6s-0.6-0.3-0.6-0.6s0.3-0.6,0.6-0.6S98.6,139.4,98.6,139.8z
									"/>
							</g>
								<path style="fill:#BBC15D;" d="M95.1,154.8c-0.2-0.1-0.4-0.7-0.2-0.9c0.2-0.2,0.6,0.1,0.7,0.2c0-0.2-0.4-1.1-0.1-1.2
								c0.4,0,0.7,0.8,0.9,1c-0.1-0.2,0-0.8,0.3-0.7c0.3,0.1,0.3,0.4,0.3,0.6c0-0.2,0.1-0.4,0.3-0.3c0.2,0.1,0.2,0.9,0.2,1
								L95.1,154.8L95.1,154.8z"/>
								<path style="fill:#BBC15D;" d="M116.2,154.4c-0.3-0.2-0.6-0.6-0.4-0.9c0.2-0.3,0.4,0.1,0.6,0.3c0-0.2-0.1-0.4,0.2-0.4
								c0.1,0,0.2,0.2,0.3,0.3c0-0.1,0-0.6,0.3-0.6c0.2,0.1,0.1,0.5,0.2,0.6c0.2-0.2,0.4-0.4,0.6-0.1c0.1,0.2,0,0.5,0,0.7
								L116.2,154.4L116.2,154.4z"/>
						</g>
							<g>
							<path style="fill-rule:evenodd;clip-rule:evenodd;fill:#6E9018;" d="M75.7,101c7.5,0,13.5,6.1,13.5,13.5
								c0,7.5-6.1,13.5-13.5,13.5c-7.5,0-13.5-6.1-13.5-13.5C62.2,107.1,68.2,101,75.7,101C75.7,101,75.7,101,75.7,101z"/>
								<polygon style="fill:#7C402E;stroke:#7C402E;stroke-width:0.5766;stroke-linecap:round;stroke-linejoin:round;" points="
								74.8,106 72.9,150.4 76,150.4 74.8,106 							"/>

								<polygon style="fill-rule:evenodd;clip-rule:evenodd;fill:#7C402E;stroke:#7C402E;stroke-width:0.2035;stroke-linecap:round;stroke-linejoin:round;" points="
								85.7,115.3 74.3,124.8 74.9,126.6 85.7,115.3 							"/>

								<polygon style="fill-rule:evenodd;clip-rule:evenodd;fill:#7C402E;stroke:#7C402E;stroke-width:0.2035;stroke-linecap:round;stroke-linejoin:round;" points="
								67.4,109.3 75.1,116.8 74.5,118.6 67.4,109.3 							"/>
						</g>
							<g>
							<path style="fill-rule:evenodd;clip-rule:evenodd;fill:#D9E021;" d="M66.1,118.6c5,0,9.1,4.1,9.1,9.1c0,5-4.1,9.1-9.1,9.1
								c-5,0-9.1-4.1-9.1-9.1C57,122.7,61.1,118.6,66.1,118.6L66.1,118.6z"/>
								<polygon style="fill:#7C402E;stroke:#7C402E;stroke-width:0.3873;stroke-linecap:round;stroke-linejoin:round;" points="
								65.5,121.9 64.2,151.8 66.3,151.8 65.5,121.9 							"/>

								<polygon style="fill-rule:evenodd;clip-rule:evenodd;fill:#7C402E;stroke:#7C402E;stroke-width:0.1367;stroke-linecap:round;stroke-linejoin:round;" points="
								72.8,128.2 65.2,134.6 65.6,135.8 72.8,128.2 							"/>

								<polygon style="fill-rule:evenodd;clip-rule:evenodd;fill:#7C402E;stroke:#7C402E;stroke-width:0.1367;stroke-linecap:round;stroke-linejoin:round;" points="
								60.6,124.1 65.7,129.2 65.3,130.4 60.6,124.1 							"/>
						</g>
							<g>
							<path style="fill-rule:evenodd;clip-rule:evenodd;fill:#A5CD39;" d="M88.3,111.3c6.2,0,11.2,5,11.2,11.2
								c0,6.2-5,11.2-11.2,11.2c-6.2,0-11.2-5-11.2-11.2C77.1,116.3,82.1,111.3,88.3,111.3C88.3,111.3,88.3,111.3,88.3,111.3z"/>
								<polygon style="fill:#7C402E;stroke:#7C402E;stroke-width:0.4758;stroke-linecap:round;stroke-linejoin:round;" points="
								87.5,115.4 86,152 88.5,152 87.5,115.4 							"/>

								<polygon style="fill-rule:evenodd;clip-rule:evenodd;fill:#7C402E;stroke:#7C402E;stroke-width:0.168;stroke-linecap:round;stroke-linejoin:round;" points="
								96.6,123 87.1,130.9 87.6,132.4 96.6,123 							"/>

								<polygon style="fill-rule:evenodd;clip-rule:evenodd;fill:#7C402E;stroke:#7C402E;stroke-width:0.168;stroke-linecap:round;stroke-linejoin:round;" points="
								81.5,118.1 87.8,124.3 87.3,125.8 81.5,118.1 							"/>
						</g>
							<g>
							<path style="fill-rule:evenodd;clip-rule:evenodd;fill:#92C020;" d="M109.4,156.3c0.9,0-0.4,0.6,2.1,0.6
								c1.7,0,3.6,0.2,5.4,0.2c1.2,0,1.8-0.1,2.7,0.6c0.3,0.2,0.9-0.2,0.1,0.4c-1.2,0.9,7.7,1.1,8.1,1.3c0,0,1,0.2,1.2,0.3
								c-0.1,0.3-1.1,0,0.8,0.8c1.6,0.6-1.5,0.8,2,1.8c0.7,0.2,1.8,0.9,2.1,0.8c0.5-0.1,0.5-0.3,1.1,0.1c0,0.5-0.6,0.7,1.1,0.7
								c0.6,0,0.2,0.2,0.7,0.2c0.4-0.1,0.6,0.2-0.2,0.3c-1.6,0.3,0.9,0.5,1.2,0.5c0.1,0,4.1,0.2,2.9,0.7c-0.2,0.1-3.2,0.3-1.5,0.8
								c1,0.3-4.3,0.5-1.9,1.4c1.3,0.5-1.8,0.5-2.3,1c-0.7,0.8,1.6,0.6,0.3,1.3c-1.1,0.6,0.2,1.2,0.8,1.3c1.9,0.4-1.5,1.1,2.3,1
								c1.2-0.1,0.9,0.9-1.4,0.8c-0.5,0-4.7,0.9-4.8,1.2c-0.1,0.3,1.2,0.6-0.8,1.2c-0.6,0.2-5.1,0.6-5.1,0.7c0,0,0.6,0.5-1.1,0.5
								c-1.6,0-0.6,0.4-1.2,0.6c-0.5,0.3,1.3,0.5-0.8,0.8c-0.5,0.1-0.5,0.6,0,0.6c-0.2,0.9-1.5,0.4-2.2,0.4c-0.4,0-4.3-0.4-3.2,0.6
								c1,0.9-2.3,0.7-2.7,0.8c-0.4,0.2-1.2-0.3-0.5,0.6c0.4,0.4-1.2,0-0.3,0.9c1,0.9-6.5-0.2-6.8-0.2c-0.4,0-3.5-0.3-3.1,0.5
								c0.6,1.1-3,0.2-3,0.6c0,1.6-2.7,1.7-3.8,2.3c-0.3,0.2-5.9,1.9-6.2,1.5c-0.6-0.9,0.2-0.4-0.4-0.8c-0.1,0-1.9-0.1-1.4-0.3
								c0.2-0.7-5.7,0.4-6.4,0.1c0,0-3.7,0-3-0.5c0.3-0.2,2.7-0.1-0.4-1.6l-0.3-0.1c-1.2-0.5-4.5,0-6.1-0.1c-0.6,0-2.5,1.4-4.8,0.9
								c0,0-1.6-0.2-0.9-0.4c1-0.3-2.7-1.5-4.1-0.9c-0.7,0.3-2.4,0.2-3-0.2c-0.8-0.5-2.4,0.2-3.5-0.4c-0.6-0.3-3.4-0.1-4.6-0.7
								c-0.2-0.1-2.3-0.2-1.5-0.5c0.1,0,1,0.2,0.6-0.2c-0.4-0.4,3.2-0.1,3.7-0.3c0.8-0.3,2.2-0.3-0.1-0.8c-0.8-0.2-1.2,0.1-2.2-0.4
								c-0.8-0.4-2-0.2-2.9-0.2c-0.7,0.2-3.3-1.2-4.9-1.2c-0.3,0-5.4-0.6-4.3-1.4c0.8-0.7,4.1,0.2,4.1-0.7c0-1.1,0.1-1.1,1.3-1.4
								c0.3-0.1,1.2,0.4,1-0.3c-0.2-0.6,2.1-0.3,0.7-0.8c-1.1-0.5-4.7,1.3-6.4-0.2c-0.8-0.7-2.7,0-2.6-1.4c0-0.9-3-0.5-3.5-0.8
								c-0.9-0.5-1.9-0.3-2-0.5c-0.5-0.9,4.6-0.6,3.4-1.4c-0.4-0.3-0.8-0.3-0.9-0.5c0.2-0.2,1.7,0,1.8-1.1c0-0.6,2.6-0.8,1-1
								c-0.5-0.1-3.5,0.1-2.8-0.8c0.2-0.3,1.2,0.1,1.6-1c0.3-0.8,2.5-0.4,2.8-1.3c3-0.7,1.3-0.8,1.5-1.1c-0.1-0.8,0.9-0.3,1.7-1
								c1.3-1.1,2.6,0,4.4-0.6c0,0,1.2-0.3,1.2-0.3c1.2-0.2-1.4-0.6-0.1-0.8c1.1-0.2,1.7-0.8,2.8-0.6c1.2,0.2,0.5-0.8,0.9-0.8
								c1.8-0.4,1.7,0.3,3.5-0.8c0.5-0.3,3.1-0.2,4.1-0.3c0.5-0.1,2.1,0,2.5,0.1c2.2,0.8,11.9-1.2,14.7-1.4c1.4-0.1,2.5,0,3.9,0
								c0.9,0.4,1.7-0.5,3.2-0.2c0.3,0.1,1.6,0.1,1.6-0.2c0-0.1,2.8,0.1,3.4-0.1c0.6-0.2,1.8-0.1,2.3,0.2c0,0,3.8,0.5,4.1,0.5
								c0.7,0,6.9-0.2,7.1-0.1c0.5,0.6,3.5,0.3,4.5,0.3C108.3,156.1,109,156.3,109.4,156.3L109.4,156.3z"/>
								<path style="fill-rule:evenodd;clip-rule:evenodd;fill:#92C020;" d="M109.4,156.3c0.9,0-0.4,0.6,2.1,0.6
								c1.7,0,3.6,0.2,5.4,0.2c1.2,0,1.8-0.1,2.7,0.6c0.3,0.2,0.9-0.2,0.1,0.4c-1.2,0.9,7.7,1.1,8.1,1.3c0,0,1,0.2,1.2,0.3
								c-0.1,0.3-1.1,0,0.8,0.8c1.6,0.6-1.5,0.8,2,1.8c0.7,0.2,1.8,0.9,2.1,0.8c0.5-0.1,0.5-0.3,1.1,0.1c0,0.5-0.6,0.7,1.1,0.7
								c0.6,0,0.2,0.2,0.7,0.2c0.4-0.1,0.6,0.2-0.2,0.3c-1.6,0.3,0.9,0.5,1.2,0.5c0.1,0,4.1,0.2,2.9,0.7c-0.2,0.1-3.2,0.3-1.5,0.8
								c1,0.3-4.3,0.5-1.9,1.4c1.3,0.5-1.8,0.5-2.3,1c-0.7,0.8,1.6,0.6,0.3,1.3c-1.1,0.6,0.2,1.2,0.8,1.3c1.9,0.4-1.5,1.1,2.3,1
								c1.2-0.1,0.9,0.9-1.4,0.8c-0.5,0-4.7,0.9-4.8,1.2c-0.1,0.3,1.2,0.6-0.8,1.2c-0.6,0.2-5.1,0.6-5.1,0.7c0,0,0.6,0.5-1.1,0.5
								c-1.6,0-0.6,0.4-1.2,0.6c-0.5,0.3,1.3,0.5-0.8,0.8c-0.5,0.1-0.5,0.6,0,0.6c-0.2,0.9-1.5,0.4-2.2,0.4c-0.4,0-4.3-0.4-3.2,0.6
								c1,0.9-2.3,0.7-2.7,0.8c-0.4,0.2-1.2-0.3-0.5,0.6c0.4,0.4-1.2,0-0.3,0.9c1,0.9-6.5-0.2-6.8-0.2c-0.4,0-3.5-0.3-3.1,0.5
								c0.6,1.1-3,0.2-3,0.6c0,1.6-2.7,1.7-3.8,2.3c-0.3,0.2-5.9,1.9-6.2,1.5c-0.6-0.9,0.2-0.4-0.4-0.8c-0.1,0-1.9-0.1-1.4-0.3
								c0.2-0.7-5.7,0.4-6.4,0.1c0,0-3.7,0-3-0.5c0.3-0.2,2.7-0.1-0.4-1.6l-0.3-0.1c-1.2-0.5-4.5,0-6.1-0.1c-0.6,0-2.5,1.4-4.8,0.9
								c0,0-1.6-0.2-0.9-0.4c1-0.3-2.7-1.5-4.1-0.9c-0.7,0.3-2.4,0.2-3-0.2c-0.8-0.5-2.4,0.2-3.5-0.4c-0.6-0.3-3.4-0.1-4.6-0.7
								c-0.2-0.1-2.3-0.2-1.5-0.5c0.1,0,1,0.2,0.6-0.2c-0.4-0.4,3.2-0.1,3.7-0.3c0.8-0.3,2.2-0.3-0.1-0.8c-0.8-0.2-1.2,0.1-2.2-0.4
								c-0.8-0.4-2-0.2-2.9-0.2c-0.7,0.2-3.3-1.2-4.9-1.2c-0.3,0-5.4-0.6-4.3-1.4c0.8-0.7,4.1,0.2,4.1-0.7c0-1.1,0.1-1.1,1.3-1.4
								c0.3-0.1,1.2,0.4,1-0.3c-0.2-0.6,2.1-0.3,0.7-0.8c-1.1-0.5-4.7,1.3-6.4-0.2c-0.8-0.7-2.7,0-2.6-1.4c0-0.9-3-0.5-3.5-0.8
								c-0.9-0.5-1.9-0.3-2-0.5c-0.5-0.9,4.6-0.6,3.4-1.4c-0.4-0.3-0.8-0.3-0.9-0.5c0.2-0.2,1.7,0,1.8-1.1c0-0.6,2.6-0.8,1-1
								c-0.5-0.1-3.5,0.1-2.8-0.8c0.2-0.3,1.2,0.1,1.6-1c0.3-0.8,2.5-0.4,2.8-1.3c3-0.7,1.3-0.8,1.5-1.1c-0.1-0.8,0.9-0.3,1.7-1
								c1.3-1.1,2.6,0,4.4-0.6c0,0,1.2-0.3,1.2-0.3c1.2-0.2-1.4-0.6-0.1-0.8c1.1-0.2,1.7-0.8,2.8-0.6l0,0c0.1,0.3,0,0.5-0.3,0.8
								c-0.3,0.3-6,1.6-6.9,1.9c-1.4,0.4-1.2,0-1.7,1c-0.3,0.5-2.7,1.7-3.3,2.1c-0.9,0.6-1.6,0.7-0.3,1.3c1.1,0.5-0.4,1.7-0.4,1.7
								c-1.4,0.4-1.3,1.8-0.3,2c-0.7,0,1.3,0.3,0.6,0.9c-1.1,1.1,1.7,1.4,2.6,1.8c1.4,0.7,0.5,0.5,2.1,0.6c0.9,0.1,3.3-0.4,3.8-0.2
								c1.8,0.8,0.6,1,0.5,1.6c-0.2,0.9-1.7,1.2-0.9,1.7c1.6,1.1,0.1,0.5-0.9,0.7c-0.4,0.1-2,0-1.5,0.3c3.4,1.9,4.6,0.6,7.7,1.3
								c1.2,0.3,4.5,0.7,5.1,1.5c0.4,0.5-2.7,0.8-2.7,1.2c0.7,0.2,2.5,0.2,3.2,0.4c0.8,0.3,4.4,0.7,5.1,0.4c0.6-0.2,1.7,0.1,2.3,0.4
								c1.9,1,2.4,0.4,4,0.4c0.3,0.1,3.3-0.2,4.1-0.2c1.9,0.1,3.9-0.4,6-0.4c0.9,0,3.8,0.4,4.3,1c0.3,0.4,1.4,0.4,1.9,0.3
								c1-0.2,6.3-0.1,6.5,1.3c0.3,1.7,4.5-0.4,5.3-1c1.4-1.1,1.2-0.6,2.4-1.2c0.8-0.4,3.1-0.4,2.6-1.1c-0.8-1.1,2.9-0.7,3.3-0.6
								c1.7,0.5,3.8,0.3,5.2,0.6c2.4,0.5,1.9-0.2,2.4-0.8c1-1.1-0.6-1.5,0-1.9c-0.1,0-0.1,0-0.1,0c1.1-0.5,4.2-0.6,5.3-0.4
								c3.7,0.4,0.8-0.5,0.6-0.8c-0.7-1.2,3.5-0.5,4.1-1.5c0.4-0.8,2.4-0.7,3.3-0.9c0.9-0.2,4.4-0.5,4.7-1.4c0.3-1,2.4-0.9,3.2-1
								c2.8-0.2,0-1.1,0-1.6c0-0.8-0.4-2.4,0.2-2.9c0.4-0.3,1.2-1.4,1-1.7c-0.4-0.6,0-1.2,0.4-1.3c1-0.3-1.5-0.7-1.8-1.1
								c-1.8-1.9-4-0.9-4.7-3c-0.4-1.1-2-0.4-2.5-1.3c-0.5-0.8-1.1-0.5-2.1-0.5c-1.4,0-4.8-0.1-5.9-0.6c-2.1-0.8-0.8-1.3-3-1.4
								c-1.8-0.1-3.4-0.2-5.2-0.2c-0.6,0-3-0.6-3.3-0.9c-0.1-0.1-0.2-0.2-0.3-0.2c0.1,0,0.2,0,0.3,0
								C108.3,156.1,109,156.3,109.4,156.3L109.4,156.3z"/>
								<path style="fill-rule:evenodd;clip-rule:evenodd;fill:#77A82B;" d="M80.3,157.5c-0.7,0-2.3,0-2.9,0.2
								c-0.4,0.2-10.4,0.2-11,0.1c-0.8-0.2-2.7,0.3-3.4,0.2c-0.3-0.1-2.4,0.5-2.5,0.8c0.2,0.3-1.6,0.4-1.8,0.4
								c-0.5,0.1-4.2,0.3-4.4,0.1c-0.4-0.3-1.4,0.3-1.7,0.6c-0.8,0.8-1.9,0.8-2,1.2c-0.4,0,0.1,0.3,0.1,0.3c0.6,1.1-0.7,0.8-1.2,0.8
								c-2.4,0-2,1.3-3.8,1.4c-2.2,0.1-1.4,0.2-3,0.7c-1,0.3-2.2,2-2.1,2.1c0.3,1.2,2.5,1.2,3.1,1.4c0.8,0.3,2,0.1,2.4,0.1
								c2.1,0.3,0.6,0.7,0.6,0.8c-0.9,1,0.3,1.8-0.4,1.8c-1-0.1-3.2,1-0.3,1.4c1.2,0.1,1,0.3,2.2,0.7c1.8,0.6,7.1,1.5,9,1.5
								c0.7,0,1.4-0.2,1.4,0.5c-0.1,0-0.4,0-0.3,0.1c1,0.8,0.4,0.3-0.7,0.8c-2.1,1.1,1.6,1.1,2.2,1.8c0.7,0.8,0.2,1-0.7,1.3
								c-1.8,0.6-0.1,1.7,0.3,1.7c2.1-0.1-0.9,1.1,2.2,1.4c1,0.1,1.4,0,2.1,0.1c0.6,0.1,1.7-1.2,2.8-0.4c0.5,0.3,3.8-0.7,3.2-1.4
								c-0.2-0.2,0.3-1.5,1.3-0.8c0.6,0.4-1.6,0.4,2.6,1.3c1.6,0.3,3.9-0.1,5.7,0.3c1.5,0.3,3.4,0.2,4.6,0.4c0.2,0,4.6-0.4,4.8-0.5
								c1.7-0.9,3.2-0.2,4.4-0.6c1-0.4,3.4-0.4,3.8-0.8c1.1-0.9,1-0.9,2.6-0.7c0.1,0.1,0.3,0,0.4,0c1.2-0.5,3.4-0.3,4.6,0.2
								c1.6,0.7,3.2-0.7,4.1-0.8c1.3-0.1,2.1-0.9,2.7-0.9c0.6,0,1.1-0.6,1.2-1c0.1-0.3,2.2-0.1,2.2-0.1c0.7,0.3,5-0.5,4.1-1.5
								c-1.1-1.2,0.7-0.6,1.3-0.7c1.1-0.3,1,1,1.4,1.1c2.6,0.3,2.4-1.8,3.3-1.4c0.2,0.1,0.4-1,0.9-0.4c0.5,0.7,0.8,0.6,1.5,0.6
								c0.5,0,2.8-1,2-1.6c-1.1-0.9,0.5-1.4,0-0.8c-0.4,0.5,3,1.2,3.3,1.2c1.8-0.4,1.9-0.5,0.7-1.6c-0.8-0.8-0.4-0.7-1.3-1.3
								c-0.6-0.4-1.5-0.3-1.9-0.5c-1.2-0.5-2.2-0.4-0.3-1.2c0.7-0.3,3-0.5,3.9-0.6c1.9-0.2,2.2-0.2,0.8-1.3
								c-0.6-0.5-2.8-1.2-2.7-1.5c0.6-1.3-1.4-1.3-1.5-1.7c-0.1-0.8-3.2-1.1-3.9-1.1c-0.2,0-1.8-0.2-1-0.2c2.1,0-3.5-0.9-3.5-0.9
								c-0.8-0.3-1.9,0.1-2.1,0c-0.9-0.7-1.8-0.6-2.8-0.6c-3.3,0-0.9-0.7-0.8-1.1c0.2-1.2-3.3-1.2-4-1.2c-0.2,0.1-2.4,0.1-3.1,0.6
								c-0.7,0.5-2.4,0.6-3.2,1c-0.8,0.3-1.6,0.1-2.2,0.1c-2.4,0.1-3.9-0.5-6.2-0.9c-1.5-0.3-5.3-2.2-6.3-1.8
								c-1.9,0.7-3.7,0.2-5.5,0.6C85,157.2,80.3,157.5,80.3,157.5L80.3,157.5L80.3,157.5z M131,172.5c0.3,0.1,1,0.1,1,0.6
								c-0.1,0-0.4,0.4-1,0.5c-0.4,0.1-1.6,0-1.9-0.3c-0.1-0.1,0-0.7,0.3-0.8c0.1,0,0.1,0,0.1,0C129.9,172.6,130.6,172.4,131,172.5
								L131,172.5z"/>
								<path style="fill-rule:evenodd;clip-rule:evenodd;fill:#5C8D2B;" d="M94.1,159.6c-4,0-7.2-0.6-11.2,0.5
								c-3.6,1-6.9,1.5-10.6,1.2c-4.3-0.3-8.6-0.6-12.9-0.6c-0.3,0-0.7-0.1-1.1-0.2c-3-0.4-2.4,0.3-4.6,1.2c-0.6,0.3-1,0.5-1.4,0.2
								l-0.1-0.1c-0.9-0.1-1.5,1.2-3.4,1c-0.1,0-1.5,1-2.5,1c-0.6,0-1.2,0.2-1.7,0.2c-1.3,0.2-2.5,0.8-3.4,1.7
								c-1.2,1.1,1.4,1.5,1.9,1.4c1.9-0.1,1.3-0.2,3,0.3c1.2,0.4,2.4,0.4,1,1.6c-1.4,1.2,0.6,1,0.4,1.3c0,0.1-0.3,0-0.7,0.6
								c-0.3,0.4,2,0.5,2.1,0.5c0.4,0,1.9,0.5,1.9,0.5c0.5,0,4.6,0.9,5.1,1.2c1.1,0.5,2.4,0.5,3.3,0.9c0.6,0.3,0.8,0.2,0.9,0.3
								c1.1,0.5-0.6,1.5-1,1.7c-0.4,0.2,1.9,1.3,2,1.9c0.3,0.8,2.7,0.6,3.2,0.3c1-0.6,0.7-0.6,2-0.8c0.6-0.2,2.9,0.1,3.2-0.1
								c1.1-0.5,2.5-0.4,3.3,0.5c0.2,0.2-1.6,0.7-0.8,1.3c1.8,1.3,4.2,0.5,5,0.8c1.1,0.3,5.4,0.6,6.3,0.1c0.8-0.4,1.3-0.7,2.2-1.1
								c0,0,6.7-0.8,7.2-0.9c1.9-0.1,2.7-0.8,4.9-0.9c1.8-0.1,3.8-0.5,5.6,0.1c0.1,0.2,1.9,0.5,2.2,0.6c0.4,0.1,2.7-0.4,2.8-0.6
								c0.2-0.6,1.6-0.6,2-0.8c0.4-0.3,0.6-0.3,0.6-0.9c0-0.7,3.7-0.4,4.2-0.4c1.9,0.2,0.3-0.3-0.3-0.3c-0.7,0-1.2-0.4-1.4-1
								c-0.2-0.4-1.1-1-0.3-1.3c-0.3,0,1.4-0.2,1.4-0.2c0.6-0.1,1.8-0.1,2.4-0.2c0.7-0.1,2.3,0.1,2.9,0.2c0.1,0,4.3-0.3,4.4-0.3
								c0.7-0.3,0.5-0.3,1.4-0.4c0.7-0.1,1,0,1.7-0.2c0.4-0.1,0.5-0.3,0.7-0.5c0.6-0.5,0.8-0.5,0.3-1.1c-0.3-0.4-1.5-0.8-1.3-0.8
								c0.3-0.2-0.3-0.7,0-0.9c0.2-0.1,2.9-1,3.2-1c1-0.1,2.1-0.2,3-0.6c1.5-0.7-1.8-1.6-2.2-1.8c-0.6-0.2-1.2-0.4-1.4-1.1l-0.1-0.1
								c-0.1-0.1-0.7-0.4-0.8-0.5c-0.2-0.1-3.5-0.2-3.8-0.2c-2.9,0-6.2-0.9-8.7-0.8c-1.5,0-11.5-1.1-13.4-1.5
								C101.8,160.5,94.9,159.3,94.1,159.6L94.1,159.6L94.1,159.6z M133.8,170.9c0.1,0,0.5,0,0.7,0.1c0.3,0.1,0.7,0.2,0.7,0.6
								c0,0.2-0.5,0.5-0.7,0.5c-0.3,0-0.4,0.2-0.6,0.2c-0.2,0-0.2,0.2-0.9,0.2c-0.5,0-0.7-0.2-1.2-0.1c-0.4,0-2.4-0.2-2.7-0.3
								c-0.3-0.2-0.6-0.7-0.3-1c0.2-0.1,0.6-0.4,0.5-0.6c0-0.1-0.8-0.2-0.6-0.7c0.2-0.4,2.3-0.3,2.6-0.3c0.8,0.1,1.8,0.2,2.2,1
								C133.5,170.6,133.7,170.9,133.8,170.9L133.8,170.9L133.8,170.9z M130.6,172.9c0.1,0,0.9,0.1,0.5,0.4c-0.2,0.1-0.7-0.2-1,0
								c-0.6,0.3-1.1-0.5-0.4-0.4C130.1,172.8,130.4,172.8,130.6,172.9L130.6,172.9L130.6,172.9z M127.3,172.2
								c0.3,0.1,1.9-0.2,1.9,0.6c0,0.2-0.6,0.2-0.6,0.6c0,0.3-1.3,0.4-1.6,0.4c-0.3-0.1-0.7,0.1-1-0.2c-0.3-0.4-0.2-0.4-0.7-0.7
								c-0.2-0.1-0.1-0.4,0.2-0.4c0.4-0.1,0.7-0.2,1.2-0.3C126.9,172.1,127.1,172.1,127.3,172.2L127.3,172.2L127.3,172.2z
								 M124.4,172.8c0,0,1.1,0.2,0.8,0.4c-0.2,0.2-0.9,0.2-1.2,0.1c-0.3-0.1-0.8-0.2-0.3-0.5C123.8,172.8,124.3,172.8,124.4,172.8
								L124.4,172.8L124.4,172.8z M122.9,173.8c0.1,0.1,1,0.1,1.3,0.2c0.2,0.1,0.6,0.2,0.5,0.5c-0.2,0.6-1.6,0.5-2.1,0.5
								c-0.5,0-1.7-0.1-1.3-0.9c0.1-0.2,0.6-0.3,0.8-0.3C122.2,173.7,122.9,173.6,122.9,173.8C122.9,173.7,122.9,173.8,122.9,173.8
								L122.9,173.8L122.9,173.8z M59.4,179.6c0.9-0.2,1.8-0.3,2.7,0.1c0.4,0.2,0.3,0.4,0,0.5c0.7,0,1.5,0.1,1.7,0.1
								c0.4,0,1.4,0.1,1.4,0.1c0.2,0,3.9,0.9,2.6,1.5c-0.4,0.2-1.7,0.4-2.2,0.4c-1.2,0.1-1.4-0.3-2.4-0.3c-0.9,0-2.1-0.3-2.5-1.2
								c-0.1-0.3,0-0.4,0.3-0.5c-0.2,0-0.4,0-0.7-0.1c-0.3,0-1.4-0.2-1.1-0.6C59.2,179.6,59.3,179.6,59.4,179.6L59.4,179.6
								L59.4,179.6z M68.2,179.4c0.5,0.1,1.2,0.5,0.8,0.9c-0.3,0.3-2.2,0-2.7-0.1c-0.8-0.1-0.3-0.8,0.1-0.8
								C66.7,179.3,67.8,179.3,68.2,179.4L68.2,179.4z"/>
								<g>
								<path style="fill-rule:evenodd;clip-rule:evenodd;fill:#329AD1;" d="M100.5,157.1c0.9,0.3,4.3-0.3,4.3,0.4
									c0.1,0.7,7.2,0.3,8.2,0.6l0.3,0.1c0.4,0.1,2.3,0.7,0.8,0.9c-0.6,0.1-0.8,0.3-1.7,0.3c-2.2,0-1.4,0.7-0.9,0.6
									c0.7,0,4,0.4,4.1,0.4c0.3-0.1,3-0.3,3.3,0.1c0.5,0.9,2.1,0,3.5,0.7c1.1,0.6,4-0.1,6.7,1.3c0.6,0.3,3.3,0.4,1.5,1.6
									c-1.4,0.8,4.2,0.9,1.8,2.2c-1.2,0.7-4.4,1.4-5.9,1.8c-2,0.6,0,1.5,1,1.5c0.2,0,2.1,0.9,1,1.3c-2.4,0.8-3.5,0.4-5.8,0.7
									c-2.2,0.2-4.6,0.1-6.8,0.2c-0.7,0-6.3-0.3-2.3,1.1c1.2,0.4-0.4,1.2,2.8,1.2c1,0,3.6,0.5,1,1.1c-0.6,0.1-3.4-0.5-4.6-0.5
									c-0.5,0-3.1,0.1-2.5,1.1c0.4,0.7-2.2,0.5-2.7,1.1c-0.8,1-5.9,0.1-6.9,0.6c-0.5,0.2-2.8,0.2-3.4,0.8
									c-0.5,0.6-0.9,0.4-1.6,0.3c-1.7-0.3-3.3,1.1-5,1c0,0-3,0.2-3.2,0.2c-0.2,0-3.4,0.3-3.5,0.3c-1.8-0.1-3-0.1-4.8-0.3
									c-1.8-0.2-3.1-0.4-5-0.4c-0.6,0-1.9-0.7,0.3-0.9c2.8-0.3,0.5-1.6-0.6-1.7c-0.8,0-2.4-0.4-3.2-0.3c-0.5,0.1-1.5,0-2.1,0
									c-1.4,0-1.6,0.2-2.6,0.3c-1,0.1-4.9,0.7-5.3-0.1c-0.3-0.6-3.6-0.2-0.7-1.1c0.2-0.1,3.6-0.3,2.5-1.2c-0.1-0.1,1.8-1-1.6-0.8
									c-1.5,0.1-2.1,0-3.6-0.2c-1.9-0.2-6.6-0.4-8-1.5c-1-0.8-3.4-0.3-3-1c0.3-0.5,3.7-0.7,2-1.1c-2.7-0.6,0.2-0.4,0.3-1.6
									c0-0.5,2.2-0.5,1.5-0.9c-0.6-0.4-1.9,0.4-3.6-0.4c-0.4-0.2-4.2,0.3-4.7-0.9c0-0.1,0.1-0.1,0.1-0.1c0.1-0.4,1.6-1.1,2.1-1.3
									c1.2-0.6,2.2,0.2,3.8-1.5c0.7-0.7,2.2,0.7,3.4-0.7c0.7-0.8,5.2-1.3,1-1.3c-1.7,0,1-0.9,1.3-0.9c0.9-0.1,1.7-0.8,2.3-1.2
									c1.3-0.9,4.6-0.3,5.8-0.8c0.9-0.4,3.5,0,4.3-0.2c0.1,0,0.1,0,0.2,0c0.3-0.1,8.2-0.7,8.5-0.7c0.7,0,4.7-1.2,6-1.3
									c1.5-0.1,2-0.3,3.6-0.1c0.8,0.1,4.1,0.3,4.6-0.1c0.5-0.3,4.1-0.1,3.7,0.4c-0.6,0.8,4.9-0.4,3.8,0.5
									c-0.3,0.2,2.8,0.2,3.1,0.3C99.4,157.1,100.2,157.1,100.5,157.1L100.5,157.1z"/>
									<path style="fill-rule:evenodd;clip-rule:evenodd;fill:#329AD1;" d="M72,158.9c-2,3.3-7,5.2-10.7,5.6
									c-1.9,0.2-3.8,0.3-5.6,0.5c-0.5,0-2.6,0.4-2.6,0.9c0,1.1-3.6,0.1-4.5,0.1c-1.8,0-1.7,0.7-2.6,1.2c-0.9-0.1-4.1,0.2-4.6-0.9
									c0-0.1,0.1-0.1,0.1-0.1c0.1-0.4,1.6-1.1,2.1-1.3c1.2-0.6,2.2,0.2,3.8-1.5c0.7-0.7,2.2,0.7,3.4-0.7c0.7-0.8,5.2-1.3,1-1.3
									c-1.7,0,1-0.9,1.3-0.9c0.9-0.1,1.7-0.8,2.3-1.2c1.3-0.9,4.6-0.3,5.8-0.8c0.9-0.4,3.5,0,4.3-0.2c0.1,0,0.1,0,0.2,0
									c0.2-0.1,4.2-0.4,6.6-0.6C72.4,158,72.2,158.5,72,158.9L72,158.9z"/>
									<path style="fill-rule:evenodd;clip-rule:evenodd;fill:#329AD1;" d="M79.4,166.5c-1.5,0.6-6.5,0.6-8.1,0.2
									c-1-0.2-1.7,0.2-2.4,0.2c-1.1,0.1-1.9,1.2-2.7,1.8c-1.5,1-0.9,3.3-3.8,2.9c-1.8-0.2-3,0-4.8,0c-0.9,0-2.7,0.2-3.2,0.2
									c-1.2-0.1-1.5,0.6-2,1.3c0,0,0,0,0,0c-1.5-0.2-2.9-0.5-3.5-1c-0.1-0.1-0.3-0.2-0.4-0.2c0.4-0.1,0.7-0.2,0.8-0.5
									c0.4-1.1,0.4-0.6,1-1.1c0.5-0.5,2.2-0.7,2.3-0.7c0.9-0.4,5.9,0,6.8-0.5c1.6-0.9,0.1-1.5-0.4-1.8c-1.9-1.6,3.4-1.6,4.2-2.2
									c0.7-0.5,4.9-1.3,5.8-1.3c2.1,0.1,4.6-0.4,6.6-0.5c1.6-0.1,3.9-0.5,5.3,0.3c0.1-0.2,1.5-0.4,1.9-0.3c0,0,1.5,0.6-0.1,0.9
									C79.1,164.9,82.5,165.3,79.4,166.5L79.4,166.5z"/>
									<path style="fill-rule:evenodd;clip-rule:evenodd;fill:#329AD1;" d="M87.2,179.9c0.1,0,3.2-0.2,3.2-0.2c1.7,0.1,3.3-1.3,5-1
									c0.3,0,0.6,0.1,0.8,0.1c-0.1-3.2-4.7-1.5-6.2-2.1c-2.6-1.1,1.5-2.8,2.3-3.5c1.4-1.1,2.9-1.4,4.1-2.2
									c0.7-0.5,2.3-0.9,3.1-1.1c1.7-0.4,0.4-1.1,1.6-1.4c1-0.3,4.5,0.3,4.7-0.8c0.2-1.3,2-3.1,3.1-3.7c1.2-0.7,4.4-2,6.3-3.5
									c-0.9-0.1-3.1-0.3-3.7-0.3c-0.5,0-1.3-0.6,0.9-0.6c0.9,0,1-0.2,1.7-0.3c1.5-0.3-0.4-0.8-0.8-0.9l-0.3-0.1
									c-0.5-0.2-2.6-0.2-4.5-0.2c-0.5,1-0.8,1-2.1,2c-2.3,1.7,0.5,0.7-0.5,2.2c-0.7,1-4,1.3-3.2,2.2c0.4,0.4-0.3,1.1-1.1,1.2
									c-0.7,0-1.5,0.3-2.5,0.3c-1.1-0.1-2.8,0.5-3.9,0.8c-3.1,1,0.4,1.8-2.2,3.1c-1.4,0.7-2.8,1.5-4.3,2c-0.6,0.2-3.9,1.3-3,2.1
									c1.1,1.1-1.2,1.6-1.8,1.6c-0.8,0.1-3.6,0.7-4.3,1.1c-1.5,0.8-2,0.8-2.1,2.8c0,0.1,0,0.2,0.1,0.4c0.4,0,0.8,0.1,1.2,0.2
									c1.8,0.2,3,0.2,4.8,0.3C83.7,180.2,87,180,87.2,179.9L87.2,179.9L87.2,179.9z M65.6,177c-1,0.1-4.9,0.7-5.3-0.1
									c-0.3-0.6-3.6-0.2-0.7-1.1c0.2-0.1,3.6-0.3,2.5-1.2c-0.1-0.1,1.8-1-1.6-0.8c-1.5,0.1-2.1,0-3.6-0.2c-1-0.1-2.8-0.2-4.5-0.4
									l0,0c0.5-0.7,0.7-1.4,2-1.3c0.5,0,2.3-0.2,3.2-0.2c1.8,0,2.9-0.2,4.8,0c2.9,0.4,2.3-1.9,3.8-2.9c0.8-0.5,1.6-1.7,2.7-1.8
									c0.6-0.1,1.4-0.5,2.4-0.2c1.7,0.4,6.6,0.4,8.1-0.2c3.1-1.2-0.3-1.6,3.3-2.3c0.6-0.1,0.7-0.2,0.7-0.4c0.2,0.6,2,0.6,2.6,0.7
									c0.5,0.1,5.8,0.4,4,1.9c-0.5,0.4-4,1-3.4,2.1c0.2,0.3,2.6,0.5-0.2,1.6c-0.8,0.3-2.6-0.3-4,1c-0.7,0.6-1.6,1-1.9,2
									c-0.5,1.5-4.3,1.3-5.6,1.2c-0.9-0.1-3.5,0.1-4.2,0.4c-1.7,0.6-3.2,0.6-3.6,2.1C66.6,176.9,66.3,177,65.6,177L65.6,177z"/>
							</g>
								<g>
								<path style="fill-rule:evenodd;clip-rule:evenodd;fill:#329AD1;" d="M59.6,158.5c0.7,0,1.3-0.1,1.7-0.2
									c0.9-0.4,3.5,0,4.3-0.2c0.1,0,0.1,0,0.2,0c0.3-0.1,8.2-0.7,8.5-0.7c0.6,0,3.1-0.7,4.8-1.1c2.4,0.2,7.3,0.4,8.4,0.4
									c3.8,0,1.5,1.5,4.1,1.7c2.6,0.3,1.4,2.4,5.3,2.3c0.4,0,4.2,0.4,4.6,0.6c0.9,0.4,1.6,0.3,0.7,1.6c-0.8,1.1-3.9,0.9-5.1,2.3
									c-1.6,2-3.9,0-6.2,1.6c-0.9,0.6-3.6,0.4-4.5,0.1c-0.7-0.3-1.2,0.6-3.3-0.6c-1.9-1-0.8-1.5-4.1-1.9c-0.7-0.1-5.2-0.3-5.4,0
									c-0.3,0.4,2.6,1.3-0.6,1.7c-0.7,0.1-3.2,0-3.8-0.3c-0.3-0.1-2-0.8-2.3-0.8c-1.5-0.2-3.9,0.4-5.8,0.4c-1.5,0-3.4,0.1-4.8-0.5
									c-0.4-0.2-4-0.4-4.7-0.4c-1.2,0-1.3-0.6-0.2-1c1-0.4,6.5-1.9,6.6-2c0.4-0.3,1.6-0.6-0.1-1.1
									C57.2,160.3,58.5,159.2,59.6,158.5L59.6,158.5z"/>
									<path style="fill-rule:evenodd;clip-rule:evenodd;fill:#329AD1;" d="M72,158.9c-2,3.3-7,5.2-10.7,5.6
									c-1.7,0.2-3.5,0.3-5.3,0.4c-1.1-0.1-3.6-0.3-4.2-0.3c-1.2,0-1.3-0.6-0.2-1c1-0.4,6.5-1.9,6.6-2c0.4-0.3,1.6-0.6-0.1-1.1
									c-1-0.3,0.3-1.4,1.4-2.1c0.7,0,1.3-0.1,1.7-0.2c0.9-0.4,3.5,0,4.3-0.2c0.1,0,0.1,0,0.2,0c0.2-0.1,4.2-0.4,6.6-0.6
									C72.4,158,72.2,158.5,72,158.9L72,158.9z"/>
									<path style="fill-rule:evenodd;clip-rule:evenodd;fill:#329AD1;" d="M61.7,165.6c0.7-0.1,1.3-0.3,1.5-0.4
									c0.7-0.5,4.9-1.3,5.8-1.3c2.1,0.1,4.6-0.4,6.6-0.5c1.6-0.1,3.9-0.5,5.3,0.3c0.1-0.2,1.5-0.4,1.9-0.3c0,0,1.5,0.6-0.1,0.9
									c-1.1,0.2-1.5,0.4-1.7,0.6c-0.4-0.1-0.9-0.2-1.8-0.3c-0.7-0.1-5.2-0.3-5.4,0c-0.3,0.4,2.6,1.3-0.6,1.7
									c-0.7,0.1-3.2,0-3.8-0.3c-0.3-0.1-2-0.8-2.3-0.8C65.6,165,63.5,165.5,61.7,165.6z"/>
									<path style="fill-rule:evenodd;clip-rule:evenodd;fill:#329AD1;" d="M88,167.3c-0.6-0.1-1.2-0.2-1.5-0.3
									c-0.7-0.3-1.2,0.6-3.3-0.6c-1.4-0.8-1.2-1.2-2.3-1.6c0.2-0.2,0.6-0.4,1.7-0.6c0.6-0.1,0.7-0.2,0.7-0.4
									c0.2,0.6,2,0.6,2.6,0.7c0.5,0.1,5.8,0.4,4,1.9C89.8,166.7,88.9,166.9,88,167.3L88,167.3z"/>
							</g>
								<g>
								<path style="fill-rule:evenodd;clip-rule:evenodd;fill:#329AD1;" d="M113.3,160.3c1.1,0.1,2.2,0.2,2.2,0.2
									c0.3-0.1,3-0.3,3.3,0.1c0.5,0.9,2.1,0,3.5,0.7c1,0.5,3.8-0.1,6.4,1.2c-0.7,0.5-1.9,1-2,1c-0.8,1,5.5,2.2,0.4,3.3
									c-2.2,0.5-4.4-0.2-6.3-1.3c-1.4-0.9-0.6-1.2-2.3-0.5c-1.1,0.4-2.2-0.7-3.9-0.7c-0.9,0-2.8,0.4-3.8-0.1
									c-0.2-0.1-0.9-0.2-1.7-0.4c-1.3-0.3-2.7-0.8-1.6-1.7c1-0.8,4.1-0.3,5.3-1.4C112.9,160.6,113.1,160.5,113.3,160.3z"/>
									<path style="fill-rule:evenodd;clip-rule:evenodd;fill:#329AD1;" d="M113.3,160.3c0.7,0.1,1.4,0.1,1.8,0.2
									c-1.7,1.3-4.5,2.5-5.9,3.3h0c-1.3-0.3-2.7-0.8-1.6-1.7c1-0.8,4.1-0.3,5.3-1.4C112.9,160.6,113.1,160.5,113.3,160.3
									L113.3,160.3z"/>
							</g>
								<g>
								<path style="fill-rule:evenodd;clip-rule:evenodd;fill:#329AD1;" d="M66.4,168.5c-0.1,0.1-0.1,0.1-0.2,0.2
									c-1.1,0.7-1.1,2-2,2.6c-0.4-0.1-0.8-0.2-1.5-0.3c-1.1-0.1-2.7-1-1-1.9C62.4,168.8,64.5,168.6,66.4,168.5L66.4,168.5z"/>
									<path style="fill-rule:evenodd;clip-rule:evenodd;fill:#329AD1;" d="M81,172.3c-0.6,0.2-1.1,0.4-1.3,1.1
									c-0.1,0.3-0.2,0.5-0.3,0.7c-1.4,0.4-3.5,0.3-4.4,0.3c-0.9-0.1-3.5,0.1-4.2,0.4c-0.2,0.1-0.3,0.1-0.4,0.2
									c-1.4-0.8-2.3-1.9-4.1-2.7c-0.9-0.4-1.3-0.6-1.9-0.8c0.9-0.6,0.9-1.9,2-2.6c0.1,0,0.1-0.1,0.2-0.2c1.6,0,3.1,0,3.8,0.1
									c1.3,0.2,2.6,0.8,3.7,0.8c2.9,0,3-0.3,5.6-1.3c3.2-1.2,5.1,0.6,4.6,2.2c-0.6,0.1-1.2,0.3-1.7,0.8
									C81.9,171.5,81.4,171.8,81,172.3z"/>
							</g>
								<path style="fill-rule:evenodd;clip-rule:evenodd;fill:#329AD1;" d="M108.3,158.7c-0.9,0.4,0,2.1-2.1,2.1c-0.3,0-0.6,0-0.8,0
								c-0.5,0-0.9,0-1.7-0.1c-2.4-0.3-9.9-1.9-7.6-3.1c0.4-0.2,1-0.4,1.8-0.6c0.6,0,1.1,0,1.2,0.1c0.3,0.1,1,0.1,1.3,0.1
								c0.9,0.3,4.3-0.3,4.3,0.4c0,0.3,1.8,0.4,3.7,0.5c0.4,0,0.8,0,1.2,0C109.2,158.3,108.7,158.5,108.3,158.7L108.3,158.7z"/>
								<path style="fill-rule:evenodd;clip-rule:evenodd;fill:#329AD1;" d="M100.5,157.1c-0.3,0-1-0.1-1.3-0.1
								c-0.4-0.1-3.4-0.1-3.1-0.3c1.1-0.9-4.4,0.3-3.8-0.5c0.3-0.5-3.2-0.7-3.7-0.4c-0.5,0.4-3.8,0.2-4.6,0.1
								c-1.6-0.2-2.1,0-3.6,0.1c-1.3,0.1-5.3,1.3-6,1.3c-0.3,0-8.2,0.6-8.5,0.7c-0.1,0-0.1,0-0.2,0c-0.8,0.2-3.3-0.2-4.3,0.2
								c-1.2,0.5-4.5-0.1-5.8,0.8c-0.7,0.4-1.4,1.1-2.3,1.2c-0.3,0-3,0.9-1.3,0.9c4.2,0-0.3,0.5-1,1.3c-1.2,1.4-2.7,0-3.4,0.7
								c-1.6,1.7-2.7,0.9-3.8,1.5c-0.5,0.3-2,0.9-2.1,1.3c0,0-0.1,0.1-0.1,0.1c0.5,1.2,4.3,0.7,4.7,0.9c1.7,0.8,2.9,0,3.6,0.4
								c0.7,0.4-1.5,0.4-1.5,0.9c-0.1,1.3-3,1-0.3,1.6c1.7,0.4-1.7,0.6-2,1.1c-0.4,0.7,2,0.3,3,1c1.4,1.1,6.1,1.3,8,1.5
								c1.4,0.1,2.1,0.2,3.6,0.2c3.4-0.2,1.5,0.7,1.6,0.8c1.1,0.9-2.2,1.1-2.5,1.2c-2.9,0.9,0.4,0.5,0.7,1.1
								c0.4,0.8,4.3,0.2,5.3,0.1c1-0.1,1.3-0.3,2.6-0.3c0.5,0,1.6,0,2.1,0c0.8-0.1,2.4,0.2,3.2,0.3c1.1,0,3.4,1.4,0.6,1.7
								c-2.2,0.2-0.9,1-0.3,0.9c1.9-0.1,3.2,0.1,5,0.4c1.8,0.2,3,0.2,4.8,0.3c0,0,3.3-0.2,3.5-0.3c0.1,0,3.2-0.2,3.2-0.2
								c1.7,0.1,3.3-1.3,5-1c0.7,0.1,1,0.3,1.6-0.3c0.6-0.6,2.9-0.6,3.4-0.8c1-0.4,6.1,0.4,6.9-0.6c0.5-0.6,3.2-0.4,2.7-1.1
								c-0.6-0.9,2-1.1,2.5-1.1c1.2,0,4,0.6,4.6,0.5c2.6-0.6,0.1-1.1-1-1.1c-3.2,0-1.6-0.8-2.8-1.2c-4-1.4,1.7-1.1,2.3-1.1
								c2.2-0.1,4.7,0,6.8-0.2c2.4-0.2,3.4,0.2,5.8-0.7c1-0.4-0.8-1.3-1-1.3c-1,0-3-0.9-1-1.5c1.5-0.4,4.7-1.1,5.9-1.8
								c2.4-1.3-3.1-1.4-1.8-2.2c1.8-1.1-0.9-1.2-1.5-1.6c-2.7-1.4-5.6-0.8-6.7-1.3c-1.4-0.7-3,0.2-3.5-0.7c-0.3-0.4-3-0.2-3.3-0.1
								c-0.1,0-3.4-0.4-4.1-0.4c-0.5,0-1.3-0.6,0.9-0.6c0.9,0,1-0.2,1.7-0.3c1.5-0.3-0.4-0.8-0.8-0.9l-0.3-0.1
								c-0.9-0.4-8.1,0.1-8.2-0.6c0-0.1,0-0.1-0.1-0.2c-0.3-0.2-1.1-0.2-1.9-0.2C101.9,157.3,100.9,157.3,100.5,157.1L100.5,157.1
								L100.5,157.1z M99,170.5c1,0.1,3.6,0.6,3.2,2.1c-0.4,1.4-4.8,1.3-5.9,1.2c-1.9-0.1-5.1-0.3-6.6-1.4c-1.8-1.4,1.6-1.6,2.3-1.6
								c0.8-0.1,1.1,0.1,1.8,0.1c0.1,0,0.6-0.1,0.6-0.3c0-0.2,0-1.1,0.1-1.1c0.8,0,1.1,1.4,1.7,1c0.3-0.2,1.2-0.3,1.5-0.2
								C97.8,170.3,98.7,170.5,99,170.5L99,170.5L99,170.5z M107.6,165.6c0.5,0.1,2.3,0.4,2,1.3c-0.1,0.5-2.4,0.3-2.8,0.2
								c0,0-0.7-0.2-0.6-0.1c0.2,0.1,0.9,0.9,0.4,1.2c-0.4,0.2-0.5,0.4-1.1,0.4c-1.7,0.3-3.7-0.3-5.4-0.9c-0.8-0.3-2.3-1.6-0.8-2.2
								c1.5-0.6,4-0.6,5.6-0.5c0.4,0,1.8,0.2,2.1,0.4C107.2,165.4,107.6,165.6,107.6,165.6L107.6,165.6L107.6,165.6z M93.5,162.6
								c0.4,0.2,4,1,3.2,2.1c-0.9,1.2-7.1,0.9-8.4,0.2c-0.4-0.2-0.5-0.4-0.5-0.4c-0.3-0.2,0.6-0.6,0.7-0.7c0.2-0.1,2.7-0.6,1.5-0.8
								c-0.4-0.1-1.6-0.2-0.6-0.6C90,162.2,93.2,162.4,93.5,162.6L93.5,162.6L93.5,162.6z M102.2,158.5c0.1,0,0.2-0.1,0.3-0.1
								c0.1,0,0.3-0.1,0.4-0.1c0.6,0,5.7,0.2,5.9,0.3c0.9,0.7-1.5,0.8,1.1,1.8c0.6,0.2,3.5,0.6,4.1,1c0.6,0.4,4.1-0.5,5.4,0.2
								c0.5,0.3,5.3,0.8,6.1,0.7c0.6,0,2.7,0.9,3,1.9c0.5,1.4,3.1,1,0.1,2.6c-0.7,0.4-3.2,0.1-4.7,0.6c-2.8,1,1.8,3,0.1,3.2
								c-2.8,0.4-4.2,0.5-7.1,0.2c-1.8-0.2-5.1-0.3-6.7,0.5c-1.1,0.6,0.3,1.7,1.1,2.1c0.2,0.1,1.7,0.9,0.8,0.9
								c-0.4,0-2.5,0.1-2.4,0.5c0,0.8-2.2,0.8-2.8,1c-3.4,1.2-1.8-0.2-4.5,0.1c-0.8,0.1-0.3,0.9-1.7,1c-1.1,0.1-3.8,0.3-4.6,0.8
								c-0.6,0.4-2.8,0.5-3.4,0.2l-0.1,0c-2.1-0.4-6,1.1-8.7,1.1c-0.9,0-1.3,0-2.2-0.1c-0.8,0-4.1,0.3-3.6-1
								c0.6-1.5-2.6-2.1-3.6-2.1c-1.8,0-6.3,0.1-7.8-0.2c-0.9-0.2-1.7,0-1.1-1.2c0.4-0.7-3-0.6-3.4-1.2c-1-1.4-6.2-0.7-8.3-1.5
								c-1.6-0.9-3.9,0-4.4-1.1c-0.3-0.7,1.1-0.9,0.6-2c-0.2-0.6,3.1-0.7,0.1-2c0,0-2.5-0.1-3-0.2c-4.2-0.9,4.6-2.1,4.8-2.2
								c1-0.3,3-0.8,3.8-1.3c2.2-1.2-1-1.9-0.7-2.3c0-0.1,0.1-0.4,0.1-0.4c0.5-0.9,3.2-1,4.1-0.7c1.1,0.3,2.2-0.1,3.1-0.4
								c1.9-0.7,2.8-0.3,4.6-0.5c1.2-0.1,3.7-0.3,4.9-0.3c0.4,0,4.8-0.6,5.4-0.7c1.5-0.4,5-0.9,6.5-0.7c1.2,0.1,2.4,0.5,3.6,0.2
								c0.5-0.1,2.6-0.6,2.6,0.2c0,0.8,3.8-0.1,4.4-0.1c0.3,0,0.5,0,0.8,0c0,0.5,3.2,1.9,3.2,1.2c0,0.5,0.6,0.5,0.4,0.2
								c0,0,2.2,1.2,1.8,0C100.9,158.5,101.8,158.5,102.2,158.5L102.2,158.5z"/>
								<path style="fill-rule:evenodd;clip-rule:evenodd;fill:#329AD1;" d="M47,166.3c-0.4,0.2-0.6,0.6-1,0.8
								c-0.9-0.1-4.1,0.2-4.6-0.9c0-0.1,0.1-0.1,0.1-0.1c0.1-0.4,1.6-1.1,2.1-1.3c1.2-0.6,2.2,0.2,3.8-1.5c0.7-0.7,2.2,0.7,3.4-0.7
								c0.7-0.8,5.2-1.3,1-1.3c-1.7,0,1-0.9,1.3-0.9c0.9-0.1,1.7-0.8,2.3-1.2c1.3-0.9,4.6-0.3,5.8-0.8c0.9-0.4,3.5,0,4.3-0.2
								c0.1,0,0.1,0,0.2,0c0.2-0.1,4.2-0.4,6.6-0.6c0,0.2,0,0.3-0.1,0.5c1-0.1,2.1-0.2,2.6-0.2c0.8,0,2.6-0.5,3.1-0.5
								c0.8,0,1.7-0.4,2.1-0.4c0.5-0.1,2.9-0.6,3.1,0c0.2,0.7,1.3,1.7,1.8,1.8c0.7,0.1,2.4,1.8,1.9,2.3c-0.7,0.7-2.2,0.2-2.3,1.4
								c-0.1,0.7-1.4,1.1-1.9,1.1c-4.4,0.3-6.3,0.1-10.4-1.4c-0.5-0.2-4.7-0.5-4.9-0.5c-0.1,0.5-0.1,1,0,1.5
								c0.4,1.9,0.2,2.7,0.2,4.5c0-1.9-0.9-3.8-1.3-5.6c0,0.1-0.2,1.1-0.2,1.2c0,0.2-0.4,1.8-0.4,1.8c0-0.7-0.3-1.8-0.3-2.7
								c0-1.1,0.2-1.1-0.3-0.5c-0.4,0.5-1,2.6-1.1,2.6c0-0.7,0-1.4,0-2.1c0-0.8,0.3-1.7,0.3-1.9c0,0-1.2,2.4-1.2,2.4
								c-0.1,0.3,0.3-3,0.6-4.2c-0.5,0.1-0.9,0.2-1.5,0.4c-1,0.4-2,0.8-3.1,0.4c-0.2-0.1-0.4-0.1-0.7-0.1c0.5,0.9,1,2.2,1,3
								c0,0-0.5-0.8-0.6-0.9c-1.2-1.4-0.7-1.4-0.5,0.3c0.1,0.5,0.3,3.9,0.2,4.2c0,0-0.1-1.5-0.2-1.6c-0.2-0.9-0.6-1.7-0.8-2.6
								c-0.1-0.2,0.1,0.7,0.1,0.8c0.1,0.6,0.1,3.8-0.2,4.2c0.2-1.3-0.3-2.6-0.8-3.8c0-0.1,0,0.4,0,0.5c-0.1,0.8-0.2,1.1-0.4,1.9
								c0,0,0-0.9,0-1c0-0.1-0.5-1.6-0.6-1c-0.1,0.4-0.7,2.3-0.6,1.1c0-0.7-0.4,0.3-0.5,0c-0.1-0.4-0.3-0.4-0.4-1l0,0
								c-0.1,0-0.2,0.1-0.3,0.1c-0.1,0.2-0.2,0.4-0.2,0.1c-0.7,0.2-1.3,0.4-1.8,0.5C51.9,164.2,43.4,165.3,47,166.3L47,166.3z"/>
								<path style="fill-rule:evenodd;clip-rule:evenodd;fill:#329AD1;" d="M87.2,179.9c0.1,0,3.2-0.2,3.2-0.2c1.7,0.1,3.3-1.3,5-1
								c0.3,0,0.6,0.1,0.8,0.1c0-0.4-0.1-0.8-0.3-1c-0.8,0.2-2.6,0.3-3.1,0.1l-0.1,0c-2.1-0.4-6,1.1-8.7,1.1c-0.9,0-1.3,0-2.2-0.1
								c-0.8,0-4.1,0.3-3.6-1c0.1-0.2,0.1-0.4,0.1-0.6c-0.4,0.4-0.7,0.9-0.7,2.1c0,0.1,0,0.2,0.1,0.4c0.4,0,0.8,0.1,1.2,0.2
								c1.8,0.2,3,0.2,4.8,0.3C83.7,180.2,87,180,87.2,179.9L87.2,179.9L87.2,179.9z M108.2,158.5c0.4,0,0.6,0.1,0.7,0.1
								c0.9,0.7-1.5,0.8,1.1,1.8c0.5,0.2,3.1,0.5,3.9,0.9c0.4-0.3,0.9-0.5,1.2-0.8c-0.9-0.1-3.1-0.3-3.7-0.3c-0.5,0-1.3-0.6,0.9-0.6
								c0.9,0,1-0.2,1.7-0.3c1.5-0.3-0.4-0.8-0.8-0.9l-0.3-0.1c-0.5-0.2-2.6-0.2-4.5-0.2C108.4,158.2,108.3,158.4,108.2,158.5
								L108.2,158.5L108.2,158.5z M67.1,176.8c-0.5,0.1-0.8,0.2-1.5,0.2c-1,0.1-4.9,0.7-5.3-0.1c-0.3-0.6-3.6-0.2-0.7-1.1
								c0.2-0.1,3.6-0.3,2.5-1.2c-0.1-0.1,1.8-1-1.6-0.8c-1.5,0.1-2.1,0-3.6-0.2c-1-0.1-2.8-0.2-4.5-0.4l0,0c0.5-0.7,0.7-1.4,2-1.3
								c0,0,0.1,0,0.1,0c2.4,0.5,6.8,0,7.7,1.3c0.5,0.7,3.8,0.5,3.4,1.2c-0.7,1.2,0.2,1,1.1,1.2c0.3,0.1,0.6,0.1,1.1,0.1
								C67.5,175.9,67.2,176.2,67.1,176.8L67.1,176.8z"/>
								<path style="fill-rule:evenodd;clip-rule:evenodd;fill:#1B76BC;" d="M70.8,161c-0.2-0.2-1,0.1-1.4,0c-0.8-0.2-3.1,0.4-3.7,0
								c-1.2-0.8-1.3-0.5-2.6-0.8c-0.4-0.1-0.6-0.5-0.3-0.7c0.6-0.4,0.9-0.3,0.7-0.1c-0.5,0.4,0.7,0.3,1,0.5c0.5,0.3,0.5,0.4,1,0.5
								c0.4,0.1,0.9,0.1,1.4,0.2C67.7,160.6,70.3,160.7,70.8,161C70.8,161,70.8,161,70.8,161z M96.5,162.7c-0.1,0,0.1,0.4,0.2,0.4
								c0.5,0.5-0.4,1.1-0.8,1.4c-0.3,0.2,1-0.3,1-0.3C98.5,163.6,97,162.7,96.5,162.7L96.5,162.7L96.5,162.7z M95.5,162.9
								c0.3,0,1.2,0.5,0.3,1.2c-0.6,0.4-1.6,0.8-2.4,0.9c-0.2,0,0.1,0.1,0.4-0.2C94.4,164.3,96.3,164,95.5,162.9
								C95.5,162.9,95.5,162.9,95.5,162.9L95.5,162.9L95.5,162.9z M98.8,164.7c0,0,0.6-0.1,0.7-0.1c0.2,0,1.9-0.1,1.9-0.1
								c0.5-0.3,0-0.3-0.3-0.4C100.6,164,99.1,164.3,98.8,164.7L98.8,164.7z M99.8,165.1c0,0-1,0.3-1,0.3c-1.6,0.7-0.2,0.6-0.3,0.9
								c-0.4,0.1,1.5,1,1.5,1c-0.1,0-1.1-0.2-1.2-0.2c-0.2-0.1-2.3-0.7-1.4-1.5C97.8,165.5,99.4,165,99.8,165.1L99.8,165.1
								L99.8,165.1z M111.7,166.1c-0.2,0-0.1-0.1-0.2,0.1c0.3,0.4-0.3,0.6-0.5,0.7c-1.4,0.2,0,0.4-1,0.9c-0.1,0.1-1.9,0.1-1.4,0.4
								c0.5,0.3-0.9,0.4-1,0.4c-0.6,0.2-1.3,0-1.9,0c0.5,0,1.5,0.3,1.7,0.2c0.4-0.1,0.7-0.1,1-0.1c2.1,0,1.3-0.7,2-0.8
								c1.3-0.2,0.8-0.8,1.3-0.9C112.7,167,112.7,166.2,111.7,166.1L111.7,166.1L111.7,166.1z M105.5,170.3L105.5,170.3
								c0.4,1-0.2,0.7-0.1,1c0.1,0.3-0.1,0.7-0.3,0.9c-0.7,0.5,0.4-0.1,0.5-0.1c0.9-0.4,0.2-0.7,0.4-0.9
								C106.4,170.5,105.7,170.1,105.5,170.3L105.5,170.3L105.5,170.3z M101.9,170c0.2-0.2,2.2,0.1,2.2,0.7c0,0.4,0.8,0.2-0.2,0.7
								c-0.4,0.2,0.6,0.8-0.6,1.1c-0.3,0.1-0.9,0.3-1.3,0.3c-0.3,0-0.8,0.6-1.7,0.4c-0.1,0,0.4-0.1,0.5-0.1c0,0,0.9-0.3,1.2-0.5
								c0.3-0.2,1.7-0.2,1.2-1c-0.3-0.5-0.5-0.1-0.1-0.8C103.4,170.4,101.8,170,101.9,170L101.9,170L101.9,170z M88.1,171.1
								c-0.1,0-0.3,0-0.4,0.1c-1,0.7,0.4,0.6,0.5,1.5c0.1,0.7,2.2,0.8,2.8,1.1c0.8,0.3,0.8,0.3,1.6,0.5c0.4,0.1,0.7,0.1,1.1,0.1
								c0.4,0,0.8-0.1,1-0.1c1.4,0-1.3-0.4-1.5-0.4c-0.3,0-0.5-0.1-0.7-0.1c0,0-2.4-0.6-2.5-0.6c-1.5-0.6-0.7-0.7-1.2-1
								C88,171.4,88.8,171.1,88.1,171.1L88.1,171.1L88.1,171.1z M92.8,169.3C92.8,169.2,92.7,169.3,92.8,169.3
								c-0.1,0.1-0.6,0.1-0.7,0.1c-0.8,0-1.1,0.2-1.7,0.3c-0.8,0.1-1.2,1-1.5,0.7c-0.6-0.5,0.6-0.8,0.8-0.9
								C90.2,169.3,92.4,168.8,92.8,169.3L92.8,169.3z M89.2,161.9c0,0-0.1,0-0.1,0c-0.3,0.3-1,0.6-1.3,0.8c-1,0.5-0.2,0.9,0,1.1
								c0.1,0.1,0.8,0.5,0.8,0.5c-0.6-0.2-1.5,0-1.9-0.8C86.2,162.9,88.6,161.8,89.2,161.9L89.2,161.9L89.2,161.9z M86.2,157.7
								c0.1,0,1,0.1,1.2,0.2c0,0,3,0.5,2.1,0.8c-0.9,0.3-0.2,0.6-0.2,0.8c-0.1,0.6-1.3,0.8-1.7,0.9c-0.2,0-0.5,0-0.1,0
								c1.1-0.1,1.4-0.1,2.4-0.6c1.6-0.8,0.2-0.9,0.1-1.4c0-0.3-0.5-0.4-0.8-0.4C88.3,157.8,87.2,157.6,86.2,157.7L86.2,157.7
								L86.2,157.7z M85.7,158.5c0,0,2.4-0.2,1.7,0.7c-0.3,0.5-1.1,0.2-0.8,0.6c0.3,0.3-0.6,0.7-1,0.7c-0.3,0-1.7,0.4-2.1,0.4
								c-0.5,0,0.1,0,0.5-0.2c0.7-0.3,0.9-0.3,1.6-0.8c1-0.7,0-0.4,0.6-0.9C86.6,158.7,85.9,158.6,85.7,158.5
								C85.7,158.5,85.7,158.5,85.7,158.5L85.7,158.5L85.7,158.5z M81.7,162c-0.6,0.4-0.9,0.2-1.7,0.2c-0.6,0.1-2.1,0.4-2.6,0
								c-0.7-0.4-0.4-0.3-1.2-0.6c-1.1-0.4-2-0.6-3.2-0.6c0.4,0,0.8-0.1,1.2-0.1c1.2,0,1.7,0.3,2.7,0.3c0,0,1.4,0.5,1.5,0.5
								c0.4,0.1,1.5,0.1,1.8,0.2c0.5,0.1,1.5-0.2,1.7-0.2C82,161.8,81.8,161.9,81.7,162L81.7,162z"/>
								<path style="fill-rule:evenodd;clip-rule:evenodd;fill:#335710;" d="M58.6,150.6C58.7,150.5,58.6,150.5,58.6,150.6
								c-0.1-0.1-0.1-0.1-0.2,0c-0.4,1.4-0.7,2.7-1,4c-0.2,0.8-0.3,1.6-0.4,2.3c0-0.6,0-1.2,0-1.8c0-1.2,0-2.4-0.2-3.7
								c0,0,0-0.1-0.1-0.1c0,0-0.1,0-0.1,0.1c0.1,1.3,0.2,2.6,0.2,3.7c0,1.2-0.1,2.2-0.1,3.3h0c0,0,0,0.1,0.1,0.1c0,0,0.1,0,0.1-0.1
								c0.2-1.3,0.4-2.6,0.6-3.9C57.9,153.2,58.3,151.9,58.6,150.6L58.6,150.6z"/>
								<path style="fill-rule:evenodd;clip-rule:evenodd;fill:#456E1C;" d="M57.8,158.3c0.1-1,0.3-1.9,0.8-3
								c-0.7,0.8-1.1,1.9-1.6,2.9c-0.4-1.4-0.8-2.8-0.7-4.4c-0.4,1.3-0.2,2.7,0.1,4.2c-0.9-0.8-1.5-1.9-2.1-3.2
								c0.4,1.3,1,2.5,1.6,3.6C56.5,158.4,57.1,158.4,57.8,158.3z"/>
								<path style="fill-rule:evenodd;clip-rule:evenodd;fill:#8AC92B;" d="M58.2,158.5c0.3-1,0.7-2,1.3-3c-0.8,0.6-1.4,1.6-2,2.6
								c0.4-1.4,0.6-2.8,0.6-4.5c-0.2,1.4-0.5,2.6-0.9,3.8c0.1-1.2,0.1-2.4-0.4-3.7c0.2,1.7,0.2,3,0,4l-1.8-6.6
								c0.3,1.4,0.5,2.9,0.6,4.2c-0.4-1.2-1.1-2.4-1.8-3.5c1.1,2,1.7,3.9,2.1,5.9c-0.4-0.2-0.8-0.4-1-0.7c0.2,0.6,0.5,1.4,0.8,1.9
								C56.2,158.6,57.2,158.6,58.2,158.5z"/>
								<path style="fill-rule:evenodd;clip-rule:evenodd;fill:#585045;" d="M59.6,146.5c-0.2-0.1-0.7,1-1,2.4
								c-0.3,1.4-0.5,2.5-0.3,2.5c0.2,0.1,0.7-1,1-2.4C59.6,147.7,59.8,146.5,59.6,146.5L59.6,146.5z"/>
								<path style="fill-rule:evenodd;clip-rule:evenodd;fill:#585045;" d="M56.8,146.9c-0.3,0-0.5,1.2-0.5,2.7
								c0.1,1.5,0.4,2.7,0.8,2.6c0.3,0,0.5-1.2,0.5-2.7C57.4,148,57.1,146.9,56.8,146.9z"/>
								<path style="fill-rule:evenodd;clip-rule:evenodd;fill:#77A82B;" d="M91.8,162c-1.2,0-2.2,0.2-2.8,0.5l2.2,0.7l-2.2,0.8
								c0.6,0.3,1.7,0.5,2.8,0.5c1.9,0,3.5-0.5,3.5-1.2C95.3,162.5,93.7,162,91.8,162z"/>
								<path style="fill-rule:evenodd;clip-rule:evenodd;fill:#77A82B;" d="M104.4,164.5c-2.5,0-4.5,0.7-4.5,1.6s2,1.6,4.5,1.6
								c0.6,0,1.2,0,1.8-0.1l-2.6-1.7l5,0.8c0.2-0.2,0.3-0.4,0.3-0.6C108.9,165.2,106.9,164.5,104.4,164.5z"/>
								<path style="fill-rule:evenodd;clip-rule:evenodd;fill:#77A82B;" d="M94.5,169.5c-2.7,0.2-4.7,1-4.7,1.9c0,1.1,2.6,2,5.8,2
								s5.8-0.9,5.8-2c0-0.8-1.5-1.6-3.7-1.8l-2.1,1.8L94.5,169.5z"/>
								<path style="fill-rule:evenodd;clip-rule:evenodd;fill:#5C8D2B;" d="M99.2,170.8l-2,0.3c0,0,0,0,0,0c0,0,0,0,0,0L99.2,170.8
								C99.2,170.8,99.2,170.8,99.2,170.8C99.2,170.8,99.2,170.8,99.2,170.8L99.2,170.8z M93.7,170.3l0.6,0.5c0,0,0,0,0,0.1
								c0,0,0,0-0.1,0L93.7,170.3C93.7,170.4,93.7,170.3,93.7,170.3C93.7,170.3,93.7,170.3,93.7,170.3L93.7,170.3L93.7,170.3z
								 M91.5,170.7C91.5,170.7,91.5,170.7,91.5,170.7C91.5,170.8,91.5,170.8,91.5,170.7l2.6,0.6c0,0,0,0,0,0c0,0,0,0,0,0
								L91.5,170.7L91.5,170.7L91.5,170.7z M93.2,171.9l1.2-0.4c0,0,0,0,0.1,0c0,0,0,0,0,0.1L93.2,171.9
								C93.2,172,93.1,171.9,93.2,171.9C93.1,171.9,93.1,171.9,93.2,171.9L93.2,171.9z M94.4,172.7l0.3-0.7c0,0,0,0,0.1,0s0,0,0,0.1
								L94.4,172.7C94.5,172.8,94.5,172.8,94.4,172.7C94.4,172.8,94.4,172.7,94.4,172.7L94.4,172.7L94.4,172.7z M96.4,172.7
								l-0.5-0.7c0,0,0,0,0-0.1c0,0,0,0,0.1,0L96.4,172.7C96.5,172.7,96.5,172.7,96.4,172.7C96.5,172.7,96.4,172.7,96.4,172.7
								L96.4,172.7L96.4,172.7z M97,171.7C97,171.7,97,171.7,97,171.7C97,171.6,97,171.6,97,171.7l1.9,0.3c0,0,0,0,0,0c0,0,0,0,0,0
								L97,171.7z"/>
								<path style="fill-rule:evenodd;clip-rule:evenodd;fill:#5C8D2B;" d="M107.3,165.7l-1,0.1c0,0,0,0,0,0c0,0,0,0,0,0
								L107.3,165.7C107.3,165.6,107.3,165.6,107.3,165.7C107.3,165.7,107.3,165.7,107.3,165.7L107.3,165.7L107.3,165.7z
								 M101.7,167.1l1.7-0.6c0,0,0,0,0.1,0s0,0,0,0.1L101.7,167.1C101.7,167.2,101.6,167.2,101.7,167.1
								C101.6,167.2,101.6,167.1,101.7,167.1L101.7,167.1L101.7,167.1z M103,166.1l-1.8,0.2c0,0,0,0,0,0c0,0,0,0,0,0L103,166.1
								C103,166,103,166.1,103,166.1C103,166.1,103,166.1,103,166.1L103,166.1L103,166.1z M102.9,165.8l-1.7-0.5c0,0,0,0,0-0.1
								c0,0,0,0,0.1,0L102.9,165.8C103,165.7,103,165.7,102.9,165.8C103,165.8,102.9,165.8,102.9,165.8L102.9,165.8L102.9,165.8z
								 M103.5,165l0.2,0.4c0,0,0,0,0,0.1c0,0,0,0-0.1,0L103.5,165C103.4,165,103.5,164.9,103.5,165
								C103.5,164.9,103.5,164.9,103.5,165L103.5,165L103.5,165z M105,165.5C105,165.5,105,165.5,105,165.5
								C105,165.5,105,165.4,105,165.5l0.6-0.3c0,0,0,0,0.1,0c0,0,0,0,0,0.1L105,165.5L105,165.5z"/>
								<path style="fill-rule:evenodd;clip-rule:evenodd;fill:#5C8D2B;" d="M91.1,164.2l0.2-0.6c0,0,0,0,0.1,0c0,0,0,0,0,0.1
								L91.1,164.2C91.2,164.2,91.2,164.3,91.1,164.2C91.1,164.2,91.1,164.2,91.1,164.2L91.1,164.2L91.1,164.2z M92.1,162.5
								l-0.2,0.3c0,0,0,0-0.1,0c0,0,0,0,0-0.1L92.1,162.5C92.1,162.4,92.1,162.4,92.1,162.5C92.1,162.4,92.1,162.4,92.1,162.5
								L92.1,162.5L92.1,162.5z M93.1,162.7l-0.6,0.2c0,0,0,0-0.1,0c0,0,0,0,0-0.1L93.1,162.7C93.1,162.6,93.1,162.6,93.1,162.7
								C93.1,162.7,93.1,162.7,93.1,162.7L93.1,162.7z M94.2,163.6l-1.5-0.3c0,0,0,0,0,0c0,0,0,0,0,0L94.2,163.6
								C94.3,163.5,94.3,163.5,94.2,163.6C94.3,163.5,94.2,163.6,94.2,163.6L94.2,163.6L94.2,163.6z M92,163.6
								C92,163.6,92,163.6,92,163.6C92,163.6,92,163.6,92,163.6l0.5,0.5c0,0,0,0,0,0.1c0,0,0,0-0.1,0L92,163.6L92,163.6z"/>
								<path style="fill-rule:evenodd;clip-rule:evenodd;fill:#335710;" d="M118.9,150.2c0,0,0-0.1,0-0.1c0,0-0.1,0-0.1,0
								c-1.4,2.3-2.4,4.6-3.4,6.9l-0.1,0.3c0.1-0.2,0.1-0.4,0.2-0.6c0.5-2,1-4.1,1.1-6.2c0,0,0-0.1-0.1-0.1c0,0-0.1,0-0.1,0.1
								c-0.1,2.1-0.6,4.2-1.1,6.2c-0.1,0.5-0.2,1-0.4,1.5l0,0c0,0,0,0.1,0,0.1c0,0,0.1,0,0.1,0c0.2-0.4,0.3-0.7,0.5-1.1
								C116.5,154.8,117.6,152.6,118.9,150.2L118.9,150.2z"/>
								<path style="fill-rule:evenodd;clip-rule:evenodd;fill:#335710;" d="M114.1,150.9C114,150.9,114,150.9,114.1,150.9
								c-0.1,0-0.2,0-0.2,0c0.6,1.9,0.7,3.8,0.9,5.7c0,0.5,0.1,1,0.1,1.5c0,0,0,0.1,0.1,0.1c0,0,0.1,0,0.1-0.1c0-0.5-0.1-1-0.1-1.5
								C114.8,154.7,114.6,152.8,114.1,150.9L114.1,150.9z"/>
								<path style="fill-rule:evenodd;clip-rule:evenodd;fill:#456E1C;" d="M115.7,158.1c0.5-1.3,1.3-2.5,2.2-3.8
								c-0.9,0.8-1.7,1.7-2.7,3.5c0.3-1.7,0.7-3.5,0.8-5.6c-0.4,1.8-0.8,3.6-1.2,5.5c-0.5-0.8-0.7-1.7-0.9-2.6
								c0.1,1,0.2,1.9,0.6,2.8c-0.5-0.3-1-0.6-1.4-1.4c0.1,0.6,0.3,1,0.7,1.4L115.7,158.1L115.7,158.1z"/>
								<path style="fill-rule:evenodd;clip-rule:evenodd;fill:#77A82B;" d="M115.8,158.8L115.8,158.8L115.8,158.8L115.8,158.8z
								 M115.9,158.5c-0.2,0-0.6,0-1,0c-0.6,0-1.3-0.1-1.6-0.1h0c-0.2-0.4-0.2-0.7-0.2-1.1c0.2,0.3,0.4,0.6,0.7,0.7
								c-0.6-1.9-0.8-3.4-1-4.8c0.5,1.9,1.1,3.7,1.7,4.6c-0.3-1.5-0.5-3.1-0.4-4.9c0.1,1.1,0.2,2.1,0.5,2.8c0.3-1,0.1-2.1,0.1-3.1
								c0.3,1.6,0.4,3.2,0.1,4.8c0.6-1.7,1.2-3.3,2.2-4.7c-0.5,1.4-1,2.9-1.5,4.3c1-1.6,2-3.3,3-4.9c-1.1,1.9-2,3.7-2.6,5.3
								c0.6-0.9,1.3-1.5,2-1.9C117.1,156.3,116.3,157.3,115.9,158.5L115.9,158.5L115.9,158.5z"/>
								<path style="fill-rule:evenodd;clip-rule:evenodd;fill:#585045;" d="M120.2,147.6c-0.2-0.1-0.7,0.6-1.2,1.5
								c-0.5,0.9-0.7,1.7-0.5,1.8s0.7-0.6,1.2-1.5C120.1,148.5,120.4,147.7,120.2,147.6z"/>
								<path style="fill-rule:evenodd;clip-rule:evenodd;fill:#585045;" d="M117.2,146c-0.2,0-0.6,1.1-0.8,2.5
								c-0.2,1.4-0.2,2.6,0,2.6c0.2,0,0.6-1.1,0.8-2.5S117.4,146,117.2,146z"/>
								<path style="fill-rule:evenodd;clip-rule:evenodd;fill:#585045;" d="M113.4,147.2c-0.2,0-0.2,1.1,0,2.3
								c0.2,1.3,0.5,2.3,0.8,2.2c0.2,0,0.2-1.1,0-2.3C113.9,148.1,113.6,147.1,113.4,147.2z"/>
								<path style="fill-rule:evenodd;clip-rule:evenodd;fill:#335710;" d="M121.9,164.5c0,0,0-0.1,0-0.1c0,0-0.1,0-0.1,0
								c-1.2,2.2-1.8,4.6-2.4,7c0.1-1.2,0.2-2.4,0.4-3.7c0.2-1.6,0.5-3.2,0.8-5c0,0,0-0.1-0.1-0.1c0,0-0.1,0-0.1,0.1
								c-0.4,1.8-0.6,3.4-0.8,5c-0.2,1.6-0.3,3.1-0.5,4.6h0c0,0,0,0.1,0.1,0.1c0,0,0.1,0,0.1-0.1l0.1-0.5
								C120,169.4,120.6,166.8,121.9,164.5L121.9,164.5z"/>
								<path style="fill-rule:evenodd;clip-rule:evenodd;fill:#335710;" d="M116.8,165.8c0,0-0.1-0.1-0.1,0c0,0-0.1,0.1,0,0.1
								c1,2.5,1.4,4.7,1.8,6.8l0.1,0.3l-0.8-0.2l-0.1-0.1c-0.8-1.7-1.6-3.4-2.7-5c0,0-0.1,0-0.1,0c0,0,0,0.1,0,0.1
								c1.2,1.6,2,3.3,2.7,4.9l0.1,0.1l0,0c0,0,0,0,0.1,0l0.9,0.2c0,0,0,0,0,0c0,0,0.1,0,0.1-0.1l-0.1-0.4
								C118.2,170.5,117.8,168.3,116.8,165.8L116.8,165.8z"/>
								<path style="fill-rule:evenodd;clip-rule:evenodd;fill:#456E1C;" d="M119.6,173.1c0.9-1.4,1.8-2.9,2.3-4.4
								c-0.8,1.3-1.8,2.3-2.5,3.9c-0.9-1.8-1.8-3.5-2.9-5c0.9,1.8,1.4,3.4,1.7,4.9c-0.5-1.5-1.3-2.2-1.9-3.8
								c0.1,1.2,1.1,2.8,1.6,4.5L119.6,173.1L119.6,173.1z"/>
								<path style="fill-rule:evenodd;clip-rule:evenodd;fill:#77A82B;" d="M119.9,173.6c0.6-1.5,1.6-2.4,2.6-3.4
								c-1.2,0.6-2.1,1.4-3,2.4c0.9-1.7,1.5-3.4,1.8-5.2c-0.7,1.3-1.4,2.7-1.8,4.1c0.2-2.3,0-4.6-0.2-7c-0.3,2.1-0.5,4.2-0.5,6.2
								c-0.1-2-0.5-3.9-1-5.8c0.4,2.7,0.5,5.2,0.5,7.8c-1.2-0.8-2.3-2.1-3.6-2.3c0.8,0.8,2,1.4,2.3,2.4c-0.4-0.1-0.7-0.5-1.1-0.7
								c0.3,0.5,0.7,0.9,1,1.4C117.9,173.5,118.9,173.5,119.9,173.6L119.9,173.6z"/>
								<path style="fill-rule:evenodd;clip-rule:evenodd;fill:#585045;" d="M123.2,161.6c-0.2-0.1-0.8,0.6-1.3,1.5
								c-0.5,1-0.7,1.8-0.5,1.9c0.2,0.1,0.8-0.6,1.3-1.5C123.2,162.6,123.5,161.7,123.2,161.6L123.2,161.6z"/>
								<path style="fill-rule:evenodd;clip-rule:evenodd;fill:#585045;" d="M121.8,158.4c-0.3-0.1-0.8,1.1-1.2,2.5
								c-0.4,1.5-0.5,2.7-0.3,2.8c0.3,0.1,0.8-1.1,1.2-2.5C121.9,159.7,122,158.4,121.8,158.4z"/>
								<path style="fill-rule:evenodd;clip-rule:evenodd;fill:#585045;" d="M115.7,162.7c-0.2,0.1,0,1.1,0.4,2.2
								c0.4,1.2,0.8,2.1,1,2c0.2-0.1,0-1.1-0.4-2.2C116.3,163.5,115.9,162.6,115.7,162.7L115.7,162.7z"/>
								<path style="fill-rule:evenodd;clip-rule:evenodd;fill:#585045;" d="M113.6,165.3c-0.2,0.1,0.1,0.9,0.6,1.8
								c0.5,0.9,1,1.5,1.2,1.4c0.2-0.1-0.1-0.9-0.6-1.8C114.3,165.9,113.8,165.2,113.6,165.3L113.6,165.3z"/>
								<g>
								<g>
									<path style="fill-rule:evenodd;clip-rule:evenodd;fill:#B8A68E;" d="M64.8,178.9c0.4,0.1,1.8,1.6,1.8,1.9
										c0,0.1-0.6,1.3-1,1.1c-0.1-0.1-0.9-0.2-1.1-0.2c-1.3,0-2.1,0.4-3-0.9c-0.2-0.3,0.6-1,0.8-1.5c0.2-0.4,1.6-0.1,2.2-0.5
										C64.6,178.8,64.8,178.9,64.8,178.9L64.8,178.9z"/>
									<path style="fill-rule:evenodd;clip-rule:evenodd;fill:#584C41;" d="M62.2,181.6c0.4-0.2,0.8-0.4,1.4-0.4
										c0.2,0,0.4,0,0.7,0c1.2,0.1,1.2,0.3,2.3-0.3c0,0.1-0.6,1.3-1,1.1c-0.1-0.1-0.9-0.2-1.1-0.2
										C63.5,181.7,62.9,181.9,62.2,181.6L62.2,181.6z"/>
									<path style="fill-rule:evenodd;clip-rule:evenodd;fill:#6E5F52;" d="M63.7,181.1c0.5-0.4,1.4-0.2,2.3-1.2
										c0.3,0.4,0.6,0.8,0.6,0.9c-1.1,0.6-1,0.5-2.3,0.3C64.1,181.1,63.9,181.1,63.7,181.1C63.7,181.1,63.7,181.1,63.7,181.1
										L63.7,181.1z"/>
									<path style="fill-rule:evenodd;clip-rule:evenodd;fill:#958474;" d="M61.5,180.7c0.5,0,0.9,0,1.2-0.1
										c0.4-0.1,0.8-0.3,1.3-0.6c0.1-0.1,0.5-0.4,0.5-0.4c-0.4,0.6-0.8,1.3-0.9,1.6l0,0c0,0,0,0-0.1,0.1l0,0
										c-0.5,0.1-1,0.2-1.4,0.4c-0.2-0.1-0.5-0.4-0.7-0.8C61.5,180.8,61.5,180.7,61.5,180.7L61.5,180.7z"/>
									<path style="fill-rule:evenodd;clip-rule:evenodd;fill:#837364;" d="M64.2,180.2c0.1-0.2,0.3-0.4,0.4-0.7
										c0.1-0.2,0.2-0.4,0.3-0.6c0.2,0.1,0.7,0.5,1,0.9c-0.9,1.1-1.8,0.8-2.3,1.2c0-0.1,0.1-0.2,0.2-0.3l0,0
										C63.9,180.6,64.1,180.4,64.2,180.2L64.2,180.2z"/>
									<path style="fill-rule:evenodd;clip-rule:evenodd;fill:#AA9884;" d="M61.5,180.7c0-0.4,0.7-0.9,0.8-1.3
										c0-0.1,0.1-0.1,0.1-0.1c0.3,0.3,0.5,1.3,0.3,1.4C62.4,180.7,62,180.7,61.5,180.7z"/>
								</g>
									<g>
									<path style="fill-rule:evenodd;clip-rule:evenodd;fill:#C3B4A1;" d="M64.8,178.9c0.2,0,0.5,0.3,0.8,0.6
										c-0.1,0-0.2-0.1-0.2-0.1c-0.8-0.4-1.4,0.3-2.2,0.5c-0.4,0.1-0.9,0.5-1.5,0.3c0.2-0.3,0.5-0.6,0.6-0.8
										c0.2-0.4,1.6-0.1,2.2-0.5C64.6,178.8,64.8,178.9,64.8,178.9L64.8,178.9z"/>
										<path style="fill-rule:evenodd;clip-rule:evenodd;fill:#988B80;" d="M64.7,179.3c0.1-0.1,0.2-0.3,0.2-0.4
										c0.2,0.1,0.4,0.3,0.7,0.6c-0.1,0-0.2-0.1-0.2-0.1C65.1,179.3,64.9,179.3,64.7,179.3L64.7,179.3z"/>
										<path style="fill-rule:evenodd;clip-rule:evenodd;fill:#B7A999;" d="M61.7,180.2c0.2-0.3,0.5-0.6,0.6-0.8
										c0-0.1,0.1-0.1,0.1-0.1c0.2,0.2,0.3,0.5,0.3,0.8C62.5,180.2,62.1,180.3,61.7,180.2L61.7,180.2z"/>
								</g>
							</g>
								<g>
								<g>
									<path style="fill-rule:evenodd;clip-rule:evenodd;fill:#B3A18A;" d="M60.7,179c0.4,0.2,1.3,0.3,0.5,0.9
										c-0.4,0.3-1,0-1.4-0.1c-0.3,0-0.1-0.7,0.5-0.8C60.4,179.1,60.6,179,60.7,179L60.7,179z"/>
									<path style="fill-rule:evenodd;clip-rule:evenodd;fill:#6E5F52;" d="M60,179.9c0.4-0.4,0.9-0.5,1.4-0.6
										c0.2,0.1,0.2,0.3-0.2,0.6C60.9,180.2,60.4,180,60,179.9L60,179.9z"/>
								</g>
									<g>
									<path style="fill-rule:evenodd;clip-rule:evenodd;fill:#948471;" d="M61.1,179.2c0.4,0.1,0.6,0.4,0,0.8
										c-0.4,0.3-1,0-1.4-0.1c-0.2,0-0.2-0.3,0-0.5c0.3,0.1,0.6,0.2,0.7,0.2C61.5,179.9,61.1,179.5,61.1,179.2L61.1,179.2z"/>
										<path style="fill-rule:evenodd;clip-rule:evenodd;fill:#5D5145;" d="M60,179.9c0.2-0.1,0.3-0.2,0.5-0.3
										c0.8,0.2,0.7,0,0.6-0.2c0.1,0,0.1,0,0.2-0.1c0.2,0.1,0.2,0.3-0.2,0.6C60.9,180.2,60.4,180,60,179.9L60,179.9z"/>
								</g>
							</g>
								<g>
								<g>
									<g>
										<path style="fill-rule:evenodd;clip-rule:evenodd;fill:#857566;" d="M131.1,168.5c0.2,0.1,0.3,0.2,0.6,0.3
											c0.2,0.1,0.4,0.1,0.5,0.3c0.3,0.3,0.5,0.8,0,1c-0.1,0-1.8,0-2.1,0c-0.5,0-0.8,0-1.3-0.2c-0.4-0.2-0.3-0.5-0.1-0.8
											c0.2-0.2,0.6-0.4,0.8-0.7c0.1-0.1,0.6-0.5,0.7-0.4C130.7,168.2,130.8,168.4,131.1,168.5L131.1,168.5z"/>
										<path style="fill-rule:evenodd;clip-rule:evenodd;fill:#9D8E79;" d="M130,168.9c-0.1-0.1-0.2-0.3-0.4-0.4
											c0.1-0.1,0.5-0.4,0.6-0.3c0.4,0,0.5,0.2,0.8,0.4c0.2,0.1,0.3,0.2,0.6,0.3c0.2,0.1,0.4,0.1,0.5,0.3
											c0.3,0.2,0.4,0.6,0.2,0.9c-0.3-0.3-1.2-0.6-1.5-0.5C130.6,169.3,130.3,169.2,130,168.9L130,168.9z"/>
										<path style="fill-rule:evenodd;clip-rule:evenodd;fill:#685A4E;" d="M129.2,170.1c0.4-0.2,0.7-0.3,1.1-0.5
											c0.3-0.1,0.3-0.1,0.6-0.1c0.3-0.1,1.2,0.2,1.5,0.5c-0.1,0.1-0.1,0.1-0.2,0.1c-0.1,0-1.8,0-2.1,0
											C129.7,170.2,129.5,170.2,129.2,170.1z"/>
									</g>
									<path style="fill-rule:evenodd;clip-rule:evenodd;fill:#C3B4A1;" d="M130.9,168.4c-0.2,0.1-0.4,0.2-0.6,0.3
										c-0.1,0.1-0.1,0.1-0.2,0.2c0,0,0,0,0,0c-0.1-0.1-0.1-0.1-0.2-0.2c-0.1-0.1-0.1-0.1-0.2-0.2c0.1-0.1,0.5-0.4,0.6-0.3
										C130.6,168.2,130.7,168.3,130.9,168.4L130.9,168.4z"/>
									<path style="fill-rule:evenodd;clip-rule:evenodd;fill:#A59986;" d="M130.1,168.9c-0.3,0.3-0.6,0.6-0.9,0.8
										c-0.1,0.1-0.2,0.2-0.4,0.2c-0.1-0.1-0.2-0.2-0.2-0.4c0-0.1,0.1-0.2,0.2-0.3c0.1-0.2,0.4-0.3,0.6-0.5
										c0.1-0.1,0.1-0.1,0.2-0.2c0,0,0,0,0,0c0.1,0.1,0.1,0.1,0.2,0.2C129.9,168.8,130,168.8,130.1,168.9
										C130,168.9,130,168.9,130.1,168.9L130.1,168.9z"/>
								</g>
									<g>
									<g>
										<path style="fill-rule:evenodd;clip-rule:evenodd;fill:#7C6E5F;" d="M131.3,168.7c0.1,0.1,0.2,0.1,0.4,0.2
											c0.2,0.1,0.4,0.1,0.5,0.3c0.3,0.3,0.5,0.8,0,1c-0.1,0-1.8,0-2.1,0c-0.5,0-0.8,0-1.3-0.2c0,0-0.1,0-0.1-0.1
											c0.1,0,0.2-0.1,0.2-0.1c0.2-0.1,0.6-0.1,0.8-0.2c0.2,0,0.9-0.1,1,0c0.4,0.2,0.3,0,0.6,0c0.2,0,0.2,0.1,0.4,0.1
											c0.3,0,0.1-0.2,0.2-0.3c0.1-0.1-0.2-0.3-0.3-0.4C131.5,168.9,131.4,168.9,131.3,168.7L131.3,168.7z"/>
										<path style="fill-rule:evenodd;clip-rule:evenodd;fill:#968773;" d="M131.3,168.7c0.1,0.1,0.2,0.1,0.4,0.2
											c0.2,0.1,0.4,0.1,0.5,0.3c0.3,0.2,0.4,0.6,0.2,0.9c-0.1-0.1-0.3-0.2-0.4-0.3c0.1-0.1,0-0.2,0-0.2c0.1-0.1-0.2-0.3-0.3-0.4
											C131.5,168.9,131.4,168.9,131.3,168.7L131.3,168.7z"/>
										<path style="fill-rule:evenodd;clip-rule:evenodd;fill:#605247;" d="M129.2,170.1c0.3-0.2,0.7-0.3,1-0.5
											c0.2,0,0.5,0,0.6,0c0.4,0.2,0.3,0,0.6,0c0.2,0,0.2,0.1,0.4,0.1c0.1,0,0.1,0,0.1,0c0.2,0.1,0.3,0.2,0.4,0.3
											c-0.1,0.1-0.1,0.1-0.2,0.1c-0.1,0-1.8,0-2.1,0C129.7,170.2,129.5,170.2,129.2,170.1L129.2,170.1z"/>
									</g>
										<path style="fill-rule:evenodd;clip-rule:evenodd;fill:#877E6D;" d="M129,169.8c-0.1,0-0.1,0.1-0.2,0.1c0,0,0,0,0,0
										C128.8,169.9,128.9,169.9,129,169.8L129,169.8L129,169.8z"/>
								</g>
							</g>
								<g>
								<g>
									<g>
										<path style="fill-rule:evenodd;clip-rule:evenodd;fill:#B8A68E;" d="M134.5,170c0.2,0,0.5,0.1,0.5,0.4c0,0.2,0,0.3,0,0.5
											c-0.1,0.5,0.3,0.9-0.4,0.9c-0.1,0-0.3,0.1-0.4,0.1c-0.1-0.1-0.9,0.2-1.2,0.2c-0.3,0-1.8,0.1-1.9,0c-0.4-0.1-1,0-1.3-0.5
											c-0.3-0.4-0.6-0.6-0.3-1.1c0.2-0.4,1.1-1,1.4-1.5c0.2-0.4,1-0.7,1.4-0.7c0.8,0,0.8,0.2,1.4,0.7
											C133.8,169.5,134.2,169.5,134.5,170C134.4,169.9,134.4,169.9,134.5,170L134.5,170z"/>
										<path style="fill-rule:evenodd;clip-rule:evenodd;fill:#6E5F52;" d="M133.3,171.2c0.3-0.2,0.5-0.5,0.7-0.6
											c0,0,0.1,0,0.1-0.1c0.4-0.1,0.6-0.1,0.9-0.1c0,0.2,0,0.3,0,0.5c0,0.1,0,0.3,0,0.4c0,0.3,0.1,0.5-0.4,0.5
											c-0.1,0-0.3,0.1-0.4,0.1c-0.1-0.1-0.9,0.2-1.2,0.2c-0.3,0-1.8,0.1-1.9,0c0,0-0.1,0-0.1,0c0.5-0.1,1-0.3,1.3-0.3
											c0.4,0,0.5-0.1,0.7-0.2C132.9,171.4,133.1,171.3,133.3,171.2L133.3,171.2z"/>
										<path style="fill-rule:evenodd;clip-rule:evenodd;fill:#837364;" d="M129.6,171.7c-0.3-0.4-0.6-0.6-0.3-1.1
											c0.1-0.2,0.4-0.5,0.7-0.8c0.4,0.1,0.8,0.2,1.1,0.2c0,0,1.4,0.7,1.4,0.7c0.3,0.3,1.1,0.1,1.5-0.1c-0.2,0.1-0.4,0.4-0.7,0.6
											c-0.2,0.2-0.4,0.3-0.5,0.4c-0.2,0.1-0.3,0.2-0.7,0.2c-0.3,0-0.8,0.2-1.3,0.3c-0.2,0-0.3,0-0.5-0.1
											C130,172,129.8,171.9,129.6,171.7L129.6,171.7z"/>
										<path style="fill-rule:evenodd;clip-rule:evenodd;fill:#CDC0B2;" d="M130.7,169c0.2-0.4,1-0.6,1.4-0.6
											c0.8,0,0.8,0.2,1.4,0.7c0.3,0.3,0.8,0.4,1,0.8c0,0,0,0,0.1,0c0.2,0,0.5,0.1,0.5,0.4c-0.4,0.1-0.5,0-0.9,0.1
											c-0.5,0-1.6-0.1-1.9-0.6c-0.2-0.3-0.6-0.9-1-0.8C131.1,169.1,130.9,169,130.7,169L130.7,169z"/>
									</g>
									<g>
										<path style="fill-rule:evenodd;clip-rule:evenodd;fill:#C4B5A3;" d="M129.6,170.1c0.4-0.3,0.9-0.7,1.1-1.1
											c0.2-0.4,1-0.7,1.4-0.7c0.8,0,0.8,0.2,1.4,0.7c0.2,0.2,0.5,0.3,0.7,0.5c-0.6-0.2-1.3-0.6-1.5-0.5c-0.6,0.4-1,0.4-1.5,0.9
											c-0.3,0.4-0.6,0-1,0.1C130.1,170.2,129.8,170.2,129.6,170.1L129.6,170.1z"/>
										<path style="fill-rule:evenodd;clip-rule:evenodd;fill:#998C80;" d="M129.6,170.1c0.1-0.1,0.3-0.2,0.4-0.4
											c0.4,0.1,0.8,0.2,1.1,0.2c0,0,0.1,0,0.1,0.1c-0.3,0.4-0.6,0-1,0.1C130.1,170.2,129.8,170.2,129.6,170.1z"/>
										<path style="fill-rule:evenodd;clip-rule:evenodd;fill:#D5CABF;" d="M130.7,169c0.2-0.4,1-0.6,1.4-0.6
											c0.8,0,0.8,0.2,1.4,0.7c0.2,0.2,0.5,0.3,0.7,0.5c-0.6-0.2-1.3-0.6-1.5-0.5c-0.3,0.2-0.6,0.3-0.8,0.4
											c-0.2-0.3-0.5-0.5-0.7-0.5C131.1,169.1,130.9,169,130.7,169L130.7,169z"/>
									</g>
								</g>
									<g>
									<g>
										<path style="fill-rule:evenodd;clip-rule:evenodd;fill:#968773;" d="M134.5,170c0.2,0,0.5,0.1,0.5,0.4c0,0.2,0,0.3,0,0.5
											c-0.1,0.5,0.3,0.9-0.4,0.9c-0.1,0-0.3,0.1-0.4,0.1c-0.1-0.1-0.9,0.2-1.2,0.2c-0.3,0-1.8,0.1-1.9,0c-0.4-0.1-1,0-1.3-0.5
											c0,0,0-0.1-0.1-0.1c0-0.2,0-0.3,0-0.4c0-0.7,1.6,0,1.6,0.1c0.3,0.4,1.2,0.3,1.5,0.1c0.4-0.2,1.2,0,1.6-0.1
											c0.2-0.1,0.2-0.6,0.2-0.9c0-0.2-1.1-0.9-1.3-1.1c-0.4-0.4-0.5-0.6-0.7-0.8c0.4,0.1,0.5,0.3,0.9,0.7
											C133.8,169.5,134.2,169.5,134.5,170C134.4,169.9,134.4,169.9,134.5,170z"/>
										<path style="fill-rule:evenodd;clip-rule:evenodd;fill:#584C41;" d="M134.5,170.4c0.1,0,0.3,0,0.5-0.1c0,0.2,0,0.3,0,0.5
											c0,0.1,0,0.3,0,0.4c0,0.3,0.1,0.5-0.4,0.5c-0.1,0-0.3,0.1-0.4,0.1c-0.1-0.1-0.9,0.2-1.2,0.2c-0.3,0-1.8,0.1-1.9,0
											c0,0-0.1,0-0.1,0c0.5-0.1,1-0.3,1.3-0.3c0.4,0,0.5-0.1,0.7-0.2c0.1-0.1,0.2-0.2,0.3-0.3c0.4,0,0.9,0,1.2,0
											C134.5,171.2,134.5,170.7,134.5,170.4L134.5,170.4z"/>
										<path style="fill-rule:evenodd;clip-rule:evenodd;fill:#756658;" d="M129.6,171.7C129.6,171.6,129.6,171.6,129.6,171.7
											c-0.1-0.3,0-0.4,0-0.5c0-0.7,1.6,0,1.6,0.1c0.3,0.4,1.2,0.3,1.5,0.1c0.1,0,0.2-0.1,0.4-0.1c-0.1,0.1-0.2,0.2-0.3,0.3
											c-0.2,0.1-0.3,0.2-0.7,0.2c-0.3,0-0.8,0.2-1.3,0.3c-0.2,0-0.3,0-0.5-0.1C130,172,129.8,171.9,129.6,171.7L129.6,171.7z"/>
										<path style="fill-rule:evenodd;clip-rule:evenodd;fill:#A5998C;" d="M132.5,168.4c0.4,0.1,0.5,0.3,0.9,0.7
											c0.3,0.3,0.8,0.4,1,0.8c0,0,0,0,0.1,0c0.2,0,0.5,0.1,0.5,0.4c-0.2,0-0.3,0-0.5,0.1l0-0.1c0-0.2-1.1-0.9-1.3-1.1
											C132.9,168.8,132.7,168.6,132.5,168.4L132.5,168.4z"/>
									</g>
										<g>
										<path style="fill-rule:evenodd;clip-rule:evenodd;fill:#9E9181;" d="M132.5,168.4c0.4,0.1,0.5,0.3,0.9,0.7
											c0.2,0.2,0.5,0.3,0.7,0.5c-0.3-0.1-0.6-0.2-0.9-0.4c0,0,0,0-0.1-0.1C132.9,168.8,132.7,168.6,132.5,168.4L132.5,168.4z"/>
											<path style="fill-rule:evenodd;clip-rule:evenodd;fill:#AB9F94;" d="M132.5,168.4c0.4,0.1,0.5,0.3,0.9,0.7
											c0.2,0.2,0.5,0.3,0.7,0.5c-0.3-0.1-0.6-0.2-0.9-0.4c0,0,0,0-0.1-0.1C132.9,168.8,132.7,168.6,132.5,168.4L132.5,168.4z"/>
									</g>
								</g>
							</g>
								<g>
								<g>
									<path style="fill-rule:evenodd;clip-rule:evenodd;fill:#958474;" d="M67.9,179c0.1,0,0.2,0.1,0.4,0.2
										c0.1,0,0.3,0.1,0.3,0.2c0.2,0.2,0.3,0.5,0,0.7c-0.1,0-1.2,0.1-1.3,0.1c-0.3,0-0.5,0-0.8-0.1c-0.2-0.1-0.2-0.3-0.1-0.5
										c0.1-0.1,0.4-0.3,0.5-0.5c0.1-0.1,0.4-0.3,0.4-0.3C67.6,178.7,67.7,178.9,67.9,179z"/>
									<path style="fill-rule:evenodd;clip-rule:evenodd;fill:#B8A68E;" d="M67.2,179.2c-0.1-0.1-0.2-0.2-0.2-0.2
										c0.1-0.1,0.3-0.3,0.4-0.2c0.3,0,0.3,0.1,0.5,0.2c0.1,0,0.2,0.1,0.4,0.2c0.1,0,0.3,0.1,0.3,0.2c0.2,0.2,0.3,0.4,0.1,0.6
										c-0.2-0.2-0.7-0.3-1-0.3C67.6,179.5,67.4,179.4,67.2,179.2L67.2,179.2z"/>
									<path style="fill-rule:evenodd;clip-rule:evenodd;fill:#6E5F52;" d="M66.6,180c0.2-0.2,0.5-0.2,0.7-0.3
										c0.2-0.1,0.2-0.1,0.4-0.1c0.2,0,0.7,0.1,1,0.3c0,0-0.1,0.1-0.1,0.1c-0.1,0-1.2,0.1-1.3,0.1C67,180.1,66.9,180.1,66.6,180
										L66.6,180z"/>
								</g>
									<path style="fill-rule:evenodd;clip-rule:evenodd;fill:#C3B4A1;" d="M67.7,178.9c-0.1,0-0.3,0.1-0.4,0.2
									c0,0-0.1,0.1-0.1,0.1l0,0c0,0-0.1-0.1-0.1-0.1c0,0-0.1-0.1-0.1-0.1c0.1-0.1,0.3-0.3,0.4-0.2
									C67.5,178.8,67.6,178.8,67.7,178.9L67.7,178.9z"/>
									<path style="fill-rule:evenodd;clip-rule:evenodd;fill:#A59986;" d="M67.2,179.3c-0.2,0.2-0.4,0.4-0.6,0.5
									c-0.1,0.1-0.2,0.1-0.2,0.2c-0.1-0.1-0.1-0.1-0.1-0.2c0-0.1,0-0.2,0.1-0.2c0.1-0.1,0.3-0.2,0.4-0.3c0,0,0.1-0.1,0.1-0.1l0,0
									c0,0,0.1,0.1,0.1,0.1C67.1,179.2,67.1,179.2,67.2,179.3L67.2,179.3L67.2,179.3z"/>
							</g>
								<g>
								<path style="fill-rule:evenodd;clip-rule:evenodd;fill:#A59986;" d="M124.5,172.6c0.1,0,0.5,0.1,0.5,0.4
									c0,0.2-0.4,0.2-0.6,0.3c-0.4,0.1-0.9-0.4-0.2-0.6C124.2,172.6,124.4,172.6,124.5,172.6L124.5,172.6z"/>
									<path style="fill-rule:evenodd;clip-rule:evenodd;fill:#584C41;" d="M124.9,173c0,0.2-0.4,0.2-0.6,0.2
									c-0.2,0-0.5-0.1-0.5-0.3c0,0,0.1,0.1,0.1,0.1c0.4,0.4,0.5,0.1,0.7,0c0.1,0,0.1,0,0.1-0.1c0.2-0.1-0.1-0.3-0.2-0.4
									C124.7,172.6,124.9,172.7,124.9,173C124.9,173,124.9,173,124.9,173L124.9,173z"/>
							</g>
								<g>
								<path style="fill-rule:evenodd;clip-rule:evenodd;fill:#6E5F52;" d="M130.4,172.5c0.3,0.1,0.5-0.4,0.5,0.2
									c0,0.4-0.2,0.6-0.5,0.4c-0.3-0.1-0.2-0.1-0.5-0.1c-0.6,0-0.3-0.7,0.2-0.6C130.2,172.5,130.3,172.5,130.4,172.5L130.4,172.5z
									"/>
									<path style="fill-rule:evenodd;clip-rule:evenodd;fill:#988B80;" d="M130.4,172.7c-0.2,0-0.3-0.2-0.4,0
									c-0.1,0.1-0.1-0.1-0.1,0.1c0,0,0,0.1,0,0.1c0,0.1-0.1,0.1-0.2,0.1c0,0,0-0.1,0-0.1c0-0.1,0.1-0.3,0.3-0.3c0.1,0,0.1,0,0.2,0
									c0.1,0,0.2,0,0.3,0c0.2,0.1,0.4-0.2,0.5,0c-0.1,0-0.2,0-0.2,0.1C130.6,172.8,130.6,172.6,130.4,172.7L130.4,172.7
									L130.4,172.7z"/>
									<path style="fill-rule:evenodd;clip-rule:evenodd;fill:#584C41;" d="M131,172.9c0,0.3-0.2,0.4-0.5,0.3
									c-0.3-0.1-0.2-0.1-0.5-0.1c-0.1,0-0.2,0-0.2,0c0.1,0,0.3-0.1,0.3-0.1c0,0,0.1-0.1,0.1-0.1c0,0,0,0,0,0c0.1,0,0.2,0,0.3,0.1
									c0.2,0.1,0.2,0,0.3,0.1c0,0,0.1-0.1,0.1-0.1l0,0c0,0,0-0.1,0-0.1c0-0.1,0.1-0.1,0.1-0.1l0,0C131,172.7,131,172.8,131,172.9
									C131,172.8,131,172.8,131,172.9L131,172.9z"/>
							</g>
								<path style="fill-rule:evenodd;clip-rule:evenodd;fill:#5C8D2B;" d="M101.3,171.4c0-0.1,0-0.3-0.1-0.4c0,0,0,0,0,0.1
								c0,1.1-2.6,2-5.8,2c-0.9,0-1.8-0.1-2.6-0.2c-1.5-0.3-2.6-0.7-3-1.3c0.1,0.7,1.1,1.3,2.6,1.6c0.9,0.2,2,0.3,3.1,0.3
								C98.7,173.4,101.3,172.5,101.3,171.4L101.3,171.4L101.3,171.4z M105.7,167.7c0.2,0,0.3,0,0.5-0.1l-0.4-0.3l-0.1,0
								c-0.5,0.1-1.1,0.1-1.7,0.1c-1.6,0-3-0.3-3.8-0.7c0.7,0.6,2.3,1,4.2,1C104.9,167.7,105.3,167.7,105.7,167.7L105.7,167.7
								L105.7,167.7z M108.6,166.7c0.2-0.2,0.3-0.4,0.3-0.6c0-0.3-0.3-0.6-0.8-0.9c0.2,0.2,0.4,0.4,0.4,0.6c0,0.2-0.1,0.4-0.3,0.6
								l-1.8-0.3l-3.1-0.5l0.4,0.3l2.6,0.4L108.6,166.7L108.6,166.7L108.6,166.7z M89,163.9c0.6,0.3,1.7,0.5,2.8,0.5
								c1,0,2-0.2,2.6-0.4c-0.6,0.2-1.4,0.3-2.2,0.3c-0.3,0-0.7,0-1,0c0,0,0,0-0.1,0c0,0,0,0,0,0c-0.7-0.1-1.3-0.2-1.8-0.4l2.2-0.8
								l-2.2-0.7c0.1,0,0.1-0.1,0.2-0.1c-0.2,0.1-0.4,0.1-0.6,0.2l2.2,0.7L89,163.9L89,163.9z"/>
								<path style="fill-rule:evenodd;clip-rule:evenodd;fill:#383128;" d="M115.3,168.6c-0.1,0-0.2,0-0.3-0.2c0,0,0,0,0.1,0
								c0,0,0,0,0-0.1c0-0.1,0-0.2,0-0.3c-0.1-0.3-0.3-0.8-0.6-1.3c-0.3-0.6-0.6-1-0.9-1.3c0.2,0.1,0.7,0.7,1.1,1.4
								c0.4,0.7,0.6,1.3,0.6,1.6C115.4,168.5,115.4,168.5,115.3,168.6L115.3,168.6L115.3,168.6z"/>
								<path style="fill-rule:evenodd;clip-rule:evenodd;fill:#383128;" d="M117.1,166.9c-0.1,0-0.2-0.2-0.4-0.5
								c0.1,0,0.1-0.2,0-0.4c0-0.1,0-0.1,0-0.2c0-0.3-0.1-0.7-0.3-1.1c0-0.2-0.1-0.3-0.2-0.5c-0.2-0.6-0.4-1.1-0.6-1.5c0,0,0,0,0,0
								c0.2-0.1,0.6,0.8,1,2l0,0.1c0.3,0.9,0.4,1.6,0.4,1.9C117.2,166.8,117.1,166.9,117.1,166.9
								C117.1,166.9,117.1,166.9,117.1,166.9L117.1,166.9z"/>
								<path style="fill-rule:evenodd;clip-rule:evenodd;fill:#383128;" d="M121.5,161.2c-0.4,1.5-0.9,2.6-1.2,2.5c0,0,0,0,0,0
								c-0.1,0-0.1-0.1-0.1-0.3l0,0l0,0c0,0,0.1,0,0.2-0.1c0.3-0.3,0.6-1.1,0.9-2.2c0-0.1,0-0.1,0.1-0.2c0.2-0.8,0.3-1.5,0.4-2
								c0-0.2,0-0.3,0-0.5c0.1,0,0.1,0.2,0.1,0.5C121.9,159.3,121.8,160.2,121.5,161.2L121.5,161.2z"/>
								<path style="fill-rule:evenodd;clip-rule:evenodd;fill:#383128;" d="M121.4,165.1C121.4,165.1,121.4,165.1,121.4,165.1
								c-0.1-0.1-0.1-0.2-0.1-0.3c0.1,0,0.1,0,0.2-0.1c0.1-0.1,0.2-0.2,0.3-0.3c0.2-0.3,0.5-0.7,0.8-1.2c0.3-0.7,0.5-1.3,0.6-1.6
								c0,0,0,0,0,0c0.2,0.1,0,1-0.5,1.9c-0.4,0.8-0.9,1.5-1.2,1.5C121.5,165.1,121.5,165.1,121.4,165.1L121.4,165.1z"/>
								<path style="fill-rule:evenodd;clip-rule:evenodd;fill:#383128;" d="M118.6,150.9C118.5,150.9,118.5,150.9,118.6,150.9
								c-0.1,0-0.1,0-0.1-0.1c0-0.1,0-0.1,0-0.2c0.1,0,0.1-0.1,0.2-0.2c0.1-0.1,0.2-0.2,0.3-0.3c0.2-0.3,0.4-0.6,0.6-1
								c0.3-0.6,0.5-1.2,0.6-1.5c0,0,0.1,0,0.1,0c0.2,0.1,0,0.9-0.5,1.8C119.3,150.2,118.8,150.8,118.6,150.9L118.6,150.9z"/>
								<path style="fill-rule:evenodd;clip-rule:evenodd;fill:#383128;" d="M117.3,148.6c-0.2,1.3-0.5,2.4-0.8,2.5c0,0,0,0,0,0
								c0,0-0.1-0.1-0.1-0.1c0,0,0-0.1,0-0.2c0,0,0,0,0.1,0c0.1,0,0.1-0.1,0.2-0.3c0.2-0.4,0.4-1.3,0.6-2.2c0.1-1,0.2-1.9,0.1-2.3
								c0,0,0,0,0,0C117.4,146,117.5,147.2,117.3,148.6L117.3,148.6z"/>
								<path style="fill-rule:evenodd;clip-rule:evenodd;fill:#383128;" d="M114.1,151.7c-0.1,0-0.2-0.1-0.3-0.4
								c0,0.1,0.1,0.1,0.1,0.1c0,0,0,0,0.1,0c0,0,0.1-0.1,0.1-0.3c0.1-0.4,0-1.2-0.1-2c-0.1-0.8-0.3-1.5-0.5-1.9
								c0.2,0.3,0.5,1.1,0.6,2.2c0.2,1,0.2,1.9,0.1,2.2C114.2,151.7,114.2,151.7,114.1,151.7C114.1,151.7,114.1,151.7,114.1,151.7
								L114.1,151.7z"/>
								<path style="fill-rule:evenodd;clip-rule:evenodd;fill:#383128;" d="M58.4,151.3c-0.1,0.1-0.1,0.1-0.1,0.1c0,0,0,0,0,0
								c-0.1-0.1-0.1-0.3-0.1-0.5c0.2-0.2,0.6-1.2,0.9-2.3c0.2-0.8,0.3-1.5,0.4-2c0,0,0.1-0.1,0.1-0.1c0.2,0.1,0.1,1.2-0.3,2.5
								C59,150.1,58.7,151,58.4,151.3L58.4,151.3z"/>
								<path style="fill-rule:evenodd;clip-rule:evenodd;fill:#383128;" d="M57.5,149.5c0.1,1.5-0.1,2.7-0.5,2.7l0,0
								c-0.1,0-0.1,0-0.2-0.1c-0.1-0.1-0.2-0.3-0.3-0.6c0.1,0.1,0.2,0.2,0.2,0.2l0,0c0.1,0,0.1,0,0.2-0.1c0.2-0.3,0.4-1.4,0.3-2.6
								c0-0.8-0.2-1.5-0.3-2C57.2,147.4,57.5,148.4,57.5,149.5L57.5,149.5z"/>
								<g>
								<g>
									<path style="fill-rule:evenodd;clip-rule:evenodd;fill:#8A7765;" d="M128.7,172.7c0-0.2-0.2-0.5-0.4-0.6
										c-0.4-0.2-0.4-0.1-0.8-0.4c-0.3-0.2-0.7,0.2-1,0.3c-0.2,0.1-0.7,0.4-0.9,0.6c-0.4,0.4,0.2,0.6,0.5,0.7
										c0.2,0,0.5,0.1,0.8,0.1c0.1,0,0.5,0.1,0.7,0.1c0,0,0.4-0.1,0.5-0.1C128.5,173.1,128.4,173,128.7,172.7
										C128.7,172.7,128.7,172.7,128.7,172.7L128.7,172.7z"/>
									<path style="fill-rule:evenodd;clip-rule:evenodd;fill:#584C41;" d="M126.2,172.1c0.1-0.1,0.2-0.1,0.3-0.1
										c0.3-0.1,0.7-0.5,1-0.3c0.4,0.2,0.4,0.2,0.8,0.4c0.2,0.1,0.5,0.4,0.4,0.6c0,0.1,0,0,0,0c-0.2,0.3-0.2,0.3-0.5,0.5
										c-0.1-0.1-0.3-0.3-0.4-0.3c-0.3-0.1-0.3-0.3-0.7-0.4l0,0l0,0C126.9,172.4,126.6,172.3,126.2,172.1L126.2,172.1z"/>
									<path style="fill-rule:evenodd;clip-rule:evenodd;fill:#6E5F52;" d="M125.5,173c0.4,0,0.7-0.1,1.1-0.3
										c0.1-0.1,0.5-0.2,0.6-0.2l0,0c0.3,0.1,0.4,0.2,0.7,0.4c0.1,0,0.3,0.2,0.4,0.3c0,0-0.1,0.1-0.2,0.1
										c-0.1,0.1-0.4,0.1-0.5,0.1c-0.1,0.1-0.6-0.1-0.7-0.1c-0.2,0-0.5-0.1-0.8-0.1C125.9,173.2,125.6,173.1,125.5,173z"/>
								</g>
									<g>
									<path style="fill-rule:evenodd;clip-rule:evenodd;fill:#948373;" d="M127.9,171.9c-0.1,0-0.2-0.1-0.4-0.2
										c-0.3-0.2-0.7,0.2-1,0.3c-0.2,0.1-0.7,0.4-0.9,0.6c-0.1,0.1-0.2,0.2-0.1,0.3l0,0c0.4-0.3,0.3-0.3,0.9-0.3
										c0.3,0,0.8-0.6,1.3-0.6C127.7,171.9,127.8,171.9,127.9,171.9L127.9,171.9z"/>
										<path style="fill-rule:evenodd;clip-rule:evenodd;fill:#675C53;" d="M126.2,172.1c0.1-0.1,0.2-0.1,0.3-0.1
										c0.3-0.1,0.7-0.5,1-0.3c0.2,0.1,0.3,0.2,0.4,0.2c-0.1,0-0.1,0-0.2,0c-0.3,0-0.7,0.3-1,0.4
										C126.6,172.3,126.4,172.2,126.2,172.1L126.2,172.1z"/>
								</g>
							</g>
								<g>
								<g>
									<g>
										<path style="fill-rule:evenodd;clip-rule:evenodd;fill:#958474;" d="M122.3,173.1c0.1,0,0.3,0,0.5,0
											c0.2,0.1,0.6,0.3,0.8,0.3c0.1,0,0.5,0.2,0.6,0.3c0,0.1,0.2,0.2,0.2,0.3c0,0.3-0.1,0.3-0.4,0.4c-0.1,0-0.8,0.2-0.8,0.2
											c-0.1,0-0.4,0.1-0.4,0c0,0-0.2,0-0.3-0.1c-0.2-0.1-0.3-0.1-0.4-0.2c-0.2-0.1-0.5-0.4-0.3-0.7c0.1-0.1,0.2-0.2,0.3-0.3
											C121.9,173.3,122.1,173.1,122.3,173.1L122.3,173.1z"/>
										<path style="fill-rule:evenodd;clip-rule:evenodd;fill:#B8A68E;" d="M121.6,173.8c0.1-0.1,0.2-0.2,0.3-0.3
											c0.1-0.1,0.3-0.3,0.4-0.3c0.1,0,0.3,0,0.5,0c0.1,0,0.3,0.1,0.4,0.2c-0.3,0.2-0.8,0.6-0.9,0.9c-0.1,0.1-0.1,0.2-0.2,0.3
											c0,0-0.1,0-0.1-0.1C121.7,174.3,121.4,174,121.6,173.8L121.6,173.8z"/>
										<path style="fill-rule:evenodd;clip-rule:evenodd;fill:#6E5F52;" d="M122.5,174.5c0.2-0.1,0.5-0.3,0.9-0.4
											c-0.1,0.2-0.4,0.2-0.7,0.7c0,0,0,0,0,0c0,0-0.2,0-0.3-0.1c0,0-0.1,0-0.1-0.1C122.4,174.6,122.5,174.5,122.5,174.5
											L122.5,174.5z"/>
										<path style="fill-rule:evenodd;clip-rule:evenodd;fill:#584C41;" d="M122.7,174.7c0.3-0.5,0.6-0.5,0.7-0.7
											c0.3-0.1,0.5-0.2,0.8-0.3c0.1,0.1,0.2,0.2,0.2,0.3c0,0.3-0.1,0.3-0.4,0.4c-0.1,0-0.8,0.2-0.8,0.2
											C123.1,174.7,122.8,174.7,122.7,174.7z"/>
									</g>
									<path style="fill-rule:evenodd;clip-rule:evenodd;fill:#C3B4A1;" d="M122.3,173.3c-0.2,0.1-0.4,0.3-0.5,0.5
										c-0.1,0.1-0.1,0.2,0,0.3c0,0.1,0,0.1,0,0.2c-0.1-0.1-0.3-0.3-0.3-0.4c0-0.1,0-0.1,0.1-0.2c0.1-0.1,0.2-0.2,0.3-0.3
										c0.1-0.1,0.3-0.3,0.4-0.3c0.1,0,0.3,0,0.5,0c0,0,0.1,0,0.1,0l0,0l0,0c0,0,0.1,0,0.1,0c0.1,0,0.1,0.1,0.2,0.1l0,0
										c0,0,0,0-0.1,0c-0.1,0-0.3,0-0.5,0C122.4,173.3,122.4,173.3,122.3,173.3z"/>
								</g>
									<g>
									<g>
										<path style="fill-rule:evenodd;clip-rule:evenodd;fill:#7D6D5F;" d="M123.9,173.6c0.1,0.1,0.2,0.1,0.3,0.2
											c0,0.1,0.2,0.2,0.2,0.3c0,0.3-0.1,0.3-0.4,0.4c-0.1,0-0.8,0.2-0.8,0.2c-0.1,0-0.4,0.1-0.4,0c0,0-0.2,0-0.3-0.1
											c-0.2-0.1-0.3-0.1-0.4-0.2c0,0-0.1-0.1-0.1-0.1c0,0,0.1,0,0.1,0c0.3,0,1,0.1,1.2,0.1C124,174.1,123.4,173.8,123.9,173.6
											L123.9,173.6L123.9,173.6z"/>
										<path style="fill-rule:evenodd;clip-rule:evenodd;fill:#90816E;" d="M122.1,174.3c0,0.1-0.1,0.1-0.1,0.2
											c0,0-0.1,0-0.1-0.1c0,0-0.1-0.1-0.1-0.1c0,0,0.1,0,0.1,0C122,174.3,122.1,174.3,122.1,174.3z"/>
										<path style="fill-rule:evenodd;clip-rule:evenodd;fill:#65584C;" d="M122.5,174.5c0.1,0,0.1-0.1,0.2-0.1
											c0.1,0,0.2,0,0.2,0c-0.1,0.1-0.2,0.2-0.2,0.3c0,0,0,0,0,0c0,0-0.2,0-0.3-0.1c0,0-0.1,0-0.1-0.1
											C122.4,174.6,122.5,174.5,122.5,174.5L122.5,174.5z"/>
										<path style="fill-rule:evenodd;clip-rule:evenodd;fill:#4F4439;" d="M122.7,174.7c0.1-0.1,0.2-0.2,0.2-0.3
											c0.1,0,0.1,0,0.2,0c0.5-0.2,0.5-0.3,0.6-0.5c0.2-0.1,0.3-0.1,0.5-0.1c0.1,0.1,0.2,0.2,0.2,0.3c0,0.3-0.1,0.3-0.4,0.4
											c-0.1,0-0.8,0.2-0.8,0.2C123.1,174.7,122.8,174.7,122.7,174.7L122.7,174.7z"/>
									</g>
										<path style="fill-rule:evenodd;clip-rule:evenodd;fill:#968A79;" d="M121.8,174.3C121.8,174.3,121.8,174.3,121.8,174.3
										L121.8,174.3L121.8,174.3L121.8,174.3z"/>
								</g>
							</g>
								<g>
								<g>
									<path style="fill-rule:evenodd;clip-rule:evenodd;fill:#B8A68E;" d="M85.2,159.3c0.2-0.1,0.3-0.4,0.2-0.6
										c-0.8-2.2-1.7-4.4-2.8-6.6c-0.2-0.5-0.7-0.8-1.1-1.2c-0.6-0.5-1.3-1-2-1.4c-0.5-0.3-1-0.5-1.6-0.7
										c-0.3-0.1-0.6-0.1-0.9-0.2c-0.7-0.2-1.4-0.4-2.1-0.6c-0.2,0-0.5-0.1-0.7,0.1c-1.4,0.9-2.6,2-3.9,3
										c-1.1,0.9-2.3,1.7-3.4,2.6c-1.1,1-1.6,2.7-2,4c-0.1,0.4-0.2,0.8-0.1,1.2c0.2,0.5,1.6,0.5,2.3,0.6c0.5,0.1,1.1,0.3,1.6,0.3
										c1.2,0.1,2.4-0.1,3.7-0.1c1.3,0,2.5,0.2,3.8,0.3c0.9,0.1,1.9,0.4,2.8,0.6c0.4,0.1,0.7,0.2,1.1,0.2c0.4,0,0.8-0.1,1.2-0.3
										C82.6,160.3,83.9,159.9,85.2,159.3L85.2,159.3z"/>
									<path style="fill-rule:evenodd;clip-rule:evenodd;fill:#C4B5A2;" d="M74.6,149c0.5-0.2,5.2,1.5,5.8,2.2
										c0.6,0.7,1.8,1.4,2.2,2.3c0.3,0.5,1.5,2.7,2.1,3.4c-0.6-1.6-1.3-3.2-2.1-4.8c-0.2-0.5-0.7-0.8-1.1-1.2
										c-0.6-0.5-1.3-1-2-1.4c-0.5-0.3-1-0.5-1.6-0.7c-0.3-0.1-0.6-0.1-0.9-0.2c-0.7-0.2-1.4-0.4-2.1-0.6c-0.2,0-0.5-0.1-0.7,0.1
										c-0.1,0.1-0.3,0.2-0.4,0.3C74.1,148.7,74.5,149.1,74.6,149L74.6,149z"/>
									<path style="fill-rule:evenodd;clip-rule:evenodd;fill:#6E5F52;" d="M74.7,148.1c-0.2,0-0.4,0-0.5,0.1
										c-1.4,0.9-2.6,2-3.9,3c-1.1,0.9-2.3,1.7-3.4,2.6c-1.1,1-1.6,2.7-2,4c-0.1,0.4-0.2,0.8-0.1,1.2c0.2,0.5,1.6,0.5,2.3,0.6
										c0.5,0.1,1.1,0.3,1.6,0.3c1.2,0.1,2.4-0.1,3.7-0.1c1.3,0,2.5,0.2,3.8,0.3c0.8,0.1,1.6,0.3,2.4,0.5c0.1,0,0.1,0,0.1,0
										c0.4,0,0.4-1.4,0.4-1.5c-0.1-0.4,0.1-1.8,0.1-2.3c0-1-1.6-4.6-2.2-5.4C76.4,150.6,75.7,148.9,74.7,148.1L74.7,148.1z"/>
									<path style="fill-rule:evenodd;clip-rule:evenodd;fill:#9D8873;" d="M74.7,148.1c-0.2,0-0.4,0-0.5,0.1
										c-1.4,0.9-2.6,2-3.9,3c-1.1,0.9-2.3,1.7-3.4,2.6c-0.5,0.5-0.9,1.1-1.2,1.8c1.3-0.5,3.6-1.8,3.9-2.4c1.5-2.2,1-1.3,3.1-2.4
										c1-0.5,0.7-1.4,2.9-1.6C75.4,148.8,75.1,148.4,74.7,148.1z"/>
									<path style="fill-rule:evenodd;clip-rule:evenodd;fill:#8A7765;" d="M67.5,153.3c-0.2,0.2-0.4,0.4-0.6,0.5
										c-1.1,1-1.6,2.7-2,4c-0.1,0.4-0.2,0.8-0.1,1.2c0.2,0.5,1.6,0.5,2.3,0.6c0.5,0.1,1.1,0.3,1.6,0.3c1.2,0.1,2.4-0.1,3.7-0.1
										c1.3,0,2.5,0.2,3.8,0.3c0.7,0.1,1.3,0.2,1.9,0.4c0-0.5-0.3-0.8-0.8-1c-0.4-0.1-1.2-0.7-1.7-0.9c-0.7-0.2-3.5-2.1-4-2.6
										c-0.1-0.1-2.4-2-2.4-2c-0.3-0.1-0.9-0.6-1.4-0.8C67.7,153.4,67.6,153.3,67.5,153.3L67.5,153.3z"/>
									<path style="fill-rule:evenodd;clip-rule:evenodd;fill:#AA9884;" d="M67.5,153.3c-0.2,0.2-0.4,0.4-0.6,0.5
										c-0.5,0.5-0.9,1.1-1.2,1.8c0.9-0.3,2.2-1.1,3.1-1.7c-0.3-0.2-0.7-0.5-1-0.6C67.7,153.4,67.6,153.3,67.5,153.3z"/>
									<path style="fill-rule:evenodd;clip-rule:evenodd;fill:#584C41;" d="M65.9,155.1c-0.5,0.9-0.8,1.9-1,2.8
										c-0.1,0.4-0.2,0.8-0.1,1.2c0.2,0.5,1.6,0.5,2.3,0.6c0.5,0.1,1.1,0.3,1.6,0.3c1.2,0.1,2.4-0.1,3.7-0.1
										c1.3,0,2.5,0.2,3.8,0.3c0.7,0.1,1.3,0.2,1.9,0.4c0-0.5-0.3-0.8-0.8-1c-0.4-0.1-1.2-0.7-1.7-0.9c-0.4-0.1-1.3-0.6-2.2-1.2
										c-0.6-0.3-1.3-0.6-1.7-0.8c-0.9-0.5-1.7-1-2.8-1.3c-1.2-0.4-1.5-0.4-2.8-0.4C66.1,155.1,66,155.1,65.9,155.1L65.9,155.1z"
									/>
									<path style="fill-rule:evenodd;clip-rule:evenodd;fill:#8A7765;" d="M65.9,155.1c-0.1,0.2-0.2,0.3-0.2,0.5
										c0.3-0.1,0.7-0.3,1.1-0.5c-0.2,0-0.4,0-0.6,0C66.1,155.1,66,155.1,65.9,155.1z"/>
									<path style="fill-rule:evenodd;clip-rule:evenodd;fill:#837364;" d="M77.2,160.4c0.4,0.1,0.9,0.2,1.3,0.3
										c0.1,0,0.1,0,0.1,0c0.4,0,0.4-1.4,0.4-1.5c-0.1-0.4,0.1-1.8,0.1-2.3c0-0.5-0.4-1.5-0.8-2.6c0.2,1.2,0.1,1.4,0,2.5
										C78.1,158.3,78.1,159.1,77.2,160.4L77.2,160.4L77.2,160.4z"/>
									<path style="fill-rule:evenodd;clip-rule:evenodd;fill:#6E5F52;" d="M77.2,160.4c0.4,0.1,0.9,0.2,1.3,0.3
										c0.1,0,0.1,0,0.1,0c0.3,0,0.3-0.5,0.4-1c-0.4,0.1-1.1,0.3-1.7,0.5C77.3,160.3,77.3,160.4,77.2,160.4L77.2,160.4L77.2,160.4
										z"/>
									<path style="fill-rule:evenodd;clip-rule:evenodd;fill:#837364;" d="M85.2,159.3c0.2-0.1,0.3-0.4,0.2-0.6
										c-0.8-2.2-1.7-4.4-2.8-6.6c-0.2-0.4-0.6-0.7-0.9-1c-0.3,0.7-0.7,1.4-1,1.8c-0.2,0.3-1.3,2.3-1.3,2.6c0,0-0.3,1.3-0.3,1.6
										c0,1.4-0.1,2,0.8,3.2c0.1,0.2,0.3,0.4,0.5,0.6c0.3,0,0.6-0.1,0.8-0.2C82.6,160.3,83.9,159.9,85.2,159.3L85.2,159.3z"/>
									<path style="fill-rule:evenodd;clip-rule:evenodd;fill:#6E5F52;" d="M85.2,159.3c0.2-0.1,0.3-0.4,0.2-0.6
										c-0.2-0.6-0.4-1.2-0.7-1.7c-0.6,0.8-1.4,1.2-2.4,0.7c-1.3-0.7-0.5,1.3-0.9,1.6c-0.8,0.5-0.7-0.1-2,0.3
										c0.1,0.2,0.3,0.5,0.5,0.7c0.1,0.2,0.3,0.4,0.5,0.6c0.3,0,0.6-0.1,0.8-0.2C82.6,160.3,83.9,159.9,85.2,159.3L85.2,159.3z"/>
									<path style="fill-rule:evenodd;clip-rule:evenodd;fill:#9D8873;" d="M78.3,154.3c-0.5-1.2-1.1-2.4-1.3-2.9
										c-0.5-0.8-1.2-2.5-2.2-3.3c0.1,0,0.1,0,0.2,0c0.6,0.1,1.2,0.3,1.9,0.5c-0.4,0.5,0,1.6,0.3,2.1c0.3,0.4,1.8,4.3,1.8,4.7
										c0,0.1,0,0.2,0,0.3c0,0.2,0.1,0.3,0.1,0.5c0,0.2,0.1,0.4,0.1,0.6c0,0.1,0,0.1,0,0.2c0,0,0,0.1,0,0.1l0,0c0,0.1,0,0.2,0,0.3
										c0,1,0,1.6,0.5,2.5c0.1,0.1,0.2,0.3,0.3,0.4c0.1,0.2,0.2,0.3,0.4,0.5l0.1,0.1c-0.1,0-0.3,0-0.4,0c-0.1,0-0.3,0-0.4,0
										c-0.2,0-0.4-0.1-0.7-0.1c-0.1,0-0.2,0-0.4-0.1c0.1,0,0.1,0,0.1,0c0.4,0,0.4-1.4,0.4-1.5c-0.1-0.3,0-1.1,0-1.8
										c0-0.1,0-0.2,0-0.3l0-0.1c0-0.1,0-0.2,0-0.3c0-0.1,0-0.3-0.1-0.5c0-0.2-0.1-0.3-0.2-0.5C78.7,155.3,78.5,154.8,78.3,154.3
										L78.3,154.3z"/>
									<path style="fill-rule:evenodd;clip-rule:evenodd;fill:#847565;" d="M79.5,159.6c0.1,0.1,0.1,0.2,0.2,0.4
										c0.1,0.1,0.2,0.3,0.3,0.4c0.1,0.2,0.2,0.3,0.4,0.5l0.1,0.1c-0.1,0-0.3,0-0.4,0c-0.1,0-0.3,0-0.4,0c-0.2,0-0.4-0.1-0.7-0.1
										c-0.1,0-0.2,0-0.4-0.1c0.1,0,0.1,0,0.1,0c0.3,0,0.3-0.5,0.4-1C79.2,159.7,79.3,159.6,79.5,159.6
										C79.4,159.6,79.5,159.6,79.5,159.6L79.5,159.6z"/>
									<path style="fill-rule:evenodd;clip-rule:evenodd;fill:#9D8873;" d="M81.2,152c0.5,0.5,1.1,1,1.4,1.6
										c0.3,0.5,1.5,2.7,2.1,3.4c-0.6-1.6-1.3-3.2-2.1-4.8c-0.2-0.4-0.6-0.7-0.9-1C81.5,151.4,81.4,151.7,81.2,152L81.2,152z"/>
									<path style="fill-rule:evenodd;clip-rule:evenodd;fill:#AA9884;" d="M75.6,149.2c0.3,0.1,0.6,0.2,1,0.3
										c0-0.3,0-0.7,0.1-0.9c-0.6-0.2-1.2-0.4-1.9-0.5c-0.1,0-0.1,0-0.2,0C75.1,148.4,75.4,148.8,75.6,149.2L75.6,149.2z"/>
								</g>
									<g>
									<path style="fill-rule:evenodd;clip-rule:evenodd;fill:#8D7E6C;" d="M65.1,157.1c-0.1,0.3-0.2,0.5-0.2,0.8
										c-0.1,0.4-0.2,0.8-0.1,1.2c0.2,0.5,1.6,0.5,2.3,0.6c0.5,0.1,1.1,0.3,1.6,0.3c1.2,0.1,2.4-0.1,3.7-0.1
										c1.3,0,2.5,0.2,3.8,0.3c0.2,0,0.5,0.1,0.7,0.1c-0.1-0.9-0.5-1.6,0.2-2.5c0.8-1-0.3-2.9-1-3.5c-0.6-0.5,0.1-1.5-3-0.8
										c-0.2,0-1.6,1-1.7,1.1c-0.7,0.6-3,2.4-3.8,2.5C66.9,157.3,65.9,157.2,65.1,157.1L65.1,157.1z"/>
										<path style="fill-rule:evenodd;clip-rule:evenodd;fill:#5C4F44;" d="M65.1,157.1c-0.1,0.3-0.2,0.5-0.2,0.8
										c-0.1,0.4-0.2,0.8-0.1,1.2c0.2,0.5,1.6,0.5,2.3,0.6c0.5,0.1,1.1,0.3,1.6,0.3c1.2,0.1,2.4-0.1,3.7-0.1
										c1.3,0,2.5,0.2,3.8,0.3c0.2,0,0.5,0.1,0.7,0.1c-0.1-0.9-0.5-1.6,0.2-2.5c0.8-1-0.3-2.9-1-3.5c-0.6-0.5,0.1-1.5-3-0.8
										c-0.2,0-1.6,1-1.7,1.1c-0.7,0.6-3,2.4-3.8,2.5C66.9,157.3,65.9,157.2,65.1,157.1L65.1,157.1z"/>
										<path style="fill-rule:evenodd;clip-rule:evenodd;fill:#6E5F51;" d="M65.1,157.1c-0.1,0.3-0.2,0.5-0.2,0.8
										c-0.1,0.4-0.2,0.8-0.1,1.2c0.2,0.5,1.6,0.5,2.3,0.6c0.5,0.1,1.1,0.3,1.6,0.3c1.2,0.1,2.4-0.1,3.7-0.1
										c1.3,0,2.5,0.2,3.8,0.3c0.2,0,0.5,0.1,0.7,0.1c0-0.4-0.1-0.7-0.2-1.1c-0.4-0.2-0.8-0.5-1.1-0.5c-0.7-0.2-3.5-2.1-4-2.6
										c-0.1-0.1-0.5-0.4-1-0.9c-1,0.8-2.5,1.8-3.1,1.9C66.9,157.3,65.9,157.2,65.1,157.1z"/>
										<path style="fill-rule:evenodd;clip-rule:evenodd;fill:#4D4339;" d="M65.1,157.1c-0.1,0.3-0.2,0.5-0.2,0.8
										c-0.1,0.4-0.2,0.8-0.1,1.2c0.2,0.5,1.6,0.5,2.3,0.6c0.5,0.1,1.1,0.3,1.6,0.3c1.2,0.1,2.4-0.1,3.7-0.1
										c1.3,0,2.5,0.2,3.8,0.3c0.2,0,0.5,0.1,0.7,0.1c0-0.4-0.1-0.7-0.2-1.1c-0.4-0.2-0.8-0.5-1.1-0.5c-0.4-0.1-1.3-0.6-2.2-1.2
										c-0.6-0.3-1.3-0.6-1.7-0.8c-0.6-0.3-1.2-0.7-1.8-0.9c-0.9,0.7-2,1.4-2.4,1.4C66.9,157.3,65.9,157.2,65.1,157.1L65.1,157.1z
										"/>
								</g>
							</g>
						</g>
					</g>
						<g>
						<path style="fill-rule:evenodd;clip-rule:evenodd;fill:#D9E021;" d="M135.1,108.8c6.9,0,12.5,5.6,12.5,12.5
							c0,6.9-5.6,12.5-12.5,12.5c-6.9,0-12.5-5.6-12.5-12.5C122.6,114.4,128.2,108.8,135.1,108.8L135.1,108.8L135.1,108.8z"/>
							<polygon style="fill:#7C402E;stroke:#7C402E;stroke-width:0.5343;stroke-linecap:round;stroke-linejoin:round;" points="
							134.3,113.4 132.5,154.5 135.3,154.5 134.3,113.4 						"/>

							<polygon style="fill-rule:evenodd;clip-rule:evenodd;fill:#7C402E;stroke:#7C402E;stroke-width:0.1886;stroke-linecap:round;stroke-linejoin:round;" points="
							144.4,122 133.8,130.8 134.4,132.5 144.4,122 						"/>

							<polygon style="fill-rule:evenodd;clip-rule:evenodd;fill:#7C402E;stroke:#7C402E;stroke-width:0.1886;stroke-linecap:round;stroke-linejoin:round;" points="
							127.5,116.4 134.6,123.4 134,125.1 127.5,116.4 						"/>
					</g>
					</g>
				</g>
			</g>
		</g>
	</g>
</g>
</svg>
