<svg version="1.1" xmlns="http://www.w3.org/2000/svg" xmlns:xlink="http://www.w3.org/1999/xlink" x="0px" y="0px"
	 viewBox="0 0 201.9 203.3" style="enable-background:new 0 0 201.9 203.3;" xml:space="preserve">
<g>
	<g id="commercial">
		<g>
			<defs>
				<filter id="Adobe_OpacityMaskFilter" filterUnits="userSpaceOnUse" x="1.3" y="2.4" width="199.7" height="199.9">
					<feColorMatrix  type="matrix" values="1 0 0 0 0  0 1 0 0 0  0 0 1 0 0  0 0 0 1 0"/>
				</filter>
			</defs>
			
				<mask maskUnits="userSpaceOnUse" x="1.3" y="2.4" width="199.7" height="199.9" id="mask_00000151528217527627032720000016973322363090605722_">
				<g id="mask-2_00000010269660091587121860000000123523858143365295_" style="filter:url(#Adobe_OpacityMaskFilter);">
					
						<polygon id="path-1_00000165938162259317385790000003699677616358061738_" style="fill-rule:evenodd;clip-rule:evenodd;fill:#FFFFFF;" points="
						1.3,2.4 201,2.4 201,202.3 1.3,202.3 					"/>
				</g>
			</mask>
			<g style="mask:url(#mask_00000151528217527627032720000016973322363090605722_);">
				<path id="Fill-1" style="fill-rule:evenodd;clip-rule:evenodd;fill:#DCE8EF;" d="M167.7,167.3c-19.6,19.6-44.4,34-70.2,35
					l-0.9,0c-4.7,0.1-9.4-0.2-14-0.9c-7.6-1.2-15.2-3.4-22.4-6.6c0,0,0,0-0.1,0c-2.1-0.9-4.2-1.9-6.3-3c-7.4-3.9-14.4-8.8-20.7-14.4
					c-0.5-0.4-0.9-0.8-1.4-1.2c-1.7-1.6-3.4-3.3-5-5C8.4,151.5-1.5,124.7,2,101.5c3.5-23.2,20.3-43,38.6-61.4
					c18.3-18.5,38-35.7,59.6-37.5c21.5-1.8,44.8,11.8,64.5,30.4c19.6,18.5,35.5,41.8,36.3,65.9C201.7,122.9,187.3,147.7,167.7,167.3
					"/>
			</g>
			<g>
				<defs>
					<path id="SVGID_1_commercial" d="M167.7,167.3c-19.6,19.6-44.4,34-70.2,35l-0.9,0c-4.7,0.1-9.4-0.2-14-0.9c-7.6-1.2-15.2-3.4-22.4-6.6
						c0,0,0,0-0.1,0c-2.1-0.9-4.2-1.9-6.3-3c-7.4-3.9-14.4-8.8-20.7-14.4c-0.5-0.4-0.9-0.8-1.4-1.2c-1.7-1.6-3.4-3.3-5-5
						C8.4,151.5-1.5,124.7,2,101.5c3.5-23.2,20.3-43,38.6-61.4c18.3-18.5,38-35.7,59.6-37.5c21.5-1.8,44.8,11.8,64.5,30.4
						c19.6,18.5,35.5,41.8,36.3,65.9C201.7,122.9,187.3,147.7,167.7,167.3"/>
				</defs>
				<clipPath id="SVGID_00000148621069276178530510000016171055381338819742_">
					<use xlink:href="#SVGID_1_commercial"  style="overflow:visible;"/>
				</clipPath>
				<g style="clip-path:url(#SVGID_00000148621069276178530510000016171055381338819742_);">
					<g class="clippedArea">
						<path style="fill:#6E9018;" d="M125,147.7c2.2-0.2,4.3,0,6.3,0.5c1.3-6.3,6.6-11.4,13.4-12c0.2,0,0.3,0,0.5,0
							c1.5-10,10.1-17.6,20.5-17.6c7.9,0,14.8,4.5,18.3,11l0,0c2.4-0.7,5-1.1,7.6-1.1c14.3,0,25.9,11.6,25.9,26
							c0,1.9-0.2,3.8-0.6,5.7h-51.2c0,0-0.1,0-0.1,0c0,0-0.1,0-0.1,0h-57.1C111.2,153.4,117.4,148.4,125,147.7z"/>
						<path style="fill:#92C020;" d="M-13.9,138.6c3.3-0.3,6.4,0,9.5,0.8c1.9-11,9.9-19.7,20.1-20.8c0.2,0,0.5,0,0.7-0.1
							c2.3-17.3,15.1-30.6,30.7-30.6c11.9,0,22.2,7.8,27.4,19.2l0,0c3.6-1.3,7.4-2,11.4-2c21.4,0,38.8,20.2,38.8,45.1
							c0,3.4-0.3,6.7-0.9,9.8H47.2c-0.1,0-0.1,0-0.2,0c-0.1,0-0.1,0-0.2,0h-85.4C-34.6,148.5-25.3,139.8-13.9,138.6z"/>
						<g>
							<rect x="-60.4" y="163.1" style="fill:#9B8579;" width="290.2" height="51.3"/>
							<rect x="-60.4" y="151.6" style="fill:#999999;" width="271.6" height="17.8"/>
							<rect x="-60.4" y="169.4" style="fill:#92C020;" width="271.6" height="8.3"/>
						</g>
						<g>
							<rect x="100" y="85.5" style="fill:#CCCCCC;" width="90.1" height="70.8"/>
							<rect x="100" y="152.9" style="fill:#18525C;" width="92" height="3.3"/>
							<rect x="99.2" y="97.1" style="opacity:0.3;fill:#787878;enable-background:new    ;" width="4.6" height="59.2"/>
							<rect x="107.3" y="120.5" style="fill:#B8B8B8;" width="32.4" height="35.8"/>
							<rect x="108.8" y="122.1" style="fill:#103940;" width="29.5" height="34.1"/>
							<rect x="21.5" y="70.8" style="fill:#F2F2F2;" width="4.3" height="6.4"/>
							<rect x="95.8" y="70.8" style="fill:#F2F2F2;" width="4.3" height="6.4"/>
							<rect x="21.5" y="77.2" style="fill:#F2F2F2;" width="78.5" height="79.1"/>
							<rect x="21.5" y="103.8" style="fill:#38949C;" width="78.5" height="2.1"/>
							<g>
								<rect x="24.4" y="120.5" style="fill:#DBDBDB;" width="36.7" height="10.6"/>
								<rect x="26" y="121.7" style="fill:#3CA2AB;" width="33.4" height="8.1"/>
								<g>
									<rect x="32.8" y="120.5" style="fill:#DBDBDB;" width="1.4" height="10.6"/>
									<rect x="51.2" y="120.5" style="fill:#DBDBDB;" width="1.4" height="10.6"/>
								</g>
							</g>
							<rect x="21.5" y="105.9" style="fill:#DBDBDB;" width="78.5" height="1.5"/>
							<g>
								<rect x="100" y="107.7" style="fill:#18525C;" width="90.8" height="2.1"/>
								<rect x="100" y="109.8" style="fill:#B8B8B8;" width="90.8" height="1.5"/>
							</g>
							<g>
								<rect x="144.3" y="120.5" style="fill:#B8B8B8;" width="36.7" height="10.6"/>
								<rect x="145.9" y="121.7" style="fill:#227482;" width="33.4" height="8.1"/>
								<g>
									<rect x="171.1" y="120.5" style="fill:#B8B8B8;" width="1.4" height="10.6"/>
									<rect x="152.7" y="120.5" style="fill:#B8B8B8;" width="1.4" height="10.6"/>
								</g>
							</g>
							<polygon style="opacity:0.3;fill-rule:evenodd;clip-rule:evenodd;fill:#9C9C9C;enable-background:new    ;" points="
								100.6,85.8 114.1,85.8 173.4,156.5 100.6,156.5 							"/>
							<rect x="20.5" y="153.7" style="fill:#227482;" width="80.6" height="2.5"/>
							<g>
								<rect x="63.6" y="120.5" style="fill:#DBDBDB;" width="32.4" height="35.8"/>
								<rect x="65.1" y="122.1" style="fill:#227482;" width="29.5" height="34.1"/>
								<rect x="65.1" y="132.8" style="fill:#18525C;" width="29.5" height="1.1"/>
								<rect x="79.3" y="133.2" style="fill:#18525C;" width="1.1" height="23"/>
								<g>
									<rect x="77.7" y="140.9" style="fill:#DBDBDB;" width="0.5" height="8.8"/>
									<rect x="81.5" y="140.9" style="fill:#DBDBDB;" width="0.5" height="8.8"/>
								</g>
								<polygon style="opacity:0.3;fill-rule:evenodd;clip-rule:evenodd;enable-background:new    ;" points="65.1,122.1 
									94.5,122.1 94.5,154.9 65.1,125.3 								"/>
							</g>
						</g>
					</g>
				</g>
			</g>
		</g>
	</g>
</g>
</svg>
