<?xml version="1.0" encoding="UTF-8"?><svg id="uuid-97fa4a4b-0fd9-4382-826c-6e58bfc0e23c" xmlns="http://www.w3.org/2000/svg" viewBox="0 0 1752.48 116.17"><rect x="-1.83" y="-1.09" width="1756.13" height="114.09" style="fill:#fff;"/><g><polyline points="381.14 30.28 409.94 20.27 421.72 20.75 435.04 26.74" style="fill:none; stroke:#173b66; stroke-miterlimit:9.13; stroke-width:.91px;"/><path d="M388.31,30.45l.27,17.88s-2.03-.08-3.04,2.2c-.82,1.84,.52,3.79,2.06,4.12,3.2,.69,3.92-2.85,3.92-2.85" style="fill:none; stroke:#173b66; stroke-miterlimit:9.13; stroke-width:1.83px;"/><polygon points="435.72 27.73 424.53 27.9 424.48 25.6 435.67 25.43 435.72 27.73" style="fill:#fff; stroke:#173b66; stroke-miterlimit:9.13; stroke-width:.91px;"/><path d="M421.47,21.01l.96,63.78-10.6,.16-.96-63.78,10.6-.16m.9-.93l-12.43,.19,.99,65.61,12.43-.19-.99-65.61h0Z" style="fill:#173b66;"/><path d="M420.72,21.02l-4.44,7.23-4.67-7.1,9.1-.14m1.65-.94l-12.43,.19,6.37,9.69,6.06-9.87h0Z" style="fill:#173b66;"/><path d="M416.17,21.88l4.67,7.1-9.1,.14,4.44-7.23m-.03-1.7l-6.06,9.87,12.43-.19-6.37-9.69h0Z" style="fill:#173b66;"/><path d="M416.31,31.45l4.67,7.1-9.1,.14,4.44-7.23m-.03-1.7l-6.06,9.87,12.43-.19-6.37-9.68h0Z" style="fill:#173b66;"/><path d="M416.46,41.02l4.67,7.1-9.1,.14,4.44-7.23m-.03-1.7l-6.06,9.87,12.43-.19-6.37-9.68h0Z" style="fill:#173b66;"/><path d="M416.59,50.06l4.67,7.1-9.1,.14,4.44-7.23m-.03-1.7l-6.06,9.87,12.43-.19-6.37-9.69h0Z" style="fill:#173b66;"/><path d="M416.73,59.1l4.67,7.1-9.1,.14,4.44-7.23m-.03-1.7l-6.06,9.87,12.43-.19-6.37-9.69h0Z" style="fill:#173b66;"/><path d="M416.87,68.67l4.67,7.1-9.1,.14,4.43-7.23m-.03-1.7l-6.05,9.87,12.43-.19-6.37-9.69h0Z" style="fill:#173b66;"/><path d="M417.01,77.71l4.67,7.09-9.1,.14,4.44-7.23m-.03-1.7l-6.06,9.87,12.43-.19-6.37-9.68h0Z" style="fill:#173b66;"/><path d="M420.87,30.59l-4.44,7.23-4.67-7.1,9.11-.14m1.65-.94l-12.43,.19,6.37,9.68,6.06-9.87h0Z" style="fill:#173b66;"/><path d="M421,39.63l-4.44,7.23-4.67-7.1,9.1-.14m1.65-.94l-12.43,.19,6.37,9.68,6.06-9.87h0Z" style="fill:#173b66;"/><path d="M421.14,49.2l-4.44,7.23-4.67-7.1,9.1-.14m1.65-.94l-12.43,.19,6.37,9.69,6.06-9.87h0Z" style="fill:#173b66;"/><path d="M421.29,58.77l-4.44,7.23-4.67-7.1,9.1-.14m1.65-.94l-12.42,.19,6.37,9.68,6.05-9.87h0Z" style="fill:#173b66;"/><path d="M421.43,67.81l-4.44,7.23-4.67-7.1,9.11-.14m1.65-.94l-12.43,.19,6.37,9.69,6.06-9.87h0Z" style="fill:#173b66;"/><path d="M421.56,76.85l-4.44,7.23-4.67-7.09,9.1-.14m1.65-.94l-12.43,.19,6.37,9.68,6.06-9.87h0Z" style="fill:#173b66;"/><path d="M422.44,85.07l.67,27.85-10.6,.16-.66-27.85,10.6-.16m.89-.93l-12.43,.19,.71,29.68,12.43-.19-.71-29.68h0Z" style="fill:#173b66;"/><path d="M421.68,85.09l-4.44,7.23-4.67-7.1,9.1-.14m1.65-.94l-12.43,.19,6.37,9.69,6.06-9.87h0Z" style="fill:#173b66;"/><path d="M417.13,85.94l4.67,7.1-9.1,.14,4.44-7.23m-.03-1.7l-6.06,9.87,12.43-.19-6.37-9.68h0Z" style="fill:#173b66;"/><path d="M417.28,95.52l4.67,7.09-9.1,.14,4.44-7.23m-.03-1.7l-6.05,9.87,12.43-.19-6.37-9.68h0Z" style="fill:#173b66;"/><path d="M417.42,105.09l4.67,7.09-9.1,.14,4.44-7.23m-.03-1.7l-6.06,9.87,12.43-.19-6.37-9.68h0Z" style="fill:#173b66;"/><path d="M421.83,94.66l-4.44,7.23-4.67-7.09,9.1-.14m1.65-.94l-12.43,.19,6.37,9.68,6.06-9.87h0Z" style="fill:#173b66;"/><path d="M421.97,103.7l-4.44,7.23-4.67-7.09,9.1-.14m1.65-.94l-12.43,.19,6.37,9.68,6.06-9.87h0Z" style="fill:#173b66;"/><rect x="379.25" y="27.66" width="53.85" height="3.65" style="fill:#fff; stroke:#173b66; stroke-miterlimit:9.13; stroke-width:.91px;"/></g><g><path d="M337.67,94.17c-.08-.1-.1-.23-.07-.35l5.95-23.06c.05-.18,.21-.3,.39-.3h50.27c.18,0,.34,.12,.39,.3l5.95,23.06c.03,.12,0,.25-.07,.35-.08,.1-.19,.16-.32,.16h-62.17c-.12,0-.24-.06-.32-.16h0Zm56.23-22.9h-49.65l-5.74,22.25h61.14l-5.74-22.25Z" style="fill:#084d9d;"/><path d="M341.51,91.2c-.08-.1-.1-.23-.07-.35l4.41-17.11c.05-.18,.21-.3,.39-.3h45.66c.18,0,.34,.12,.39,.3l4.41,17.11c.03,.12,0,.25-.07,.35-.08,.1-.19,.16-.32,.16h-54.49c-.12,0-.24-.06-.32-.16Zm50.08-16.95h-45.04l-4.21,16.3h53.45l-4.21-16.3h0Z" style="fill:#084d9d;"/><path d="M356.82,91.22c-.08-.08-.11-.2-.1-.31l1.94-17.11c.02-.2,.19-.36,.4-.36h20.02c.2,0,.38,.15,.4,.36l1.94,17.11c.01,.11-.02,.23-.1,.31s-.18,.13-.3,.13h-23.89c-.11,0-.22-.05-.3-.13h0Zm21.9-16.97h-19.3l-1.84,16.3h22.99l-1.84-16.3h0Z" style="fill:#084d9d;"/><path d="M364.77,91.23c-.08-.08-.12-.18-.11-.29l.65-17.11c0-.22,.18-.39,.4-.39h6.72c.22,0,.39,.17,.4,.39l.65,17.11c0,.11-.04,.21-.11,.29-.08,.08-.18,.12-.29,.12h-8.03c-.11,0-.21-.04-.29-.12Zm7.28-16.98h-5.95l-.62,16.3h7.19l-.62-16.3Z" style="fill:#084d9d;"/><path d="M349.31,91.21c-.08-.09-.11-.21-.09-.33l3.15-17.11c.03-.19,.2-.33,.39-.33h32.59c.19,0,.36,.14,.39,.33l3.15,17.11c.02,.12-.01,.24-.09,.33-.08,.09-.19,.14-.31,.14h-38.89c-.12,0-.23-.05-.31-.14h0Zm35.71-16.96h-31.92l-3,16.3h37.93l-3-16.3Z" style="fill:#084d9d;"/><path d="M344.73,80.1h48.29c.22,0,.4-.18,.4-.4s-.18-.4-.4-.4h-48.29c-.22,0-.4,.18-.4,.4s.18,.4,.4,.4Z" style="fill:#084d9d;"/><path d="M343.22,85.95h51.7c.22,0,.4-.18,.4-.4s-.18-.4-.4-.4h-51.7c-.22,0-.4,.18-.4,.4s.18,.4,.4,.4Z" style="fill:#084d9d;"/><path d="M346.26,114.13v-20.2c0-.22,.18-.4,.4-.4h44.82c.22,0,.4,.18,.4,.4v20.2c0,.22-.18,.4-.4,.4h-44.82c-.22,0-.4-.18-.4-.4Zm44.82-19.8h-44.02v19.4h44.02v-19.4Z" style="fill:#084d9d;"/><path d="M364.26,114.13v-15.29c0-.22,.18-.4,.4-.4h8.82c.22,0,.4,.18,.4,.4v15.29c0,.22-.18,.4-.4,.4h-8.82c-.22,0-.4-.18-.4-.4Zm8.82-14.89h-8.02v14.49h8.02v-14.49Z" style="fill:#084d9d;"/><path d="M376.26,110.04v-11.21c0-.22,.18-.4,.4-.4h11.79c.22,0,.4,.18,.4,.4v11.21c0,.22-.18,.4-.4,.4h-11.79c-.22,0-.4-.18-.4-.4Zm11.79-10.81h-10.99v10.4h10.99v-10.4Z" style="fill:#084d9d;"/><path d="M349.22,110.04v-11.21c0-.22,.18-.4,.4-.4h11.79c.22,0,.4,.18,.4,.4v11.21c0,.22-.18,.4-.4,.4h-11.79c-.22,0-.4-.18-.4-.4Zm11.79-10.81h-10.99v10.4h10.99v-10.4Z" style="fill:#084d9d;"/><path d="M371.08,106.52c.05,0,.1-.01,.15-.03,.05-.02,.09-.05,.13-.09,.04-.04,.07-.08,.09-.13,.02-.05,.03-.1,.03-.15,0-.11-.04-.21-.12-.29-.09-.09-.23-.13-.36-.11-.03,0-.05,.01-.08,.02-.02,.01-.05,.02-.07,.04-.02,.01-.04,.03-.06,.05-.07,.07-.12,.18-.12,.29s.04,.21,.12,.28c.07,.08,.18,.12,.28,.12h0Z" style="fill:#084d9d;"/><g><path d="M385.17,107.28c.1,0,.2-.04,.28-.12,.16-.16,.16-.41,0-.57l-5.05-5.05c-.16-.16-.41-.16-.57,0-.16,.16-.16,.41,0,.57l5.05,5.05c.08,.08,.18,.12,.28,.12Z" style="fill:#084d9d;"/><path d="M383.06,107.45c.1,0,.2-.04,.28-.12,.16-.16,.16-.41,0-.57l-3.12-3.12c-.16-.16-.41-.16-.57,0-.16,.16-.16,.41,0,.57l3.12,3.12c.08,.08,.18,.12,.28,.12Z" style="fill:#084d9d;"/></g><g><path d="M358.13,107.28c.1,0,.2-.04,.28-.12,.16-.16,.16-.41,0-.57l-5.05-5.05c-.16-.16-.41-.16-.57,0-.16,.16-.16,.41,0,.57l5.05,5.05c.08,.08,.18,.12,.28,.12Z" style="fill:#084d9d;"/><path d="M356.03,107.45c.1,0,.2-.04,.28-.12,.16-.16,.16-.41,0-.57l-3.12-3.12c-.16-.16-.41-.16-.57,0-.16,.16-.16,.41,0,.57l3.12,3.12c.08,.08,.18,.12,.28,.12Z" style="fill:#084d9d;"/></g><path d="M355.11,71.1c-.07-.11-.09-.25-.04-.37,2.23-5.73,7.65-9.43,13.8-9.43s11.57,3.7,13.8,9.43c.05,.12,.03,.26-.04,.37-.07,.11-.2,.17-.33,.17h-26.85c-.13,0-.26-.07-.33-.17Zm13.76-9c-5.62,0-10.59,3.27-12.83,8.37h25.66c-2.23-5.11-7.21-8.37-12.83-8.37Z" style="fill:#084d9d;"/><path d="M369.63,59.73c.22,0,.4-.18,.4-.4v-3.12c0-.22-.18-.4-.4-.4s-.4,.18-.4,.4v3.12c0,.22,.18,.4,.4,.4Z" style="fill:#084d9d;"/><path d="M378.76,62.02c.14,0,.27-.07,.35-.2l1.56-2.71c.11-.19,.04-.44-.15-.55-.19-.11-.44-.05-.55,.15l-1.56,2.71c-.11,.19-.04,.44,.15,.55,.06,.04,.13,.05,.2,.05Z" style="fill:#084d9d;"/><path d="M383.1,66.4c.07,0,.14-.02,.2-.05l2.71-1.56c.19-.11,.26-.36,.15-.55-.11-.19-.36-.26-.55-.15l-2.71,1.56c-.19,.11-.26,.36-.15,.55,.07,.13,.21,.2,.35,.2Z" style="fill:#084d9d;"/><path d="M358.2,62.02c.07,0,.14-.02,.2-.05,.19-.11,.26-.36,.15-.55l-1.56-2.71c-.11-.19-.36-.26-.55-.15-.19,.11-.26,.36-.15,.55l1.56,2.71c.07,.13,.21,.2,.35,.2Z" style="fill:#084d9d;"/><path d="M353.87,66.4c.14,0,.27-.07,.35-.2,.11-.19,.04-.44-.15-.55l-2.71-1.56c-.19-.11-.44-.04-.55,.15-.11,.19-.04,.44,.15,.55l2.71,1.56c.06,.04,.13,.05,.2,.05Z" style="fill:#084d9d;"/><path d="M380.72,71.32h3.12c.22,0,.4-.18,.4-.4s-.18-.4-.4-.4h-3.12c-.22,0-.4,.18-.4,.4s.18,.4,.4,.4Z" style="fill:#084d9d;"/></g><g><g><path d="M1705.07,118.38V52.42c0-.22,.1-.43,.28-.57,.18-.14,.4-.19,.62-.13,.43,.11,.84,.17,1.31,.18,.05,0,.1,0,.15,0,.05,0,.1,0,.2,0,.42,0,.84-.07,1.27-.18,.22-.06,.44,0,.62,.13,.17,.14,.28,.35,.28,.57V118.38c0,.4-.32,.72-.72,.72h-3.28c-.4,0-.72-.32-.72-.72Zm3.28-65.09c-.22,.03-.43,.04-.64,.05-.18,.02-.42,.01-.51,0-.23,0-.46-.02-.69-.05V117.66h1.84V53.28Z" style="fill:#9e1b32;"/><path d="M1703.87,46.1c0-1.96,1.6-3.56,3.56-3.56s3.56,1.6,3.56,3.56-1.6,3.56-3.56,3.56-3.56-1.6-3.56-3.56h0Zm1.44,0c0,1.17,.95,2.12,2.12,2.12s2.12-.95,2.12-2.12-.95-2.12-2.12-2.12-2.12,.95-2.12,2.12Z" style="fill:#9e1b32;"/><path d="M1711.58,42.02c-1.1-1.12-2.57-1.74-4.14-1.74s-3.04,.62-4.14,1.74c-.17,.17-.41,.24-.64,.2-.24-.04-.43-.2-.53-.42-1.52-3.51-2.39-8.5-2.39-13.7,0-10.5,3.38-18.72,7.71-18.72s7.71,8.22,7.71,18.72c0,5.2-.87,10.2-2.39,13.7-.09,.22-.29,.38-.53,.42-.04,0-.09,.01-.13,.01-.19,0-.38-.08-.51-.21Zm.22-1.71c1.21-3.26,1.9-7.64,1.9-12.21,0-10.34-3.24-17.28-6.27-17.28s-6.27,6.94-6.27,17.28c0,4.57,.69,8.95,1.9,12.21,1.25-.95,2.77-1.46,4.37-1.46s3.12,.51,4.37,1.46h0Z" style="fill:#9e1b32;"/><path d="M1731.46,66.45c-3.69-.57-8.06-2.23-12.3-4.68-4.51-2.61-8.4-5.86-10.67-8.92-.14-.19-.18-.44-.1-.67,.08-.22,.26-.4,.49-.46,.28-.07,.53-.16,.8-.28,.12-.05,.24-.1,.34-.15,1.98-.99,3.21-2.98,3.21-5.2,0-.53-.07-1.05-.21-1.54-.07-.23-.01-.48,.14-.66,.15-.18,.39-.28,.63-.25,3.79,.43,8.55,2.18,13.06,4.78,9.09,5.25,14.52,12.29,12.36,16.03-.84,1.45-2.65,2.2-5.22,2.2-.78,0-1.63-.07-2.55-.21h0Zm-16.78-20.35c0,2.76-1.54,5.25-4.02,6.49-.14,.07-.28,.13-.41,.18,2.21,2.68,5.66,5.47,9.62,7.75,4.09,2.36,8.28,3.96,11.8,4.51,3.24,.5,5.54,.03,6.3-1.29,1.51-2.62-2.88-8.9-11.83-14.07-3.96-2.29-8.1-3.88-11.52-4.46,.04,.29,.05,.59,.05,.89h0Z" style="fill:#9e1b32;"/><path d="M1707.2,53.33c-.53-.01-1.05-.08-1.6-.22-.34-.09-.66-.2-.95-.33-.15-.06-.3-.13-.46-.21-2.47-1.24-4.01-3.72-4.01-6.48,0-.67,.09-1.32,.26-1.93,.32-1.17,.95-2.26,1.82-3.15,1.38-1.4,3.21-2.16,5.17-2.16s3.79,.77,5.17,2.17c.87,.88,1.49,1.97,1.81,3.14,.18,.62,.27,1.27,.27,1.94,0,2.76-1.54,5.25-4.02,6.49-.15,.07-.3,.14-.43,.19-.31,.13-.63,.24-.99,.34-.53,.13-1.05,.21-1.54,.22-.09,0-.19,0-.28,0s-.19,0-.23,0h0Zm.43-1.44c.42,0,.84-.07,1.26-.17,.28-.07,.53-.16,.8-.28,.12-.05,.24-.1,.34-.15,1.98-.99,3.21-2.98,3.21-5.2,0-.53-.07-1.05-.21-1.55-.26-.94-.76-1.81-1.45-2.52-1.1-1.12-2.57-1.74-4.14-1.74s-3.04,.62-4.14,1.73c-.7,.71-1.2,1.58-1.46,2.53-.14,.49-.21,1.01-.21,1.54,0,2.21,1.23,4.21,3.2,5.19,.12,.06,.23,.11,.37,.17,.25,.11,.5,.19,.77,.27,.43,.11,.84,.17,1.31,.18,.05,0,.1,0,.15,0,.05,0,.1,0,.2,0h0Z" style="fill:#9e1b32;"/><path d="M1675.63,64.45h0c-2.16-3.74,3.27-10.78,12.36-16.03,4.52-2.61,9.28-4.35,13.06-4.78,.24-.03,.47,.07,.63,.25,.16,.18,.21,.43,.14,.66-.14,.49-.21,1.01-.21,1.54,0,2.21,1.23,4.21,3.2,5.19,.12,.06,.23,.11,.37,.17,.25,.11,.5,.19,.78,.27,.23,.06,.41,.23,.49,.46,.08,.22,.04,.47-.1,.66-2.27,3.06-6.15,6.31-10.67,8.92-4.24,2.45-8.61,4.11-12.3,4.68-.91,.14-1.77,.21-2.55,.21-2.57,0-4.39-.75-5.22-2.2h0Zm28.55-11.88c-2.47-1.24-4.01-3.72-4.01-6.48,0-.3,.02-.59,.05-.89-3.42,.58-7.56,2.17-11.52,4.46-8.95,5.17-13.34,11.45-11.83,14.07h0c.76,1.32,3.06,1.79,6.3,1.29,3.52-.54,7.71-2.14,11.8-4.51,3.96-2.29,7.41-5.08,9.62-7.75-.14-.06-.27-.12-.42-.19Z" style="fill:#9e1b32;"/></g><g><path d="M1728.39,89.15c-.24-.04-.43-.2-.53-.42-.62-1.44-.97-3.4-.97-5.51,0-3.84,1.18-7.73,3.44-7.73s3.44,3.89,3.44,7.73c0,2.08-.35,4.09-.97,5.51-.09,.22-.29,.38-.53,.42-.24,.04-.48-.03-.64-.2-.69-.7-1.91-.7-2.6,0-.14,.14-.32,.21-.51,.21-.04,0-.09,0-.13-.01h0Zm3.41-1.84c.35-1.15,.54-2.59,.54-4.09,0-3.78-1.2-6.29-2-6.29s-2,2.51-2,6.29c0,1.5,.19,2.94,.54,4.09,.45-.22,.94-.34,1.46-.34h0c.52,0,1.01,.12,1.46,.34Z" style="fill:#9e1b32;"/><path d="M1739.63,98.59c-1.49-.23-3.24-.9-4.94-1.88-1.83-1.06-3.36-2.34-4.29-3.59-.14-.19-.18-.44-.1-.66,.08-.22,.26-.4,.49-.46,.08-.02,.17-.05,.27-.09,.04-.01,.07-.03,.1-.04,.62-.31,1.01-.94,1.01-1.63,0-.17-.02-.33-.07-.48-.07-.23-.01-.48,.14-.66,.16-.18,.39-.28,.63-.25,1.55,.18,3.42,.86,5.26,1.92,3.33,1.92,6.1,4.89,4.97,6.84-.41,.71-1.25,1.08-2.42,1.08-.33,0-.68-.03-1.05-.09h0Zm-7.49-5.64c.82,.88,1.97,1.76,3.27,2.52,1.55,.89,3.12,1.5,4.44,1.7,1.17,.18,1.85-.01,2.01-.29,.4-.69-1.17-2.99-4.45-4.88-1.3-.75-2.64-1.3-3.81-1.58-.06,1.03-.6,1.96-1.46,2.53h0Z" style="fill:#9e1b32;"/><path d="M1730.24,93.49c-.24,0-.47-.04-.73-.1-.16-.04-.3-.09-.42-.14-.07-.03-.14-.06-.21-.1-1.11-.56-1.8-1.67-1.8-2.92,0-.3,.04-.59,.12-.87,.15-.53,.43-1.02,.82-1.42,.62-.63,1.45-.97,2.33-.97s1.71,.35,2.33,.98c.39,.4,.67,.89,.81,1.41,.08,.28,.12,.58,.12,.87,0,1.24-.69,2.36-1.82,2.93-.07,.03-.13,.06-.18,.08-.14,.06-.28,.11-.45,.16-.24,.06-.48,.09-.67,.1-.05,0-.1,0-.15,0s-.1,0-.1,0h0Zm-1.2-4.54c-.22,.22-.38,.5-.46,.8-.04,.15-.07,.31-.07,.48,0,.69,.39,1.32,1,1.62,.04,.02,.07,.04,.13,.06,.08,.03,.16,.06,.23,.08,.14,.03,.27,.05,.4,.06,.02,0,.05,0,.07,0v.72l.07-.72c.13,0,.26-.02,.38-.05,.08-.02,.17-.05,.27-.09,.04-.01,.07-.03,.1-.04,.62-.31,1.01-.94,1.01-1.63,0-.17-.02-.33-.07-.49-.08-.29-.24-.57-.46-.79-.35-.35-.81-.55-1.3-.55s-.95,.19-1.3,.54h0Z" style="fill:#9e1b32;"/><path d="M1717.57,97.6c-1.13-1.96,1.65-4.92,4.97-6.84,1.83-1.06,3.7-1.74,5.26-1.92,.24-.03,.47,.07,.63,.25,.16,.18,.21,.43,.14,.66-.04,.15-.07,.31-.07,.48,0,.69,.39,1.32,1,1.62,.04,.02,.07,.04,.13,.06,.08,.03,.16,.06,.25,.08,.23,.06,.41,.23,.49,.46,.08,.22,.04,.47-.1,.66-.93,1.26-2.45,2.53-4.29,3.59-1.7,.98-3.45,1.65-4.94,1.88-.37,.06-.72,.09-1.05,.09-1.17,0-2.01-.37-2.42-1.08h0Zm9.51-7.17c-1.17,.27-2.51,.83-3.81,1.58-3.27,1.89-4.85,4.19-4.45,4.88,.16,.27,.84,.47,2.01,.29,1.32-.2,2.9-.81,4.44-1.7,1.3-.75,2.45-1.64,3.27-2.51-.86-.56-1.4-1.49-1.46-2.53Z" style="fill:#9e1b32;"/><path d="M1730.33,119.1c.4,0,.72-.32,.72-.72v-25.61c0-.4-.32-.72-.72-.72s-.72,.32-.72,.72v25.61c0,.4,.32,.72,.72,.72Z" style="fill:#9e1b32;"/></g><g><path d="M1683.22,89.15c-.24-.04-.43-.2-.53-.42-.62-1.44-.97-3.4-.97-5.51,0-3.84,1.18-7.73,3.44-7.73s3.44,3.89,3.44,7.73c0,2.08-.35,4.09-.97,5.51-.1,.22-.29,.38-.53,.42-.24,.04-.48-.03-.64-.2-.69-.7-1.91-.7-2.6,0-.14,.14-.32,.21-.51,.21-.04,0-.09,0-.13-.01h0Zm3.41-1.84c.35-1.15,.54-2.59,.54-4.09,0-3.78-1.2-6.29-2-6.29s-2,2.51-2,6.29c0,1.5,.19,2.94,.54,4.09,.45-.22,.94-.34,1.46-.34s1.01,.12,1.46,.34Z" style="fill:#9e1b32;"/><path d="M1694.46,98.59c-1.49-.23-3.24-.9-4.94-1.88-1.83-1.06-3.36-2.34-4.29-3.59-.14-.19-.18-.44-.1-.66,.08-.22,.26-.4,.49-.46,.08-.02,.17-.05,.27-.09,.04-.02,.07-.03,.1-.05,.62-.31,1.01-.94,1.01-1.63,0-.17-.02-.33-.07-.48-.07-.23-.01-.48,.14-.66,.16-.18,.39-.28,.63-.25,1.55,.18,3.42,.86,5.26,1.92,3.33,1.92,6.1,4.89,4.97,6.84-.41,.71-1.25,1.08-2.42,1.08-.33,0-.68-.03-1.05-.09h0Zm-7.49-5.64c.82,.88,1.97,1.76,3.27,2.52,1.55,.89,3.12,1.5,4.44,1.7,1.17,.18,1.85-.01,2.01-.29,.4-.69-1.17-2.99-4.45-4.88-1.3-.75-2.64-1.3-3.81-1.58-.06,1.03-.6,1.96-1.46,2.53Z" style="fill:#9e1b32;"/><path d="M1685.07,93.49c-.24,0-.47-.04-.73-.1-.16-.04-.3-.09-.42-.14-.07-.03-.13-.06-.21-.1-1.11-.56-1.8-1.67-1.8-2.92,0-.3,.04-.59,.12-.87,.14-.53,.43-1.02,.82-1.42,.62-.63,1.45-.97,2.33-.97s1.71,.35,2.33,.98c.39,.4,.67,.89,.82,1.41,.08,.28,.12,.57,.12,.87,0,1.24-.69,2.36-1.82,2.92-.07,.03-.13,.06-.18,.08-.14,.06-.28,.11-.45,.16-.24,.06-.48,.09-.67,.1-.05,0-.1,0-.15,0s-.1,0-.1,0h0Zm-1.2-4.54c-.22,.22-.38,.5-.46,.8-.04,.15-.07,.31-.07,.48,0,.69,.39,1.32,1,1.62,.04,.02,.07,.04,.13,.06,.08,.03,.16,.06,.23,.08,.14,.03,.27,.05,.4,.06,.02,0,.05,0,.07,0v.72l.07-.72c.13,0,.26-.02,.38-.05,.08-.02,.17-.05,.27-.09,.04-.02,.07-.03,.1-.05,.62-.31,1.01-.94,1.01-1.63,0-.17-.02-.33-.07-.49-.08-.29-.24-.57-.46-.79-.35-.35-.81-.55-1.3-.55s-.95,.19-1.3,.54h0Z" style="fill:#9e1b32;"/><path d="M1672.4,97.6c-1.13-1.96,1.65-4.92,4.97-6.84,1.83-1.06,3.7-1.74,5.26-1.92,.24-.03,.47,.07,.63,.25,.16,.18,.21,.43,.14,.66-.04,.15-.07,.31-.07,.48,0,.69,.39,1.32,1,1.62,.04,.02,.07,.04,.13,.06,.08,.03,.16,.06,.25,.08,.23,.06,.41,.23,.49,.46,.08,.22,.04,.47-.1,.66-.93,1.26-2.45,2.53-4.29,3.59-1.7,.98-3.45,1.65-4.94,1.88-.37,.06-.72,.09-1.05,.09-1.17,0-2.01-.37-2.42-1.08h0Zm9.51-7.17c-1.17,.27-2.51,.83-3.81,1.58-3.27,1.89-4.85,4.19-4.45,4.88h0c.16,.27,.84,.47,2.01,.29,1.32-.2,2.9-.81,4.44-1.7,1.3-.75,2.45-1.64,3.27-2.51-.86-.56-1.4-1.49-1.46-2.53Z" style="fill:#9e1b32;"/><path d="M1685.17,119.1c.4,0,.72-.32,.72-.72v-25.61c0-.4-.32-.72-.72-.72s-.72,.32-.72,.72v25.61c0,.4,.32,.72,.72,.72Z" style="fill:#9e1b32;"/></g></g><g><g><path d="M563.29,96.44c-2.73-3.03-4.23-6.95-4.23-11.03,0-4.54,1.9-8.92,5.2-12.03,3.07-2.89,7.08-4.48,11.3-4.48,9.1,0,16.5,7.4,16.5,16.5s-7.4,16.5-16.5,16.5c-4.67,0-9.15-1.99-12.27-5.47Zm1.74-22.24c-3.13,2.94-4.85,6.92-4.85,11.22,0,3.81,1.4,7.46,3.94,10.28,2.92,3.24,7.09,5.11,11.45,5.11,8.49,0,15.39-6.9,15.39-15.39s-6.9-15.39-15.39-15.39c-3.93,0-7.67,1.48-10.54,4.18Z" style="fill:#005493;"/><path d="M540.05,96.95c-3.04-3.1-4.71-7.2-4.71-11.54,0-3.78,2.77-11.75,8.24-23.69,3.88-8.46,7.74-15.87,7.78-15.95,.1-.18,.29-.3,.49-.3s.4,.11,.49,.3c.08,.16,8.22,15.8,12.83,27.82,.08,.21,.03,.45-.14,.6-3.13,2.94-4.85,6.92-4.85,11.22,0,3.81,1.4,7.46,3.94,10.28,.19,.21,.19,.53,0,.74-3.12,3.48-7.59,5.47-12.27,5.47-4.48,0-8.67-1.76-11.79-4.96h0Zm19.01-11.54c0-4.41,1.79-8.68,4.93-11.77-3.94-10.2-10.34-22.87-12.15-26.4-1.16,2.27-4.21,8.28-7.26,14.94-5.32,11.63-8.13,19.66-8.13,23.23,0,4.05,1.56,7.87,4.39,10.76,2.92,2.98,6.82,4.63,11,4.63s8.22-1.72,11.11-4.75c-2.51-2.97-3.89-6.73-3.89-10.64h0Z" style="fill:#005493;"/><path d="M575.56,115.08c.31,0,.56-.25,.56-.56v-29.11c0-.31-.25-.56-.56-.56s-.56,.25-.56,.56v29.11c0,.31,.25,.56,.56,.56Z" style="fill:#005493;"/><path d="M575.56,96.97c.14,0,.28-.05,.39-.16,.22-.22,.22-.57,0-.79l-9.25-9.25c-.22-.22-.57-.22-.79,0s-.22,.57,0,.79l9.25,9.25c.11,.11,.25,.16,.39,.16h0Z" style="fill:#005493;"/><path d="M575.56,90.25c.14,0,.28-.05,.39-.16l6.58-6.58c.22-.22,.22-.57,0-.79s-.57-.22-.79,0l-6.58,6.58c-.22,.22-.22,.57,0,.79,.11,.11,.25,.16,.39,.16h0Z" style="fill:#005493;"/><path d="M551.84,115.08c.31,0,.56-.25,.56-.56v-46.62c0-.31-.25-.56-.56-.56s-.56,.25-.56,.56v46.62c0,.31,.25,.56,.56,.56Z" style="fill:#005493;"/><path d="M551.84,88.06c.14,0,.28-.05,.39-.16,.22-.22,.22-.57,0-.79l-8.8-8.8c-.22-.22-.57-.22-.79,0s-.22,.57,0,.79l8.8,8.8c.11,.11,.25,.16,.39,.16h0Z" style="fill:#005493;"/><path d="M551.84,77.82c.14,0,.28-.05,.39-.16l6.71-6.71c.22-.22,.22-.57,0-.79s-.57-.22-.79,0l-6.71,6.71c-.22,.22-.22,.57,0,.79,.11,.11,.25,.16,.39,.16h0Z" style="fill:#005493;"/></g><g><path d="M510.18,112.31c-3.47,0-6.29-2.83-6.29-6.3,0-3.47,2.83-6.29,6.3-6.29,3.47,0,6.29,2.83,6.29,6.3,0,3.47-2.83,6.29-6.3,6.29m0-12.11c-3.21,0-5.81,2.6-5.82,5.81,0,3.21,2.6,5.82,5.81,5.82,3.21,0,5.82-2.6,5.82-5.81,0-3.21-2.6-5.81-5.81-5.82m0,11.11c-2.92,0-5.29-2.38-5.29-5.3,0-2.92,2.38-5.29,5.29-5.29,2.92,0,5.29,2.38,5.29,5.29,0,2.92-2.38,5.29-5.3,5.29m0-10.1c-2.65,0-4.81,2.16-4.81,4.81,0,2.65,2.16,4.81,4.81,4.81,2.65,0,4.81-2.16,4.81-4.81,0-2.65-2.16-4.81-4.81-4.81" style="fill:#005493;"/><path d="M510.18,107.86c-1.02,0-1.84-.83-1.84-1.84,0-1.02,.83-1.84,1.85-1.84,1.02,0,1.84,.83,1.84,1.85,0,1.02-.83,1.84-1.85,1.84m0-3.21c-.75,0-1.36,.61-1.36,1.36s.61,1.36,1.36,1.36c.75,0,1.36-.61,1.36-1.36s-.61-1.36-1.36-1.36" style="fill:#005493;"/><path d="M534.56,107.88c-1.02,0-1.84-.83-1.84-1.84,0-1.02,.83-1.84,1.85-1.84,1.02,0,1.84,.83,1.84,1.85,0,1.02-.83,1.84-1.85,1.84m0-3.21c-.75,0-1.36,.61-1.36,1.36s.61,1.36,1.36,1.36c.75,0,1.36-.61,1.36-1.36s-.61-1.36-1.36-1.36" style="fill:#005493;"/><path d="M522.38,107.6c-.87,0-1.58-.71-1.58-1.58,0-.87,.71-1.58,1.58-1.58,.87,0,1.58,.71,1.58,1.58,0,.87-.71,1.58-1.58,1.58m0-2.68c-.6,0-1.1,.49-1.1,1.1,0,.6,.49,1.1,1.1,1.1,.6,0,1.1-.49,1.1-1.1,0-.61-.49-1.1-1.1-1.1" style="fill:#005493;"/><path d="M522.38,106.27h-12.2c-.09,0-.17-.05-.21-.13-.04-.08-.04-.17,0-.25l5.49-8.42c.04-.07,.12-.11,.2-.11h12.2c.09,0,.17,.06,.21,.13,.04,.08,.04,.17,0,.25l-5.49,8.42c-.04,.07-.12,.11-.2,.11m-11.75-.49h11.62s5.17-7.93,5.17-7.93h-11.62s-5.17,7.93-5.17,7.93Z" style="fill:#005493;"/><path d="M522.38,106.27c-.07,0-.14-.03-.19-.09l-9.23-11.75c-.08-.1-.06-.26,.04-.34,.1-.08,.26-.06,.34,.04l9.23,11.75c.08,.1,.06,.26-.04,.34-.04,.03-.1,.05-.15,.05" style="fill:#005493;"/><path d="M534.57,106.27c-.07,0-.14-.03-.19-.09l-11.11-14.15c-.08-.1-.06-.26,.04-.34,.1-.08,.26-.06,.34,.04l11.11,14.15c.08,.1,.06,.26-.04,.34-.04,.03-.1,.05-.15,.05" style="fill:#005493;"/><path d="M515.33,94.51h-4.33c-.54,0-.98-.44-.98-.98,0-.54,.44-.98,.98-.98h4.33c.54,0,.98,.44,.98,.99,0,.54-.44,.98-.98,.98m-4.33-1.49c-.28,0-.5,.22-.5,.5,0,.28,.22,.5,.5,.5h4.33c.28,0,.5-.22,.5-.5,0-.28-.22-.5-.5-.5,0,0-4.33,0-4.33,0Z" style="fill:#005493;"/><path d="M527.61,95.24h-.5c-.13,0-.24-.11-.24-.24,0-.13,.11-.24,.24-.24h.5c.73,0,1.32-.59,1.32-1.32,0-.73-.59-1.32-1.32-1.32h-4.15c-.13,0-.24-.11-.24-.24,0-.13,.11-.24,.24-.24h4.15c.99,0,1.8,.81,1.8,1.8,0,.99-.81,1.8-1.8,1.8" style="fill:#005493;"/><path d="M534.56,112.33c-3.47,0-6.29-2.83-6.29-6.3,0-3.47,2.83-6.29,6.3-6.29,3.47,0,6.29,2.83,6.29,6.3,0,3.47-2.83,6.29-6.3,6.29m0-12.11c-3.21,0-5.81,2.6-5.82,5.81,0,3.21,2.6,5.81,5.81,5.82,3.21,0,5.82-2.6,5.82-5.81,0-3.21-2.61-5.82-5.81-5.82m0,11.11c-2.92,0-5.29-2.38-5.29-5.3,0-2.92,2.38-5.29,5.29-5.29,2.92,0,5.29,2.38,5.29,5.29,0,2.92-2.38,5.29-5.3,5.29m0-10.1c-2.65,0-4.81,2.16-4.81,4.81,0,2.65,2.16,4.81,4.81,4.81,2.65,0,4.81-2.16,4.81-4.81,0-2.65-2.16-4.81-4.81-4.81" style="fill:#005493;"/></g></g><g><path d="M620.45,107.88h21.55c.19-2.37,2.18-4.25,4.6-4.25s4.4,1.86,4.6,4.22c1.01-.17,1.79-1.05,1.79-2.11,0-3.84-3.13-6.97-6.97-6.97h-34.42c-1.18,0-2.14,.96-2.14,2.14v4.83c0,1.06,.78,1.94,1.79,2.11,.2-2.36,2.18-4.22,4.6-4.22s4.41,1.88,4.6,4.25m30.76,.36h0Zm-.36,.36c-.2,0-.36-.16-.36-.36,0-2.14-1.74-3.89-3.89-3.89s-3.89,1.74-3.89,3.89c0,.2-.16,.36-.36,.36h-22.25c-.2,0-.36-.16-.36-.36,0-2.14-1.74-3.89-3.89-3.89s-3.89,1.74-3.89,3.89c0,.2-.16,.36-.36,.36-1.58,0-2.86-1.28-2.86-2.86v-4.83c0-1.58,1.28-2.86,2.86-2.86h34.42c4.24,0,7.7,3.45,7.7,7.7,0,1.58-1.28,2.86-2.86,2.86" style="fill:#1e3765;"/><path d="M612.65,98.04h29.67l-2.91-7.11c-.33-.81-1.11-1.33-1.98-1.33h-19.89c-.87,0-1.65,.52-1.98,1.33,0,0-2.91,7.11-2.91,7.11Zm30.21,.73h-30.75c-.12,0-.23-.06-.3-.16s-.08-.23-.04-.34l3.11-7.61c.44-1.08,1.48-1.78,2.65-1.78h19.89c1.17,0,2.21,.7,2.65,1.78l3.11,7.61c.05,.11,.03,.24-.04,.34s-.18,.16-.3,.16" style="fill:#1e3765;"/><path d="M616.34,98.04h22.24l-2.52-5.94h-17.64l-2.08,5.94Zm22.79,.73h-23.3c-.12,0-.23-.06-.3-.15-.07-.1-.09-.22-.05-.33l2.33-6.67c.05-.15,.19-.24,.34-.24h18.14c.15,0,.28,.09,.33,.22l2.83,6.67c.05,.11,.04,.24-.03,.34-.07,.1-.18,.16-.3,.16" style="fill:#1e3765;"/><path d="M615.85,104.35c-2.14,0-3.89,1.74-3.89,3.89s1.74,3.89,3.89,3.89,3.89-1.74,3.89-3.89-1.74-3.89-3.89-3.89m0,8.5c-2.54,0-4.61-2.07-4.61-4.61s2.07-4.61,4.61-4.61,4.61,2.07,4.61,4.61-2.07,4.61-4.61,4.61" style="fill:#1e3765;"/><path d="M615.85,106.85c-.76,0-1.39,.62-1.39,1.39s.62,1.39,1.39,1.39,1.39-.62,1.39-1.39-.62-1.39-1.39-1.39m0,3.5c-1.17,0-2.11-.95-2.11-2.11s.95-2.11,2.11-2.11,2.11,.95,2.11,2.11-.95,2.11-2.11,2.11" style="fill:#1e3765;"/><path d="M646.6,104.35c-2.14,0-3.89,1.74-3.89,3.89s1.74,3.89,3.89,3.89,3.89-1.74,3.89-3.89-1.74-3.89-3.89-3.89m0,8.5c-2.54,0-4.61-2.07-4.61-4.61s2.07-4.61,4.61-4.61,4.61,2.07,4.61,4.61-2.07,4.61-4.61,4.61" style="fill:#1e3765;"/><path d="M646.6,106.85c-.76,0-1.39,.62-1.39,1.39s.62,1.39,1.39,1.39,1.39-.62,1.39-1.39-.62-1.39-1.39-1.39m0,3.5c-1.17,0-2.11-.95-2.11-2.11s.95-2.11,2.11-2.11,2.11,.95,2.11,2.11-.95,2.11-2.11,2.11" style="fill:#1e3765;"/><path d="M628.73,98.77c-.2,0-.36-.16-.36-.36v-6.67c0-.2,.16-.36,.36-.36s.36,.16,.36,.36v6.67c0,.2-.16,.36-.36,.36" style="fill:#1e3765;"/><path d="M609.11,103.65s-.02,0-.03,0c-6.66-.49-11.88-6.11-11.88-12.79,0-7.07,5.75-12.83,12.83-12.83h17.58c.2,0,.36,.16,.36,.36s-.16,.36-.36,.36h-17.58c-6.67,0-12.1,5.43-12.1,12.1,0,6.31,4.92,11.61,11.21,12.07,.2,.01,.35,.19,.34,.39-.01,.19-.17,.34-.36,.34" style="fill:#1e3765;"/><path d="M631.32,74.93c-1.85,0-3.36,1.5-3.36,3.36v.23c0,1.85,1.51,3.36,3.36,3.36h1.5v-6.94s-1.5,0-1.5,0Zm1.86,7.67h-1.86c-2.25,0-4.08-1.83-4.08-4.08v-.23c0-2.25,1.83-4.08,4.08-4.08h1.86c.2,0,.36,.16,.36,.36v7.67c0,.2-.16,.36-.36,.36" style="fill:#1e3765;"/><path d="M637.64,80.63h-4.45c-.2,0-.36-.16-.36-.36s.16-.36,.36-.36h4.45c.2,0,.36,.16,.36,.36s-.16,.36-.36,.36" style="fill:#1e3765;"/><path d="M637.64,76.88h-4.45c-.2,0-.36-.16-.36-.36s.16-.36,.36-.36h4.45c.2,0,.36,.16,.36,.36s-.16,.36-.36,.36" style="fill:#1e3765;"/></g><g><path d="M660.7,113.67v-39.79c0-.13,.06-.26,.16-.35l29.9-25.22c.17-.14,.42-.14,.58,0l29.9,25.22c.1,.09,.16,.21,.16,.35v39.79c0,.25-.2,.45-.45,.45h-59.8c-.25,0-.45-.2-.45-.45h0Zm59.8-39.58l-29.44-24.84-29.45,24.84v39.13h58.89s0-39.13,0-39.13h0Z" style="fill:#4488c8;"/><path d="M725.18,78.57c.12,0,.23-.04,.32-.13,.18-.18,.18-.46,0-.64l-4.24-4.24c-.18-.18-.46-.18-.64,0-.18,.18-.18,.46,0,.64l4.24,4.24c.09,.09,.2,.13,.32,.13h0Z" style="fill:#4488c8;"/><path d="M656.91,78.57c.12,0,.23-.04,.32-.13l4.24-4.24c.18-.18,.18-.46,0-.64-.18-.18-.46-.18-.64,0l-4.24,4.24c-.18,.18-.18,.46,0,.64,.09,.09,.2,.13,.32,.13Z" style="fill:#4488c8;"/><path d="M670.69,66.09c-.16-.07-.26-.23-.26-.41v-12.04c0-.25,.2-.45,.45-.45h5.06c.25,0,.45,.2,.45,.45v7.76c0,.13-.06,.26-.16,.35l-5.06,4.28c-.08,.07-.19,.11-.29,.11-.06,0-.13-.01-.19-.04h0Zm4.8-11.99h-4.16v10.61l4.16-3.51v-7.1Z" style="fill:#4488c8;"/><g><path d="M682.29,92.05c0-5.21,9-22.65,9.38-23.39,.08-.15,.23-.24,.4-.24s.32,.09,.4,.24c.38,.74,9.38,18.19,9.38,23.39s-4.39,9.79-9.79,9.79-9.79-4.39-9.79-9.79Zm.91,0c0,4.9,3.98,8.88,8.88,8.88s8.88-3.98,8.88-8.88c0-4.38-7.1-18.67-8.88-22.19-1.78,3.52-8.88,17.81-8.88,22.19Z" style="fill:#4488c8;"/><path d="M692.08,113.99c.25,0,.45-.2,.45-.45v-29.29c0-.25-.2-.45-.45-.45s-.45,.2-.45,.45v29.29c0,.25,.2,.45,.45,.45Z" style="fill:#4488c8;"/><path d="M692.08,97.91c.12,0,.23-.04,.32-.13,.18-.18,.18-.46,0-.64l-4.67-4.67c-.18-.18-.46-.18-.64,0-.18,.18-.18,.46,0,.64l4.67,4.67c.09,.09,.2,.13,.32,.13h0Z" style="fill:#4488c8;"/><path d="M692.08,90.55c.12,0,.23-.04,.32-.13l3.8-3.8c.18-.18,.18-.46,0-.64-.18-.18-.46-.18-.64,0l-3.8,3.8c-.18,.18-.18,.46,0,.64,.09,.09,.2,.13,.32,.13h0Z" style="fill:#4488c8;"/></g><g><path d="M703.53,99.09c0-3.54,6.08-15.34,6.34-15.84,.08-.15,.23-.24,.4-.24s.32,.09,.4,.24c.26,.5,6.34,12.29,6.34,15.84,0,3.72-3.03,6.75-6.75,6.75-3.72,0-6.75-3.03-6.75-6.75h0Zm.91,0c0,3.22,2.62,5.84,5.84,5.84s5.84-2.62,5.84-5.84c0-2.82-4.46-11.89-5.84-14.63-1.38,2.74-5.84,11.81-5.84,14.63Z" style="fill:#4488c8;"/><path d="M710.27,114.03c.25,0,.45-.2,.45-.45v-19.75c0-.25-.2-.45-.45-.45s-.45,.2-.45,.45v19.75c0,.25,.2,.45,.45,.45Z" style="fill:#4488c8;"/><path d="M710.27,103.19c.12,0,.23-.04,.32-.13,.18-.18,.18-.46,0-.64l-3.15-3.15c-.18-.18-.46-.18-.64,0s-.18,.46,0,.64l3.15,3.15c.09,.09,.2,.13,.32,.13Z" style="fill:#4488c8;"/><path d="M710.27,98.23c.12,0,.23-.04,.32-.13l2.56-2.56c.18-.18,.18-.46,0-.64-.18-.18-.46-.18-.64,0l-2.56,2.56c-.18,.18-.18,.46,0,.64,.09,.09,.2,.13,.32,.13Z" style="fill:#4488c8;"/></g><g><path d="M666.66,99.09c0-3.54,6.08-15.34,6.34-15.84,.08-.15,.23-.24,.4-.24s.32,.09,.4,.24c.26,.5,6.34,12.29,6.34,15.84,0,3.72-3.03,6.75-6.75,6.75-3.72,0-6.75-3.03-6.75-6.75h0Zm.91,0c0,3.22,2.62,5.84,5.84,5.84s5.84-2.62,5.84-5.84c0-2.82-4.46-11.89-5.84-14.63-1.38,2.74-5.84,11.81-5.84,14.63Z" style="fill:#4488c8;"/><path d="M673.41,114.03c.25,0,.45-.2,.45-.45v-19.75c0-.25-.2-.45-.45-.45s-.45,.2-.45,.45v19.75c0,.25,.2,.45,.45,.45Z" style="fill:#4488c8;"/><path d="M673.41,103.19c.12,0,.23-.04,.32-.13,.18-.18,.18-.46,0-.64l-3.15-3.15c-.18-.18-.46-.18-.64,0s-.18,.46,0,.64l3.15,3.15c.09,.09,.2,.13,.32,.13Z" style="fill:#4488c8;"/><path d="M673.41,98.23c.12,0,.23-.04,.32-.13l2.56-2.56c.18-.18,.18-.46,0-.64-.18-.18-.46-.18-.64,0l-2.56,2.56c-.18,.18-.18,.46,0,.64,.09,.09,.2,.13,.32,.13Z" style="fill:#4488c8;"/></g></g><g><path d="M230.96,95.8h-15.62c-.25,0-.45-.2-.45-.45v-11.05c0-.25,.2-.45,.45-.45h5.98c2.44,0,4.68,1.34,5.84,3.49l4.2,7.79c.07,.14,.07,.31,0,.44-.08,.13-.23,.22-.38,.22h0Zm-15.18-.89h14.43l-3.84-7.14c-1-1.86-2.94-3.02-5.06-3.02h-5.53s0,10.16,0,10.16Z" style="fill:#4292cb;"/><path d="M168.69,106.85h-4.86c-.25,0-.45-.2-.45-.45v-2.83c0-.25,.2-.45,.45-.45h4.86c.25,0,.45,.2,.45,.45v2.83c0,.25-.2,.45-.45,.45Zm-4.41-.89h3.97v-1.93h-3.97v1.93Z" style="fill:#4292cb;"/><path d="M181.14,113.34c-3.83,0-6.94-3.11-6.94-6.94s3.12-6.94,6.94-6.94,6.94,3.12,6.94,6.94-3.11,6.94-6.94,6.94Zm0-12.99c-3.34,0-6.05,2.71-6.05,6.05s2.71,6.05,6.05,6.05,6.05-2.71,6.05-6.05-2.71-6.05-6.05-6.05Zm0,10.42c-2.41,0-4.36-1.96-4.36-4.36s1.96-4.36,4.36-4.36,4.36,1.96,4.36,4.36-1.96,4.36-4.36,4.36Zm0-7.84c-1.91,0-3.47,1.56-3.47,3.47s1.56,3.47,3.47,3.47,3.47-1.56,3.47-3.47-1.56-3.47-3.47-3.47Z" style="fill:#4292cb;"/><path d="M214.66,106.85h-27.02c-.25,0-.45-.2-.45-.45,0-3.34-2.71-6.05-6.05-6.05s-6.05,2.71-6.05,6.05c0,.25-.2,.45-.45,.45h-5.95c-.25,0-.45-.2-.45-.45v-34.82c0-.25,.2-.45,.45-.45h46.65c.25,0,.45,.2,.45,.45v23.32h15.18c.25,0,.45,.2,.45,.45v7.48c0,2.09-1.63,3.85-3.72,4-.12,0-.25-.03-.34-.12-.09-.08-.14-.2-.14-.33,0-3.33-2.72-6.04-6.05-6.04s-6.05,2.71-6.05,6.05c0,.25-.2,.45-.45,.45h0Zm-26.59-.89h26.16c.23-3.62,3.25-6.5,6.93-6.5s6.65,2.83,6.92,6.42c1.4-.32,2.43-1.57,2.43-3.04v-7.03h-15.18c-.25,0-.45-.2-.45-.45v-23.32h-45.75s0,33.92,0,33.92h5.07c.23-3.62,3.25-6.5,6.93-6.5,3.68,0,6.7,2.88,6.93,6.5h0Z" style="fill:#4292cb;"/><path d="M221.15,113.34c-3.83,0-6.94-3.11-6.94-6.94s3.12-6.94,6.94-6.94,6.94,3.12,6.94,6.94-3.11,6.94-6.94,6.94Zm0-12.99c-3.34,0-6.05,2.71-6.05,6.05s2.71,6.05,6.05,6.05,6.05-2.71,6.05-6.05c0-3.34-2.71-6.05-6.05-6.05h0Zm0,10.42c-2.41,0-4.36-1.96-4.36-4.36s1.96-4.36,4.36-4.36,4.36,1.96,4.36,4.36-1.96,4.36-4.36,4.36Zm0-7.84c-1.91,0-3.47,1.56-3.47,3.47s1.56,3.47,3.47,3.47,3.47-1.56,3.47-3.47-1.56-3.47-3.47-3.47Z" style="fill:#4292cb;"/><g><path d="M205.56,95.19l-2.61-4.51c-.27-.47-.87-.63-1.33-.36-.47,.27-.63,.87-.36,1.33l1.76,3.05h-4.58l1.12-2.64-8.57,3.62,8.57,3.62-1.12-2.64h6.27c.35,0,.67-.19,.85-.49,.17-.3,.17-.67,0-.98h0Z" style="fill:#4292cb;"/><path d="M188.23,94.7h-4.87l2.69-4.66,1.72,2.29,1.15-9.23-7.42,5.61,2.85,.35-3.54,6.13c-.17,.3-.17,.67,0,.98,.17,.3,.5,.49,.85,.49h6.56c.54,0,.98-.44,.98-.98s-.44-.98-.98-.98h0Z" style="fill:#4292cb;"/><path d="M189.68,81.79c.47,.27,1.06,.11,1.33-.36l2.18-3.77,3.01,5.2-2.85,.35,7.42,5.61-1.15-9.23-1.72,2.29-3.85-6.67c-.17-.3-.5-.49-.85-.49s-.67,.19-.85,.49l-3.02,5.23c-.27,.47-.11,1.06,.36,1.33Z" style="fill:#4292cb;"/></g></g><path d="M267.22,91.25c.23,.27,.39,.8,.39,1.15v7.01l2.88,2.85c.25,.25,.56,.72,.69,1.05l2.98,7.61c.26,.66-.08,1.36-.76,1.57l-.3,.09c-.68,.21-1.42-.16-1.66-.83l-2.48-6.95c-.07-.2-.25-.48-.4-.63l-4.52-4.41c-.25-.25-.45-.73-.43-1.09l-.02-5.35c.01-.35-.21-.48-.51-.29l-1.83,1.04c-.18,.12-.34,.38-.36,.59l-.46,4.27c-.08,.7-.68,1.22-1.35,1.15-.67-.07-1.15-.69-1.06-1.39l.6-4.99c.04-.35,.32-.79,.62-.98l4.59-2.93c.3-.19,.82-.26,1.14-.13,.9,.36,1.67,.88,2.28,1.58h0Zm-4.05,8.94l-5.91,9.82c-.38,.6-.2,1.39,.39,1.77l.05,.03c.6,.38,1.4,.21,1.79-.38l5.75-9.17c.12-.18,.09-.44-.06-.59l-1.54-1.54c-.15-.15-.36-.13-.48,.05h0Zm5.17-2.38l2.12,1.84c.54,.46,1.3,.44,1.7-.04,.4-.48,.29-1.24-.25-1.7l-3.57-3.11c-.16-.14-.29-.08-.29,.13v2.24c0,.21,.13,.5,.29,.63Zm-1.93-8.73c1.33,0,2.4-1.08,2.4-2.4s-1.08-2.4-2.4-2.4-2.4,1.08-2.4,2.4,1.08,2.4,2.4,2.4Z" style="fill:none; stroke:#054885; stroke-miterlimit:9.13; stroke-width:.91px;"/><g><path d="M232.57,79.27c-2.73-3.03-4.23-6.95-4.23-11.03,0-4.54,1.9-8.92,5.2-12.03,3.07-2.89,7.08-4.48,11.3-4.48,9.1,0,16.5,7.4,16.5,16.5s-7.4,16.5-16.5,16.5c-4.67,0-9.15-1.99-12.27-5.47Zm1.74-22.24c-3.13,2.94-4.85,6.92-4.85,11.22,0,3.81,1.4,7.46,3.94,10.28,2.92,3.24,7.09,5.11,11.45,5.11,8.49,0,15.39-6.9,15.39-15.39s-6.9-15.39-15.39-15.39c-3.93,0-7.67,1.48-10.54,4.18h0Z" style="fill:#2672b9;"/><path d="M244.85,116.17c.31,0,.56-.25,.56-.56v-47.37c0-.31-.25-.56-.56-.56s-.56,.25-.56,.56v47.37c0,.31,.25,.56,.56,.56h0Z" style="fill:#2672b9;"/><path d="M244.85,79.81c.14,0,.28-.05,.39-.16,.22-.22,.22-.57,0-.79l-9.25-9.25c-.22-.22-.57-.22-.79,0s-.22,.57,0,.79l9.25,9.25c.11,.11,.25,.16,.39,.16Z" style="fill:#2672b9;"/><path d="M244.85,73.08c.14,0,.28-.05,.39-.16l6.58-6.58c.22-.22,.22-.57,0-.79s-.57-.22-.79,0l-6.58,6.58c-.22,.22-.22,.57,0,.79,.11,.11,.25,.16,.39,.16Z" style="fill:#2672b9;"/></g><g><g><path d="M1619.63,96.7c-5.15,0-10.04-1.64-14.14-4.75-2.76-2.09-5.06-4.82-6.66-7.88-1.75-3.36-2.63-6.99-2.63-10.8,0-9.8,6.18-18.64,15.37-22.01,2.58-.95,5.29-1.43,8.06-1.43,2.01,0,3.99,.25,5.9,.75,10.11,2.62,17.32,11.75,17.52,22.21,0,.15,0,.31,0,.47,0,5.75-2.1,11.27-5.92,15.56-4.44,5-10.83,7.87-17.51,7.87h0Zm0-45.95c-2.67,0-5.27,.46-7.75,1.37-8.83,3.23-14.77,11.73-14.77,21.15,0,3.66,.85,7.15,2.53,10.38,1.54,2.95,3.75,5.57,6.4,7.58,3.94,2.98,8.64,4.56,13.59,4.56,6.43,0,12.56-2.76,16.83-7.56,3.67-4.12,5.69-9.44,5.69-14.96,0-.15,0-.29,0-.44-.2-10.06-7.12-18.83-16.84-21.35-1.84-.48-3.74-.72-5.67-.72h0Z" style="fill:#ed6a58;"/><path d="M1599.24,84.31c-.17,0-.32-.09-.41-.25-1.75-3.36-2.63-6.99-2.63-10.8,0-9.8,6.18-18.64,15.37-22.01,.21-.08,.45,.01,.56,.21,.39,.74,.65,1.63,.74,2.57,.13,1.41-.1,2.81-.32,4.17v.02s-1.4,8.59-1.4,8.59c-.12,.74-.27,1.67-.79,2.42-.67,.95-1.86,1.53-3.55,1.72-.34,.04-.68,.06-1.02,.08-.89,.06-1.73,.12-2.5,.41-.93,.35-1.85,1.26-1.71,2.26,.13,.92,1.07,1.55,1.97,2.16l.25,.17c1.2,.82,2.3,2.18,1.77,3.55-.28,.73-.94,1.18-1.43,1.51l-3.52,2.42c-.39,.27-.77,.52-1.18,.73-.07,.03-.14,.05-.21,.05h0Zm12.26-32.05c-8.62,3.34-14.38,11.72-14.38,21,0,3.5,.78,6.85,2.31,9.95,.22-.13,.44-.28,.68-.44l3.52-2.42c.5-.34,.92-.66,1.09-1.09,.33-.87-.52-1.84-1.43-2.47l-.24-.16c-1.02-.69-2.17-1.47-2.36-2.79-.21-1.48,.99-2.75,2.29-3.24,.9-.34,1.84-.4,2.76-.47,.33-.02,.66-.05,.98-.08,1.41-.16,2.39-.6,2.9-1.33,.4-.58,.53-1.35,.64-2.04l1.4-8.59v-.02c.21-1.3,.43-2.64,.31-3.94-.06-.67-.22-1.31-.46-1.87h0Zm.6,5.89h0Z" style="fill:#ed6a58;"/><path d="M1642.6,73.26c-.1,0-.19-.03-.27-.09-1.07-.79-2.31-1.32-3.57-1.51-.51-.08-1.02-.11-1.55-.14-.7-.04-1.43-.08-2.15-.24-1.59-.35-2.75-1.28-3.11-2.48-.3-.98-.03-1.94,.22-2.87,.19-.67,.36-1.3,.32-1.92-.09-1.57-1.52-2.74-2.7-3.44-.36-.21-.74-.42-1.12-.62-1.12-.6-2.27-1.23-3.15-2.22-1.38-1.56-1.8-3.92-1.04-5.87,.16-.4,.34-.76,.55-1.1,.11-.17,.31-.25,.5-.2,10.11,2.62,17.32,11.75,17.52,22.21,0,.17-.09,.34-.25,.42-.07,.03-.14,.05-.21,.05h0Zm-16.96-21.7c-.11,.21-.21,.43-.31,.66-.64,1.63-.29,3.61,.87,4.92,.77,.87,1.8,1.43,2.9,2.02,.38,.2,.77,.42,1.15,.64,1.37,.82,3.04,2.2,3.15,4.17,.05,.77-.16,1.51-.36,2.22-.23,.84-.45,1.63-.23,2.36,.31,1.04,1.46,1.63,2.43,1.85,.65,.14,1.3,.18,2,.22,.54,.03,1.09,.06,1.64,.14,1.12,.17,2.22,.57,3.22,1.17-.57-9.56-7.21-17.81-16.47-20.37Z" style="fill:#ed6a58;"/><path d="M1619.63,96.7c-5.15,0-10.04-1.64-14.14-4.75-.1-.08-.17-.19-.18-.32-.01-.13,.03-.25,.11-.35,.24-.27,.53-.5,.86-.69,.58-.32,1.23-.43,1.86-.53,.74-.12,1.43-.24,1.87-.69,.43-.45,.52-1.15,.61-1.88,.04-.32,.08-.64,.15-.96,.42-1.87,1.95-3.53,4.1-4.43,1.89-.79,4-.95,5.86-1.1,2.06-.16,4.21-.21,5.78,1.06,.75,.61,1.23,1.41,1.69,2.19,.35,.58,.67,1.13,1.1,1.59,.89,.98,2.28,1.62,4.11,1.92,.84,.14,1.72,.19,2.56,.25,.29,.02,.58,.04,.87,.06,.17,.01,.32,.12,.39,.29s.03,.35-.08,.47c-4.44,5-10.83,7.87-17.51,7.87h0Zm-13.15-5.15c3.84,2.77,8.38,4.24,13.15,4.24,6.11,0,11.96-2.49,16.19-6.87-.84-.06-1.71-.12-2.56-.26-2.05-.33-3.61-1.07-4.65-2.2-.49-.53-.85-1.14-1.21-1.74-.44-.74-.86-1.45-1.48-1.95-1.31-1.06-3.17-1.01-5.13-.86-1.88,.15-3.82,.3-5.57,1.03-1.87,.79-3.2,2.2-3.56,3.78-.06,.28-.1,.57-.14,.88-.11,.85-.22,1.73-.86,2.4-.64,.68-1.53,.83-2.38,.97-.58,.1-1.12,.19-1.57,.43-.08,.05-.16,.1-.24,.15h0Z" style="fill:#ed6a58;"/></g><path d="M1592.61,80.29c-.21,0-.39-.14-.44-.35-3.67-15.16,5.68-30.49,20.85-34.16,.25-.06,.49,.09,.55,.34,.06,.25-.09,.49-.34,.55-14.67,3.55-23.72,18.38-20.17,33.05,.06,.25-.09,.49-.34,.55-.04,0-.07,.01-.11,.01h0Z" style="fill:#ed6a58;"/><path d="M1599.75,50.19c-.29,0-.59-.03-.89-.09-1.77-.35-3.06-1.67-3.37-3.44-.26-1.52,.32-2.92,1.73-4.14,4.03-3.48,3.16-6.3,3.12-6.41-.07-.21,.02-.45,.22-.55,.2-.1,.45-.05,.58,.14,.22,.31,5.42,7.57,2.4,12.38-.84,1.34-2.27,2.11-3.8,2.11Zm1.56-12.53c-.19,1.37-.96,3.37-3.49,5.55-1.15,1-1.63,2.1-1.43,3.29,.24,1.39,1.25,2.42,2.64,2.7,1.47,.29,2.94-.34,3.74-1.62,1.95-3.11-.15-7.64-1.47-9.93Z" style="fill:#ed6a58;"/><path d="M1589.86,61.91c-.1,0-.2,0-.31-.01-1.8-.12-3.25-1.26-3.78-2.98-.46-1.48-.06-2.93,1.19-4.33,3.55-3.97,2.32-6.65,2.26-6.76-.1-.2-.03-.45,.15-.58,.19-.13,.44-.1,.59,.06,.26,.28,6.36,6.81,3.98,11.97-.74,1.62-2.33,2.63-4.09,2.63Zm.52-12.66c0,1.38-.52,3.47-2.74,5.96-1.01,1.14-1.35,2.3-.99,3.45,.42,1.35,1.55,2.24,2.97,2.33,1.5,.1,2.87-.72,3.5-2.09,1.53-3.33-1.13-7.56-2.74-9.65Z" style="fill:#ed6a58;"/><path d="M1626.21,100.8c-.21,0-.39-.14-.44-.35-.06-.25,.09-.49,.34-.55,7.11-1.72,13.12-6.1,16.93-12.35s4.96-13.6,3.24-20.7c-.06-.25,.09-.49,.34-.55,.24-.06,.49,.09,.55,.34,1.78,7.35,.59,14.94-3.35,21.4-3.94,6.45-10.15,10.98-17.5,12.76-.04,0-.07,.01-.11,.01h0Z" style="fill:#ed6a58;"/><path d="M1638.55,111.07c-.14,0-.28-.07-.37-.19-.22-.31-5.42-7.57-2.4-12.38,1-1.6,2.85-2.39,4.69-2.03,1.77,.35,3.06,1.67,3.37,3.44,.26,1.52-.32,2.92-1.74,4.14-4.03,3.48-3.16,6.3-3.12,6.41,.07,.21-.02,.45-.22,.55-.07,.03-.14,.05-.21,.05Zm1.03-13.77c-1.22,0-2.36,.62-3.03,1.69-1.95,3.11,.15,7.64,1.47,9.93,.19-1.37,.96-3.37,3.49-5.55,1.15-1,1.63-2.1,1.43-3.29-.24-1.39-1.25-2.42-2.64-2.7-.24-.05-.48-.07-.71-.07Z" style="fill:#ed6a58;"/><path d="M1649.7,99.41c-.12,0-.24-.05-.33-.14-.26-.28-6.36-6.81-3.98-11.97,.79-1.71,2.52-2.73,4.39-2.62,1.8,.12,3.25,1.26,3.78,2.98,.46,1.48,.06,2.93-1.19,4.33-3.55,3.97-2.32,6.65-2.26,6.76,.1,.2,.03,.45-.15,.58-.08,.05-.17,.08-.26,.08Zm-.23-13.82c-1.4,0-2.66,.8-3.26,2.09-1.53,3.33,1.13,7.56,2.74,9.65,0-1.38,.52-3.47,2.74-5.96,1.01-1.14,1.35-2.3,.99-3.45-.42-1.35-1.55-2.24-2.97-2.33-.08,0-.16,0-.24,0Z" style="fill:#ed6a58;"/><path d="M1599.18,49.99c-.19,0-.39-.01-.59-.04-1.17-.18-2.03-.83-2.23-1.72-.17-.76,.21-1.46,1.15-2.07,2.67-1.74,2.09-3.15,2.06-3.21-.05-.11,.02-.22,.15-.28,.13-.05,.29-.02,.38,.07,.15,.15,3.59,3.79,1.59,6.19-.56,.67-1.5,1.06-2.51,1.06h0Zm1.03-6.26c-.12,.69-.64,1.69-2.31,2.78-.76,.5-1.08,1.05-.95,1.65,.16,.69,.83,1.21,1.75,1.35,.97,.15,1.95-.17,2.47-.81,1.29-1.55-.1-3.82-.97-4.96Z" style="fill:#ed6a58;"/><path d="M1590.36,61.91c-.07,0-.13,0-.2,0-1.18-.08-2.13-.82-2.48-1.95-.3-.97-.04-1.92,.78-2.83,2.32-2.6,1.52-4.35,1.48-4.42-.06-.13-.02-.29,.1-.38,.12-.08,.29-.07,.39,.04,.17,.18,4.16,4.45,2.61,7.83-.49,1.06-1.52,1.72-2.67,1.72Zm.34-8.28c0,.91-.34,2.27-1.79,3.9-.66,.74-.88,1.5-.65,2.26,.27,.88,1.02,1.47,1.94,1.53,.98,.06,1.88-.47,2.29-1.37,1-2.18-.74-4.94-1.79-6.31h0Z" style="fill:#ed6a58;"/><path d="M1649.13,93.15c-.07,0-.14-.03-.19-.08-.15-.16-3.66-3.92-2.29-6.88,.45-.99,1.45-1.57,2.53-1.5,1.04,.07,1.87,.72,2.18,1.71,.26,.85,.03,1.69-.68,2.49-2.04,2.29-1.33,3.82-1.3,3.89,.06,.12,.02,.26-.09,.33-.05,.03-.1,.05-.15,.05Zm-.13-7.95c-.81,0-1.53,.46-1.87,1.2-.88,1.92,.65,4.35,1.57,5.55,0-.8,.3-2,1.58-3.43,.58-.65,.78-1.32,.57-1.98-.24-.77-.89-1.29-1.71-1.34-.05,0-.09,0-.14,0h0Z" style="fill:#ed6a58;"/><path d="M1638.49,103.73c-.07,0-.14-.03-.18-.09-.11-.15-2.71-3.79-1.2-6.19,.5-.8,1.42-1.2,2.35-1.01,.89,.18,1.53,.83,1.68,1.72,.13,.76-.16,1.46-.87,2.07-2.02,1.74-1.58,3.15-1.56,3.21,.04,.11-.01,.23-.11,.28-.03,.02-.07,.03-.11,.03Zm.52-6.89c-.61,0-1.18,.31-1.52,.84-.98,1.56,.07,3.82,.73,4.96,.09-.69,.48-1.69,1.74-2.78,.58-.5,.82-1.05,.72-1.65-.12-.69-.63-1.21-1.32-1.35-.12-.02-.24-.04-.36-.04Z" style="fill:#ed6a58;"/><g><path d="M1645.51,49.7c-3.89,0-7.05-3.16-7.05-7.05s3.16-7.05,7.05-7.05,7.05,3.16,7.05,7.05-3.16,7.05-7.05,7.05Zm0-12.75c-3.15,0-5.71,2.56-5.71,5.71s2.56,5.71,5.71,5.71,5.71-2.56,5.71-5.71-2.56-5.71-5.71-5.71Z" style="fill:#ed6a58;"/><path d="M1645.51,33.03c-.37,0-.67-.3-.67-.67v-3.39c0-.37,.3-.67,.67-.67s.67,.3,.67,.67v3.39c0,.37-.3,.67-.67,.67Z" style="fill:#ed6a58;"/><path d="M1638.23,36.04c-.17,0-.34-.07-.47-.2l-2.4-2.4c-.26-.26-.26-.69,0-.95,.26-.26,.69-.26,.95,0l2.4,2.4c.26,.26,.26,.69,0,.95-.13,.13-.3,.2-.47,.2h0Z" style="fill:#ed6a58;"/><path d="M1635.21,43.32h-3.39c-.37,0-.67-.3-.67-.67s.3-.67,.67-.67h3.39c.37,0,.67,.3,.67,.67s-.3,.67-.67,.67Z" style="fill:#ed6a58;"/><path d="M1635.83,53c-.17,0-.34-.07-.47-.2-.26-.26-.26-.69,0-.95l2.4-2.4c.26-.26,.69-.26,.95,0,.26,.26,.26,.69,0,.95l-2.4,2.4c-.13,.13-.3,.2-.47,.2h0Z" style="fill:#ed6a58;"/><path d="M1645.51,57.01c-.37,0-.67-.3-.67-.67v-3.39c0-.37,.3-.67,.67-.67s.67,.3,.67,.67v3.39c0,.37-.3,.67-.67,.67Z" style="fill:#ed6a58;"/><path d="M1655.19,53c-.17,0-.34-.07-.47-.2l-2.4-2.4c-.26-.26-.26-.69,0-.95,.26-.26,.69-.26,.95,0l2.4,2.4c.26,.26,.26,.69,0,.95-.13,.13-.3,.2-.47,.2h0Z" style="fill:#ed6a58;"/><path d="M1659.19,43.32h-3.39c-.37,0-.67-.3-.67-.67s.3-.67,.67-.67h3.39c.37,0,.67,.3,.67,.67s-.3,.67-.67,.67Z" style="fill:#ed6a58;"/><path d="M1652.79,36.04c-.17,0-.34-.07-.47-.2-.26-.26-.26-.69,0-.95l2.4-2.4c.26-.26,.69-.26,.95,0s.26,.69,0,.95l-2.4,2.4c-.13,.13-.3,.2-.47,.2h0Z" style="fill:#ed6a58;"/></g></g><g><path d="M777.16,85.95v5.44c-3.11,1.65-6.38,2.48-9.79,2.48-4.42,0-7.94-1.22-10.56-3.66s-3.93-5.45-3.93-9.03,1.38-6.61,4.14-9.11,6.37-3.74,10.83-3.74c3.55,0,6.56,.73,9.02,2.19v5.54c-3.02-1.7-5.88-2.55-8.57-2.55s-4.82,.71-6.5,2.13c-1.68,1.42-2.52,3.23-2.52,5.43s.83,4.04,2.49,5.47c1.66,1.44,3.78,2.16,6.37,2.16,1.28,0,2.52-.17,3.71-.51s2.96-1.08,5.31-2.24Z" style="fill:#173b66;"/><path d="M801.08,88.98v4.56h-18.99v-24.9h6.2v20.34s12.78,0,12.78,0Z" style="fill:#173b66;"/><path d="M810.97,68.64v24.9h-6.2v-24.9h6.2Z" style="fill:#173b66;"/><path d="M830.11,77.87l8-9.23h5.39v24.9h-6.2v-15.55l-6.73,7.81h-.93l-6.73-7.81v15.55h-6.2v-24.9h5.39s8.01,9.23,8.01,9.23Z" style="fill:#173b66;"/><path d="M863.59,68.64l11.06,24.9h-6.67l-2.05-4.92h-11.15l-1.86,4.92h-6.57l10.06-24.9h7.19Zm.53,15.63l-4.04-9.68-3.66,9.68h7.7Z" style="fill:#173b66;"/><path d="M895.62,68.64v4.56h-9.02v20.34h-6.2v-20.34h-9.02v-4.56h24.24Z" style="fill:#173b66;"/><path d="M917.83,88.98v4.56h-18.36v-24.9h18.11v4.56h-11.91v5.22h11.36v4.56h-11.36v5.99s12.16,0,12.16,0Z" style="fill:#173b66;"/><path d="M951.15,88.98v4.56h-18.36v-24.9h18.11v4.56h-11.91v5.22h11.36v4.56h-11.36v5.99s12.16,0,12.16,0Z" style="fill:#173b66;"/><path d="M969.29,77.87l8-9.23h5.39v24.9h-6.2v-15.55l-6.73,7.81h-.93l-6.73-7.81v15.55h-6.2v-24.9h5.39s8.01,9.23,8.01,9.23Z" style="fill:#173b66;"/><path d="M1006.63,88.98v4.56h-18.36v-24.9h18.11v4.56h-11.91v5.22h11.36v4.56h-11.36v5.99s12.16,0,12.16,0Z" style="fill:#173b66;"/><path d="M1011.37,68.64h11.12c2.41,0,4.37,.7,5.88,2.09,1.51,1.4,2.26,3.08,2.26,5.07,0,2.74-1.43,4.77-4.28,6.09,1.25,.57,2.44,2.1,3.57,4.59,1.13,2.49,2.21,4.85,3.26,7.06h-6.81c-.4-.82-1.11-2.38-2.12-4.69-1.01-2.31-1.87-3.79-2.59-4.44-.72-.65-1.49-.98-2.31-.98h-1.78v10.11h-6.2v-24.9h0Zm6.2,4.56v5.67h3.28c1.05,0,1.88-.25,2.49-.74,.61-.49,.92-1.2,.92-2.11,0-1.88-1.18-2.82-3.55-2.82h-3.14Z" style="fill:#173b66;"/><path d="M1059.84,70.37v5.44c-3.17-1.53-6.28-2.3-9.31-2.3s-5.18,.74-6.76,2.21c-1.58,1.47-2.37,3.35-2.37,5.63s.79,3.96,2.37,5.31c1.58,1.35,3.66,2.03,6.24,2.03,1.37,0,2.74-.3,4.12-.89v-2.91h-3.6v-4.56h9.82v10.18c-.99,.99-2.49,1.79-4.5,2.42s-4.01,.94-5.98,.94c-4.34,0-7.9-1.2-10.69-3.59-2.79-2.39-4.18-5.44-4.18-9.14s1.39-6.86,4.18-9.24c2.79-2.38,6.4-3.57,10.83-3.57,3.66,0,6.93,.68,9.82,2.05h0Z" style="fill:#173b66;"/><path d="M1084.19,88.98v4.56h-18.36v-24.9h18.11v4.56h-11.91v5.22h11.36v4.56h-11.36v5.99s12.16,0,12.16,0Z" style="fill:#173b66;"/><path d="M1114.16,68.64v24.9h-5.24l-13.75-15.96v15.96h-6.2v-24.9h5.69l13.3,15.22v-15.22h6.2Z" style="fill:#173b66;"/><path d="M1142.97,85.95v5.44c-3.11,1.65-6.37,2.48-9.79,2.48-4.42,0-7.94-1.22-10.56-3.66s-3.93-5.45-3.93-9.03,1.38-6.61,4.14-9.11,6.37-3.74,10.83-3.74c3.55,0,6.56,.73,9.02,2.19v5.54c-3.02-1.7-5.88-2.55-8.57-2.55s-4.82,.71-6.5,2.13c-1.68,1.42-2.52,3.23-2.52,5.43s.83,4.04,2.49,5.47c1.66,1.44,3.78,2.16,6.37,2.16,1.28,0,2.52-.17,3.71-.51,1.19-.34,2.96-1.08,5.31-2.24Z" style="fill:#173b66;"/><path d="M1154.95,93.54v-11.62l-9.82-13.28h7.52l5.4,7.83,5.43-7.83h7.5l-9.82,13.29v11.61s-6.2,0-6.2,0Z" style="fill:#173b66;"/><path d="M1184.15,68.64h11.11c2.52,0,4.52,.73,6.01,2.19,1.49,1.46,2.23,3.19,2.23,5.19s-.73,3.84-2.2,5.31c-1.47,1.47-3.47,2.21-6,2.21h-4.94v10h-6.2v-24.9Zm6.2,4.56v5.78h2.89c2.58,0,3.87-.96,3.87-2.89,0-1.08-.34-1.83-1.03-2.26-.69-.42-1.86-.63-3.53-.63,0,0-2.19,0-2.19,0Z" style="fill:#173b66;"/><path d="M1226.83,88.98v4.56h-18.99v-24.9h6.2v20.34s12.78,0,12.78,0Z" style="fill:#173b66;"/><path d="M1244.88,68.64l11.06,24.9h-6.67l-2.05-4.92h-11.15l-1.86,4.92h-6.57l10.06-24.9h7.19Zm.53,15.63l-4.04-9.68-3.66,9.68h7.7Z" style="fill:#173b66;"/><path d="M1284.03,68.64v24.9h-5.24l-13.75-15.96v15.96h-6.2v-24.9h5.69l13.3,15.22v-15.22h6.2Z" style="fill:#173b66;"/><path d="M1314.86,68.64v24.9h-5.24l-13.75-15.96v15.96h-6.2v-24.9h5.69l13.3,15.22v-15.22h6.2Z" style="fill:#173b66;"/><path d="M1326.87,68.64v24.9h-6.2v-24.9h6.2Z" style="fill:#173b66;"/><path d="M1357.84,68.64v24.9h-5.24l-13.75-15.96v15.96h-6.2v-24.9h5.69l13.3,15.22v-15.22h6.2Z" style="fill:#173b66;"/><path d="M1387.2,70.37v5.44c-3.17-1.53-6.28-2.3-9.31-2.3s-5.18,.74-6.76,2.21c-1.58,1.47-2.37,3.35-2.37,5.63s.79,3.96,2.37,5.31c1.58,1.35,3.66,2.03,6.24,2.03,1.37,0,2.74-.3,4.12-.89v-2.91h-3.6v-4.56h9.82v10.18c-.99,.99-2.49,1.79-4.5,2.42s-4.01,.94-5.98,.94c-4.34,0-7.9-1.2-10.69-3.59-2.79-2.39-4.18-5.44-4.18-9.14s1.39-6.86,4.18-9.24c2.79-2.38,6.4-3.57,10.83-3.57,3.66,0,6.93,.68,9.82,2.05h0Z" style="fill:#173b66;"/><path d="M1420.27,68.64v4.56h-9.02v20.34h-6.2v-20.34h-9.02v-4.56h24.24Z" style="fill:#173b66;"/><path d="M1434.89,68.32c4.24,0,7.68,1.28,10.3,3.84,2.63,2.56,3.94,5.54,3.94,8.94s-1.33,6.44-3.99,8.97c-2.66,2.53-6.08,3.8-10.25,3.8s-7.65-1.26-10.3-3.78c-2.65-2.52-3.98-5.51-3.98-8.98s1.32-6.39,3.95-8.95c2.63-2.56,6.08-3.83,10.33-3.83Zm0,20.38c2.35,0,4.25-.7,5.69-2.09,1.44-1.4,2.16-3.23,2.16-5.5s-.72-4.12-2.16-5.51c-1.44-1.39-3.33-2.09-5.69-2.09s-4.27,.7-5.71,2.09-2.17,3.23-2.17,5.51,.72,4.1,2.17,5.5c1.44,1.4,3.35,2.09,5.71,2.09Z" style="fill:#173b66;"/><path d="M1466.83,68.32c4.24,0,7.68,1.28,10.3,3.84,2.63,2.56,3.94,5.54,3.94,8.94s-1.33,6.44-3.99,8.97c-2.66,2.53-6.08,3.8-10.25,3.8s-7.65-1.26-10.3-3.78c-2.65-2.52-3.98-5.51-3.98-8.98s1.32-6.39,3.95-8.95c2.63-2.56,6.08-3.83,10.33-3.83Zm0,20.38c2.35,0,4.25-.7,5.69-2.09,1.44-1.4,2.16-3.23,2.16-5.5s-.72-4.12-2.16-5.51c-1.44-1.39-3.33-2.09-5.69-2.09s-4.27,.7-5.71,2.09-2.17,3.23-2.17,5.51,.72,4.1,2.17,5.5c1.44,1.4,3.35,2.09,5.71,2.09Z" style="fill:#173b66;"/><path d="M1504.55,88.98v4.56h-18.99v-24.9h6.2v20.34s12.78,0,12.78,0Z" style="fill:#173b66;"/><path d="M1528.94,68.64l-8.11,11.71,11,13.19h-7.75l-9.88-11.68v11.68h-6.2v-24.9h6.2v11.21l7.92-11.21h6.82Z" style="fill:#173b66;"/><path d="M1540.71,68.64v24.9h-6.2v-24.9h6.2Z" style="fill:#173b66;"/><path d="M1568.93,68.64v4.56h-9.02v20.34h-6.2v-20.34h-9.02v-4.56h24.24Z" style="fill:#173b66;"/></g><g><path d="M52.53,74.31H20.82c-.29-3.01-2.84-5.37-5.93-5.37-3.28,0-5.96,2.67-5.96,5.96v32.59c0,3.28,2.67,5.96,5.96,5.96H58.65v-33.01s-6.12-6.12-6.12-6.12Zm.34,1.99l3.78,3.78h-3.78v-3.78Zm-42.76-1.41c0-2.64,2.15-4.79,4.79-4.79s4.79,2.15,4.79,4.79v28.23c-.93-.98-2.33-1.6-3.89-1.6h-.9c-1.96,0-3.7,.96-4.79,2.43,0,0,0-29.06,0-29.06Zm9.58,31.06c0,1.79-1.74,3.25-3.89,3.25h-.32v-6.51h.32c2.14,0,3.89,1.46,3.89,3.25h0Zm-4.79,6.32c-2.64,0-4.79-2.15-4.79-4.79,0-2.44,1.84-4.44,4.2-4.73v7.62h1.48c2.79,0,5.06-1.98,5.06-4.42,0-.07,0-.14-.01-.21h.01v-30.26h30.85v5.78h5.78v31.02H14.89Z" style="fill:#2274b5;"/><path d="M52.87,108.07v-23.92l-23.92,23.92h23.92Zm-1.17-16.59h-1.13v1.17h1.13v2.34h-1.13v1.17h1.13v2.34h-1.13v1.17h1.13v2.34h-1.13v1.17h1.13v3.73h-3.73v-1.13h-1.17v1.13h-2.34v-1.13h-1.17v1.13h-2.34v-1.13h-1.17v1.13h-2.34v-1.13h-1.17v1.13h-4.51l19.93-19.93v4.51h0Z" style="fill:#2274b5;"/><path d="M47.97,95.12l-8.06,8.06h8.06v-8.06Zm-1.17,6.89h-4.07l4.07-4.07v4.07Z" style="fill:#2274b5;"/><path d="M29.92,98.25l1.21,3.58,1.11-.37-3.4-10.02c.52-.37,.85-.97,.85-1.65,0-.92-.61-1.68-1.45-1.93v-1.17h-1.17v1.17c-.83,.25-1.45,1.02-1.45,1.93,0,.68,.34,1.29,.86,1.65l-3.4,10.02,1.11,.38,1.21-3.58c.73,.2,1.48,.3,2.25,.3s1.52-.1,2.25-.3h0Zm-2.25-9.33c.48,0,.86,.39,.86,.86s-.39,.86-.86,.86-.86-.39-.86-.86,.39-.86,.86-.86Zm-1.87,8.2l1.8-5.31s.04,0,.06,0c.02,0,.05,0,.07,0l1.8,5.31c-1.22,.31-2.52,.31-3.74,0h0Z" style="fill:#2274b5;"/><path d="M34.32,92.65h1.17v-1.79h2.48v1.79h1.17v-1.79h3.06l.58-.58v-4.21h2.66v-1.17h-2.66v-3.63h5.91v-1.17h-5.91v-1.79h-1.17v1.79h-2.48v-1.79h-1.17v1.79h-2.48v-1.79h-1.17v1.79h-2.66v1.17h2.66v3.63h-2.66v1.17h2.66s0,6.59,0,6.59Zm1.17-2.96v-3.63h2.48v3.63h-2.48Zm6.12,0h-2.48v-3.63h2.48v3.63Zm0-8.43v3.63h-2.48v-3.63h2.48Zm-6.12,0h2.48v3.63h-2.48v-3.63Z" style="fill:#2274b5;"/><path d="M28.69,71.53h24.66c2.22,0,4.03-1.81,4.03-4.03s-1.81-4.03-4.03-4.03H28.69l-.23,.05-7.88,3.45v1.07l7.88,3.45s.23,.05,.23,.05Zm24.08-1.17h-1.32v-5.72h1.32v5.72Zm-2.49,0H29.28v-2.28h21.01v2.28Zm0-3.45H29.28v-2.28h21.01v2.28Zm-22.17,3.14l-2.92-1.28v-2.55l2.92-1.28v5.11h0Zm28.11-2.55c0,1.38-.98,2.53-2.28,2.8v-5.6c1.3,.27,2.28,1.42,2.28,2.8Zm-32.2-.76v1.53l-1.74-.76s1.74-.76,1.74-.76Z" style="fill:#2274b5;"/></g><g><g><path d="M66.73,113.24v-22.27c0-.07,.03-.15,.09-.19l16.73-14.12c.09-.08,.23-.08,.33,0l16.73,14.12c.06,.05,.09,.12,.09,.19v22.27c0,.14-.11,.25-.25,.25h-33.47c-.14,0-.25-.11-.25-.25h0Zm33.47-22.15l-16.48-13.9-16.48,13.9v21.9h32.96s0-21.9,0-21.9h0Z" style="fill:#1c3f80; stroke:#1c3f80; stroke-miterlimit:9.13; stroke-width:.71px;"/><path d="M64.62,93.59c.06,0,.13-.02,.18-.07l2.37-2.37c.1-.1,.1-.26,0-.36-.1-.1-.26-.1-.36,0l-2.37,2.37c-.1,.1-.1,.26,0,.36,.05,.05,.11,.07,.18,.07Z" style="fill:#1c3f80; stroke:#1c3f80; stroke-miterlimit:9.13; stroke-width:.71px;"/></g><g><path d="M100,113.47v-35.24c0-.12,.05-.23,.14-.31l26.48-22.34c.15-.13,.37-.13,.52,0l26.48,22.34c.09,.08,.14,.19,.14,.31v35.24c0,.22-.18,.4-.4,.4h-52.95c-.22,0-.4-.18-.4-.4h0Zm52.95-35.05l-26.07-22-26.07,22v34.65s52.15,0,52.15,0v-34.65s0,0,0,0Z" style="fill:#1c3f80; stroke:#1c3f80; stroke-miterlimit:9.13; stroke-width:.71px;"/><path d="M157.11,82.39c.1,0,.21-.04,.28-.12,.16-.16,.16-.41,0-.57l-3.75-3.75c-.16-.16-.41-.16-.57,0-.16,.16-.16,.41,0,.57l3.75,3.75c.08,.08,.18,.12,.28,.12Z" style="fill:#1c3f80; stroke:#1c3f80; stroke-miterlimit:9.13; stroke-width:.71px;"/><path d="M96.65,82.39c.1,0,.21-.04,.28-.12l3.75-3.75c.16-.16,.16-.41,0-.57-.16-.16-.41-.16-.57,0l-3.75,3.75c-.16,.16-.16,.41,0,.57,.08,.08,.18,.12,.28,.12Z" style="fill:#1c3f80; stroke:#1c3f80; stroke-miterlimit:9.13; stroke-width:.71px;"/><path d="M108.85,71.33c-.14-.07-.23-.21-.23-.36v-10.66c0-.22,.18-.4,.4-.4h4.48c.22,0,.4,.18,.4,.4v6.87c0,.12-.05,.23-.14,.31l-4.48,3.79c-.07,.06-.17,.09-.26,.09-.06,0-.11-.01-.17-.04Zm4.25-10.62h-3.68v9.39l3.68-3.11v-6.28Z" style="fill:#1c3f80; stroke:#1c3f80; stroke-miterlimit:9.13; stroke-width:.71px;"/></g><path d="M132.1,86.01c0-.12-.1-.22-.22-.22h-.04c-.21-1.07-.93-1.98-1.97-2.28-1.46-.43-2.97,.52-3.36,2.12-.01,.06-.02,.11-.03,.17h-.48c-.12,0-.22,.1-.22,.22s.1,.22,.22,.22h.65c-.02,.69,.23,1.39,.76,1.92,.51,.51,1.18,.77,1.85,.77s1.34-.25,1.85-.77c.53-.53,.78-1.22,.76-1.92h0c.12,0,.22-.1,.22-.22h0Z" style="fill:none; stroke:#1c3f80; stroke-miterlimit:9.13; stroke-width:.91px;"/><path d="M135.91,93.67v2.07h-2.03v2.78l.18,2.82h6.4v-11.73c-.08,.13-.18,.26-.29,.38l-2.84,2.99c-.37,.39-.87,.63-1.4,.7h0Z" style="fill:none; stroke:#1c3f80; stroke-miterlimit:9.13; stroke-width:.71px;"/><path d="M140.45,75.13v-1.26h-27.01v27.47h11.05l1.17-2.3v-3.3s-7.69,0-7.69,0v-10.03h6.58c.11-.51,.48-.93,.97-1.09,.47-1.08,1.35-1.9,2.41-2.26v-3.93h7.98v9.19l.84-.89c.44-.46,1.06-.73,1.71-.73,.61,0,1.18,.23,1.62,.65,.15,.14,.27,.3,.37,.47v-11.99Zm-14.5,8.61h-7.99v-5.31h7.99v5.31Z" style="fill:none; stroke:#1c3f80; stroke-miterlimit:9.13; stroke-width:.91px;"/><path d="M133,104.62l-.38-6.06v-7.04s2.66,.87,2.66,.87c.11,.04,.23,.05,.34,.05,.29,0,.58-.12,.79-.34l2.85-3c.42-.43,.4-1.13-.04-1.54-.21-.2-.48-.3-.75-.3-.29,0-.58,.11-.79,.34l-2.37,2.5-2.79-.91c-.09-.03-.18-.04-.27-.04-.02,0-.03-.01-.05-.01h-5.26c-.12,0-.23,.02-.34,.05l-2.79,.91-2.37-2.5c-.21-.22-.5-.34-.79-.34-.27,0-.54,.1-.75,.3-.44,.42-.46,1.11-.04,1.54l2.85,3c.21,.22,.5,.34,.79,.34,.11,0,.23-.02,.34-.05l3.11-1.01v7.97s-2.62,5.14-2.62,5.14c-.11,.22-.16,.47-.14,.72l.53,5.78c.06,.68,.63,1.19,1.3,1.19,.04,0,.08,0,.12,0,.72-.07,1.25-.7,1.18-1.42l-.5-5.41,2.72-5.34s.04-.1,.06-.15h.54s.27,5.06,.27,5.06c0,.09,.02,.19,.05,.28l1.68,6.05c.16,.58,.69,.96,1.26,.96,.12,0,.23-.02,.35-.05,.69-.19,1.11-.91,.91-1.61l-1.64-5.91h0Z" style="fill:none; stroke:#1c3f80; stroke-miterlimit:9.13; stroke-width:.91px;"/><line x1="132.12" y1="86.16" x2="126.42" y2="86.16" style="fill:none; stroke:#1c3f80; stroke-miterlimit:9.13; stroke-width:.91px;"/></g><g id="uuid-84ae4366-12c5-43ab-bd56-b6dd5664219b"><rect x="283.73" y="51.11" width="44.85" height="63.08" style="fill:none; stroke:#3991c6; stroke-miterlimit:9.13; stroke-width:.91px;"/><path d="M302.66,60.92c0-.77-.63-1.4-1.4-1.4h-8.41c-.77,0-1.4,.63-1.4,1.4v8.41c0,.77,.63,1.4,1.4,1.4h8.41c.77,0,1.4-.63,1.4-1.4v-8.41Zm0,16.82c0-.77-.63-1.4-1.4-1.4h-8.41c-.77,0-1.4,.63-1.4,1.4v8.41c0,.77,.63,1.4,1.4,1.4h8.41c.77,0,1.4-.63,1.4-1.4v-8.41Zm7.01-8.41c0,.77,.63,1.4,1.4,1.4h8.41c.77,0,1.4-.63,1.4-1.4v-8.41c0-.77-.63-1.4-1.4-1.4h-8.41c-.77,0-1.4,.63-1.4,1.4v8.41Zm0,16.82c0,.77,.63,1.4,1.4,1.4h8.41c.77,0,1.4-.63,1.4-1.4v-8.41c0-.77-.63-1.4-1.4-1.4h-8.41c-.77,0-1.4,.63-1.4,1.4v8.41Zm2.1,28.03v-15.42c0-.77-.63-1.4-1.4-1.4h-8.41c-.77,0-1.4,.63-1.4,1.4v15.42" style="fill:none; stroke:#3991c6; stroke-miterlimit:9.13; stroke-width:.91px;"/></g><g><path d="M441.11,101.42c-2.56,0-4.64,2.08-4.64,4.64s2.08,4.64,4.64,4.64,4.64-2.08,4.64-4.64-2.08-4.64-4.64-4.64Zm0,7.77c-1.73,0-3.13-1.41-3.13-3.14s1.41-3.13,3.13-3.13,3.14,1.41,3.14,3.13-1.41,3.14-3.14,3.14Z" style="fill:#1f3767;"/><path d="M468.03,110.69c1.62,0,2.93-1.32,2.93-2.93s-1.32-2.93-2.93-2.93-2.93,1.32-2.93,2.93,1.32,2.93,2.93,2.93Zm0-4.37c.79,0,1.43,.64,1.43,1.43s-.64,1.43-1.43,1.43-1.43-.64-1.43-1.43,.64-1.43,1.43-1.43Z" style="fill:#1f3767;"/><path d="M491.01,100.83c0-5.15,3.88-8.92,5.55-10.31,.39-.33,.54-.85,.36-1.32-.17-.48-.61-.79-1.12-.79h-4.88l-9.59,9.59-5.09-8.63,.12-.07c.37-.22,.64-.57,.74-.99,.11-.42,.05-.85-.17-1.23l-1.9-3.22h4.59c.45,0,.81,.35,.81,.81v8.4c0,.41,.34,.75,.75,.75s.75-.34,.75-.75v-8.4c0-1.18-.89-2.14-2.03-2.28v-10.48c0-.2-.08-.39-.22-.53l-3.94-3.94c-.21-.22-.54-.28-.82-.16-.28,.12-.46,.39-.46,.69v14.39h-.31l-1.44-2.45c-.25-.43-.66-.73-1.14-.86-.48-.13-.98-.05-1.41,.2l-1.1,.65c-.43,.25-.73,.66-.86,1.14-.12,.45-.06,.91,.15,1.32h-3.01l-5.68-14.57h-19.56v14.26h-5.39v19.91c-1.47,1.73-1.98,4.07-1.29,6.37,.89,2.98,3.48,4.91,6.59,4.91h28.81c2.36,0,4.34-1.46,5.04-3.71,.7-2.25-.09-4.57-2.03-5.91l-.62-.43h9.65l10.05,10.05h4.88c.51,0,.95-.31,1.12-.79,.17-.48,.03-1-.36-1.32-1.67-1.38-5.55-5.15-5.55-10.31h0Zm-15.04-31.05l2.44,2.44v10.14h-2.44v-12.58Zm-6.31,11.64c.01-.05,.05-.16,.17-.22l1.1-.65c.11-.07,.22-.05,.27-.04,.05,.01,.16,.05,.22,.17l4.22,7.17s0,.13-.04,.16l-1.53,.9c-.05,.03-.13,.01-.16-.04l-4.22-7.17c-.07-.11-.05-.22-.04-.27h0Zm-.43,2.44l3.39,5.76h0c.3,.51,.84,.8,1.4,.8,.28,0,.56-.07,.82-.22l.11-.07,4.92,8.33h-15.45l-2.87-2h13.67c.41,0,.75-.34,.75-.75s-.34-.75-.75-.75h-4.95l-4.33-11.1h3.3Zm-10.59-14.57l10.02,25.67h-9.26l-3.96-2.76c-1.88-1.31-4.35-1.34-6.28-.08l-.31,.21v-4.51l-7.22-5.43v-13.09h17.03Zm-17.97,14.26l6.66,5.01v4.75l-11.09,7.28s-.02,.01-.03,.02v-17.06h4.45Zm30.32,21.3c1.68,1.17,1.85,2.95,1.45,4.23-.4,1.29-1.56,2.66-3.61,2.66h-28.81c-2.43,0-4.45-1.51-5.15-3.84-.53-1.78-.27-4.43,2.2-6.06l12.9-8.48c1.42-.92,3.22-.9,4.6,.06l7.22,5.03h-6.99c.28-.46,.45-1,.45-1.59,0-1.7-1.38-3.09-3.09-3.09s-3.09,1.39-3.09,3.09,1.39,3.09,3.09,3.09h28.27v1.73h-28.27c-2.48,0-4.49,2.02-4.49,4.49s2.02,4.49,4.49,4.49,4.49-2.02,4.49-4.49c0-1.15-.45-2.2-1.17-2.99h13.1l2.39,1.66h0Zm-18.82-6.4c-.87,0-1.59-.71-1.59-1.59s.71-1.59,1.59-1.59,1.59,.71,1.59,1.59-.71,1.59-1.59,1.59Zm2.99,7.73c0,1.65-1.34,2.99-2.99,2.99s-2.99-1.34-2.99-2.99,1.34-2.99,2.99-2.99,2.99,1.34,2.99,2.99Zm36.39,5.56l-9.61-9.61v-2.61l9.61-9.61h3.43c-2.03,1.84-5.47,5.72-5.47,10.92s3.44,9.08,5.47,10.92c0,0-3.43,0-3.43,0Z" style="fill:#1f3767;"/><path d="M456.75,71.23h-12.93v9.55h16.66l-3.73-9.55h0Zm-11.43,1.5h10.41l2.56,6.55h-12.96v-6.55Z" style="fill:#1f3767;"/><path d="M450.64,84.9c0,.41,.34,.75,.75,.75h9.78c.41,0,.75-.34,.75-.75s-.34-.75-.75-.75h-9.78c-.41,0-.75,.34-.75,.75Z" style="fill:#1f3767;"/><path d="M454.5,88.7c0,.41,.34,.75,.75,.75h6.95c.41,0,.75-.34,.75-.75s-.34-.75-.75-.75h-6.95c-.41,0-.75,.34-.75,.75Z" style="fill:#1f3767;"/><path d="M478.95,64.52c0-.63,.51-1.14,1.14-1.14h2.22c1.42,0,2.57-1.15,2.57-2.57v-.75c0-.63,.51-1.14,1.14-1.14h7.03v-1.5h-7.03c-1.46,0-2.64,1.18-2.64,2.64v.75c0,.59-.48,1.07-1.07,1.07h-2.22c-1.46,0-2.64,1.18-2.64,2.64v2.43h1.5v-2.43Z" style="fill:#1f3767;"/><rect x="487.76" y="54.09" width="1.78" height="1.5" style="fill:#1f3767;"/><path d="M478.95,58.23c0-1.46,1.18-2.64,2.64-2.64h4.29v-1.5h-4.29c-2.28,0-4.14,1.86-4.14,4.14v1.01h1.5v-1.01Z" style="fill:#1f3767;"/><rect x="473.94" y="53.71" width="1.5" height="7.67" style="fill:#1f3767;"/><rect x="473.94" y="63.08" width="1.5" height="1.66" style="fill:#1f3767;"/><path d="M487.99,63.6c0,1.19-.97,2.15-2.15,2.15h-3.79v1.5h3.79c2.02,0,3.65-1.64,3.65-3.65,0-.67,.55-1.22,1.22-1.22h.76v-1.5h-.76c-1.5,0-2.72,1.22-2.72,2.72h0Z" style="fill:#1f3767;"/></g></svg>