<?xml version="1.0" encoding="UTF-8"?><svg id="uuid-3e015ee9-be93-4204-b32f-61bc6bb34e6d" preserveAspectRatio="xMidYMid slice" xmlns="http://www.w3.org/2000/svg" viewBox="0 0 1757.27 54.08"><g><path d="M1208.25,54.07h41.05c10.07-.29,8.61-.67,8.62-1.03,.13-8.74,.13-17.47,0-26.21,0-.36,1.45-.74-8.62-1.03h-41.05c-10.07,.29-8.61,.67-8.62,1.03-.13,8.74-.13,17.47,0,26.21,0,.36-1.45,.74,8.62,1.03h0Z" style="fill:#9dc9e2;"/><path d="M580.76,25.8h-35.19c-9.9,.26-8.8,.6-8.8,.94,0,8.8,0,17.59,0,26.39,0,.34-1.1,.68,8.8,.94h35.19c10.07-.29,8.61-.67,8.62-1.03,.34-8.77,.11-17.53,.17-26.3,0-.34,1.1-.68-8.8-.94h0Z" style="fill:#1f3f73;"/><path d="M1730.19,25.8h-35.19c-10.07,.29-8.61,.67-8.62,1.03-.13,8.74-.13,17.47,0,26.21,0,.36-1.45,.74,8.62,1.03h35.19c9.9-.26,8.8-.6,8.8-.94,0-8.8,0-17.59,0-26.39,0-.34,1.1-.68-8.8-.94h0Z" style="fill:#e23730;"/><path d="M610.08,54.07h29.32c16.76-.84,8.27-1.75,6.5-2.62-.95-.47-3.64-.94-3.64-1.42-.03-7.65,.05-15.3-.16-22.94-.01-.44,3.6-.91-8.56-1.28h-23.46c-12.14,.38-8.55,.84-8.56,1.28-.22,8.08-.13,16.16-.17,24.24,.07,.63-.05,1.26,.13,1.9,.09,.31,.31,.61,8.6,.85h0Z" style="fill:#233569;"/><path d="M17.77,54.07h23.46c10.07-.29,8.61-.67,8.62-1.03,.13-8.74,.13-17.47,0-26.21,0-.36,1.45-.74-8.62-1.03H17.77c-10.07,.29-8.61,.67-8.62,1.03-.13,8.74-.13,17.47,0,26.21,0,.36-1.45,.74,8.62,1.03h0Z" style="fill:#4392c4;"/><path d="M217.16,25.8h-17.59c-10.07,.29-8.61,.67-8.62,1.03-.13,8.74-.13,17.47,0,26.21,0,.36-1.45,.74,8.62,1.03h17.59c10.07-.29,8.61-.67,8.62-1.03,.13-8.74,.13-17.47,0-26.21,0-.36,1.45-.74-8.62-1.03Z" style="fill:#4593cd;"/><path d="M545.57,54.07c-.39-.92-1.1-1.84-1.1-2.77-.08-8.17-.05-16.33,.02-24.5,0-.33,.71-.67,1.09-1h-17.59c-10.07,.29-8.61,.67-8.62,1.03-.13,8.74-.13,17.47,0,26.21,0,.36-1.45,.74,8.62,1.03h17.59Z" style="fill:#70acde;"/><path d="M1501.48,54.07h17.59c10.07-.29,8.61-.67,8.62-1.03,.13-8.74,.13-17.47,0-26.21,0-.36,1.45-.74-8.62-1.03h-17.59c-10.07,.29-8.61,.67-8.62,1.03-.13,8.74-.13,17.47,0,26.21,0,.36-1.45,.74,8.62,1.03Z" style="fill:#f8decc;"/><path d="M1653.95,25.8h-17.59c-10.07,.29-8.61,.67-8.62,1.03-.13,8.74-.13,17.47,0,26.21,0,.36-1.45,.74,8.62,1.03h17.59c10.07-.29,8.61-.67,8.62-1.03,.13-8.74,.13-17.47,0-26.21,0-.36,1.45-.74-8.62-1.03Z" style="fill:#e6392c;"/><path d="M1730.19,25.8c-.41,.36-1.18,.73-1.18,1.09-.07,8.7-.07,17.39,0,26.09,0,.36,.77,.73,1.18,1.09h17.59c8.17-.29,5.76-.64,5.76-.97,.13-8.77,.13-17.55,0-26.32,0-.33,2.41-.68-5.76-.97h-17.59Z" style="fill:#6a150e;"/><path d="M580.76,25.8v28.27h5.86c6.46-.87,.73-1.76,2.93-2.49,2.2,.73-3.52,1.61,2.93,2.49h5.86c8.16-.29,5.76-.64,5.76-.97,.13-8.77,.13-17.55,0-26.32,0-.33,2.4-.68-5.76-.97h-17.59Z" style="fill:#4594cc;"/><path d="M985.4,25.8h-23.46c-12.32,.43-9.2,.91-5.06,1.39,7.22,.32,8.12,.68,8.12,1.05-.05,3.75-.05,7.5-.02,11.25,0,.37-.3,.73-7.67,1.05-7.34,.88-3.83,1.76-2.59,2.64,.75,.11,2.14,.2,4.06,.29,7.57,.36,6.13,.76,6.15,1.15,.09,2.78-.06,5.55,.15,8.33,.03,.39-2.36,.79,8.6,1.11h11.73c10.07-.29,8.61-.67,8.62-1.03,.13-8.74,.13-17.47,0-26.21,0-.36,1.45-.74-8.62-1.03h0Z" style="fill:#c9d7ee;"/><path d="M1026.46,25.8h-11.73c-13.05,.41-7.09,.91-8.91,1.38-4.76,.58,.5,1.17,.43,1.75-.43,3.88-.2,7.77-.24,11.65,.05,.92,.04,1.84,0,2.75,.06,3.18-.11,6.36,.15,9.54,.03,.41-2.92,.85,8.58,1.19h11.73c10.07-.29,8.61-.67,8.62-1.03,.13-8.74,.13-17.47,0-26.21,0-.36,1.45-.74-8.62-1.03h0Z" style="fill:#c5ddef;"/><path d="M680.45,54.07h11.73c10.07-.29,8.61-.67,8.62-1.03,.13-8.74,.13-17.47,0-26.21,0-.36,1.45-.74-8.62-1.03h-11.73c-10.07,.29-8.61,.67-8.62,1.03-.13,8.74-.13,17.47,0,26.21,0,.36-1.45,.74,8.62,1.03Z" style="fill:#6aabd6;"/><path d="M199.57,54.07V25.8h-11.73c-10.07,.29-8.61,.67-8.62,1.03-.13,8.74-.13,17.47,0,26.21,0,.36-1.45,.74,8.62,1.03h11.73Z" style="fill:#408ec7;"/><path d="M692.18,25.8v28.27h11.73c10.07-.29,8.61-.67,8.62-1.03,.13-8.74,.13-17.47,0-26.21,0-.36,1.45-.74-8.62-1.03h-11.73Z" style="fill:#1e5c9f;"/><path d="M985.4,25.8v28.27h11.73c10.07-.29,8.61-.67,8.62-1.03,.14-8.18,.25-16.35-.22-24.53-.03-.59,.43-1.17,.23-1.76-.11-.34,.65-.68-8.62-.95h-11.73Z" style="fill:#f9e2d8;"/><path d="M252.35,25.8h-11.73c-10.07,.29-8.61,.67-8.62,1.03-.13,8.74-.13,17.47,0,26.21,0,.36-1.45,.74,8.62,1.03h11.73c10.07-.29,8.61-.67,8.62-1.03,.13-8.74,.13-17.47,0-26.21,0-.36,1.45-.74-8.62-1.03Z" style="fill:#2271b1;"/><path d="M1208.25,54.07V25.8h-11.73c-10.07,.29-8.61,.67-8.62,1.03-.13,8.74-.13,17.47,0,26.21,0,.36-1.45,.74,8.62,1.03h11.73Z" style="fill:#438bb2;"/><path d="M1249.3,25.8v28.27h11.73c10.07-.29,8.61-.67,8.62-1.03,.13-8.74,.13-17.47,0-26.21,0-.36,1.45-.74-8.62-1.03h-11.73Z" style="fill:#c8e1ed;"/><path d="M1612.9,25.8h-11.73c-10.07,.29-8.61,.67-8.62,1.03-.13,8.74-.13,17.47,0,26.21,0,.36-1.45,.74,8.62,1.03h11.73c10.07-.29,8.61-.67,8.62-1.03,.13-8.74,.13-17.47,0-26.21,0-.36,1.45-.74-8.62-1.03Z" style="fill:#e74030;"/><path d="M1653.95,25.8v28.27h11.73c10.07-.29,8.61-.67,8.62-1.03,.13-8.74,.13-17.47,0-26.21,0-.36,1.45-.74-8.62-1.03h-11.73Z" style="fill:#ec6a58;"/><path d="M1747.78,25.8v28.27c3.64-.06,10.04,.12,11.5-.09,1.15-.16,.23-.34,.23-.5,0-9.03,.07-18.06-.43-27.09-.01-.2,9.42-.67-11.3-.59h0Z" style="fill:#a41a1d;"/><path d="M633.54,25.8c2.56,9.42-5.91,18.85,5.86,28.27h5.86c10.07-.29,8.61-.67,8.62-1.03,.13-8.74,.13-17.47,0-26.21,0-.36,1.45-.74-8.62-1.03h-11.73Z" style="fill:#1f3766;"/><path d="M598.35,25.8v28.27h5.86c8.51-.89-2.78-1.81,5.93-2.69-.02-8.52-.04-17.05-.06-25.57h-11.73Z" style="fill:#194377;"/><path d="M1014.73,54.07c-.02-3.59-.05-7.18-.07-10.77-4.99-.9-4.35-1.79-.19-2.69-.8-4.3,3.16-8.59-1.95-12.89-.23-.19,1.26-.39,1.95-.58-7.42-.43,2.14-.91-5.61-1.34h-5.86c-5,.23-2.8,.49-2.81,.74-.12,8.93-.12,17.86,0,26.79,0,.25-2.19,.51,2.81,.74h11.73Z" style="fill:#a2c6e3;"/><path d="M99.87,25.8h-5.86c-10.07,.29-8.61,.67-8.62,1.03-.13,8.74-.13,17.47,0,26.21,0,.36-1.45,.74,8.62,1.03h5.86c10.07-.29,8.61-.67,8.62-1.03,.13-8.74,.13-17.47,0-26.21,0-.36,1.45-.74-8.62-1.03Z" style="fill:#4792cd;"/><path d="M99.87,25.8v28.27h5.86c10.07-.29,8.61-.67,8.62-1.03,.13-8.74,.13-17.47,0-26.21,0-.36,1.45-.74-8.62-1.03h-5.86Z" style="fill:#398dc5;"/><path d="M105.74,25.8v28.27h5.86c10.07-.29,8.61-.67,8.62-1.03,.13-8.74,.13-17.47,0-26.21,0-.36,1.45-.74-8.62-1.03h-5.86Z" style="fill:#1e75af;"/><path d="M111.6,25.8v28.27h5.86c10.07-.29,8.61-.67,8.62-1.03,.13-8.74,.13-17.47,0-26.21,0-.36,1.45-.74-8.62-1.03h-5.86Z" style="fill:#1969a7;"/><path d="M117.47,25.8v28.27h5.86c10.07-.29,8.61-.67,8.62-1.03,.13-8.74,.13-17.47,0-26.21,0-.36,1.45-.74-8.62-1.03h-5.86Z" style="fill:#144a91;"/><path d="M123.33,25.8v28.27h5.86c10.07-.29,8.61-.67,8.62-1.03,.13-8.74,.13-17.47,0-26.21,0-.36,1.45-.74-8.62-1.03h-5.86Z" style="fill:#1c3f7f;"/><path d="M129.19,25.8v28.27h5.86c10.07-.29,8.61-.67,8.62-1.03,.13-8.74,.13-17.47,0-26.21,0-.36,1.45-.74-8.62-1.03h-5.86Z" style="fill:#223464;"/><path d="M135.06,25.8v28.27h5.86c10.07-.29,8.61-.67,8.62-1.03,.13-8.74,.13-17.47,0-26.21,0-.36,1.45-.74-8.62-1.03h-5.86Z" style="fill:#3e7fb9;"/><path d="M140.92,25.8v28.27h5.86c10.07-.29,8.61-.67,8.62-1.03,.13-8.74,.13-17.47,0-26.21,0-.36,1.45-.74-8.62-1.03h-5.86Z" style="fill:#5097ca;"/><path d="M146.79,25.8v28.27h5.86c10.07-.29,8.61-.67,8.62-1.03,.13-8.74,.13-17.47,0-26.21,0-.36,1.45-.74-8.62-1.03h-5.86Z" style="fill:#1d2f53;"/><path d="M152.65,25.8v28.27h5.86c10.07-.29,8.61-.67,8.62-1.03,.13-8.74,.13-17.47,0-26.21,0-.36,1.45-.74-8.62-1.03h-5.86Z" style="fill:#044574;"/><path d="M158.52,25.8v28.27h5.86c10.07-.29,8.61-.67,8.62-1.03,.13-8.74,.13-17.47,0-26.21,0-.36,1.45-.74-8.62-1.03h-5.86Z" style="fill:#5197c7;"/><path d="M164.38,25.8v28.27h5.86c10.07-.29,8.61-.67,8.62-1.03,.13-8.74,.13-17.47,0-26.21,0-.36,1.45-.74-8.62-1.03h-5.86Z" style="fill:#3c8fc0;"/><path d="M170.25,25.8v28.27h5.86c8.16-.29,5.76-.64,5.76-.97,.13-8.77,.13-17.55,0-26.32,0-.33,2.4-.68-5.76-.97h-5.86Z" style="fill:#3b90c6;"/><path d="M176.11,25.8v28.27h5.86c5-.23,2.8-.49,2.81-.74,.12-8.93,.12-17.86,0-26.79,0-.25,2.19-.51-2.81-.74h-5.86Z" style="fill:#307dbb;"/><path d="M181.97,25.8v28.27h5.86V25.8h-5.86Z" style="fill:#2970af;"/><path d="M217.16,25.8v28.27h5.86c10.07-.29,8.61-.67,8.62-1.03,.13-8.74,.13-17.47,0-26.21,0-.36,1.45-.74-8.62-1.03h-5.86Z" style="fill:#3f8ec6;"/><path d="M223.03,25.8v28.27h5.86c8.17-.29,5.76-.64,5.76-.97,.13-8.77,.13-17.55,0-26.32,0-.33,2.41-.68-5.76-.97h-5.86Z" style="fill:#2071a9;"/><path d="M228.89,25.8v28.27h5.86c5-.23,2.8-.49,2.81-.74,.12-8.93,.12-17.86,0-26.79,0-.25,2.19-.51-2.81-.74h-5.86Z" style="fill:#3c8ac3;"/><path d="M234.75,25.8v28.27h5.86V25.8h-5.86Z" style="fill:#4692cf;"/><path d="M252.35,25.8v28.27h5.86c10.07-.29,8.61-.67,8.62-1.03,.13-8.74,.13-17.47,0-26.21,0-.36,1.45-.74-8.62-1.03h-5.86Z" style="fill:#2672b8;"/><path d="M258.21,25.8v28.27h5.86c10.07-.29,8.61-.67,8.62-1.03,.13-8.74,.13-17.47,0-26.21,0-.36,1.45-.74-8.62-1.03h-5.86Z" style="fill:#1f6bb2;"/><path d="M264.08,25.8v28.27h5.86c10.07-.29,8.61-.67,8.62-1.03,.13-8.74,.13-17.47,0-26.21,0-.36,1.45-.74-8.62-1.03h-5.86Z" style="fill:#06529b;"/><path d="M269.94,25.8v28.27h5.86c10.07-.29,8.61-.67,8.62-1.03,.13-8.74,.13-17.47,0-26.21,0-.36,1.45-.74-8.62-1.03h-5.86Z" style="fill:#09539f;"/><path d="M275.81,25.8v28.27h5.86c10.07-.29,8.61-.67,8.62-1.03,.13-8.74,.13-17.47,0-26.21,0-.36,1.45-.74-8.62-1.03h-5.86Z" style="fill:#054884;"/><path d="M281.67,25.8v28.27h5.86c10.07-.29,8.61-.67,8.62-1.03,.13-8.74,.13-17.47,0-26.21,0-.36,1.45-.74-8.62-1.03h-5.86Z" style="fill:#86bddb;"/><path d="M287.53,25.8v28.27h5.86c10.07-.29,8.61-.67,8.62-1.03,.13-8.74,.13-17.47,0-26.21,0-.36,1.45-.74-8.62-1.03h-5.86Z" style="fill:#a3c7d9;"/><path d="M293.4,25.8v28.27h5.86c10.07-.29,8.61-.67,8.62-1.03,.13-8.74,.13-17.47,0-26.21,0-.36,1.45-.74-8.62-1.03h-5.86Z" style="fill:#d0dcf2;"/><path d="M299.26,25.8v28.27h5.86c10.07-.29,8.61-.67,8.62-1.03,.13-8.74,.13-17.47,0-26.21,0-.36,1.45-.74-8.62-1.03h-5.86Z" style="fill:#b2cdec;"/><path d="M305.13,25.8v28.27h5.86c10.07-.29,8.61-.67,8.62-1.03,.13-8.74,.13-17.47,0-26.21,0-.36,1.45-.74-8.62-1.03h-5.86Z" style="fill:#3e84b6;"/><path d="M310.99,25.8v28.27h5.86c10.07-.29,8.61-.67,8.62-1.03,.13-8.74,.13-17.47,0-26.21,0-.36,1.45-.74-8.62-1.03h-5.86Z" style="fill:#3990c5;"/><path d="M316.86,25.8v28.27h5.86c10.07-.29,8.61-.67,8.62-1.03,.13-8.74,.13-17.47,0-26.21,0-.36,1.45-.74-8.62-1.03h-5.86Z" style="fill:#438fc0;"/><path d="M322.72,25.8v28.27h5.86c10.07-.29,8.61-.67,8.62-1.03,.13-8.74,.13-17.47,0-26.21,0-.36,1.45-.74-8.62-1.03h-5.86Z" style="fill:#62aad8;"/><path d="M328.59,25.8v28.27h5.86c10.07-.29,8.61-.67,8.62-1.03,.13-8.74,.13-17.47,0-26.21,0-.36,1.45-.74-8.62-1.03h-5.86Z" style="fill:#6cb1dd;"/><path d="M334.45,25.8v28.27h5.86c10.07-.29,8.61-.67,8.62-1.03,.13-8.74,.13-17.47,0-26.21,0-.36,1.45-.74-8.62-1.03h-5.86Z" style="fill:#4f94c3;"/><path d="M340.31,25.8v28.27h5.86c10.07-.29,8.61-.67,8.62-1.03,.13-8.74,.13-17.47,0-26.21,0-.36,1.45-.74-8.62-1.03h-5.86Z" style="fill:#458ac6;"/><path d="M346.18,25.8v28.27h5.86c10.07-.29,8.61-.67,8.62-1.03,.13-8.74,.13-17.47,0-26.21,0-.36,1.45-.74-8.62-1.03h-5.86Z" style="fill:#4590ca;"/><path d="M352.04,25.8v28.27h5.86c10.07-.29,8.61-.67,8.62-1.03,.13-8.74,.13-17.47,0-26.21,0-.36,1.45-.74-8.62-1.03h-5.86Z" style="fill:#3384b6;"/><path d="M357.91,25.8v28.27h5.86c10.07-.29,8.61-.67,8.62-1.03,.13-8.74,.13-17.47,0-26.21,0-.36,1.45-.74-8.62-1.03h-5.86Z" style="fill:#02548b;"/><path d="M363.77,25.8v28.27h5.86c10.07-.29,8.61-.67,8.62-1.03,.13-8.74,.13-17.47,0-26.21,0-.36,1.45-.74-8.62-1.03h-5.86Z" style="fill:#0d509b;"/><path d="M369.64,25.8v28.27h5.86c10.07-.29,8.61-.67,8.62-1.03,.13-8.74,.13-17.47,0-26.21,0-.36,1.45-.74-8.62-1.03h-5.86Z" style="fill:#084d9c;"/><path d="M375.5,25.8v28.27h5.86c10.07-.29,8.61-.67,8.62-1.03,.13-8.74,.13-17.47,0-26.21,0-.36,1.45-.74-8.62-1.03h-5.86Z" style="fill:#1e69ae;"/><path d="M381.37,25.8v28.27h5.86c10.07-.29,8.61-.67,8.62-1.03,.13-8.74,.13-17.47,0-26.21,0-.36,1.45-.74-8.62-1.03h-5.86Z" style="fill:#2274b5;"/><path d="M387.23,25.8v28.27h5.86c10.07-.29,8.61-.67,8.62-1.03,.13-8.74,.13-17.47,0-26.21,0-.36,1.45-.74-8.62-1.03h-5.86Z" style="fill:#0c55a2;"/><path d="M393.09,25.8v28.27h5.86c10.07-.29,8.61-.67,8.62-1.03,.13-8.74,.13-17.47,0-26.21,0-.36,1.45-.74-8.62-1.03h-5.86Z" style="fill:#06539c;"/><path d="M398.96,25.8v28.27h5.86c10.07-.29,8.61-.67,8.62-1.03,.13-8.74,.13-17.47,0-26.21,0-.36,1.45-.74-8.62-1.03h-5.86Z" style="fill:#2372af;"/><path d="M404.82,25.8v28.27h5.86c10.07-.29,8.61-.67,8.62-1.03,.13-8.74,.13-17.47,0-26.21,0-.36,1.45-.74-8.62-1.03h-5.86Z" style="fill:#4086bc;"/><path d="M410.69,25.8v28.27h5.86c10.07-.29,8.61-.67,8.62-1.03,.13-8.74,.13-17.47,0-26.21,0-.36,1.45-.74-8.62-1.03h-5.86Z" style="fill:#73aadc;"/><path d="M416.55,25.8v28.27h5.86c10.07-.29,8.61-.67,8.62-1.03,.13-8.74,.13-17.47,0-26.21,0-.36,1.45-.74-8.62-1.03h-5.86Z" style="fill:#427eba;"/><path d="M422.42,25.8v28.27h5.86c10.07-.29,8.61-.67,8.62-1.03,.13-8.74,.13-17.47,0-26.21,0-.36,1.45-.74-8.62-1.03h-5.86Z" style="fill:#034e97;"/><path d="M428.28,25.8v28.27h5.86c10.07-.29,8.61-.67,8.62-1.03,.13-8.74,.13-17.47,0-26.21,0-.36,1.45-.74-8.62-1.03h-5.86Z" style="fill:#1d6bb2;"/><path d="M434.15,25.8v28.27h5.86c10.07-.29,8.61-.67,8.62-1.03,.13-8.74,.13-17.47,0-26.21,0-.36,1.45-.74-8.62-1.03h-5.86Z" style="fill:#1e76bb;"/><path d="M440.01,25.8v28.27h5.86c10.07-.29,8.61-.67,8.62-1.03,.13-8.74,.13-17.47,0-26.21,0-.36,1.45-.74-8.62-1.03h-5.86Z" style="fill:#055596;"/><path d="M445.87,25.8v28.27h5.86c10.07-.29,8.61-.67,8.62-1.03,.13-8.74,.13-17.47,0-26.21,0-.36,1.45-.74-8.62-1.03h-5.86Z" style="fill:#124682;"/><path d="M451.74,25.8v28.27h5.86c10.07-.29,8.61-.67,8.62-1.03,.13-8.74,.13-17.47,0-26.21,0-.36,1.45-.74-8.62-1.03h-5.86Z" style="fill:#1f3767;"/><path d="M457.6,25.8v28.27h5.86c10.07-.29,8.61-.67,8.62-1.03,.13-8.74,.13-17.47,0-26.21,0-.36,1.45-.74-8.62-1.03h-5.86Z" style="fill:#15427c;"/><path d="M463.47,25.8v28.27h5.86c10.07-.29,8.61-.67,8.62-1.03,.13-8.74,.13-17.47,0-26.21,0-.36,1.45-.74-8.62-1.03h-5.86Z" style="fill:#0a5297;"/><path d="M469.33,25.8v28.27h5.86c10.07-.29,8.61-.67,8.62-1.03,.13-8.74,.13-17.47,0-26.21,0-.36,1.45-.74-8.62-1.03h-5.86Z" style="fill:#1853a0;"/><path d="M475.2,25.8v28.27h5.86c10.07-.29,8.61-.67,8.62-1.03,.13-8.74,.13-17.47,0-26.21,0-.36,1.45-.74-8.62-1.03h-5.86Z" style="fill:#004992;"/><path d="M481.06,25.8v28.27h5.86c10.07-.29,8.61-.67,8.62-1.03,.13-8.74,.13-17.47,0-26.21,0-.36,1.45-.74-8.62-1.03h-5.86Z" style="fill:#64aad6;"/><path d="M486.93,25.8v28.27h5.86c10.07-.29,8.61-.67,8.62-1.03,.13-8.74,.13-17.47,0-26.21,0-.36,1.45-.74-8.62-1.03h-5.86Z" style="fill:#70b2cf;"/><path d="M492.79,25.8v28.27h5.86c10.07-.29,8.61-.67,8.62-1.03,.13-8.74,.13-17.47,0-26.21,0-.36,1.45-.74-8.62-1.03h-5.86Z" style="fill:#6eaad2;"/><path d="M498.65,25.8v28.27h5.86c10.07-.29,8.61-.67,8.62-1.03,.13-8.74,.13-17.47,0-26.21,0-.36,1.45-.74-8.62-1.03h-5.86Z" style="fill:#579acc;"/><path d="M504.52,25.8v28.27h5.86c10.07-.29,8.61-.67,8.62-1.03,.13-8.74,.13-17.47,0-26.21,0-.36,1.45-.74-8.62-1.03h-5.86Z" style="fill:#004c8d;"/><path d="M510.38,25.8v28.27h5.86c8.16-.29,5.76-.64,5.76-.97,.13-8.77,.13-17.55,0-26.32,0-.33,2.4-.68-5.76-.97h-5.86Z" style="fill:#2579bd;"/><path d="M516.25,25.8v28.27h5.86c5-.23,2.8-.49,2.81-.74,.12-8.93,.12-17.86,0-26.79,0-.25,2.19-.51-2.81-.74h-5.86Z" style="fill:#448ecb;"/><path d="M522.11,25.8v28.27h5.86V25.8h-5.86Z" style="fill:#64a4da;"/><path d="M645.27,25.8v28.27h5.86c10.07-.29,8.61-.67,8.62-1.03,.13-8.74,.13-17.47,0-26.21,0-.36,1.45-.74-8.62-1.03h-5.86Z" style="fill:#1a3f75;"/><path d="M651.13,25.8v28.27h5.86c10.07-.29,8.61-.67,8.62-1.03,.13-8.74,.13-17.47,0-26.21,0-.36,1.45-.74-8.62-1.03h-5.86Z" style="fill:#0d5295;"/><path d="M656.99,25.8v28.27h5.86c10.07-.29,8.61-.67,8.62-1.03,.13-8.74,.13-17.47,0-26.21,0-.36,1.45-.74-8.62-1.03h-5.86Z" style="fill:#0b54a0;"/><path d="M662.86,25.8v28.27h5.86c8.16-.29,5.76-.64,5.76-.97,.13-8.77,.13-17.55,0-26.32,0-.33,2.4-.68-5.76-.97h-5.86Z" style="fill:#004c93;"/><path d="M668.72,25.8v28.27h5.86c5-.23,2.8-.49,2.81-.74,.12-8.93,.12-17.86,0-26.79,0-.25,2.19-.51-2.81-.74h-5.86Z" style="fill:#3a85c0;"/><path d="M674.59,25.8v28.27h5.86V25.8h-5.86Z" style="fill:#4991bf;"/><path d="M703.91,25.8v28.27h5.86c10.07-.29,8.61-.67,8.62-1.03,.13-8.74,.13-17.47,0-26.21,0-.36,1.45-.74-8.62-1.03h-5.86Z" style="fill:#1a3760;"/><path d="M709.77,25.8v28.27h5.86c10.07-.29,8.61-.67,8.62-1.03,.13-8.74,.13-17.47,0-26.21,0-.36,1.45-.74-8.62-1.03h-5.86Z" style="fill:#15628e;"/><path d="M715.64,25.8v28.27h5.86c10.07-.29,8.61-.67,8.62-1.03,.13-8.74,.13-17.47,0-26.21,0-.36,1.45-.74-8.62-1.03h-5.86Z" style="fill:#216eb1;"/><path d="M721.5,25.8v28.27h5.86c10.07-.29,8.61-.67,8.62-1.03,.13-8.74,.13-17.47,0-26.21,0-.36,1.45-.74-8.62-1.03h-5.86Z" style="fill:#4487c7;"/><path d="M727.37,25.8v28.27h5.86c10.07-.29,8.61-.67,8.62-1.03,.13-8.74,.13-17.47,0-26.21,0-.36,1.45-.74-8.62-1.03h-5.86Z" style="fill:#478ecb;"/><path d="M733.23,25.8v28.27h5.86c10.07-.29,8.61-.67,8.62-1.03,.13-8.74,.13-17.47,0-26.21,0-.36,1.45-.74-8.62-1.03h-5.86Z" style="fill:#448fc6;"/><path d="M739.1,25.8v28.27h5.86c10.07-.29,8.61-.67,8.62-1.03,.13-8.74,.13-17.47,0-26.21,0-.36,1.45-.74-8.62-1.03h-5.86Z" style="fill:#4e98c0;"/><path d="M744.96,25.8v28.27h5.86c10.07-.29,8.61-.67,8.62-1.03,.13-8.74,.13-17.47,0-26.21,0-.36,1.45-.74-8.62-1.03h-5.86Z" style="fill:#69b3d8;"/><path d="M750.83,25.8v28.27h5.86c10.07-.29,8.61-.67,8.62-1.03,.13-8.74,.13-17.47,0-26.21,0-.36,1.45-.74-8.62-1.03h-5.86Z" style="fill:#4b92c6;"/><path d="M756.69,25.8v28.27h5.86c10.07-.29,8.61-.67,8.62-1.03,.13-8.74,.13-17.47,0-26.21,0-.36,1.45-.74-8.62-1.03h-5.86Z" style="fill:#206ea9;"/><path d="M762.55,25.8v28.27h5.86c10.07-.29,8.61-.67,8.62-1.03,.13-8.74,.13-17.47,0-26.21,0-.36,1.45-.74-8.62-1.03h-5.86Z" style="fill:#3b8ac9;"/><path d="M768.42,25.8v28.27h5.86c10.07-.29,8.61-.67,8.62-1.03,.13-8.74,.13-17.47,0-26.21,0-.36,1.45-.74-8.62-1.03h-5.86Z" style="fill:#3e8ec9;"/><path d="M774.28,25.8v28.27h5.86c10.07-.29,8.61-.67,8.62-1.03,.13-8.74,.13-17.47,0-26.21,0-.36,1.45-.74-8.62-1.03h-5.86Z" style="fill:#488fc1;"/><path d="M780.15,25.8v28.27h5.86c10.07-.29,8.61-.67,8.62-1.03,.13-8.74,.13-17.47,0-26.21,0-.36,1.45-.74-8.62-1.03h-5.86Z" style="fill:#468bb9;"/><path d="M786.01,25.8v28.27h5.86c10.07-.29,8.61-.67,8.62-1.03,.13-8.74,.13-17.47,0-26.21,0-.36,1.45-.74-8.62-1.03h-5.86Z" style="fill:#4591c2;"/><path d="M791.88,25.8v28.27h5.86c10.07-.29,8.61-.67,8.62-1.03,.13-8.74,.13-17.47,0-26.21,0-.36,1.45-.74-8.62-1.03h-5.86Z" style="fill:#59a0ce;"/><path d="M797.74,25.8v28.27h5.86c10.07-.29,8.61-.67,8.62-1.03,.13-8.74,.13-17.47,0-26.21,0-.36,1.45-.74-8.62-1.03h-5.86Z" style="fill:#99d0ef;"/><path d="M803.61,25.8v28.27h5.86c10.07-.29,8.61-.67,8.62-1.03,.13-8.74,.13-17.47,0-26.21,0-.36,1.45-.74-8.62-1.03h-5.86Z" style="fill:#88beda;"/><path d="M809.47,25.8v28.27h5.86c10.07-.29,8.61-.67,8.62-1.03,.13-8.74,.13-17.47,0-26.21,0-.36,1.45-.74-8.62-1.03h-5.86Z" style="fill:#71afd5;"/><path d="M815.33,25.8v28.27h5.86c10.07-.29,8.61-.67,8.62-1.03,.13-8.74,.13-17.47,0-26.21,0-.36,1.45-.74-8.62-1.03h-5.86Z" style="fill:#6baed8;"/><path d="M821.2,25.8v28.27h5.86c10.07-.29,8.61-.67,8.62-1.03,.13-8.74,.13-17.47,0-26.21,0-.36,1.45-.74-8.62-1.03h-5.86Z" style="fill:#71b1db;"/><path d="M827.06,25.8v28.27h5.86c10.07-.29,8.61-.67,8.62-1.03,.13-8.74,.13-17.47,0-26.21,0-.36,1.45-.74-8.62-1.03h-5.86Z" style="fill:#2f75a1;"/><path d="M832.93,25.8v28.27h5.86c10.07-.29,8.61-.67,8.62-1.03,.13-8.74,.13-17.47,0-26.21,0-.36,1.45-.74-8.62-1.03h-5.86Z" style="fill:#2177ae;"/><path d="M838.79,25.8v28.27h5.86c10.07-.29,8.61-.67,8.62-1.03,.13-8.74,.13-17.47,0-26.21,0-.36,1.45-.74-8.62-1.03h-5.86Z" style="fill:#6eb3e3;"/><path d="M844.66,25.8v28.27h5.86c10.07-.29,8.61-.67,8.62-1.03,.13-8.74,.13-17.47,0-26.21,0-.36,1.45-.74-8.62-1.03h-5.86Z" style="fill:#84b5e1;"/><path d="M850.52,25.8v28.27h5.86c10.07-.29,8.61-.67,8.62-1.03,.13-8.74,.13-17.47,0-26.21,0-.36,1.45-.74-8.62-1.03h-5.86Z" style="fill:#9ccaec;"/><path d="M856.39,25.8v28.27h5.86c10.07-.29,8.61-.67,8.62-1.03,.13-8.74,.13-17.47,0-26.21,0-.36,1.45-.74-8.62-1.03h-5.86Z" style="fill:#81bdd7;"/><path d="M862.25,25.8v28.27h5.86c10.07-.29,8.61-.67,8.62-1.03,.13-8.74,.13-17.47,0-26.21,0-.36,1.45-.74-8.62-1.03h-5.86Z" style="fill:#67b0cd;"/><path d="M868.12,25.8v28.27h5.86c10.07-.29,8.61-.67,8.62-1.03,.13-8.74,.13-17.47,0-26.21,0-.36,1.45-.74-8.62-1.03h-5.86Z" style="fill:#4b99ca;"/><path d="M873.98,25.8v28.27h5.86c10.07-.29,8.61-.67,8.62-1.03,.13-8.74,.13-17.47,0-26.21,0-.36,1.45-.74-8.62-1.03h-5.86Z" style="fill:#448fc6;"/><path d="M879.84,25.8v28.27h5.86c10.07-.29,8.61-.67,8.62-1.03,.13-8.74,.13-17.47,0-26.21,0-.36,1.45-.74-8.62-1.03h-5.86Z" style="fill:#6eaadd;"/><path d="M885.71,25.8v28.27h5.86c10.07-.29,8.61-.67,8.62-1.03,.13-8.74,.13-17.47,0-26.21,0-.36,1.45-.74-8.62-1.03h-5.86Z" style="fill:#74aed9;"/><path d="M891.57,25.8v28.27h5.86c10.07-.29,8.61-.67,8.62-1.03,.13-8.74,.13-17.47,0-26.21,0-.36,1.45-.74-8.62-1.03h-5.86Z" style="fill:#6bafce;"/><path d="M897.44,25.8v28.27h5.86c10.07-.29,8.61-.67,8.62-1.03,.13-8.74,.13-17.47,0-26.21,0-.36,1.45-.74-8.62-1.03h-5.86Z" style="fill:#6ab0ca;"/><path d="M903.3,25.8v28.27h5.86c10.07-.29,8.61-.67,8.62-1.03,.13-8.74,.13-17.47,0-26.21,0-.36,1.45-.74-8.62-1.03h-5.86Z" style="fill:#6eabcc;"/><path d="M909.17,25.8v28.27h5.86c10.07-.29,8.61-.67,8.62-1.03,.13-8.74,.13-17.47,0-26.21,0-.36,1.45-.74-8.62-1.03h-5.86Z" style="fill:#a1ceeb;"/><path d="M915.03,25.8v28.27h5.86c10.07-.29,8.61-.67,8.62-1.03,.13-8.74,.13-17.47,0-26.21,0-.36,1.45-.74-8.62-1.03h-5.86Z" style="fill:#cfdaf0;"/><path d="M920.9,25.8v28.27h5.86c10.07-.29,8.61-.67,8.62-1.03,.13-8.74,.13-17.47,0-26.21,0-.36,1.45-.74-8.62-1.03h-5.86Z" style="fill:#ced7e9;"/><path d="M926.76,25.8v28.27h5.86c10.07-.29,8.61-.67,8.62-1.03,.13-8.74,.13-17.47,0-26.21,0-.36,1.45-.74-8.62-1.03h-5.86Z" style="fill:#c0dff3;"/><path d="M932.62,25.8v28.27h5.86c10.07-.29,8.61-.67,8.62-1.03,.13-8.74,.13-17.47,0-26.21,0-.36,1.45-.74-8.62-1.03h-5.86Z" style="fill:#9bc4d4;"/><path d="M938.49,25.8v28.27h5.86c10.07-.29,8.61-.67,8.62-1.03,.13-8.74,.13-17.47,0-26.21,0-.36,1.45-.74-8.62-1.03h-5.86Z" style="fill:#aed1df;"/><path d="M944.35,25.8v28.27h5.86c5.69-.17,8.33-.38,8.3-.61-.42-3.37,2.86-6.74-1.65-10.11-1.11-.92-1.61-1.85,.3-2.77,3.89-1.74,1.63-3.47,1.56-5.21-.1-2.72,2-5.43-1.22-8.15-4.43-.46,3.6-.98-7.29-1.42h-5.86Z" style="fill:#c0dcea;"/><path d="M1003,54.07V25.8h-5.86v28.27h5.86Z" style="fill:#dddfd9;"/><path d="M6.04,25.8c-9.36-.06-5.74,.15-5.74,.25-.14,9.25-.14,18.51,0,27.76,0,.1-3.62,.31,5.74,.25,8.16-.29,5.76-.64,5.76-.97,.13-8.77,.13-17.55,0-26.32,0-.33,2.4-.68-5.76-.97h0Z" style="fill:#2172b6;"/><path d="M6.04,25.8v28.27h5.86c5-.23,2.8-.49,2.81-.74,.12-8.93,.12-17.86,0-26.79,0-.25,2.19-.51-2.81-.74H6.04Z" style="fill:#2476b7;"/><path d="M1026.46,25.8v28.27h5.86c10.07-.29,8.61-.67,8.62-1.03,.13-8.74,.13-17.47,0-26.21,0-.36,1.45-.74-8.62-1.03h-5.86Z" style="fill:#c8dae6;"/><path d="M1032.32,25.8v28.27h5.86c10.07-.29,8.61-.67,8.62-1.03,.13-8.74,.13-17.47,0-26.21,0-.36,1.45-.74-8.62-1.03h-5.86Z" style="fill:#c4d8e8;"/><path d="M1038.18,25.8v28.27h5.86c10.07-.29,8.61-.67,8.62-1.03,.13-8.74,.13-17.47,0-26.21,0-.36,1.45-.74-8.62-1.03h-5.86Z" style="fill:#a3c5de;"/><path d="M1044.05,25.8v28.27h5.86c10.07-.29,8.61-.67,8.62-1.03,.13-8.74,.13-17.47,0-26.21,0-.36,1.45-.74-8.62-1.03h-5.86Z" style="fill:#86c5e6;"/><path d="M1049.91,25.8v28.27h5.86c10.07-.29,8.61-.67,8.62-1.03,.13-8.74,.13-17.47,0-26.21,0-.36,1.45-.74-8.62-1.03h-5.86Z" style="fill:#64accc;"/><path d="M1055.78,25.8v28.27h5.86c10.07-.29,8.61-.67,8.62-1.03,.13-8.74,.13-17.47,0-26.21,0-.36,1.45-.74-8.62-1.03h-5.86Z" style="fill:#89c6da;"/><path d="M1061.64,25.8v28.27h5.86c10.07-.29,8.61-.67,8.62-1.03,.13-8.74,.13-17.47,0-26.21,0-.36,1.45-.74-8.62-1.03h-5.86Z" style="fill:#9ac9dd;"/><path d="M1067.51,25.8v28.27h5.86c10.07-.29,8.61-.67,8.62-1.03,.13-8.74,.13-17.47,0-26.21,0-.36,1.45-.74-8.62-1.03h-5.86Z" style="fill:#c1def5;"/><path d="M1073.37,25.8v28.27h5.86c10.07-.29,8.61-.67,8.62-1.03,.13-8.74,.13-17.47,0-26.21,0-.36,1.45-.74-8.62-1.03h-5.86Z" style="fill:#cad9f0;"/><path d="M1079.24,25.8v28.27h5.86c10.07-.29,8.61-.67,8.62-1.03,.13-8.74,.13-17.47,0-26.21,0-.36,1.45-.74-8.62-1.03h-5.86Z" style="fill:#e7eaf6;"/><path d="M1085.1,25.8v28.27h5.86c10.07-.29,8.61-.67,8.62-1.03,.13-8.74,.13-17.47,0-26.21,0-.36,1.45-.74-8.62-1.03h-5.86Z" style="fill:#c4d6ea;"/><path d="M1090.96,25.8v28.27h5.86c10.07-.29,8.61-.67,8.62-1.03,.13-8.74,.13-17.47,0-26.21,0-.36,1.45-.74-8.62-1.03h-5.86Z" style="fill:#70add2;"/><path d="M1096.83,25.8v28.27h5.86c10.07-.29,8.61-.67,8.62-1.03,.13-8.74,.13-17.47,0-26.21,0-.36,1.45-.74-8.62-1.03h-5.86Z" style="fill:#64b4df;"/><path d="M1102.69,25.8v28.27h5.86c10.07-.29,8.61-.67,8.62-1.03,.13-8.74,.13-17.47,0-26.21,0-.36,1.45-.74-8.62-1.03h-5.86Z" style="fill:#64abd5;"/><path d="M1108.56,25.8v28.27h5.86c10.07-.29,8.61-.67,8.62-1.03,.13-8.74,.13-17.47,0-26.21,0-.36,1.45-.74-8.62-1.03h-5.86Z" style="fill:#5a98bf;"/><path d="M1114.42,25.8v28.27h5.86c10.07-.29,8.61-.67,8.62-1.03,.13-8.74,.13-17.47,0-26.21,0-.36,1.45-.74-8.62-1.03h-5.86Z" style="fill:#5a84af;"/><path d="M1120.29,25.8v28.27h5.86c10.07-.29,8.61-.67,8.62-1.03,.13-8.74,.13-17.47,0-26.21,0-.36,1.45-.74-8.62-1.03h-5.86Z" style="fill:#bed9f2;"/><path d="M1126.15,25.8v28.27h5.86c10.07-.29,8.61-.67,8.62-1.03,.13-8.74,.13-17.47,0-26.21,0-.36,1.45-.74-8.62-1.03h-5.86Z" style="fill:#c9d8f0;"/><path d="M1132.02,25.8v28.27h5.86c10.07-.29,8.61-.67,8.62-1.03,.13-8.74,.13-17.47,0-26.21,0-.36,1.45-.74-8.62-1.03h-5.86Z" style="fill:#dbeaf9;"/><path d="M1137.88,25.8v28.27h5.86c10.07-.29,8.61-.67,8.62-1.03,.13-8.74,.13-17.47,0-26.21,0-.36,1.45-.74-8.62-1.03h-5.86Z" style="fill:#d4e6e4;"/><path d="M1143.74,25.8v28.27h5.86c10.07-.29,8.61-.67,8.62-1.03,.13-8.74,.13-17.47,0-26.21,0-.36,1.45-.74-8.62-1.03h-5.86Z" style="fill:#c4e1df;"/><path d="M1149.61,25.8v28.27h5.86c10.07-.29,8.61-.67,8.62-1.03,.13-8.74,.13-17.47,0-26.21,0-.36,1.45-.74-8.62-1.03h-5.86Z" style="fill:#abcfe7;"/><path d="M1155.47,25.8v28.27h5.86c10.07-.29,8.61-.67,8.62-1.03,.13-8.74,.13-17.47,0-26.21,0-.36,1.45-.74-8.62-1.03h-5.86Z" style="fill:#a1c8e7;"/><path d="M1161.34,25.8v28.27h5.86c10.07-.29,8.61-.67,8.62-1.03,.13-8.74,.13-17.47,0-26.21,0-.36,1.45-.74-8.62-1.03h-5.86Z" style="fill:#b9d8f1;"/><path d="M1167.2,25.8v28.27h5.86c10.07-.29,8.61-.67,8.62-1.03,.13-8.74,.13-17.47,0-26.21,0-.36,1.45-.74-8.62-1.03h-5.86Z" style="fill:#c4d9f0;"/><path d="M1173.07,25.8v28.27h5.86c10.07-.29,8.61-.67,8.62-1.03,.13-8.74,.13-17.47,0-26.21,0-.36,1.45-.74-8.62-1.03h-5.86Z" style="fill:#d3d3eb;"/><path d="M1178.93,25.8v28.27h5.86c8.16-.29,5.76-.64,5.76-.97,.13-8.77,.13-17.55,0-26.32,0-.33,2.4-.68-5.76-.97h-5.86Z" style="fill:#d3d9ef;"/><path d="M1184.8,25.8v28.27h5.86c5-.23,2.8-.49,2.81-.74,.12-8.93,.12-17.86,0-26.79,0-.25,2.19-.51-2.81-.74h-5.86Z" style="fill:#d6edf6;"/><path d="M1190.66,25.8v28.27h5.86V25.8h-5.86Z" style="fill:#8fc7d5;"/><path d="M11.91,25.8v28.27h5.86V25.8h-5.86Z" style="fill:#4694d0;"/><path d="M41.23,25.8v28.27h5.86c10.07-.29,8.61-.67,8.62-1.03,.13-8.74,.13-17.47,0-26.21,0-.36,1.45-.74-8.62-1.03,0,0-5.86,0-5.86,0Z" style="fill:#3f90c1;"/><path d="M47.09,25.8v28.27h5.86c10.07-.29,8.61-.67,8.62-1.03,.13-8.74,.13-17.47,0-26.21,0-.36,1.45-.74-8.62-1.03,0,0-5.86,0-5.86,0Z" style="fill:#3e91c8;"/><path d="M1261.03,25.8v28.27h5.86c10.07-.29,8.61-.67,8.62-1.03,.13-8.74,.13-17.47,0-26.21,0-.36,1.45-.74-8.62-1.03h-5.86Z" style="fill:#bbe1f4;"/><path d="M1266.9,25.8v28.27h5.86c10.07-.29,8.61-.67,8.62-1.03,.13-8.74,.13-17.47,0-26.21,0-.36,1.45-.74-8.62-1.03h-5.86Z" style="fill:#6aabd6;"/><path d="M1272.76,25.8v28.27h5.86c10.07-.29,8.61-.67,8.62-1.03,.13-8.74,.13-17.47,0-26.21,0-.36,1.45-.74-8.62-1.03h-5.86Z" style="fill:#73b4df;"/><path d="M1278.63,25.8v28.27h5.86c10.07-.29,8.61-.67,8.62-1.03,.13-8.74,.13-17.47,0-26.21,0-.36,1.45-.74-8.62-1.03h-5.86Z" style="fill:#a5cae4;"/><path d="M1284.49,25.8v28.27h5.86c10.07-.29,8.61-.67,8.62-1.03,.13-8.74,.13-17.47,0-26.21,0-.36,1.45-.74-8.62-1.03h-5.86Z" style="fill:#bad3e0;"/><path d="M1290.36,25.8v28.27h5.86c10.07-.29,8.61-.67,8.62-1.03,.13-8.74,.13-17.47,0-26.21,0-.36,1.45-.74-8.62-1.03h-5.86Z" style="fill:#daeffb;"/><path d="M1296.22,25.8v28.27h5.86c10.07-.29,8.61-.67,8.62-1.03,.13-8.74,.13-17.47,0-26.21,0-.36,1.45-.74-8.62-1.03h-5.86Z" style="fill:#98bdd7;"/><path d="M1302.08,25.8v28.27h5.86c10.07-.29,8.61-.67,8.62-1.03,.13-8.74,.13-17.47,0-26.21,0-.36,1.45-.74-8.62-1.03h-5.86Z" style="fill:#4b86b2;"/><path d="M1307.95,25.8v28.27h5.86c10.07-.29,8.61-.67,8.62-1.03,.13-8.74,.13-17.47,0-26.21,0-.36,1.45-.74-8.62-1.03h-5.86Z" style="fill:#61a8d9;"/><path d="M1313.81,25.8v28.27h5.86c10.07-.29,8.61-.67,8.62-1.03,.13-8.74,.13-17.47,0-26.21,0-.36,1.45-.74-8.62-1.03h-5.86Z" style="fill:#64b0d4;"/><path d="M1319.68,25.8v28.27h5.86c10.07-.29,8.61-.67,8.62-1.03,.13-8.74,.13-17.47,0-26.21,0-.36,1.45-.74-8.62-1.03h-5.86Z" style="fill:#528fb4;"/><path d="M1325.54,25.8v28.27h5.86c10.07-.29,8.61-.67,8.62-1.03,.13-8.74,.13-17.47,0-26.21,0-.36,1.45-.74-8.62-1.03h-5.86Z" style="fill:#7fa0ce;"/><path d="M1331.41,25.8v28.27h5.86c10.07-.29,8.61-.67,8.62-1.03,.13-8.74,.13-17.47,0-26.21,0-.36,1.45-.74-8.62-1.03h-5.86Z" style="fill:#daeef9;"/><path d="M1337.27,25.8v28.27h5.86c10.07-.29,8.61-.67,8.62-1.03,.13-8.74,.13-17.47,0-26.21,0-.36,1.45-.74-8.62-1.03h-5.86Z" style="fill:#b3dff6;"/><path d="M1343.14,25.8v28.27h5.86c10.07-.29,8.61-.67,8.62-1.03,.13-8.74,.13-17.47,0-26.21,0-.36,1.45-.74-8.62-1.03h-5.86Z" style="fill:#99c4cf;"/><path d="M1349,25.8v28.27h5.86c10.07-.29,8.61-.67,8.62-1.03,.13-8.74,.13-17.47,0-26.21,0-.36,1.45-.74-8.62-1.03h-5.86Z" style="fill:#c7e3e6;"/><path d="M1354.86,25.8v28.27h5.86c10.07-.29,8.61-.67,8.62-1.03,.13-8.74,.13-17.47,0-26.21,0-.36,1.45-.74-8.62-1.03h-5.86Z" style="fill:#dfeef5;"/><path d="M1360.73,25.8v28.27h5.86c10.07-.29,8.61-.67,8.62-1.03,.13-8.74,.13-17.47,0-26.21,0-.36,1.45-.74-8.62-1.03h-5.86Z" style="fill:#e5e6f4;"/><path d="M1366.59,25.8v28.27h5.86c10.07-.29,8.61-.67,8.62-1.03,.13-8.74,.13-17.47,0-26.21,0-.36,1.45-.74-8.62-1.03h-5.86Z" style="fill:#ebe5f3;"/><path d="M1372.46,25.8v28.27h5.86c10.07-.29,8.61-.67,8.62-1.03,.13-8.74,.13-17.47,0-26.21,0-.36,1.45-.74-8.62-1.03h-5.86Z" style="fill:#f4e6dc;"/><path d="M1378.32,25.8v28.27h5.86c10.07-.29,8.61-.67,8.62-1.03,.13-8.74,.13-17.47,0-26.21,0-.36,1.45-.74-8.62-1.03h-5.86Z" style="fill:#e7ded2;"/><path d="M1384.19,25.8v28.27h5.86c10.07-.29,8.61-.67,8.62-1.03,.13-8.74,.13-17.47,0-26.21,0-.36,1.45-.74-8.62-1.03h-5.86Z" style="fill:#d3dae0;"/><path d="M1390.05,25.8v28.27h5.86c10.07-.29,8.61-.67,8.62-1.03,.13-8.74,.13-17.47,0-26.21,0-.36,1.45-.74-8.62-1.03h-5.86Z" style="fill:#dbe2ec;"/><path d="M1395.92,25.8v28.27h5.86c10.07-.29,8.61-.67,8.62-1.03,.13-8.74,.13-17.47,0-26.21,0-.36,1.45-.74-8.62-1.03h-5.86Z" style="fill:#ede1e3;"/><path d="M1401.78,25.8v28.27h5.86c10.07-.29,8.61-.67,8.62-1.03,.13-8.74,.13-17.47,0-26.21,0-.36,1.45-.74-8.62-1.03h-5.86Z" style="fill:#e0d7d8;"/><path d="M1407.64,25.8v28.27h5.86c10.07-.29,8.61-.67,8.62-1.03,.13-8.74,.13-17.47,0-26.21,0-.36,1.45-.74-8.62-1.03h-5.86Z" style="fill:#c5d7e1;"/><path d="M1413.51,25.8v28.27h5.86c10.07-.29,8.61-.67,8.62-1.03,.13-8.74,.13-17.47,0-26.21,0-.36,1.45-.74-8.62-1.03h-5.86Z" style="fill:#c0dcec;"/><path d="M1419.37,25.8v28.27h5.86c10.07-.29,8.61-.67,8.62-1.03,.13-8.74,.13-17.47,0-26.21,0-.36,1.45-.74-8.62-1.03h-5.86Z" style="fill:#c9dff4;"/><path d="M1425.24,25.8v28.27h5.86c10.07-.29,8.61-.67,8.62-1.03,.13-8.74,.13-17.47,0-26.21,0-.36,1.45-.74-8.62-1.03h-5.86Z" style="fill:#dde6f6;"/><path d="M1431.1,25.8v28.27h5.86c10.07-.29,8.61-.67,8.62-1.03,.13-8.74,.13-17.47,0-26.21,0-.36,1.45-.74-8.62-1.03h-5.86Z" style="fill:#f5e4e8;"/><path d="M1436.97,25.8v28.27h5.86c17.3-.82,4.91-1.71,8.73-2.57-.06-8.14,.06-16.28-.17-24.42-.01-.44,3.58-.91-8.56-1.28h-5.86Z" style="fill:#fbe0d8;"/><path d="M1472.15,54.07h5.86c10.07-.29,8.61-.67,8.62-1.03,.13-8.74,.13-17.47,0-26.21,0-.36,1.45-.74-8.62-1.03h-5.86c-12.14,.38-8.55,.84-8.56,1.28-.22,8.08-.13,16.16-.17,24.24,.07,.63-.05,1.26,.13,1.9,.09,.31,.31,.61,8.6,.85Z" style="fill:#f29a84;"/><path d="M1478.02,25.8v28.27h5.86c10.07-.29,8.61-.67,8.62-1.03,.13-8.74,.13-17.47,0-26.21,0-.36,1.45-.74-8.62-1.03h-5.86Z" style="fill:#f7bba9;"/><path d="M1483.88,25.8v28.27h5.86c12.66-.95,2.72-1.94,5.86-2.9,0-8.08,.05-16.15-.15-24.23,0-.38,3.42-.79-5.71-1.14h-5.86Z" style="fill:#eed3c8;"/><path d="M1501.48,54.07V25.8h-5.86c-5.48,.29-2.76,.6-2.77,.91-.17,8.15-.14,16.3-.14,24.44,1.63,.97-3.34,1.95,2.91,2.92h5.86Z" style="fill:#dee7e4;"/><path d="M52.96,25.8v28.27h5.86c10.07-.29,8.61-.67,8.62-1.03,.13-8.74,.13-17.47,0-26.21,0-.36,1.45-.74-8.62-1.03,0,0-5.86,0-5.86,0Z" style="fill:#4093cc;"/><path d="M1519.07,25.8v28.27h5.86c10.07-.29,8.61-.67,8.62-1.03,.13-8.74,.13-17.47,0-26.21,0-.36,1.45-.74-8.62-1.03h-5.86Z" style="fill:#ee8d78;"/><path d="M1524.93,25.8v28.27h5.86c10.07-.29,8.61-.67,8.62-1.03,.13-8.74,.13-17.47,0-26.21,0-.36,1.45-.74-8.62-1.03h-5.86Z" style="fill:#f4a89c;"/><path d="M1530.8,25.8v28.27h5.86c10.07-.29,8.61-.67,8.62-1.03,.13-8.74,.13-17.47,0-26.21,0-.36,1.45-.74-8.62-1.03h-5.86Z" style="fill:#fcdfd0;"/><path d="M1536.66,25.8v28.27h5.86c10.07-.29,8.61-.67,8.62-1.03,.13-8.74,.13-17.47,0-26.21,0-.36,1.45-.74-8.62-1.03h-5.86Z" style="fill:#f4a48f;"/><path d="M1542.53,25.8v28.27h5.86c10.07-.29,8.61-.67,8.62-1.03,.13-8.74,.13-17.47,0-26.21,0-.36,1.45-.74-8.62-1.03h-5.86Z" style="fill:#ec6d57;"/><path d="M1548.39,25.8v28.27h5.86c10.07-.29,8.61-.67,8.62-1.03,.13-8.74,.13-17.47,0-26.21,0-.36,1.45-.74-8.62-1.03h-5.86Z" style="fill:#e95042;"/><path d="M1554.26,25.8v28.27h5.86c10.07-.29,8.61-.67,8.62-1.03,.13-8.74,.13-17.47,0-26.21,0-.36,1.45-.74-8.62-1.03h-5.86Z" style="fill:#e63a2a;"/><path d="M1560.12,25.8v28.27h5.86c10.07-.29,8.61-.67,8.62-1.03,.13-8.74,.13-17.47,0-26.21,0-.36,1.45-.74-8.62-1.03h-5.86Z" style="fill:#f08878;"/><path d="M1565.98,25.8v28.27h5.86c10.07-.29,8.61-.67,8.62-1.03,.13-8.74,.13-17.47,0-26.21,0-.36,1.45-.74-8.62-1.03h-5.86Z" style="fill:#f08a6d;"/><path d="M1571.85,25.8v28.27h5.86c10.07-.29,8.61-.67,8.62-1.03,.13-8.74,.13-17.47,0-26.21,0-.36,1.45-.74-8.62-1.03h-5.86Z" style="fill:#f29464;"/><path d="M1577.71,25.8v28.27h5.86c10.07-.29,8.61-.67,8.62-1.03,.13-8.74,.13-17.47,0-26.21,0-.36,1.45-.74-8.62-1.03h-5.86Z" style="fill:#f08859;"/><path d="M1583.58,25.8v28.27h5.86c8.16-.29,5.76-.64,5.76-.97,.13-8.77,.13-17.55,0-26.32,0-.33,2.4-.68-5.76-.97h-5.86Z" style="fill:#ec6854;"/><path d="M1589.44,25.8v28.27h5.86c5-.23,2.8-.49,2.81-.74,.12-8.93,.12-17.86,0-26.79,0-.25,2.19-.51-2.81-.74h-5.86Z" style="fill:#e94f41;"/><path d="M1595.31,25.8v28.27h5.86V25.8h-5.86Z" style="fill:#e63a2b;"/><path d="M58.82,25.8v28.27h5.86c10.07-.29,8.61-.67,8.62-1.03,.13-8.74,.13-17.47,0-26.21,0-.36,1.45-.74-8.62-1.03,0,0-5.86,0-5.86,0Z" style="fill:#3888c7;"/><path d="M1612.9,25.8v28.27h5.86c10.07-.29,8.61-.67,8.62-1.03,.13-8.74,.13-17.47,0-26.21,0-.36,1.45-.74-8.62-1.03h-5.86Z" style="fill:#ec6f5d;"/><path d="M1618.76,25.8v28.27h5.86c8.16-.29,5.76-.64,5.76-.97,.13-8.77,.13-17.55,0-26.32,0-.33,2.4-.68-5.76-.97h-5.86Z" style="fill:#ea5e45;"/><path d="M1624.63,25.8v28.27h5.86c5-.23,2.8-.49,2.81-.74,.12-8.93,.12-17.86,0-26.79,0-.25,2.19-.51-2.81-.74h-5.86Z" style="fill:#e4452a;"/><path d="M1630.49,25.8v28.27h5.86V25.8h-5.86Z" style="fill:#e74436;"/><path d="M64.69,25.8v28.27h5.86c10.07-.29,8.61-.67,8.62-1.03,.13-8.74,.13-17.47,0-26.21,0-.36,1.45-.74-8.62-1.03h-5.86Z" style="fill:#2773b3;"/><path d="M70.55,25.8v28.27h5.86c10.07-.29,8.61-.67,8.62-1.03,.13-8.74,.13-17.47,0-26.21,0-.36,1.45-.74-8.62-1.03,0,0-5.86,0-5.86,0Z" style="fill:#1b5da0;"/><path d="M1665.68,25.8v28.27h5.86c10.07-.29,8.61-.67,8.62-1.03,.13-8.74,.13-17.47,0-26.21,0-.36,1.45-.74-8.62-1.03h-5.86Z" style="fill:#df3c30;"/><path d="M1671.54,25.8v28.27h5.86c10.07-.29,8.61-.67,8.62-1.03,.13-8.74,.13-17.47,0-26.21,0-.36,1.45-.74-8.62-1.03h-5.86Z" style="fill:#e4382f;"/><path d="M1677.41,25.8v28.27h5.86c8.16-.29,5.76-.64,5.76-.97,.13-8.77,.13-17.55,0-26.32,0-.33,2.4-.68-5.76-.97h-5.86Z" style="fill:#c51718;"/><path d="M1683.27,25.8v28.27h5.86c5-.23,2.8-.49,2.81-.74,.12-8.93,.12-17.86,0-26.79,0-.25,2.19-.51-2.81-.74h-5.86Z" style="fill:#e74135;"/><path d="M1689.14,25.8v28.27h5.86V25.8h-5.86Z" style="fill:#ec6e51;"/><path d="M76.41,25.8v28.27h5.86c8.16-.29,5.76-.64,5.76-.97,.13-8.77,.13-17.55,0-26.32,0-.33,2.4-.68-5.76-.97h-5.86Z" style="fill:#124c8d;"/><path d="M82.28,25.8v28.27h5.86c5-.23,2.8-.49,2.81-.74,.12-8.93,.12-17.86,0-26.79,0-.25,2.19-.51-2.81-.74h-5.86Z" style="fill:#1f3b72;"/><path d="M88.14,25.8v28.27h5.86V25.8h-5.86Z" style="fill:#22315e;"/><path d="M1442.83,25.8v25.74c4.02,.05,7.3,.02,9.84-.08,2-.1,3.29-.2,3.89-.31,1.95-4.56,.46-9.12,.79-13.67,.26-3.5,.16-6.99-.08-10.49-.03-.41,2.94-.85-8.58-1.2h-5.86Z" style="fill:#fbdfd2;"/><path d="M1448.7,25.8c0,8.53,.01,17.05,.02,25.58,4.19,0,7.52-.04,9.99-.14,6.32-.34,4.46-.71,4.47-1.07,.14-7.72,.15-15.45-.03-23.17,0-.41,2.94-.85-8.58-1.2h-5.86Z" style="fill:#f4e5d8;"/><path d="M1454.56,25.8l-.18,25.58c1.89,0,3.78,0,5.67-.01,2.94-.08,4.77-.17,5.48-.28,1.77-6.09,.3-12.19,.73-18.28,.14-2.01,.13-4.03-.08-6.04-.03-.33,2.43-.68-5.76-.97h-5.86Z" style="fill:#dceaeb;"/><path d="M1460.42,25.8c-.01,8.53-.02,17.05-.04,25.58,1.86,0,3.73,0,5.6-.01,2.42-.09,3.48-.19,3.18-.3,.06-8.15,.04-16.29-.09-24.44,0-.27,2.49-.56-2.78-.82h-5.86Z" style="fill:#f2e7e5;"/><path d="M1466.29,25.8c0,8.17,.01,16.33-.04,24.5,0,.36-.59,.73-.91,1.09l3.5,.06,3.31-.06c0-8.53,0-17.05,0-25.58h-5.86Z" style="fill:#ee917f;"/><path d="M1495.6,51.21V25.8s-5.85,0-5.85,0l.23,25.41c1.87,.08,3.75,.09,5.62,0Z" style="fill:#eee8ec;"/><path d="M973.68,54.07c0-3.29,.19-6.57-.29-9.86-.05-.32,6.81-.76-11.44-.91-7.9,.23-5.73,.52-5.75,.8-.19,3.06-.16,6.11-.05,9.17,0,.28-1.18,.57,5.8,.8h11.73Z" style="fill:#c2ddf4;"/><path d="M950.22,43.3c0,3.59,0,7.18,0,10.77h5.86c3.79-.15,2.88-.32,2.87-.49-.2-3.39,.54-6.78-.34-10.17-1.29-.13-4.08-.17-8.38-.11Z" style="fill:#c9d8f0;"/><path d="M956.08,43.3c0,3.59,0,7.18,0,10.77h5.86v-10.77h0c-1.97-.06-3.93-.06-5.88,0h0Z" style="fill:#c5d5ef;"/><path d="M1495.6,51.21h-2.81s-2.81,0-2.81,0c-.07,.95-.15,1.91-.23,2.86h5.86v-2.86Z" style="fill:#eaeaec;"/><path d="M610.14,51.37c-12.55,.88-2.74,1.8-5.93,2.69h5.86c.02-.9,.04-1.8,.06-2.69Z" style="fill:#133f73;"/><path d="M592.49,54.07v-2.48h-5.86v2.48h5.86Z" style="fill:#4a92cc;"/><path d="M1454.38,51.38c-1.89,0-3.77,0-5.66,0l-.03,.17c-4.7,.84-4.72,1.68,.01,2.52h5.86c13.67-.9,13.45-1.8,.15-2.69h-.33Z" style="fill:#fae4d9;"/><path d="M1454.71,51.37c-.05,.9-.1,1.8-.15,2.69h5.86c9.34-.9,9.27-1.8,.05-2.69h-.09c-1.89,0-3.79,0-5.68,0h0Z" style="fill:#d7ecea;"/><path d="M1460.48,51.37c-.02,.9-.03,1.8-.05,2.69h5.86c5.39-.9,3.53-1.8,.92-2.7l-1.88,.02c-1.62,0-3.24,0-4.86,0h0Z" style="fill:#e9ece5;"/><path d="M1467.21,51.36c-.31,.9-.62,1.8-.92,2.7h5.86c0-.9,0-1.79,0-2.69-1.65,0-3.3,0-4.94,0Z" style="fill:#ea9380;"/><path d="M950.22,25.8v1.35c1.52,.05,3.5,.08,5.86,.09,1.13,0,2.25-.02,3.38-.02,.83-.02,1.66-.05,2.49-.07,0-.45,0-.9,0-1.35h-11.73Z" style="fill:#c1dbf2;"/><path d="M1448.7,54.07c0-.84,0-1.68-.01-2.52h-5.85s0,2.52,0,2.52h5.86Z" style="fill:#fad9d1;"/><path d="M1008.86,25.8c2.21,.45-5.17,.93,5.61,1.34,.08-.45,.17-.89,.25-1.34h-5.86Z" style="fill:#9cc8e3;"/><path d="M961.95,40.61c13.67-.08,11.66-.39,11.67-.66,.08-4.05,.08-8.09,0-12.14,0-.27,2-.58-11.67-.66h0c-6.3,.21-5.8,.47-5.8,.72-.05,4.07-.2,8.13,.06,12.2,0,.14,.46,.28,2.1,.41,1.21,.04,2.43,.09,3.64,.13Z" style="fill:#c2ddf4;"/><path d="M956.08,43.3h5.88c0-.9,0-1.8,0-2.69h0c-1.54-.05-3.49-.09-5.86-.1-2.37,.01-4.32,.04-5.86,.1,0,.9,0,1.8,0,2.69,1.95,0,3.9,0,5.85,0h0Z" style="fill:#c1dbf2;"/><path d="M1014.47,40.61c-8.87,.9-9.13,1.79,.19,2.69-.06-.9-.12-1.79-.19-2.69Z" style="fill:#9cc8e3;"/><path d="M950.22,40.6c1.95,0,3.9,0,5.86,0,4.26-.18,2.85-.38,2.85-.57,.07-4.11,.07-8.21,0-12.32,0-.19,1.41-.39-2.85-.57-1.95,0-3.9,0-5.85,0,0,4.49,0,8.97,0,13.46h0Z" style="fill:#c9d8f0;"/><path d="M956.08,27.14c0,4.49,0,8.97,0,13.46,1.95,0,3.91,0,5.86,0v-13.46h-5.87s0,0,0,0Z" style="fill:#c5d5ef;"/></g><line x1="-.01" y1="22.71" x2="1776.02" y2="22.05" style="fill:none; stroke:#4e8eae; stroke-miterlimit:9.13; stroke-width:9.13px;"/><line x1="-.01" y1="13.58" x2="1771.4" y2="13.13" style="fill:none; stroke:#9ac21c; stroke-miterlimit:9.13; stroke-width:9.13px;"/><line x1="-1.02" y1="3.97" x2="1757.27" y2="4.31" style="fill:none; stroke:#9c9b9b; stroke-miterlimit:9.13; stroke-width:10px;"/></svg>