<?xml version="1.0" encoding="utf-8"?>
<!-- Generator: Adobe Illustrator 26.4.1, SVG Export Plug-In . SVG Version: 6.00 Build 0)  -->
<!DOCTYPE svg PUBLIC "-//W3C//DTD SVG 1.1//EN" "http://www.w3.org/Graphics/SVG/1.1/DTD/svg11.dtd" [
	<!ENTITY ns_extend "http://ns.adobe.com/Extensibility/1.0/">
	<!ENTITY ns_ai "http://ns.adobe.com/AdobeIllustrator/10.0/">
	<!ENTITY ns_graphs "http://ns.adobe.com/Graphs/1.0/">
	<!ENTITY ns_vars "http://ns.adobe.com/Variables/1.0/">
	<!ENTITY ns_imrep "http://ns.adobe.com/ImageReplacement/1.0/">
	<!ENTITY ns_sfw "http://ns.adobe.com/SaveForWeb/1.0/">
	<!ENTITY ns_custom "http://ns.adobe.com/GenericCustomNamespace/1.0/">
	<!ENTITY ns_adobe_xpath "http://ns.adobe.com/XPath/1.0/">
]>
<svg version="1.1" id="Layer_1" xmlns:x="&ns_extend;" xmlns:i="&ns_ai;" xmlns:graph="&ns_graphs;"
	 xmlns="http://www.w3.org/2000/svg" xmlns:xlink="http://www.w3.org/1999/xlink" x="0px" y="0px" viewBox="0 0 505.9 500.1"
	 style="enable-background:new 0 0 505.9 500.1;" xml:space="preserve">
<metadata>
	<sfw  xmlns="&ns_sfw;">
		<slices></slices>
		<sliceSourceBounds  bottomLeftOrigin="true" height="514.7" width="736.5" x="-163.5" y="-21.8"></sliceSourceBounds>
	</sfw>
</metadata>
<g>
	<g id="residential">
		<g>
			<path id="Fill-1" style="fill-rule:evenodd;clip-rule:evenodd;fill:#DCE8EF;" d="M414,410.8c-48.3,48.4-109.6,83.9-173.1,86.2
				l-2.3,0.1c-11.5,0.3-23.1-0.5-34.6-2.3c-18.8-2.9-37.4-8.4-55.2-16.3c-0.1,0-0.1,0-0.2-0.1c-5.2-2.3-10.4-4.8-15.5-7.4
				c-18.3-9.6-35.5-21.6-51-35.5c-1.1-1-2.3-2-3.4-3c-4.3-4-8.4-8.1-12.4-12.4C21.4,371.7-3,305.8,5.6,248.6
				c8.6-57.2,50.1-106,95.2-151.5c45-45.6,93.8-88,146.9-92.5c53.1-4.4,110.6,29.2,159,74.9c48.3,45.6,87.5,103,89.4,162.4
				C497.9,301.2,462.4,362.5,414,410.8"/>
			<g>
				<defs>
					<path id="SVGID_1_" d="M414,410.8c-48.3,48.4-109.6,83.9-173.1,86.2l-2.3,0.1c-11.5,0.3-23.1-0.5-34.6-2.3
						c-18.8-2.9-37.4-8.4-55.2-16.3c-0.1,0-0.1,0-0.2-0.1c-5.2-2.3-10.4-4.8-15.5-7.4c-18.3-9.6-35.5-21.6-51-35.5
						c-1.1-1-2.3-2-3.4-3c-4.3-4-8.4-8.1-12.4-12.4C21.4,371.7-3,305.8,5.6,248.6c8.6-57.2,50.1-106,95.2-151.5
						c45-45.6,93.8-88,146.9-92.5c53.1-4.4,110.6,29.2,159,74.9c48.3,45.6,87.5,103,89.4,162.4C497.9,301.2,462.4,362.5,414,410.8"
						/>
				</defs>
				<clipPath id="SVGID_00000105398059551551630380000007045949085321899441_">
					<use xlink:href="#SVGID_1_"  style="overflow:visible;"/>
				</clipPath>
				<g style="clip-path:url(#SVGID_00000105398059551551630380000007045949085321899441_);">
					<g class="clippedArea">
						<path style="fill:#6E9018;" d="M308.5,350.5c5.5-0.5,10.9,0,16,1.2c3.3-16,16.8-28.7,33.9-30.2c0.4,0,0.8-0.1,1.3-0.1
							c3.8-25.1,25.6-44.4,51.8-44.4c20.1,0,37.5,11.3,46.3,27.8c0,0,0,0,0,0c6.1-1.8,12.5-2.9,19.2-2.9c36.2,0,65.5,29.3,65.5,65.5
							c0,4.9-0.5,9.7-1.6,14.3H411.7c-0.1,0-0.2,0-0.3,0c-0.1,0-0.2,0-0.3,0H267C273.5,364.9,289.2,352.2,308.5,350.5L308.5,350.5z"
							/>
						<path style="fill:#92C020;" d="M-42.1,327.7c8.2-0.9,16.3,0,23.9,2.1c4.9-27.8,25-49.8,50.7-52.4c0.6-0.1,1.3-0.1,1.9-0.1
							c5.7-43.7,38.2-77.1,77.4-77.1c30,0,56,19.6,69.2,48.4c0,0,0,0,0,0c9.1-3.2,18.7-5,28.7-5c54.1,0,97.9,50.9,97.9,113.8
							c0,8.5-0.8,16.8-2.3,24.8H112.1c-0.1,0-0.3,0-0.4,0c-0.1,0-0.3,0-0.4,0h-215.5C-94.5,352.6-71,330.6-42.1,327.7L-42.1,327.7z"
							/>
						<g>
							<rect x="-159.7" y="389.3" style="fill:#9B8579;" width="732.5" height="129.6"/>
							<rect x="255.6" y="360.3" style="fill:#92C020;" width="321.3" height="53.2"/>
							<rect x="-159.7" y="360.3" style="fill:#999999;" width="423.5" height="53.2"/>
						</g>
						<g>
							<rect x="47.6" y="244.7" style="fill:#F2F2F2;" width="128.5" height="117.3"/>
							<g>
								<g>
									<g>
										<rect x="67.4" y="274.2" style="fill:#63849C;" width="89.8" height="53.2"/>
										<path style="fill:#6D6E71;" d="M157.2,274.2v53.2H67.4v-53.2H157.2 M162.8,268.9H61.7v63.7h101.1L162.8,268.9L162.8,268.9
											L162.8,268.9z"/>
									</g>
									<polygon style="fill:#95B3C6;" points="112,274.2 67.4,315.8 67.4,288.5 82.7,274.2 									"/>
									<polygon style="fill:#95B3C6;" points="133.2,274.2 76.2,327.4 67.4,327.4 67.4,322.6 119.3,274.2 									"/>
								</g>
								<g style="opacity:0.22;">
									<rect x="67.4" y="280" style="fill:#95B3C6;" width="73.1" height="47.4"/>
								</g>
							</g>
							<rect x="44.1" y="245.7" style="fill:#6D6E71;" width="131.5" height="12.7"/>
							<rect x="89.8" y="342.1" style="fill:#CCCCCC;" width="20.3" height="5.2"/>
							<rect x="100" y="348.2" style="fill:#CCCCCC;" width="20.3" height="5.2"/>
							<polygon style="opacity:0.6;fill:#CCCCCC;enable-background:new    ;" points="176.3,361.9 128.9,362.1 175.2,247.9 							
								"/>
							<polygon style="fill:#999999;" points="176.1,246.6 40.1,246.6 59.8,187.7 176.4,187.7 							"/>
						</g>
						<g>
							<rect x="176" y="145.4" style="fill:#FFFFFF;" width="211.1" height="223.8"/>
							<rect x="176" y="338.7" style="fill:#CCCCCC;" width="211.1" height="30.6"/>
							<rect x="171.2" y="151.8" style="fill:#6D6E71;" width="220.8" height="12.7"/>
							<polygon style="fill:#999999;" points="399.5,155.3 163.7,155.3 166,148.4 176.4,117.3 189.8,77.5 373.3,77.5 377.8,90.9 
								397.1,148.4 							"/>
							<rect x="215.4" y="50.9" style="fill:#FFFFFF;" width="28.8" height="26.6"/>
							<rect x="211.7" y="47.1" style="fill:#6D6E71;" width="36.1" height="7.5"/>
							<g>
								<g>
									<rect x="202.2" y="274.5" style="fill:#4D4D4D;" width="44.5" height="84.1"/>
									<path style="fill:#6D6E71;" d="M246.6,274.5v84.1h-44.5v-84.1 M251.1,270h-53.4v93.1h53.4V270L251.1,270z"/>
								</g>
								<rect x="202.2" y="276.7" style="fill:#6D6E71;" width="42.3" height="82"/>
								<path style="fill:#4D4D4D;" d="M211.5,318.7c0,1.4-1.2,2.6-2.6,2.6s-2.6-1.2-2.6-2.6s1.2-2.6,2.6-2.6
									S211.5,317.3,211.5,318.7z"/>
								<path style="fill:#FFFFFF;" d="M212.6,317.6c0,1.4-1.2,2.6-2.6,2.6c-1.4,0-2.6-1.2-2.6-2.6s1.2-2.6,2.6-2.6
									C211.4,315.1,212.6,316.2,212.6,317.6z"/>
								<rect x="194.7" y="358.2" style="fill:#B3B3B3;" width="59.5" height="8"/>
								<rect x="190.2" y="366.3" style="fill:#B3B3B3;" width="68.4" height="8.1"/>
							</g>
							<polygon style="opacity:0.6;fill:#CCCCCC;enable-background:new    ;" points="315.1,369.3 258.6,369.3 258.6,374.3 
								222.4,374.3 224.7,369.3 226.1,366.3 269.9,269.5 							"/>
							<rect x="269.9" y="280.3" style="fill:#FFFFFF;" width="106.3" height="94"/>
							<rect x="358" y="180.3" style="fill:#CCCCCC;" width="20.3" height="5.2"/>
							<polygon style="fill:#999999;" points="382.1,283.8 262.1,283.8 267,269.5 377.3,269.5 380,277.5 							"/>
							<g>
								<g>
									<g>
										<g>
											<rect x="272.9" y="195.1" style="fill:#63849C;" width="87" height="55.3"/>
											<path style="fill:#6D6E71;" d="M359.9,195.1v55.3h-87v-55.3H359.9 M364.4,190.6h-96v64.2h96V190.6L364.4,190.6z"/>
										</g>
										<polygon style="fill:#95B3C6;" points="316.6,195.1 272.9,238.8 272.9,215.6 293.4,195.1 										"/>
										<polygon style="fill:#95B3C6;" points="333.3,195.1 278,250.4 272.9,250.4 272.9,244.5 322.3,195.1 										"/>
									</g>
									<rect x="314.3" y="195.1" style="fill:#6D6E71;" width="4.5" height="55.3"/>
								</g>
								<g style="opacity:0.22;">
									<rect x="272.9" y="201.2" style="fill:#95B3C6;" width="28.5" height="49.2"/>
								</g>
								<g style="opacity:0.22;">
									<rect x="318.8" y="201.2" style="fill:#95B3C6;" width="28.5" height="49.2"/>
								</g>
							</g>
							<g>
								<g>
									<g>
										<rect x="287.6" y="295.4" style="fill:#63849C;" width="70.9" height="45"/>
										<path style="fill:#6D6E71;" d="M358.5,295.4v45h-70.9v-45L358.5,295.4 M363,291h-79.9v54H363V291L363,291z"/>
									</g>
									<polygon style="fill:#95B3C6;" points="322.9,295.4 287.6,330.7 287.6,307.5 299.7,295.4 									"/>
									<polygon style="fill:#95B3C6;" points="339.6,295.4 294.5,340.5 287.6,340.5 287.6,336.4 328.6,295.4 									"/>
								</g>
								<g style="opacity:0.22;">
									<rect x="287.6" y="300.3" style="fill:#95B3C6;" width="57.8" height="40.1"/>
								</g>
							</g>
							<g>
								<g>
									<g>
										<rect x="203.2" y="195.1" style="fill:#63849C;" width="42.3" height="55.3"/>
										<path style="fill:#6D6E71;" d="M245.6,195.1v55.3h-42.3v-55.3H245.6 M250.1,190.6h-51.3v64.2h51.3V190.6L250.1,190.6z"/>
									</g>
									<polygon style="fill:#95B3C6;" points="242.5,195.1 203.2,234.4 203.2,211.2 219.4,195.1 									"/>
									<polygon style="fill:#95B3C6;" points="245.6,197.8 245.6,208.8 203.9,250.4 203.2,250.4 203.2,240.1 									"/>
								</g>
								<g style="opacity:0.22;">
									<rect x="203.2" y="201.2" style="fill:#95B3C6;" width="28.5" height="49.2"/>
								</g>
							</g>
							<rect x="290" y="354.4" style="fill:#CCCCCC;" width="20.3" height="5.2"/>
							<rect x="300.2" y="360.5" style="fill:#CCCCCC;" width="20.3" height="5.2"/>
						</g>
					</g>
				</g>
			</g>
		</g>
	</g>
</g>
</svg>
